<?xml version="1.0" standalone="no"?>
<!DOCTYPE svg PUBLIC "-//W3C//DTD SVG 20010904//EN"
 "http://www.w3.org/TR/2001/REC-SVG-20010904/DTD/svg10.dtd">
<svg version="1.0" xmlns="http://www.w3.org/2000/svg"
 width="706.000000pt" height="706.000000pt" viewBox="0 0 706.000000 706.000000"
 preserveAspectRatio="xMidYMid meet">
<metadata>
Created by potrace 1.11, written by Peter Selinger 2001-2013
</metadata>
<g transform="translate(0.000000,706.000000) scale(0.100000,-0.100000)"
fill="#000000" stroke="none">
<path d="M2654 6252 c2 -4 -24 -7 -57 -8 -34 0 -87 -4 -117 -8 -30 -5 -63 -8
-72 -8 -10 1 -18 -2 -18 -6 0 -4 -10 -8 -22 -8 -24 -2 -83 -12 -83 -14 0 -2
-31 -8 -65 -13 -11 -2 -23 -7 -27 -12 -5 -4 -1 -5 7 0 8 5 12 4 7 0 -4 -5 -24
-10 -45 -11 -20 -1 -38 -3 -39 -4 -2 -1 -7 -4 -13 -5 -5 -1 -12 -4 -15 -5 -3
-1 -8 -3 -12 -4 -31 -7 -90 -30 -98 -39 -7 -7 -5 -7 4 -2 10 6 12 4 7 -4 -6
-8 -12 -9 -20 -2 -18 15 -28 1 -13 -17 11 -13 9 -14 -11 -1 -14 9 -25 10 -30
4 -4 -5 -14 -10 -22 -10 -8 0 -14 -6 -12 -13 1 -8 -1 -11 -6 -8 -17 10 -92
-16 -93 -33 0 -9 -3 -11 -5 -4 -5 12 -41 -4 -104 -46 -14 -9 -37 -23 -52 -30
-15 -8 -37 -22 -47 -33 -11 -10 -23 -18 -25 -18 -5 0 -29 -18 -60 -45 -6 -5
-23 -16 -38 -24 -15 -8 -25 -18 -22 -23 3 -4 0 -8 -6 -8 -14 0 -260 -248 -260
-262 0 -4 -14 -20 -31 -37 -17 -18 -29 -38 -25 -46 3 -8 0 -12 -7 -9 -7 2 -21
-9 -30 -26 -10 -17 -35 -46 -56 -65 -20 -19 -52 -65 -71 -102 -19 -37 -39 -71
-45 -75 -5 -4 -6 -8 -1 -8 5 0 2 -8 -7 -17 -8 -10 -16 -21 -16 -26 0 -4 -7
-20 -15 -36 -9 -16 -12 -31 -9 -35 4 -3 1 -6 -5 -6 -9 0 -25 -31 -27 -53 0 -4
-6 -11 -13 -16 -8 -5 -13 -11 -13 -15 1 -16 -12 -66 -18 -66 -10 0 -35 -90
-33 -118 1 -12 -3 -20 -8 -17 -9 6 -14 -16 -13 -52 1 -7 -4 -13 -9 -13 -6 0
-8 -6 -5 -14 3 -8 3 -17 -1 -20 -3 -4 -7 -12 -8 -19 -1 -7 -5 -28 -9 -47 -4
-19 -8 -48 -11 -65 -2 -16 -5 -41 -8 -55 -2 -14 -7 -50 -11 -80 -3 -30 -8 -71
-11 -90 -3 -19 -5 -97 -6 -173 -1 -129 -2 -139 -22 -150 -12 -6 -23 -12 -26
-12 -14 -3 -70 -41 -70 -47 0 -5 -6 -8 -14 -8 -7 0 -32 -17 -55 -39 -22 -21
-41 -37 -41 -34 0 2 -14 -9 -31 -26 -17 -17 -35 -31 -41 -31 -6 0 -9 -2 -6 -5
3 -3 -14 -27 -38 -52 -24 -25 -44 -54 -44 -63 0 -9 -5 -21 -11 -27 -6 -6 -11
-17 -13 -24 -2 -16 -33 -66 -58 -93 -10 -11 -18 -26 -18 -33 0 -7 -5 -13 -10
-13 -6 0 -16 -12 -23 -27 -6 -16 -14 -30 -17 -33 -3 -3 -11 -15 -18 -28 -10
-18 -11 -27 -1 -38 10 -12 9 -13 -5 -8 -15 6 -18 2 -20 -28 -1 -7 -5 -16 -9
-19 -4 -3 -9 -16 -10 -27 -1 -12 -6 -22 -11 -22 -5 0 -1 -7 10 -15 16 -13 16
-14 2 -9 -18 6 -20 3 -21 -48 -1 -16 -5 -28 -10 -28 -5 0 -5 -6 2 -13 8 -10 7
-17 -1 -25 -9 -9 -9 -12 1 -12 7 0 10 -4 6 -10 -9 -14 -13 -243 -5 -260 5 -8
11 -31 15 -50 4 -19 9 -47 12 -63 3 -15 9 -30 14 -33 5 -3 9 -14 9 -24 0 -27
74 -164 123 -230 72 -96 180 -187 302 -256 17 -10 20 -23 22 -95 2 -78 7 -146
17 -194 2 -11 7 -40 11 -65 4 -25 12 -51 17 -57 6 -7 8 -13 5 -13 -8 0 36
-126 68 -195 26 -55 101 -183 115 -195 3 -3 14 -18 24 -34 25 -40 207 -225
227 -231 8 -3 25 -14 36 -25 35 -32 211 -138 243 -145 3 -1 16 -6 30 -12 109
-48 247 -85 369 -99 111 -13 385 -5 412 12 4 2 26 6 49 9 24 3 47 8 51 11 5 3
19 7 31 10 13 3 28 6 33 8 6 2 24 6 40 11 17 4 35 11 40 15 6 4 21 11 35 15
58 17 207 99 325 179 70 47 133 86 141 86 8 0 14 5 14 10 0 6 6 10 13 10 18 0
78 66 69 76 -4 4 -2 4 5 0 6 -3 16 1 21 10 8 14 16 9 58 -30 27 -25 54 -46 61
-46 6 0 13 -4 15 -8 5 -13 118 -87 186 -121 34 -17 62 -37 62 -44 0 -8 -3 -9
-8 -1 -7 10 -39 26 -45 21 -2 -1 -11 6 -21 16 -10 9 -22 15 -27 12 -5 -4 -9
-2 -9 3 0 5 -18 17 -40 28 -22 10 -40 22 -40 27 0 4 -9 7 -19 7 -10 0 -21 7
-25 15 -3 8 -11 15 -18 15 -7 0 -24 10 -38 23 -14 12 -34 29 -45 37 -17 13
-18 13 -10 0 19 -31 59 -70 71 -70 8 0 11 -6 7 -17 -4 -11 -3 -14 5 -9 7 4 12
2 12 -3 0 -6 6 -11 14 -11 8 0 17 -7 20 -16 3 -8 10 -13 15 -10 5 4 12 0 14
-6 4 -10 8 -9 17 2 10 13 11 12 6 -3 -4 -13 0 -20 14 -24 11 -3 20 -9 20 -14
0 -5 7 -9 15 -9 8 0 15 -5 15 -11 0 -5 5 -7 10 -4 6 3 10 1 10 -6 0 -6 8 -9
20 -6 11 3 18 1 15 -3 -3 -5 -1 -11 5 -15 5 -3 10 0 10 7 0 8 4 6 11 -4 5 -10
30 -23 54 -29 25 -6 45 -15 45 -20 0 -5 7 -6 15 -3 8 4 15 2 15 -3 0 -6 16 -9
34 -8 19 1 33 -2 30 -7 -3 -4 5 -8 18 -9 13 0 32 -3 43 -5 11 -2 47 -7 80 -10
33 -3 63 -7 67 -7 3 -1 6 3 7 8 0 6 -5 10 -12 10 -6 0 -16 3 -22 6 -5 4 -18 5
-27 4 -10 -2 -18 1 -18 7 0 6 -7 4 -17 -3 -11 -10 -14 -10 -9 -1 5 8 0 12 -13
12 -12 0 -23 0 -26 0 -3 0 -25 9 -50 20 -57 24 -56 24 -66 8 -6 -10 -9 -8 -9
7 0 17 -2 17 -10 5 -8 -13 -10 -12 -10 3 0 17 20 23 34 9 4 -4 11 -7 14 -8 4
0 34 -6 67 -14 87 -20 85 -19 145 -27 124 -15 379 -2 450 23 8 3 26 8 39 10
60 12 273 95 291 114 3 3 25 16 50 29 25 13 97 63 160 110 63 47 118 84 123
83 4 -1 7 5 7 14 0 15 2 15 25 0 209 -137 458 -211 700 -209 51 0 192 12 219
18 12 3 32 7 46 9 28 5 155 43 185 55 11 5 40 17 65 27 25 10 57 26 72 36 14
10 29 18 32 18 9 0 241 155 287 191 20 16 42 29 49 29 6 0 8 5 5 10 -3 6 -2
10 2 10 20 0 135 120 130 135 -4 8 -1 17 5 21 6 4 8 3 4 -4 -3 -6 -2 -13 4
-17 5 -3 10 -1 10 5 0 6 9 21 20 33 11 12 18 27 15 35 -2 7 -1 11 4 8 13 -8
64 62 57 79 -3 8 0 12 7 9 16 -6 112 190 101 207 -4 8 -3 9 4 5 8 -5 12 0 12
13 0 11 5 23 10 26 6 4 8 10 5 15 -3 5 -1 11 5 15 16 10 2 25 -18 19 -14 -5
-14 -4 -2 4 8 6 18 8 22 6 4 -3 9 0 9 5 1 6 2 14 3 19 30 119 43 287 25 309
-10 12 -10 15 -1 9 9 -5 11 5 10 43 -2 28 -7 51 -12 51 -5 0 -3 6 3 13 6 8 8
17 5 20 -4 4 -8 19 -11 34 -2 15 -5 37 -6 48 -2 12 -7 27 -11 34 -4 7 -5 15
-2 18 3 3 1 12 -6 20 -6 8 -13 28 -15 45 -2 18 -12 47 -23 65 -11 19 -20 41
-20 50 0 8 -9 27 -20 43 -11 15 -17 30 -13 34 3 3 -2 6 -13 6 -16 0 -17 2 -4
10 8 5 10 10 4 10 -6 0 -22 21 -35 46 -13 26 -31 52 -41 58 -10 6 -18 16 -18
23 0 16 -42 59 -53 55 -5 -1 -6 2 -3 6 3 5 -7 20 -23 33 -16 13 -30 29 -32 34
-1 6 -14 19 -28 30 -14 10 -30 25 -34 32 -5 8 -12 11 -18 8 -5 -4 -9 1 -9 10
0 12 -5 15 -17 11 -10 -4 -14 -4 -11 0 8 7 -45 54 -61 54 -6 0 -11 5 -11 11 0
6 -7 8 -17 5 -10 -4 -14 -4 -10 0 7 8 -72 60 -85 56 -5 -1 -8 3 -8 10 0 6 -3
9 -6 5 -4 -3 -13 1 -21 9 -11 11 -12 18 -4 28 6 7 13 28 15 47 3 19 5 34 6 34
1 0 3 9 5 20 9 45 9 71 1 84 -6 9 -5 12 2 8 6 -5 11 12 14 48 1 30 -1 55 -7
55 -5 0 -4 5 3 12 13 13 16 32 4 24 -4 -2 -8 4 -8 14 0 10 4 16 8 14 4 -3 8 0
8 5 0 6 -3 11 -7 11 -5 0 -9 28 -9 63 -2 79 -9 140 -18 155 -4 7 -4 12 0 12 3
0 -1 12 -11 26 -9 15 -12 23 -5 19 9 -6 10 -1 4 16 -4 13 -7 30 -7 37 0 7 -7
10 -15 7 -13 -5 -13 -3 -2 11 11 12 11 17 1 23 -6 4 -11 12 -10 17 4 15 -23
94 -33 94 -4 0 -7 3 -7 8 5 28 -1 34 -18 21 -16 -13 -17 -12 -5 3 11 14 10 24
-9 65 -31 69 -90 163 -99 158 -4 -3 -7 3 -6 13 0 9 -5 16 -11 15 -7 -2 -12 0
-12 5 3 20 -2 32 -13 26 -6 -4 -8 -3 -5 4 7 11 -10 34 -84 113 -26 27 -52 49
-58 49 -7 0 -10 4 -6 9 7 12 -35 42 -48 34 -6 -3 -7 -2 -4 4 6 9 -67 79 -81
77 -4 -1 -17 9 -29 23 -13 13 -23 20 -23 16 0 -4 -4 -3 -8 3 -12 19 -83 55
-94 48 -6 -4 -8 -2 -4 4 3 6 -8 17 -25 26 -38 19 -53 20 -43 4 4 -7 3 -8 -5
-4 -6 4 -9 12 -6 17 4 5 -7 14 -22 20 -15 7 -48 21 -73 32 -25 11 -55 20 -67
21 -13 0 -23 3 -23 7 0 6 -51 21 -80 23 -8 0 -17 3 -20 6 -12 13 -95 28 -101
18 -5 -7 -8 -7 -10 0 -4 11 -22 15 -112 27 -38 4 -47 3 -41 -7 6 -11 5 -11 -8
0 -17 14 -158 22 -158 8 0 -5 -6 -3 -13 3 -8 6 -16 8 -20 5 -3 -3 -32 -7 -65
-8 -32 -2 -64 -6 -71 -10 -7 -5 -15 -5 -18 -2 -3 3 -15 1 -26 -5 -11 -6 -17
-7 -13 -1 3 5 -8 28 -24 51 -17 22 -28 41 -24 41 3 0 -1 7 -9 15 -8 8 -25 30
-37 50 -12 19 -26 33 -31 30 -5 -4 -6 1 -3 9 4 11 -2 19 -17 25 -13 5 -18 10
-11 10 10 1 10 4 -2 16 -8 8 -19 15 -25 15 -6 0 -10 3 -9 8 2 4 -7 20 -19 36
-13 16 -23 25 -23 20 -1 -5 -8 4 -16 19 -8 15 -19 25 -25 22 -5 -4 -8 -1 -7 7
2 7 -3 12 -9 11 -7 -2 -12 1 -10 5 2 10 -54 72 -66 72 -5 0 -5 -5 -1 -12 4 -7
3 -8 -5 -4 -6 4 -9 12 -5 17 7 12 -27 40 -39 32 -4 -2 -6 0 -5 5 4 14 -44 53
-58 48 -7 -3 -11 0 -8 7 2 7 -8 20 -23 29 -51 32 -67 43 -87 61 -11 10 -26 15
-34 12 -7 -2 -11 -1 -8 4 8 12 -63 53 -76 45 -7 -4 -8 -2 -4 4 10 16 -6 15
-24 0 -12 -11 -12 -10 -1 5 12 15 9 21 -11 18 -5 0 -8 4 -8 10 0 5 -4 7 -10 4
-5 -3 -10 -1 -10 4 0 6 -7 11 -15 11 -8 0 -15 5 -15 11 0 6 -6 9 -14 6 -8 -3
-16 -1 -18 5 -2 5 -18 16 -36 24 -22 9 -31 10 -26 2 4 -7 -6 -3 -22 8 -33 23
-114 57 -114 48 0 -4 -6 -2 -12 3 -26 20 -77 32 -82 20 -2 -7 -5 -5 -5 4 -1
11 -9 16 -23 15 -13 -1 -27 1 -33 4 -14 9 -86 29 -107 30 -52 3 -68 6 -68 13
0 5 -6 7 -12 4 -7 -2 -21 0 -30 5 -13 6 -18 5 -18 -4 0 -10 -2 -10 -9 1 -6 9
-18 11 -36 7 -18 -5 -24 -3 -20 4 4 7 -5 11 -27 11 -18 -1 -111 1 -206 4 -95
2 -171 1 -168 -3z m136 -12 c0 -5 -2 -10 -4 -10 -3 0 -8 5 -11 10 -3 6 -1 10
4 10 6 0 11 -4 11 -10z m40 6 c0 -3 -4 -8 -10 -11 -5 -3 -10 -1 -10 4 0 6 5
11 10 11 6 0 10 -2 10 -4z m-685 -126 c3 -5 1 -10 -4 -10 -6 0 -11 5 -11 10 0
6 2 10 4 10 3 0 8 -4 11 -10z m-578 -255 c0 -8 -4 -12 -9 -9 -5 3 -6 10 -3 15
9 13 12 11 12 -6z m-37 -29 c0 -2 -8 -10 -17 -17 -16 -13 -17 -12 -4 4 13 16
21 21 21 13z m2950 -452 c0 -8 -19 -13 -24 -6 -3 5 1 9 9 9 8 0 15 -2 15 -3z
m-3425 -44 c-3 -5 -12 -10 -18 -10 -7 0 -6 4 3 10 19 12 23 12 15 0z m4320
-160 c3 -6 -1 -7 -9 -4 -18 7 -21 14 -7 14 6 0 13 -4 16 -10z m695 -574 c0 -3
-4 -8 -10 -11 -5 -3 -10 -1 -10 4 0 6 5 11 10 11 6 0 10 -2 10 -4z m90 -142
c0 -8 -19 -13 -24 -6 -3 5 1 9 9 9 8 0 15 -2 15 -3z m51 -161 c13 -16 12 -17
-3 -4 -10 7 -18 15 -18 17 0 8 8 3 21 -13z m-5592 -362 c10 -7 7 -9 -12 -8
-14 1 -23 5 -20 10 6 9 15 9 32 -2z m-123 -79 c-17 -16 -18 -16 -5 5 7 12 15
20 18 17 3 -2 -3 -12 -13 -22z m94 18 c0 -5 -2 -10 -4 -10 -3 0 -8 5 -11 10
-3 6 -1 10 4 10 6 0 11 -4 11 -10z m5690 -196 c0 -8 -19 -13 -24 -6 -3 5 1 9
9 9 8 0 15 -2 15 -3z m-10 -44 c0 -5 -5 -10 -11 -10 -5 0 -7 5 -4 10 3 6 8 10
11 10 2 0 4 -4 4 -10z m477 -575 c0 -8 -4 -12 -9 -9 -5 3 -6 10 -3 15 9 13 12
11 12 -6z m121 -290 c-3 -3 -9 2 -12 12 -6 14 -5 15 5 6 7 -7 10 -15 7 -18z
m62 -175 c0 -5 -5 -10 -11 -10 -5 0 -7 5 -4 10 3 6 8 10 11 10 2 0 4 -4 4 -10z
m-20 -394 c0 -3 -4 -8 -10 -11 -5 -3 -10 -1 -10 4 0 6 5 11 10 11 6 0 10 -2
10 -4z m-65 -206 c3 -5 1 -10 -4 -10 -6 0 -11 5 -11 10 0 6 2 10 4 10 3 0 8
-4 11 -10z m-3415 -1011 c0 -4 -5 -11 -10 -14 -6 -4 -9 -1 -8 6 2 7 -1 14 -7
15 -27 5 -55 17 -55 24 0 5 18 1 40 -7 22 -9 40 -20 40 -24z"/>
<path d="M690 4798 c-11 -24 -20 -50 -20 -58 0 -9 -5 -21 -12 -28 -7 -7 -9
-12 -5 -12 4 0 1 -13 -7 -29 -9 -16 -12 -31 -9 -35 4 -3 1 -6 -4 -6 -6 0 -10
-8 -8 -17 1 -10 -1 -25 -6 -34 -14 -28 -36 -158 -24 -147 4 4 9 18 10 30 3 24
41 155 70 243 39 119 44 135 39 135 -3 0 -14 -19 -24 -42z"/>
<path d="M609 4193 c-4 -117 -4 -151 1 -148 8 5 13 175 5 175 -3 0 -5 -12 -6
-27z"/>
<path d="M6730 3204 c0 -4 8 -14 18 -23 9 -9 30 -36 47 -60 16 -24 31 -38 33
-32 2 7 -5 20 -17 30 -12 10 -21 22 -21 27 -1 10 -46 64 -55 64 -3 0 -5 -3 -5
-6z"/>
<path d="M6830 3066 c0 -2 7 -9 15 -16 13 -11 14 -10 9 4 -5 14 -24 23 -24 12z"/>
<path d="M7049 2158 c-5 -15 -9 -61 -5 -58 6 7 16 60 10 60 -2 0 -4 -1 -5 -2z"/>
<path d="M7030 2059 c0 -5 5 -7 10 -4 6 3 10 8 10 11 0 2 -4 4 -10 4 -5 0 -10
-5 -10 -11z"/>
<path d="M6936 1911 c-13 -20 -25 -61 -18 -61 4 0 12 16 18 35 11 34 11 44 0
26z"/>
<path d="M6885 1791 c-8 -17 -12 -31 -8 -31 9 0 35 52 29 58 -3 2 -12 -10 -21
-27z"/>
<path d="M6860 1730 c-6 -11 -8 -20 -6 -20 3 0 10 9 16 20 6 11 8 20 6 20 -3
0 -10 -9 -16 -20z"/>
<path d="M6554 1454 c-38 -42 -71 -79 -74 -82 -14 -18 48 38 74 67 17 19 36
39 41 45 20 22 37 46 33 46 -3 0 -36 -34 -74 -76z"/>
<path d="M6380 1212 c-14 -9 -27 -20 -30 -23 -3 -4 -33 -23 -67 -43 -35 -20
-63 -39 -63 -41 0 -6 120 60 139 77 9 7 27 21 41 31 32 22 13 21 -20 -1z"/>
<path d="M6205 1196 c-11 -7 -22 -13 -25 -13 -3 0 -23 -9 -45 -20 -38 -19
-112 -47 -127 -48 -16 0 -11 -20 5 -23 9 -2 17 2 17 8 0 6 4 9 9 5 5 -3 12 -1
16 5 4 6 10 8 15 5 5 -3 14 0 22 7 7 7 22 14 32 16 10 2 25 9 32 16 7 7 26 19
43 26 17 7 31 16 31 21 0 12 -2 11 -25 -5z"/>
<path d="M4870 1176 c0 -2 8 -10 18 -17 15 -13 16 -12 3 4 -13 16 -21 21 -21
13z"/>
<path d="M5935 1086 c-16 -7 -47 -16 -67 -20 -21 -4 -38 -11 -38 -16 0 -5 12
-6 28 -3 15 3 35 6 44 7 10 1 21 5 24 9 4 4 16 7 26 7 13 0 17 4 12 13 -6 9
-5 9 8 0 15 -13 32 -7 22 8 -7 12 -23 11 -59 -5z"/>
<path d="M5786 1041 c-4 -5 1 -8 9 -7 21 3 31 16 12 16 -9 0 -18 -4 -21 -9z"/>
<path d="M3290 911 c0 -9 51 -34 57 -27 2 2 -10 11 -26 19 -17 9 -31 12 -31 8z"/>
<path d="M3360 876 c0 -2 9 -6 20 -9 11 -3 18 -1 14 4 -5 9 -34 13 -34 5z"/>
<path d="M3415 860 c3 -4 14 -10 25 -13 11 -3 18 -2 15 3 -3 4 -14 10 -25 13
-11 3 -18 2 -15 -3z"/>
</g>
</svg>
