<?xml version="1.0" encoding="utf-8"?>
<!-- Generator: Adobe Illustrator 24.2.0, SVG Export Plug-In . SVG Version: 6.00 Build 0)  -->
<svg version="1.1" id="Warstwa_1" xmlns="http://www.w3.org/2000/svg" xmlns:xlink="http://www.w3.org/1999/xlink" x="0px" y="0px"
	 viewBox="0 0 172.5 164" style="enable-background:new 0 0 172.5 164;" xml:space="preserve">
<style type="text/css">
	.st0{fill:#2B2F35;}
	.st1{fill:#46BC8F;}
	.st2{fill:#68E0B7;}
	.st3{opacity:0.48;}
	.st4{fill:#9AF4D2;}
</style>
<g>
	<g>
		<path class="st0" d="M115.8,136.2c-4.5,1.1-9.1,1.8-13.7,2.3c-0.1,0-0.1,0-0.2,0c-6.3-2.8-12-6.8-15.8-12.8
			c-0.8-1.2-2.7-0.1-1.9,1.1c4.3,6.6,10.6,10.9,17.5,14c2,4.1,4.2,8.1,6.7,11.9c0.8,1.2,2.7,0.1,1.9-1.1c-2-3.1-3.8-6.3-5.5-9.5
			c3.1,1.2,6.4,2.1,9.6,2.9c1.4,0.3,2-1.8,0.6-2.2c-2.9-0.7-5.9-1.6-8.8-2.6c3.4-0.5,6.8-1.1,10.2-1.9
			C117.8,138,117.2,135.8,115.8,136.2z"/>
		<path class="st0" d="M96.9,151.5c-4.6-1.1-9.1-2.5-13.6-4.2c0,0,0,0,0,0c-4.3-5.3-7.6-11.4-8.5-18.4c-0.2-1.4-2.4-1.4-2.3,0
			c0.9,7.8,4.6,14.5,9.5,20.4c-0.1,4.5,0.1,9.1,0.7,13.6c0.1,0.6,0.5,1.1,1.1,1.1c0.6,0,1.2-0.5,1.1-1.1c-0.4-3.7-0.7-7.4-0.7-11.1
			c2.3,2.4,4.7,4.7,7.2,6.9c1.1,0.9,2.7-0.7,1.6-1.6c-2.3-2-4.6-4.1-6.7-6.3c3.2,1.1,6.6,2.1,9.9,2.8
			C97.7,154,98.3,151.8,96.9,151.5z"/>
	</g>
	<g>
		<path class="st1" d="M31.1,7.7L1.2,1C0.3,0.8-0.3,1.9,0.3,2.6l20.3,22.1c0.4,0.5,1.2,0.4,1.5-0.1l9.5-15.5
			C32,8.6,31.7,7.8,31.1,7.7z"/>
	</g>
	<g>
		<path class="st2" d="M54.7,63c1.7-2.9,3.2-6,4.6-9.3C69.3,29.8,67.4,6.3,55,1c-12.4-5.2-30.6,9.8-40.7,33.7
			c-2.8,6.7-4.7,13.4-5.7,19.7c-0.9,4.3-1.5,8.7-1.5,13.3c-0.1,35,28.1,63.4,63.1,63.5c25.4,0.1,47.3-14.8,57.5-36.3L54.7,63z"/>
	</g>
	<g>
		<path class="st2" d="M34,50.9L129,12c0,0,16.8,25.4-24.3,46.6S37.7,70.4,37.7,70.4L34,50.9L34,50.9z"/>
	</g>
	<g class="st3">
		<path class="st4" d="M72.4,66.4l-1.6,0.3C70.8,66.8,71.4,66.7,72.4,66.4z"/>
	</g>
	<g>
		<path class="st4" d="M104.8,58.5C145.8,37.4,129,12,129,12l-13.6,5.6c1.4,4.5,1.7,9.9-2.6,14.2c-9,9-19,4-20,18
			C92,61.4,77.4,65.4,72.4,66.4l26-4.8C100.5,60.7,102.6,59.7,104.8,58.5z"/>
	</g>
	<g>
		
			<rect x="118.4" y="56.4" transform="matrix(0.2886 -0.9574 0.9574 0.2886 -7.992 193.7033)" class="st2" width="16" height="91.6"/>
	</g>
	<g>
		<path class="st2" d="M64.2,59.7l74.3-10.4c0,0,7.3,21-25.6,28.6s-49.7-3.7-49.7-3.7L64.2,59.7L64.2,59.7z"/>
	</g>
	<g>
		<path class="st4" d="M138.5,49.4l-12.2,1.7c-0.3,3.9-1.8,7.9-6,10.5c-10.9,6.5-19.4-0.8-23.8,12.5c-0.9,2.8-2.6,4.9-4.6,6.5
			c6-0.1,13-0.8,21-2.6C145.8,70.4,138.5,49.4,138.5,49.4z"/>
	</g>
	<g>
		<rect x="99.4" y="60.4" transform="matrix(0.353 -0.9356 0.9356 0.353 -29.931 169.1761)" class="st2" width="16" height="91.6"/>
	</g>
	<g>
		<rect x="109.4" y="45.4" transform="matrix(0.158 -0.9874 0.9874 0.158 8.7331 192.7012)" class="st2" width="16" height="91.6"/>
	</g>
	<g>
		<path class="st4" d="M70.2,131.2c-23.2-0.1-43.4-12.7-54.4-31.3c5.4-3.1,11.7-4.8,18.4-4.8c20.1,0.1,36.5,16.1,37.1,36.1
			C70.9,131.2,70.6,131.2,70.2,131.2z"/>
	</g>
	<path class="st0" d="M71.1,61.6c16.9-3,33.8-6,50.7-9c1.4-0.3,0.8-2.4-0.6-2.2c-16.9,3-33.8,6-50.7,9C69,59.7,69.6,61.9,71.1,61.6
		L71.1,61.6z"/>
	<path class="st0" d="M0.5,3.1C7.8,7.7,15,12.3,22.3,16.9c1.2,0.8,2.4-1.2,1.1-1.9C16.2,10.4,8.9,5.7,1.7,1.1
		C0.4,0.3-0.7,2.3,0.5,3.1L0.5,3.1z"/>
	<path class="st0" d="M83.6,78c10.4,2,20.7,4,31.1,6c1.4,0.3,2-1.9,0.6-2.2c-10.4-2-20.7-4-31.1-6C82.7,75.6,82.1,77.7,83.6,78
		L83.6,78z"/>
	<path class="st0" d="M123.3,110c14.7,4.9,29.5,9.8,44.2,14.7c1.4,0.5,2-1.7,0.6-2.2c-14.7-4.9-29.5-9.8-44.2-14.7
		C122.6,107.4,122,109.6,123.3,110L123.3,110z"/>
	<path class="st0" d="M140.4,101.2c6.7,1.6,13.4,3.2,20,4.8c1.4,0.3,2-1.8,0.6-2.2c-6.7-1.6-13.4-3.2-20-4.8
		C139.6,98.6,139,100.8,140.4,101.2L140.4,101.2z"/>
	<path class="st0" d="M38.5,12.8c-1,2.1-0.8,5,0.9,6.7c0.9,0.8,2.1,1.3,3.3,1.1c1.1-0.1,2-0.7,2.9-1.4c0.9-0.8,1.7-1.7,2.5-2.7
		c0.4-0.5,0.5-1.1,0-1.6c-0.4-0.4-1.2-0.5-1.6,0c-0.7,0.9-1.5,1.8-2.3,2.6c-0.1,0.1-0.2,0.2-0.3,0.2c0.1-0.1-0.2,0.1-0.2,0.1
		c-0.2,0.1-0.4,0.3-0.6,0.4c-0.1,0.1-0.1,0.1,0,0c-0.1,0-0.1,0-0.2,0.1c-0.1,0-0.2,0.1-0.4,0.1c-0.3,0.1,0.1,0-0.1,0
		c-0.1,0-0.1,0-0.2,0c-0.1,0-0.1,0-0.1,0c0.1,0,0.1,0-0.1,0c-0.1,0-0.2,0-0.2-0.1c-0.2,0,0,0-0.2-0.1c-0.3-0.1-0.4-0.2-0.5-0.4
		c-0.3-0.3-0.6-0.7-0.7-1c-0.2-0.6-0.2-0.9-0.2-1.5c0-0.4,0.1-1,0.3-1.4c0.3-0.5,0.2-1.2-0.4-1.5C39.6,12.1,38.8,12.3,38.5,12.8
		L38.5,12.8z"/>
</g>
</svg>
