<?xml version="1.0" encoding="utf-8"?>
<!-- Generator: Adobe Illustrator 24.2.0, SVG Export Plug-In . SVG Version: 6.00 Build 0)  -->
<svg version="1.1" id="Warstwa_1" xmlns="http://www.w3.org/2000/svg" xmlns:xlink="http://www.w3.org/1999/xlink" x="0px" y="0px"
	 viewBox="0 0 162.2 182.7" style="enable-background:new 0 0 162.2 182.7;" xml:space="preserve">
<style type="text/css">
	.st0{fill:#68E0B7;}
	.st1{fill:#2B2F35;}
	.st2{fill:#9AF4D2;}
</style>
<g>
	<path class="st0" d="M87.7,109.5c2.3-1.7,4.6-3.4,6.4-4.9c6.5-5.5-6.4-9.8-18-13.3c-0.4-0.1-0.8-0.3-1.2-0.4
		c-3.6-6.5-6.6-13.4-9-20.7c-7.1-21.8-7.5-44.2-2.3-65c1.1-4.3-1.4-6.4-5.4-4.7c-45.4,19-69.2,70.3-53,117.9
		c16.4,48.1,68.4,74.9,117,60.2c13.7-4.1,25.7-11,35.6-19.9c3.4-3,1.8-8.7-2.7-9.6C128.9,144.1,105,130.1,87.7,109.5z"/>
	<g>
		<g>
			<path class="st1" d="M35.1,71c1.1,5.1,6.4,8.2,11.4,7.2c2.6-0.5,4.9-2.1,6.3-4.3c1.3-2.1,1.8-4.8,1.8-7.2c0-1.9-3-1.9-3,0
				c0,1.8-0.3,3.7-1.1,5.3c-0.9,1.8-2.5,2.9-4.5,3.3c-3.5,0.8-7.2-1.5-8-5.1C37.6,68.3,34.7,69.1,35.1,71L35.1,71z"/>
		</g>
	</g>
	<g>
		<g>
			<path class="st1" d="M23,65.1c6.5-4.1,13.6-7.2,21-9.4c1.8-0.5,1.1-3.4-0.8-2.9c-7.6,2.3-14.9,5.5-21.7,9.7
				C19.9,63.6,21.4,66.2,23,65.1L23,65.1z"/>
		</g>
	</g>
	<g>
		<g>
			<path class="st1" d="M47.8,119.9c12,8.1,27.4,9.4,40.6,3.6c3.7-1.6,7.1-3.8,10.2-6.4c1.5-1.2-0.7-3.4-2.1-2.1
				c-6.4,5.4-14.6,8.7-23,9.1c-8.6,0.4-17.1-2-24.2-6.8C47.7,116.3,46.2,118.9,47.8,119.9L47.8,119.9z"/>
		</g>
	</g>
	<path class="st2" d="M27.5,125.7C14.1,104.9,9.3,81,12.2,58.3c0.3-2-2.5-2.6-3.2-0.8c-9.2,25.3-6.8,54.5,8.9,78.9
		c19.9,30.9,55.5,45.4,89.6,39.9c2.6-0.4,2.4-4.3-0.2-4.4C75.9,170.3,45.7,154.1,27.5,125.7z"/>
	<g>
		<g>
			<path class="st0" d="M99.7,16.3l0.1,0.3l-8.3,27l15.5-4.8l1.1,3.7l-22.2,6.9l-0.1-0.3l8.1-26.9l-14.6,4.6L78.2,23L99.7,16.3z"/>
		</g>
		<g>
			<path class="st0" d="M125.4,25.1l0,0.2l-7.7,18.8l11.4-2.4l0.6,2.7l-16.4,3.5l0-0.2l7.6-18.7l-10.7,2.3l-0.6-2.7L125.4,25.1z"/>
		</g>
		<g>
			<path class="st0" d="M147,36.9l0,0.2l-9.8,13.7l9.7,0.2l-0.1,2.3L132.8,53l0-0.2l9.7-13.7l-9.1-0.2l0.1-2.3L147,36.9z"/>
		</g>
		<circle class="st0" cx="150.7" cy="53.2" r="1.3"/>
		<circle class="st0" cx="156" cy="51.5" r="1.3"/>
		<circle class="st0" cx="160.9" cy="52.8" r="1.3"/>
	</g>
</g>
</svg>
