<?xml version="1.0" encoding="utf-8"?>
<!-- Generator: Adobe Illustrator 24.2.0, SVG Export Plug-In . SVG Version: 6.00 Build 0)  -->
<svg version="1.1" id="Warstwa_1" xmlns="http://www.w3.org/2000/svg" xmlns:xlink="http://www.w3.org/1999/xlink" x="0px" y="0px"
	 viewBox="0 0 747.8 796" style="enable-background:new 0 0 747.8 796;" xml:space="preserve">
<style type="text/css">
	.st0{fill:#46BC8F;}
	.st1{fill:#68E0B7;}
	.st2{fill:#FFFFFF;}
	.st3{fill:#AEEDED;}
	.st4{opacity:0.8;}
	.st5{fill:#8DDEE2;}
	.st6{fill:#2B2F35;}
	.st7{opacity:0.45;}
	.st8{opacity:0.28;}
	.st9{fill:#72CECE;}
</style>
<g>
	<path class="st0" d="M568.1,791l43.3-62.1c3.7-5.3,2.4-12.5-2.9-16.2l-24.4-17c-5.3-3.7-12.5-2.4-16.2,2.9l-26.3,37.7
		c-13.1,18.7-8.5,44.5,10.3,57.6l0,0C557.1,797.5,564.4,796.3,568.1,791z"/>
	<path class="st0" d="M738.7,624.8l9-75.2c0.8-6.4-3.8-12.2-10.2-12.9l-29.5-3.5c-6.4-0.8-12.2,3.8-12.9,10.2l-5.5,45.7
		c-2.7,22.7,13.5,43.3,36.2,46h0C732.1,635.7,737.9,631.1,738.7,624.8z"/>
	<path class="st1" d="M562.1,786.8l43.3-62.1c3.7-5.3,2.4-12.5-2.9-16.2l-24.4-17c-5.3-3.7-12.5-2.4-16.2,2.9l-26.3,37.7
		c-13.1,18.7-8.5,44.5,10.3,57.6l0,0C551.1,793.4,558.4,792.1,562.1,786.8z"/>
	<path class="st2" d="M555,721.3c9.8-2.5,18.7-8.1,25.2-15.8c1.2-1.5-0.9-3.6-2.1-2.1c-6.2,7.4-14.5,12.7-23.8,15
		C552.4,718.9,553.1,721.8,555,721.3L555,721.3z"/>
	<path class="st2" d="M548.9,751.6c-4.6-6.2-11.1-10.8-18.6-12.6c-1.9-0.5-2.7,2.4-0.8,2.9c6.7,1.6,12.7,5.7,16.8,11.2
		c0.5,0.6,1.3,1,2.1,0.5C549,753.3,549.4,752.3,548.9,751.6L548.9,751.6z"/>
	<path class="st2" d="M552.6,743.4c-4.6-6.2-11.1-10.8-18.6-12.6c-1.9-0.5-2.7,2.4-0.8,2.9c6.7,1.6,12.7,5.7,16.8,11.2
		c0.5,0.6,1.3,1,2.1,0.5C552.7,745.1,553.1,744.1,552.6,743.4L552.6,743.4z"/>
	<path class="st2" d="M556.8,735.2c-4.6-6.2-11.1-10.8-18.6-12.6c-1.9-0.5-2.7,2.4-0.8,2.9c6.7,1.6,12.7,5.7,16.8,11.2
		c0.5,0.6,1.3,1,2.1,0.5C556.9,736.9,557.3,735.9,556.8,735.2L556.8,735.2z"/>
	<path class="st1" d="M732.7,623.8l9-75.2c0.8-6.4-3.8-12.2-10.2-12.9l-29.5-3.5c-6.4-0.8-12.2,3.8-12.9,10.2l-5.5,45.7
		c-2.7,22.7,13.5,43.3,36.2,46h0C726.1,634.7,731.9,630.1,732.7,623.8z"/>
	<path class="st2" d="M422.2,523.3c15.5,16,35.9,26.1,57.8,29.6c10.9,1.7,21.9,2,32.9,1c9-0.8,17.9-2.6,26.8-4.6
		c18.3-4.3,36.3-9.8,54.7-13.9c18-4,36.7-7,55.2-5c8.7,0.9,17.3,3.1,25.2,6.9c8.3,3.9,15.7,9.4,22,16.1c1.7,1.9,3.4,3.8,5,5.8
		c1.2,1.5,3.3-0.6,2.1-2.1c-5.9-7.6-13.1-14.2-21.4-19.1c-7.6-4.5-16-7.6-24.6-9.3c-18-3.6-36.6-1.6-54.4,1.8
		c-18.7,3.6-37,9-55.4,13.7c-8.4,2.1-16.8,4.1-25.4,5.5c-10.7,1.7-21.5,2.3-32.3,1.5c-21.8-1.6-43.2-9.5-59.8-24
		c-2.2-1.9-4.2-3.9-6.2-5.9C423,519.8,420.9,521.9,422.2,523.3L422.2,523.3z"/>
	<path class="st2" d="M280.9,541.9c10.9,23.6,27,44.7,46.5,61.9c9.7,8.6,20.1,16.2,31.2,22.8c12.3,7.3,25.7,12.7,39.4,16.9
		c25.3,7.7,51.5,11.3,77.3,16.7c17.4,3.7,34.9,8.2,51.1,15.6c14.7,6.6,31.8,16.8,36.1,33.6c0.5,1.8,0.7,3.7,0.9,5.6
		c0.1,1.9,3.1,1.9,3,0c-1.1-17.7-15.7-29.9-30.2-37.8c-16.3-8.8-34.4-14.1-52.3-18.2c-23.8-5.5-48-8.7-71.7-14.7
		c-13.8-3.5-27.5-7.9-40.3-14.1c-12.1-5.8-23.5-13.3-34-21.6c-20.5-16.3-37.9-36.6-50.1-59.8c-1.5-2.8-2.9-5.6-4.2-8.5
		C282.7,538.6,280.1,540.2,280.9,541.9L280.9,541.9z"/>
	<g>
		<path class="st3" d="M571.7,382.5c0-34.4-22.2-63.6-53-74c1.4-8.6,2.1-17.4,2.1-26.4c0-91.5-74.2-165.7-165.7-165.7
			c-62.4,0-116.7,34.5-145,85.4c-7.1-1.3-14.3-2-21.8-2c-66.7,0-120.8,54.1-120.8,120.8c0,10.8,1.4,21.3,4.1,31.2
			c-34.7,16-58.7,51.1-58.7,91.8c0,55.8,45.2,101.1,101.1,101.1c22.8,0,43.8-7.5,60.6-20.2c19.2,21.2,46.9,34.6,77.8,34.6
			c30.4,0,57.8-13,76.9-33.6c20.5,26.4,52.5,43.4,88.4,43.4c61.8,0,111.9-50.1,111.9-111.9c0-1.7,0-3.4-0.1-5.1
			C554.6,438.8,571.7,412.7,571.7,382.5z"/>
		<g class="st4">
			<path class="st2" d="M575.9,382.5c-0.3,6.3-1.1,14.5-4.1,23.6c-0.8,2.3-1.5,4.6-2.6,7c-0.9,2.4-2.2,4.7-3.4,7.2
				c-2.6,4.8-5.8,9.6-9.7,14.1c-3.9,4.6-8.5,8.9-13.6,12.7c-0.6,0.5-1.3,1-1.9,1.4c-0.6,0.5-1.4,0.9-2,1.3c-0.7,0.4-1.4,0.9-2.1,1.3
				l-0.5,0.3c-0.2,0.1-0.4,0.2-0.5,0.3l-0.7,0.4l-1.5,0.8l-0.7,0.4c0,0-0.2,0-0.2,0.1l0,0.2l0,0.4l0,1.7c0,0.6,0,1,0,1.9
				c-0.2,13.4-2.8,27.4-8,40.5c-5.2,13.2-13,25.5-22.5,35.8c-9.5,10.3-20.9,18.6-32.7,24.5c-5.9,2.9-11.9,5.3-17.8,7.1
				c-6,1.8-11.8,3-17.5,3.8c-1.4,0.2-2.8,0.3-4.2,0.5c-1.4,0.1-2.8,0.2-4.1,0.3c-0.7,0-1.4,0.1-2,0.1c-0.7,0-1.3,0-2,0
				c-1.3,0-2.6,0.1-3.9,0c-2.6-0.1-5.1-0.1-7.5-0.3c-1.2-0.1-2.4-0.2-3.5-0.3c-1.2-0.1-2.3-0.2-3.4-0.4c-1.7-0.3-3.4-0.5-5-0.8
				c-1.6-0.3-3.2-0.7-4.8-1c-1.6-0.3-3.1-0.8-4.6-1.2c-1.5-0.4-3-0.8-4.5-1.3c-1.4-0.5-2.9-1-4.3-1.5c-1.4-0.5-2.7-1.1-4-1.6
				c-2.7-1-5.1-2.3-7.5-3.4c-1.2-0.5-2.3-1.2-3.5-1.8c-1.1-0.6-2.2-1.2-3.3-1.8c-2.1-1.3-4.2-2.5-6-3.8c-0.9-0.7-1.9-1.3-2.8-2
				c-0.9-0.6-1.8-1.3-2.6-1.9c-0.8-0.7-1.6-1.3-2.4-2c-0.8-0.6-1.6-1.3-2.3-1.9c-2.5-2.2-2.9-2.6-1.6-1.4c1.3,1.2,4.3,3.8,9.1,7.3
				c4.8,3.5,11.4,7.6,19.8,11.4c8.4,3.8,18.7,7,30.3,8.7c1.3,0.2,2.6,0.3,3.9,0.5c1.3,0.1,2.7,0.3,4,0.4c1.4,0,2.8,0.1,4.2,0.1
				c1.4,0.1,2.8,0.1,4.2,0.1c5.7,0,11.7-0.6,17.9-1.6c12.3-2,25.3-6.4,38-13.7c-8,4.4-16.3,7.9-24.8,10.2c-8.4,2.3-16.9,3.6-25,4
				c-16.3,0.7-31.1-2.1-42.6-6.4c-17.1-5.7-33.1-15.6-45.7-29.2l-2.6-2.8c-1-1-1.8-2.1-2.7-3.2l-1.3-1.6l-0.7-0.8l-0.3-0.4l-0.2-0.2
				l-0.1-0.1c0,0-0.1,0.1-0.1,0.1l-2.9,2.9c-0.9,1-2,1.9-3,2.9c-0.9,0.9-1.8,1.8-2.8,2.5l-2.9,2.4c-1,0.8-2,1.5-3,2.3l-1.5,1.1
				l-1.6,1.1c-1,0.7-2.1,1.4-3.1,2.1c-2.2,1.3-4.3,2.7-6.5,3.8c-2.2,1.2-4.5,2.3-6.8,3.4c-1.1,0.5-2.3,1-3.5,1.5l-1.7,0.7l-1.8,0.6
				c-18.8,6.9-39.6,8-59,3.6l-3.6-0.9c-1.2-0.3-2.4-0.7-3.6-1.1c-2.4-0.7-4.7-1.6-7.1-2.4c-1.2-0.4-2.3-1-3.4-1.4
				c-1.1-0.5-2.3-1-3.4-1.5l-3.3-1.6l-3.3-1.8c-0.5-0.3-1.1-0.6-1.6-0.9l-1.6-1c-1-0.7-2.1-1.3-3.1-2c-2-1.4-4.1-2.8-6-4.4
				c-2-1.5-3.9-3.1-5.7-4.8c-0.9-0.8-1.8-1.7-2.7-2.6l-1.4-1.3c-0.5-0.5-1-1-1.5-1.6l-3-3.1c0-0.1-0.1,0-0.1,0l-0.1,0.1l-0.2,0.2
				l-0.4,0.3l-0.9,0.6l-1.8,1.3c-1.2,0.8-2.5,1.6-3.4,2.3c-1,0.7-2.1,1.3-3.2,1.9c-4.3,2.5-8.8,4.7-13.4,6.5
				c-9.3,3.7-19.1,5.9-29,6.7c-7.2,0.5-16.7,0.5-26.9-1.6c-5.1-1-10.4-2.4-15.7-4.4c-5.3-2-10.4-4.4-15.4-7.3
				c-4.9-2.9-9.6-6.2-13.9-9.8c-4.3-3.6-8.1-7.5-11.4-11.4c-1.7-1.9-3.2-3.9-4.7-5.9c-1.4-2-2.7-3.9-3.9-5.8
				c-1.2-1.9-2.2-3.7-3.2-5.5c-0.9-1.8-1.8-3.5-2.5-5c6.3,13.1,15.5,24.9,26.8,34.1c11.3,9.2,24.6,16,38.8,19.4
				c14.2,3.5,29.1,3.8,43.5,1c3.6-0.8,7.1-1.6,10.6-2.8c1.8-0.5,3.5-1.2,5.2-1.8c1.7-0.7,3.4-1.3,5.1-2.1c3.4-1.5,6.6-3.2,9.7-5
				l2.3-1.4c0.4-0.2,0.8-0.5,1.2-0.7l1.2-0.8c1.9-1.3,3.7-2.6,5.6-3.9c0.1,0,0.1-0.1,0.2-0.1l0.1,0.2l0.3,0.3l0.6,0.6l1.2,1.2
				l2.4,2.5l2.1,2c0.7,0.6,1.3,1.3,2,1.9c1.4,1.2,2.8,2.4,4.2,3.6c1.5,1.1,2.9,2.3,4.4,3.3c5.9,4.3,12.3,8,19,10.9
				c13.4,5.9,28.1,8.9,42.7,8.7c14.7-0.1,29.3-3.5,42.5-9.7c6.6-3.1,12.9-6.9,18.8-11.4c1.5-1.1,2.9-2.3,4.3-3.4
				c0.7-0.6,1.4-1.2,2.1-1.8l2.2-2c1.6-1.5,3.1-3.1,4.7-4.7l0.6-0.6l0.3-0.3c0.1-0.1,0.2-0.3,0.3-0.1l1.1,1.3l2.1,2.6l-1.8-2.3
				l-0.9-1.1l-0.5-0.6c0,0,0-0.1-0.1-0.1l-0.1,0.1l-0.1,0.1l-0.3,0.3c-1.4,1.4-2.7,2.7-4,4l-1.3,1.2l-1.2,1.1
				c-0.7,0.6-1.4,1.3-2.1,1.9c-1.5,1.2-2.9,2.5-4.5,3.7c-1.6,1.1-3,2.4-4.7,3.4c-1.6,1.1-3.2,2.2-4.8,3.1c-6.6,4-13.6,7.3-20.9,9.7
				c-14.6,4.9-30.3,6.3-45.5,4.4c-15.2-1.9-30-7.3-42.8-15.6c-1.6-1-3.2-2.2-4.7-3.2c-1.5-1.1-3-2.3-4.5-3.5
				c-1.5-1.2-2.9-2.5-4.3-3.8l-2.1-2l-1-1c-0.5-0.5-0.9-0.9-1.4-1.4l-2.6-2.8l-1.3-1.4c-0.1-0.2-0.2,0-0.4,0.1l-0.4,0.3l-0.8,0.6
				l-3.1,2.2c-0.5,0.4-1.1,0.7-1.6,1.1l-1.3,0.9c-3.2,2-6.5,4-10,5.6c-9.3,4.6-19.5,7.7-30.2,9c10.4-1.4,20.7-4.4,30.2-9
				c1.5-0.8,3-1.5,4.5-2.4c1.5-0.8,2.9-1.7,4.4-2.6c0.4-0.2,0.7-0.4,1.1-0.7l1.1-0.7c0.9-0.6,1.9-1.3,2.8-1.9l2.8-2l0.7-0.5
				c0.1-0.2,0.2,0,0.3,0.1l0.3,0.3l1.2,1.2l2.4,2.5c0.8,0.8,1.7,1.7,2.2,2.2c1.2,1.1,2.4,2.4,3.7,3.4c2.6,2.2,5.2,4.3,8,6.3
				c11.1,7.9,24.1,13.8,38.6,16.8c8.9,1.8,18.7,2.7,28.5,2c4.9-0.2,9.7-1,14.5-2c2.3-0.6,4.7-1,6.9-1.8c1.1-0.3,2.3-0.6,3.4-1
				c1.1-0.4,2.2-0.8,3.3-1.2c7-2.6,13.5-5.7,19.6-9.4c1.5-0.9,3-1.9,4.5-2.9c1.5-1,2.9-2.1,4.3-3.1c1.4-1.1,2.8-2.2,4.1-3.3l2-1.8
				c0.7-0.7,1.6-1.5,2.4-2.2l3-3l1.5-1.5c0.1-0.1,0.1,0.1,0.2,0.1l0.2,0.2l0.3,0.4l0.7,0.8l2.7,3.3c0.4,0.5,0.9,1.1,1.4,1.6l1.3,1.4
				l2.3,2.6c0.8,0.8,1.6,1.6,2.5,2.4c0.8,0.8,1.6,1.6,2.5,2.4l2.6,2.3c0.5,0.4,1,0.9,1.6,1.3c0.5,0.4,1.1,0.9,1.7,1.3
				c1.1,0.9,2.3,1.8,3.5,2.7c-0.1-0.1-0.2-0.2-0.3-0.2c-1.1-1-2.8-2.4-5-4.3c-1.1-1-2.3-2.1-3.6-3.4c-1.3-1.3-2.7-2.7-4.2-4.3
				c-0.8-0.8-1.5-1.6-2.2-2.5c-0.4-0.4-0.8-0.9-1.2-1.3c-0.3-0.3-0.5-0.6-0.8-0.9c-0.3-0.3-0.5-0.6-0.8-0.9c-1-1.3-2.1-2.6-3.2-4
				c-0.6-0.7-1.1-1.4-1.7-2.1l-0.2-0.3l-0.2,0.2l-0.5,0.5c-0.3,0.3-0.6,0.6-1,1c-1.3,1.3-2.6,2.6-4,4c-0.4,0.3-0.7,0.7-1.1,1
				c-0.3,0.3-0.7,0.6-1,0.9c-0.5,0.5-1.1,1-1.6,1.5c-1.1,0.9-2.3,1.9-3.5,2.8c-1.2,1-2.5,1.8-3.7,2.8c-10.3,7.3-23.4,13.7-38.3,16.8
				c-14.8,3.2-31.2,2.9-46.8-1.1c-7.8-2-15.3-5-22.3-8.8c-7-3.8-13.5-8.4-19.3-13.6l-1.1-1l-1-1c-0.7-0.7-1.4-1.3-2.1-2l-0.4-0.3
				c-0.2-0.2-0.3-0.3-0.4-0.4l-0.8-0.9l-1.6-1.7c-1.1-1.2-2.2-2.3-3.3-3.5l-0.2-0.2l-0.1-0.1c0,0-0.1,0-0.1,0.1l-0.5,0.3l-1,0.7
				l-1.9,1.4c-1.3,0.9-2.6,1.8-3.9,2.7l-1.5,1c-0.4,0.3-0.8,0.5-1.2,0.7c-0.8,0.5-1.6,0.9-2.4,1.4c-6.3,3.6-12.8,6.5-19.2,8.4
				c-12.7,4.1-24.8,4.9-34.5,4.4c-9.7-0.6-17.2-2.3-21.6-3.6c-14.3-3.9-27.1-10.8-38.4-20.3C38,506.2,28.5,493.7,22.4,478
				c-2-5.2-3.3-10.3-4.2-15c-0.4-2.4-0.8-4.7-1.1-6.9c-0.3-2.2-0.5-4.4-0.7-6.6c-0.2-0.4-0.3-1.7-0.4-3.4c0-0.9-0.2-1.8-0.2-2.9
				c0-1,0-2.1,0-3.2c0.4-11.2,2.8-22.4,6.9-32.1c4-9.8,9.3-18.3,14.4-25.2c3.1-4.3,9.9-10.8,17.4-15.8c3.8-2.5,7.6-4.7,11-6.4
				c0.4-0.2,0.8-0.4,1.2-0.6c0.4-0.2,0.7-0.4,1.4-0.7c1.3-0.6,2.5-1.2,3.6-1.7c2.3-1.1,4.3-2,5.9-2.8c-0.5-2.2-0.9-3.8-1.2-4.4
				c-0.8-2.1-1.4-3.5-1.8-4.7c-0.1-0.3-0.2-0.4-0.3-0.6c-0.1-0.2-0.1-0.3-0.2-0.5c-0.1-0.3-0.2-0.6-0.3-0.8c-0.4-1.1-0.5-2-0.7-3.5
				c-0.2-1.5-0.4-3.6-0.6-7.1c-0.1-1.7-0.2-3.8-0.3-6.4c-0.1-2.5-0.1-5.5,0-9c0.1-0.9,0-2.2,0-3.8c0.1-1.6,0.1-3.6,0.2-5.6
				c0.2-2,0.3-4.2,0.6-6.2c0.3-2,0.6-4,1-5.7c0.4-1.4,0.7-2.8,1-4c0.3-1.3,0.7-2.5,1.1-3.7c0.7-2.4,1.4-4.5,2.1-6.6
				c0.2-0.5,0.3-1,0.5-1.5c0.2-0.5,0.4-1,0.6-1.5c0.4-1,0.7-1.9,1.1-2.8c0.7-1.9,1.6-3.6,2.3-5.5c0.8-1.8,1.7-3.6,2.6-5.5
				c1-1.9,2-3.8,3.2-5.9c2.4-4.1,5.5-8.6,9.7-13.8c6.3-7.7,12.2-13.1,17.7-17.4c5.5-4.3,10.5-7.4,15.6-10.2
				c5.1-2.7,10.2-5.1,16.2-7.4c6-2.2,12.9-4.4,21.6-6.2c1.4-0.3,8.2-1.5,16.3-1.8c4.1-0.2,8.4-0.1,12.6,0.1c2.1,0.1,4.1,0.3,6,0.5
				c0.6,0.1,1.1,0.1,1.7,0.2c0.6,0.1,1.2,0.2,1.8,0.3c1.2,0.2,2.3,0.4,3.3,0.5c1.1-1.8,2.1-3.6,3.1-5.2c0.7-1.3,1.4-2.5,2.1-3.6
				c1.2-2.2,2.5-3.8,3.4-5.2c1.9-2.8,2.8-4.2,2.8-4.2c0.8-1.1,1.6-2.2,2.5-3.2c0.8-1.1,1.7-2.1,2.5-3.1c0.8-1,1.6-2,2.4-3
				c0.8-1,1.7-1.9,2.5-2.8c1.7-1.9,3.3-3.7,4.9-5.5c1.7-1.7,3.4-3.3,5.1-5c0.8-0.8,1.6-1.6,2.5-2.4c0.9-0.7,1.7-1.5,2.6-2.2
				c1.7-1.5,3.4-2.9,5-4.3c1.7-1.4,3.4-2.6,5.1-3.9c0.8-0.6,1.7-1.3,2.5-1.9c0.8-0.6,1.7-1.3,2.5-1.8c6.9-4.6,13.8-8.8,21.1-12.1
				c1.8-0.8,3.7-1.7,5.5-2.5c1.9-0.8,3.8-1.4,5.7-2.2c1.9-0.7,3.9-1.4,5.9-2.1c2-0.6,4.1-1.1,6.1-1.7c1.2-0.4,2.3-0.8,3.5-1.2
				c1.2-0.4,2.4-0.7,3.7-1c2.5-0.7,5-1.4,7.6-2c5.2-1,10.6-2.1,16.1-2.6c5.5-0.8,11.2-0.8,17-1c2.9,0.1,5.8,0.2,8.7,0.3
				c2.9,0.3,5.8,0.5,8.7,0.8c11.6,1.3,23.1,4,34,7.7c10.9,3.7,21,8.4,30.1,13.6c9.1,5.2,16.4,10.6,22.6,15.8
				c6.2,5.3,11.3,10.5,16,15.8c1.2,1.3,2.3,2.7,3.4,4.1l1.7,2c0.5,0.7,1.1,1.4,1.6,2.1c1.1,1.4,2.1,2.9,3.2,4.3c1,1.5,2,3,3,4.6
				c4,6.3,8.1,13.1,11.8,21.4c4.4,9.4,7.1,16.8,8.7,22.6c0.4,1.5,0.9,3.5,1.6,5.7c0.7,2.3,1.4,4.9,2.1,7.7
				c1.4,5.6,2.6,11.7,3.1,16.9c-0.3-0.8-0.6-1.7-0.9-2.5c0.2,1.7,0.5,4.3,0.6,6.9c0.1,1.3,0.2,2.6,0.2,3.8c0,0.6,0.1,1.2,0.1,1.7
				c0,0.5,0,1,0,1.4c0,3.5-0.2,2.6-0.4,1.7c-0.4-1.7-0.9-3.4-1,2.6c0.1,4.6-0.2,9.2-0.6,13.8c-0.2,2.3-0.5,4.6-0.8,7l-0.3,1.9
				c-0.2,1.2-0.3,2.4-0.5,3.6c-0.4,2.4-0.8,4.8-1.2,7.2c2.4,0.9,4.8,1.9,7.2,2.8c1.2,0.5,2.4,0.9,3.6,1.4l1.7,0.8
				c1.1,0.6,2.3,1.1,3.4,1.7c1.1,0.6,2.2,1.3,3.3,1.9c12.1,6.9,22,17.4,28.3,29.6c0.6,0.6,1.2,1.3,2.2,3c0.8,1.9,1.6,3.8,2.3,5.8
				l1,3c0.3,1,0.7,2,0.9,3c1.1,2.3,1.5,1.4,2.2,3c0.9-0.2,2.4,4.1,3.5,8.1c0.5,2,0.9,3.9,1.4,5c0.4,1.1,0.8,1.5,1.2,0.3
				c0.1-0.5,0.1-2.4,0.1-5.3c0-0.4,0-0.7,0-1.1c0-0.4-0.1-0.8-0.1-1.2c-0.1-0.8-0.2-1.7-0.3-2.6c-0.1-0.9-0.2-1.9-0.3-2.9
				c-0.2-1-0.4-2-0.5-3c-0.2-1-0.4-2.1-0.6-3.1c-0.3-1-0.5-2.1-0.8-3.1c-0.3-1-0.5-2.1-0.8-3.1c-0.3-1-0.7-2-1-3c-0.3-1-0.6-2-1-2.9
				c-0.4-0.9-0.8-1.8-1.1-2.7c-0.4-0.9-0.7-1.7-1-2.5c-0.3-0.8-0.7-1.5-1-2.2c-0.6-1.3,0-0.6,1,0.7c0.5,0.6,1,1.5,1.6,2.3
				c0.5,0.8,1,1.6,1.5,2.2c-0.4-0.9-0.8-1.7-1.2-2.5c-0.4-0.8-0.7-1.6-1.1-2.2c-0.7-1.4-1.4-2.5-1.9-3.5c-0.3-0.5-0.5-0.9-0.7-1.3
				c-0.2-0.4-0.4-0.7-0.6-1c-0.4-0.6-0.6-1.1-0.8-1.4c-0.6-1.3,0.4-0.3,2.5,2.3c-1-1.6-2.1-3.2-2.8-4.4c-0.4-0.6-0.7-1.1-0.9-1.4
				c-0.3-0.3-0.4-0.5-0.4-0.5c0.4,0.3,1.1,1,1.7,1.6c0.6,0.6,1.1,1.1,1.1,1.1c-4.8-7.4-10.9-14.3-18.1-20l-1.3-1.1l-1.4-1l-2.8-2
				c-0.9-0.7-1.9-1.3-2.9-1.9l-3-1.8c-2-1.2-4.2-2.1-6.2-3.2l-0.4-0.2l-0.1,0l-0.1-0.1l-0.2-0.1c-0.1-0.1-0.2-0.1-0.3-0.2
				c0-0.1,0.1-0.2,0.1-0.2c0,0,0,0,0,0c0,0,0,0,0,0l0-0.2l0.1-0.6l0.3-2.2c0.4-3,0.7-6,0.9-9c0.2-3,0.3-6,0.4-9c0-3-0.1-5.9-0.1-8.9
				c-0.5-11.8-2.3-23.4-5.2-34.2c-1.1-4-2.7-9.4-4.8-14.7c-0.9-2.7-2.2-5.3-3.2-7.8c-1-2.5-2.3-4.8-3.3-6.9c-0.5-1-1.1-2.4-1.9-3.9
				c-0.7-1.5-1.5-3.1-2.3-4.7c-0.8-1.6-1.6-3.2-2.4-4.5c-0.7-1.4-1.4-2.5-1.8-3.3c-1.9-2.7-2.9-3.6-3.7-4.3
				c-0.7-0.6-1.2-0.8-2.2-1.8c-3.8-6-9.2-13.5-15.6-20.8c-6.5-7.3-14-14.4-21.4-20.2c-7.4-5.8-14.5-10.3-19.8-13.1
				c-1.3-0.7-2.5-1.3-3.5-1.8c-1-0.5-2-0.9-2.7-1.1c-1.5-0.6-2.2-0.7-2.1-0.4c-1.3-0.6-2.5-1.3-3.6-1.8c-1.2-0.5-2.3-1-3.4-1.5
				c-1.1-0.5-2.1-0.9-3.1-1.4c-1-0.4-2-0.8-2.9-1.1c-1.9-0.7-3.6-1.3-5.3-1.9c-1.7-0.5-3.4-1-5-1.5c-3.3-1.1-6.8-1.8-10.7-2.8
				c-4-0.9-8.6-1.9-14.5-2.8c-15.4-2.6-33.4-3.1-51.9-0.6c-18.5,2.8-37.6,8.7-54.8,17.8c-2.3,1.3-4.6,2.6-6.9,3.9
				c-0.6,0.3-1.2,0.6-1.7,1l-1.7,1.1c-1.1,0.7-2.2,1.4-3.3,2.2c-4.5,2.7-8.5,6.1-12.7,9.1c-2,1.7-4,3.4-5.9,5c-1,0.8-2,1.7-2.9,2.5
				l-2.8,2.7c-1.8,1.8-3.8,3.6-5.5,5.4c-1.7,1.9-3.5,3.8-5.2,5.8c-0.6,0.7-1.3,1.4-1.9,2.2c-0.6,0.8-1.2,1.5-1.8,2.2
				c-1.2,1.5-2.4,3-3.5,4.4c-1.2,1.4-2.2,3-3.3,4.5c-1,1.5-2.1,3-3.1,4.5c-1.3,1.8-2.4,3.8-3.6,5.7c-0.4,0.7-0.8,1.4-1.3,2.1
				c-0.3,0.5-0.6,1.1-1,1.6c-0.8-0.1-1.6-0.3-2.4-0.4l-1.8-0.2l-2.1-0.3c-2.8-0.3-5.6-0.5-8.4-0.6c-2.8-0.1-5.6-0.1-8.4,0
				c-1.4,0.1-2.8,0-4.2,0.1c-1.4,0.1-2.8,0.2-4.1,0.3c-1.4,0.1-2.7,0.3-4.1,0.4c-1.4,0.2-2.7,0.3-4.1,0.5c-2.7,0.5-5.4,0.9-8,1.5
				c-5.3,1.1-10.5,2.8-15.5,4.5c-2.5,1-5,1.9-7.4,3c-1.2,0.5-2.4,1.1-3.6,1.6c-1.2,0.6-2.4,1.2-3.5,1.8l-1.8,0.9l-1.7,1
				c-1.1,0.7-2.3,1.3-3.4,2l-3.3,2.1l-1.7,1.1l-1.6,1.1l-3.2,2.3l-3.1,2.4c-2.1,1.6-4,3.3-5.9,5c-3.8,3.5-7.5,7.1-10.8,11
				c-3.4,3.8-6.4,7.9-9.3,12.1c-1.4,2.1-2.8,4.2-4,6.4l-1.9,3.3l-1.7,3.4c-4.6,9-8,18.5-10.3,28.3c-0.6,2.4-1,4.9-1.5,7.4
				c-0.3,1.2-0.4,2.5-0.5,3.7l-0.5,3.7c-0.2,2.5-0.5,5-0.5,7.5c-0.1,2.5-0.2,5-0.1,7.5c0.1,5,0.5,10,1.2,15c0.3,2.5,0.8,5,1.3,7.4
				l0.4,1.7l0.2,1c0.1,0.6,0.3,1.2,0.5,1.8c-0.8,0.5-1.7,0.9-2.6,1.3l-1.3,0.7l-2,1.2l-4.2,2.5c-1.4,0.9-2.7,1.8-4,2.8l-2,1.4
				c-0.7,0.5-1.3,1-1.9,1.5l-3.8,3.1c-1.2,1.1-2.4,2.2-3.6,3.3l-1.8,1.7c-0.6,0.6-1.1,1.2-1.7,1.8l-3.4,3.6
				c-1.1,1.3-2.1,2.5-3.1,3.8l-1.6,1.9c-0.5,0.7-1,1.3-1.4,2c-0.9,1.4-1.9,2.7-2.8,4.1c-0.9,1.4-1.7,2.8-2.6,4.3l-1.3,2.1l-1.1,2.2
				c-0.7,1.5-1.5,3-2.3,4.5c-0.6,1.5-1.3,3.1-1.9,4.6c-0.3,0.8-0.7,1.5-1,2.3l-0.8,2.4c-0.5,1.6-1.1,3.2-1.6,4.8
				c-0.4,1.6-0.8,3.3-1.3,4.9c-0.2,0.8-0.5,1.6-0.6,2.5l-0.5,2.5c-1.4,6.7-1.8,13.6-1.8,20.5c0.1,13.9,3.1,28,9.1,41.1
				c7.9,17.6,20.8,32.9,36.8,43.7c8,5.4,16.8,9.7,26,12.7l1.7,0.6l1.7,0.5c1.2,0.3,2.3,0.7,3.5,1c2.4,0.5,4.7,1.1,7.1,1.5
				c4.7,0.9,9.6,1.3,14.4,1.5c9.6,0.3,19.3-0.7,28.6-3c9.3-2.3,18.3-5.9,26.6-10.7c1-0.6,2-1.2,3.1-1.9c0.5-0.3,1-0.6,1.5-1l1.3-0.9
				c0.7-0.5,1.5-1,2.2-1.5l1.1-0.8c0-0.1,0.1,0,0.1,0l0.1,0.1l0.2,0.2l0.5,0.5l1.8,1.9l2.4,2.3c1.7,1.7,3.6,3.2,5.3,4.7
				c7.4,6,15.5,11,24.1,14.9c8.6,3.8,17.7,6.6,26.9,8c9.2,1.4,18.6,1.7,27.8,0.8c9.2-1,18.2-3.1,26.7-6.3
				c8.5-3.2,16.6-7.6,23.9-12.7c0.9-0.6,1.8-1.3,2.7-2c0.9-0.7,1.8-1.3,2.7-2c1.7-1.4,3.5-2.8,5.1-4.4l1.9-1.7l1.6-1.7l0.8-0.8
				c0.1,0,0.1-0.2,0.2-0.2l0.2,0.2l0.4,0.5l1.5,1.8c0.5,0.6,1,1.2,1.5,1.7l2.2,2.4l1.1,1.2l1.2,1.2l2.3,2.3c0.8,0.8,1.6,1.5,2.4,2.2
				l2.4,2.2c0.8,0.7,1.7,1.4,2.5,2.1l2.6,2c13.8,10.5,29.6,17.5,45.8,20.8c16.2,3.3,32.6,3.1,47.8-0.2c15.2-3.3,29.2-9.6,41.1-17.9
				c11.9-8.3,21.7-18.4,29.3-29.4c3.8-5.5,7-11.1,9.6-16.8c2.7-5.7,4.8-11.5,6.4-17.2c1.6-5.7,2.8-11.4,3.5-16.9
				c0.1-0.7,0.2-1.4,0.3-2.1c0.1-0.7,0.1-1.4,0.2-2.1c0.1-1.4,0.3-2.7,0.3-4.1c0-1.3,0.1-2.7,0.1-4l0-1l0-0.5l0-0.3l0-1l0-0.9
				c0-0.2,0-0.3,0-0.5l0.4-0.2c0.6-0.3,1.1-0.6,1.7-0.9l0.2-0.1c0.1,0,0.1-0.1,0.3-0.2l0.8-0.5c0.5-0.3,1.1-0.7,1.6-1
				c1-0.7,2.1-1.3,3-2c1-0.7,1.9-1.4,2.9-2.1c1-0.7,1.8-1.5,2.7-2.2c0.9-0.8,1.8-1.5,2.6-2.3c0.8-0.8,1.6-1.6,2.4-2.3
				c6.3-6.2,10.9-12.8,14.2-18.9c3.3-6.1,5.3-11.8,6.8-16.4C575.3,397.7,576.1,390,575.9,382.5z"/>
		</g>
	</g>
	<g>
		<path class="st5" d="M581.1,393c0-34.4-22.2-63.6-53-74c1.4-8.6,2.1-17.4,2.1-26.4c0-91.5-74.2-165.7-165.7-165.7
			c-62.4,0-116.7,34.5-145,85.4c-7.1-1.3-14.3-2-21.8-2C131.1,210.3,77,264.4,77,331.2c0,10.8,1.4,21.3,4.1,31.2
			c-34.7,16-58.7,51.1-58.7,91.8c0,55.8,45.2,101.1,101.1,101.1c22.8,0,43.8-7.5,60.6-20.2c19.2,21.2,46.9,34.6,77.8,34.6
			c30.4,0,57.8-13,76.9-33.6c20.5,26.4,52.5,43.4,88.4,43.4c61.8,0,111.9-50.1,111.9-111.9c0-1.7,0-3.4-0.1-5.1
			C564,449.3,581.1,423.2,581.1,393z"/>
		<g class="st4">
			<path class="st2" d="M509.8,282c-0.1-3.6,0.6,1.4,0.3-4.1c0.3,1.4,1.2,7.1,1.1,12.1c0,1.5-0.1,2.9-0.2,4.3
				c-0.1-2.2-0.4-3.8-0.6-5.7C510.2,286.9,510.1,284.9,509.8,282z"/>
			<path class="st2" d="M573.7,389.4c0-1.9,0.2-1.4,0.3-1.3c0.1,1.8,0.1,3.7,0.1,4.9C574,393.5,573.8,391.1,573.7,389.4z"/>
			<path class="st2" d="M518.6,319.1c0.9-4.9,1.8-11,2.3-16.3c0.2-0.4,0.3-0.4,0.4,0.3c0.1,0.8,0.1,2.3,0,4.2
				c-0.1,3.8-0.7,9.4-1.4,15c0,0.3-0.1,0.5-0.1,0.8c0,0.2-0.1,0.6,0,0.7c3,1.1,6.1,2.4,7.1,2.9c1,0.7,2.3,1.5,2.4,1.8
				c0,0.1-0.3,0.1-1.1-0.1c-0.9-0.2-2.3-0.8-4.5-1.5c-1.1-0.2-3.5-1.1-5.7-2.1c0-0.1-0.1-0.1-0.1-0.2l0.1-0.3c0-0.2,0.1-0.4,0.1-0.6
				c0.1-0.4,0.1-0.8,0.2-1.2c0.1-0.8,0.2-1.4,0.3-2C518.7,319.5,518.8,318.8,518.6,319.1z"/>
			<path class="st2" d="M572.6,364.3c-0.2-0.2-0.3-0.5-0.5-0.7c-0.8-1.8,0-1.1-1.3-4l-0.6-1.1c-0.2-0.4-0.5-0.7-0.7-1.1l-1.4-2.2
				c-1.5-2.8-0.3-1.1-0.1-0.9c-0.7-1.3-1.5-2.3-2.2-3.4c-0.7-1-1.3-2-2-2.9c-0.7-0.9-1.3-1.7-1.9-2.5c-0.6-0.8-1.2-1.6-1.9-2.4
				c-0.7-0.8-1.3-1.5-2-2.3c-0.4-0.4-0.7-0.8-1.1-1.2c-0.4-0.4-0.8-0.8-1.2-1.2c-0.8-0.8-1.7-1.6-2.7-2.6c-1-0.9-2.1-1.7-3.4-2.7
				l3.1,1.9c-1.2-1.1-2.9-2.5-4.5-3.8c-1.7-1.2-3.3-2.3-4.3-3.1c3.5,2.2,2.9,1.6,1.4,0.3c-0.4-0.3-0.8-0.7-1.3-1
				c-0.5-0.3-0.9-0.6-1.4-0.9c-0.8-0.6-1.5-1.1-1.5-1.2c0.8,0.3,1.8,0.8,3.1,1.3c1.3,0.7,3,1.7,5.3,3.1c-1.5-1.1-3-2.3-4.5-3.4
				c-0.7-0.6-1.5-1-2.2-1.5c-0.7-0.5-1.4-0.9-2-1.4l4.1,2.4c0.6,0.2,0.4,0-0.3-0.5c-0.4-0.2-0.8-0.6-1.4-0.9c-0.6-0.4-1.3-0.8-2-1.2
				c0.9,0.5,1.5,0.8,1.8,1c0.4,0.2,0.5,0.2,0.6,0.2c0.1-0.1-0.1-0.3,0.6,0c-1.2-0.7-2.3-1.4-3.5-2c-1.1-0.6-2.3-1.1-3.4-1.6
				c-2.3-1.2-4.7-1.9-7.2-2.9c-0.1,0-0.1,0-0.2-0.1l0-0.2l0.1-0.4l0.1-0.8c0.1-0.5,0.2-1.1,0.3-1.6c0.2-1.1,0.4-2.2,0.5-3.3
				c0.7-3.6,1-3.7,1.5-5.6c-0.2,2.4-0.3,4.5-0.4,6.3c-0.1,0.9-0.1,1.7-0.2,2.5c0,0.4-0.1,0.8-0.1,1.1l-0.1,0.6l0,0.3
				c0,0,0,0.1,0,0.1l0.1,0c0.8,0.3,1.5,0.5,2.2,0.8c0.7,0.4,1.8,0.8,3,1.4c1.2,0.6,2.6,1.3,3.8,2c0.6,0.3,1.2,0.7,1.7,1.1
				c0.6,0.4,1.2,0.8,1.7,1.1c1,0.7,1.6,1.1,1.6,1.3c2.3,1.6,5.3,3.2,7,4.5c-0.4-0.4-1-0.9-1.7-1.5c-0.8-0.6-1.7-1.2-2.6-1.8
				c-0.9-0.6-1.8-1.3-2.6-1.8c-0.8-0.5-1.5-0.9-1.9-1.3c2,1,3.7,2.2,5.2,3.2c0.8,0.5,1.5,1,2.2,1.5c0.7,0.5,1.3,1,2,1.6
				c1.3,1.1,2.7,2,4,3.3c0.7,0.6,1.4,1.3,2.1,2c0.4,0.3,0.8,0.7,1.2,1.1c0.4,0.4,0.8,0.8,1.2,1.2l-0.9-1.4
				c3.2,3.7,7.6,8.5,10.8,13.6c0.9,1.2,1.6,2.5,2.3,3.8c0.7,1.2,1.4,2.4,2,3.5c1.1,2.3,2,4.2,2.5,5.5c0.4,1.2,0.8,2.4,1.2,3.7
				c0.2,0.6,0.4,1.2,0.6,1.8c0.2,0.6,0.3,1.2,0.4,1.8c0.3,1.2,0.5,2.3,0.7,3.4c0.1,0.5,0.2,1.1,0.3,1.6c0.1,0.5,0.1,1,0.2,1.5
				c0.2,2,0.4,3.7,0.5,5.1c0,1.4-0.1,2.4-0.2,3c-0.6-4.2-0.9-4.1-0.9-3c-0.1,1.1,0,3.1-0.2,2.7c-0.3-2.7-1.1-6.9-1.2-6
				c0.1,1.1,0.3,2.2,0.5,3.3c0.1,1,0.3,2,0.4,2.9c0.2,1.8,0.4,3.2,0.1,4.1c-0.6-4.2-1.2-5-1.5-5.1c-0.4-0.1-0.7,0.4-1.1-0.9
				c-0.2-0.5-0.5-1.6-0.8-2.9c-0.1-0.7-0.3-1.4-0.5-2.1c-0.2-0.7-0.3-1.5-0.5-2.2c-0.8-2.8-1.5-5.2-1.7-4.4c1.7,5.8-0.1,0.3,0.1,1.7
				C574.5,369.4,573.8,367.6,572.6,364.3z"/>
			<path class="st2" d="M519.6,243.1c-1.1-3.4-0.5-2.3-0.7-3.3c-0.1-0.9,0.6,0.7,1.4,3c0.4,1.1,0.8,2.5,1.2,3.7
				c0.4,1.3,0.7,2.5,1,3.4c0.5,2,0.6,3.1,0.7,3.7c0,0.6-0.1,0.6-0.3,0.4c-0.3-0.4-0.8-2.3-1.4-4.5
				C520.8,247.3,520.2,244.7,519.6,243.1z"/>
			<path class="st2" d="M532.6,292.5c0-3.3-0.1-7.3,0.1-8.9c0.3-0.1,0.6-0.2,0.9,3.6c0.3,6,0.4,10.1-0.2,14.7
				c-0.3,2.5-0.6,2.2-0.7,0.3C532.5,300.4,532.6,296.8,532.6,292.5z"/>
			<path class="st2" d="M445.2,157c-4.4-2.5-5.9-3.5-6.5-4c-0.6-0.5-0.4-0.7-1.4-1.4c1.3,0.6,2.2,1,2.8,1.3c0.6,0.3,0.9,0.4,1,0.4
				c0.2,0-0.5-0.5-1.2-0.9c-1.4-0.9-3-2,1.6,0.3c1.1,0.6,2.4,1.4,3.7,2.1c1.2,0.7,2.4,1.4,3.3,2.2c-2.3-1.1,1,1.2,4.3,3.5
				c3.2,2.4,6.1,4.7,3.4,3.1c-0.5-0.1-2.2-1.3-4.3-2.5c-1.1-0.6-2.2-1.3-3.4-2C447.4,158.3,446.2,157.5,445.2,157z"/>
			<path class="st2" d="M490.9,191c-1.1-1.5-1.9-2.6-2.3-3.2c-0.4-0.6-0.4-0.8,0.3-0.2c1,0.7,4.3,5,6.3,7.5c2,3,2.9,4.9,1.4,3
				c-0.8-0.9-1.6-2-2.5-3.2C493,193.6,491.9,192.3,490.9,191z"/>
			<path class="st2" d="M507.2,210.1c-1-1.9-0.2-0.7-0.5-1.6c0.5,0.7,1.2,1.9,2,3.2c0.4,0.7,0.8,1.3,1.1,2c0.3,0.7,0.7,1.3,0.9,1.8
				l1,2.7c-0.7-1.3-1.4-2.4-2-3.7C509,213.2,508.2,211.8,507.2,210.1z"/>
			<path class="st2" d="M483.9,181.4c-1.1-1.4-1.7-2.3-0.9-1.9c3,2.9,5.9,6.1,8,9c1.7,2.4,0.3,0.9,0.3,1.3c-1-1.3-2.4-2.6-3.6-4.1
				C486.4,184.3,485.1,182.8,483.9,181.4z"/>
			<path class="st2" d="M501.9,199.8c-1-1.6-2.1-3.1-3.1-4.5c-0.5-0.7-1-1.4-1.6-2.1c-0.5-0.7-1.1-1.4-1.6-2c0-0.3-1.1-1.9-2.4-3.7
				c-1.3-1.8-2.8-3.6-3.5-4.6c4.4,5,2,1.4,3.5,2.7c2.3,2.7,5.7,6.7,8.6,11c1.5,2.1,2.8,4.3,4,6.3c0.6,1,1.1,2,1.6,2.8
				c0.5,0.9,0.9,1.7,1.2,2.5c-1.1-1,2.7,6.7-3-2.8C504.2,203.2,502.5,200.5,501.9,199.8z"/>
			<path class="st2" d="M529.3,248.1c-0.6-2.3-1.2-4.7-1.9-7l-2.2-6.9c-1.1-4.3,1.7,1,1-1.3c0.5,1.3,1.1,3,1.7,4.9
				c0.6,1.8,1.3,3.8,1.8,5.6c1,3.6,2,6.6,2.2,6.5c0.4,1.5,0.8,3.2,1.2,4.8c0.4,1.7,0.8,3.4,1.1,5.1c0.6,3.4,1.1,6.7,1.2,9.4
				c0,1.5-0.3,1-0.6-0.4c-0.1-0.7-0.3-1.6-0.6-2.7c-0.2-1-0.5-2.1-0.8-3.2c-1-4.4-2.1-8.3-1.5-3.7c-0.2-1.6-0.6-3.3-1-5.2
				C530.5,252,530.1,250.1,529.3,248.1z"/>
			<path class="st2" d="M475.7,172.4c-1.1-1.2-2.3-2.3-3.3-3.3c-1-1-1.9-1.9-2.5-2.5c2.3,1.9,3.7,2.7,6,4.6c1.3,1.3,3,3.1,4.4,4.6
				c1.4,1.5,2.4,2.8,2.4,3.1c-0.1,0.1-1.1-0.8-2.4-2C479,175.6,477.3,174,475.7,172.4z"/>
			<path class="st2" d="M452,153.8c-0.5-0.6,0.9,0.2,2.9,1.4c0.5,0.3,1,0.6,1.6,1c0.5,0.4,1.1,0.7,1.6,1.1c1.1,0.7,2.1,1.4,2.9,1.9
				c2.3,1.6,4.1,3.2,5.7,4.7c0.7,0.9,0.2,0.7-2.4-1.1c-0.6-0.5-1.2-0.9-1.7-1.3c-0.6-0.4-1.1-0.8-1.6-1.2c-1-0.8-1.9-1.5-2.9-2.1
				C456.4,156.7,454.5,155.4,452,153.8z"/>
			<path class="st2" d="M392.9,134.3c-5-1-2.3-0.8-2.6-1c1.2,0.2,2.7,0.4,4.3,0.6c0.8,0.1,1.6,0.3,2.4,0.4c0.8,0.2,1.6,0.4,2.4,0.6
				c2.6,0.7,2.7,1,1.3,0.8c-0.7-0.1-1.8-0.3-3.1-0.6C396.2,134.9,394.6,134.7,392.9,134.3z"/>
			<path class="st2" d="M418.9,134.2c-2.8-1-0.9-0.8,3.3,0.6l3.7,1.9c-1.3-0.5-2.3-0.9-3.4-1.3C421.4,135,420.3,134.7,418.9,134.2z"
				/>
			<path class="st2" d="M101.2,315.3c-0.1,0.6-0.2,0.7-0.2,0.7l0.4-1.6C101.4,314.3,101.2,315,101.2,315.3z"/>
			<path class="st2" d="M232.3,201.5c-0.5,0.6-0.9,0.9-1.3,1.2c-0.2,0.1-0.4,0.3-0.5,0.4c-0.2,0.2-0.4,0.4-0.7,0.7
				c-0.5,0.6-1.1,1.2-2,2.5c-0.8,1.2-1.9,3-3.3,5.5c-0.5,0.9-1,1.8-1.5,2.7c-0.2,0.4-0.5,0.9-0.7,1.3l-0.4,0.6
				c-0.1,0.1-0.1,0.2-0.2,0.3l-0.3,0.1c-5-0.8-9.9-1.6-14.8-2.1c-0.5,0-1.1-0.1-1.7-0.1c-0.5,0-1-0.1-1.5-0.1
				c-1-0.1-2.1-0.1-3.1-0.2c-2.1-0.1-4.3,0-6.6,0.1c0.6-0.1,0.1-0.3-1.3-0.3c-1.4-0.1-3.7,0.1-6.7,0.3c-1.9,0.2-4,0.6-4.6,0.8
				c-1.1-0.1,0.8-1.2-5.1-0.5c2.9-1.2,8.4-2.5,8.6-2.9c-1.4,0-2.9,0.5-4.4,0.5c6.7-1,15.2-1.8,22.9-1.6l-1.4-0.2
				c5.3-0.2,12.1,0.7,17.5,1.8l0.2,0c0.1,0,0.1,0.1,0.2,0l0.2-0.3c0.1-0.2,0.3-0.4,0.4-0.6c0.3-0.4,0.5-0.8,0.7-1.2
				c1.8-3.1,1.2-2.6,1.9-3.9c0.4-0.7,0.9-1.1,1.8-2.2c0.2-0.3,0.5-0.6,0.7-1c0.3-0.4,0.6-0.8,1-1.3c0.8-1,1.6-2.2,2.7-3.8
				c0.9-1.5,1.8-3.1,2.8-4.6c0.1,0.1-3.1,5.2-0.4,1.8c0.5-0.7,1-1.3,1.5-1.9c0.5-0.6,1-1.2,1.4-1.7c0.9-1.1,1.6-1.9,2-2.4
				c-0.9,1.6,0.7-0.2,2.3-1.8c0.8-0.8,1.6-1.5,2-1.8c0.4-0.3,0.5-0.2-0.2,0.8c-5,6.3-1.7,3-0.6,2l-3.3,3.8c0.6-0.4,0.3,0.2-0.4,1.4
				c-0.7,1.2-1.9,2.8-2.8,4.5l-1.8,2.3C228.1,205.9,233.2,199.5,232.3,201.5z"/>
			<path class="st2" d="M234,197.6l0.2-0.3c0.5-0.5,0.9-0.9,1.4-1.4c-0.6,0.7-0.9,1-1,1.2C234.5,197.2,234.3,197.2,234,197.6z"/>
			<path class="st2" d="M242.9,183.3c-0.1,0-1,0.9-0.3,0.1C243.5,182.4,244.4,181.5,242.9,183.3z"/>
			<path class="st2" d="M498.5,176.4c0.8,0.6,1.7,1.7,2.6,2.8c0.9,1.1,1.7,2.4,2.5,3.4c-0.8-0.8-1.8-2.2-2.9-3.4
				C499.7,178,498.8,176.9,498.5,176.4z"/>
			<path class="st2" d="M238.3,187.1l-0.6,0.6c0.5-0.6,0.9-1.2,1.5-1.8C239.3,185.9,238.8,186.5,238.3,187.1z"/>
			<path class="st2" d="M186.6,215.2c1.1-0.1,1.6-0.3,2.5-0.3C189,215,187.4,215.1,186.6,215.2z"/>
			<path class="st2" d="M162.9,220.3c-0.4,0.1-1.2,0.3-0.9,0.2c0.6-0.2,1.3-0.4,1.9-0.5C164.1,220,163.6,220,162.9,220.3z"/>
			<path class="st2" d="M166.4,217l-0.8,0.2c1-0.3,2-0.6,2.9-0.8C167.9,216.6,167.5,216.7,166.4,217z"/>
			<path class="st2" d="M130.6,232.4c-0.4,0.5-1.2,1.1-2.2,1.8c-1,0.7-2.2,1.6-3.5,2.6c-1.2,1-2.6,1.9-3.9,3.1
				c-1.3,1.1-2.5,2.2-3.5,3.2c0.4-0.4,1.2-1.2,1.3-1.5c0.1-0.1,0-0.1-0.4,0.1c-0.4,0.3-1,0.8-2,1.7c-1.8,1.6-2.2,2.1-2.5,2.5
				c-0.3,0.4-0.6,0.6-1.8,1.8c0.4-0.5,0.8-0.9,1.2-1.3c0.4-0.4,0.7-0.8,1.1-1.1c0.6-0.7,1.2-1.3,1.5-1.7c0.8-0.9,1-1.3,0.7-1.2
				l-3.4,3.3c5.7-6,12.9-12.2,19.8-16.2c5.6-3.1-0.4,0.8,3.6-1.2c-2.1,1.1-2.8,1.7-3.4,2.2C132.5,231.2,132,231.5,130.6,232.4z"/>
			<path class="st2" d="M198.8,206.1c-2.9,0-4.1-0.2-1.8-0.3c2.6-0.1,4.5,0.1,5.1,0.2C202.6,206,201.8,206.1,198.8,206.1z"/>
			<path class="st2" d="M106.2,257.6c-1,1.2-3,3.6-2.4,2.6c1.6-2.3,3.3-4.3,3.8-4.6C107,256.5,106.3,257.4,106.2,257.6z"/>
			<path class="st2" d="M77.6,354.5c0.3,0.6,1.1,3.8,2.1,7.2c0.1,0.1-0.1,0.2-0.2,0.2l-0.3,0.2l-0.6,0.3c-0.4,0.2-0.8,0.5-1.2,0.7
				c-0.8,0.5-1.6,0.9-2.3,1.3c-1.4,0.8-2.3,1.6-2.5,1.9c1-0.7,0.8-0.8,0.9-1c0.1-0.2,0.4-0.5,2.3-1.4c-0.6,0.3-1.1,0.6-1.7,0.9
				c-0.6,0.3-1.2,0.7-1.8,1c-1.2,0.7-2.5,1.4-3.9,2.1l-0.5,0.3c-0.1,0-0.2,0.1-0.2,0.1l-0.3,0.2c-0.4,0.2-0.7,0.5-1.1,0.7
				c-0.7,0.5-1.5,1-2.3,1.5c-0.8,0.5-1.6,1.1-2.5,1.7c-0.8,0.7-1.7,1.4-2.6,2.1c-0.6-0.2-0.5-0.6-3.1,0.7c1.8-1.5,3.6-3,5-4.3
				c1.5-1.2,2.6-2.1,3-2.6l-1.8,1.2c1.7-1.2,3.2-2.2,4.5-3.2c1.2-0.7,2.2-1.3,3.1-1.9c0.9-0.6,1.7-1.1,2.5-1.6
				c0.8-0.4,1.4-0.9,2.1-1.3l-0.8,0.3c2.7-1.2,0.1,0.2,1.6-0.3c0.3-0.2,0.6-0.4,1-0.5c0.2-0.1,0.4-0.2,0.6-0.3l0.3-0.1
				c0.1-0.1,0.3-0.1,0.2-0.2c-0.4-1.4-0.6-2.9-0.9-3.4c-0.3-1.9-0.4-3.5-0.6-5.4c-0.2-2.1-0.4-4.5-0.7-7.9c0.2,1.5,0.3,2.7,0.5,3.6
				c0.1,0.8,0.3,1.3,0.4,1.6c0.2,0.7,0.4,0.7,0.5,0.7C76.6,349.6,76.7,349.5,77.6,354.5z"/>
			<path class="st2" d="M73.4,336.3c-0.1-0.2-0.4-1.6-0.3-4.2c0.1-1.8,0.2-2,0.3-0.5C73.4,333.2,73.4,335.4,73.4,336.3z"/>
			<polygon class="st2" points="56.8,376.5 58.1,375.5 57,376.5 			"/>
			<polygon class="st2" points="55,375.1 56.6,373.8 55.7,374.6 			"/>
			<path class="st2" d="M34.1,401.5c-1.8,2.8,0.5-1.5,0-0.8C34.4,400.3,33.9,401.6,34.1,401.5z"/>
			<path class="st2" d="M37.8,392.9c-0.8,1.3,0.2,0.2,1.1-0.9c-4.5,5.9-3.9,6.5-5.3,9.1c-5.2,8.3-9,18.2-11.7,29.3
				c0,0.3,0.3-0.9,0.5-1.3c-0.7,1.5-1.4,4.6-2.2,8.3c-0.1,0.5-0.2,0.9-0.3,1.4c-0.1,0.5-0.1,0.9-0.2,1.4c-0.1,1-0.3,1.9-0.4,2.9
				c-0.1,1-0.3,1.9-0.4,2.8c-0.1,0.9-0.1,1.8-0.2,2.7c0-1.7,0-2.5,0-2.7c0-0.2-0.1,0.2-0.2,0.9c-0.1,1.4-0.3,3.8-0.4,4.9
				c0.1,0.8,0,1.9,0.1,3.1c0.1,1.2,0.1,2.6,0.2,3.9c0,1.4,0.2,2.7,0.3,4c0.1,1.3,0.2,2.4,0.3,3.3c-0.2-1.2-0.3-2.3-0.4-3.5
				c-0.1-1.2-0.3-2.4-0.3-3.5c-0.3-0.4-0.6-4.2-0.7-1.4c0.1,1.6,0.3,4,0.3,5.4c-0.1-1.1-0.3-2.7-0.4-4.4c-0.2,0.1-0.3,1.1-0.2,2.7
				c0,1.6,0.1,3.7,0.4,6c-0.4-2.3-0.6-4.1-0.8-5.8c-0.2-1.6-0.4-3-0.5-4.2c-0.2-1.2-0.3-2.2-0.5-3.3c-0.1-1-0.2-2-0.3-3.1
				c-0.1,1.2-0.2,2.4-0.3,3.6c0.1-1,0.2-3,0.2-5.1c0-1.1,0.1-2.2,0.1-3.2c0-1,0.2-2,0.3-2.7c-0.2-1,0.1-5.6,1.1-10.4
				c0.2-1.2,0.4-2.4,0.7-3.5c0.3-1.1,0.6-2.3,0.8-3.3c0.5-2,0.8-3.8,1.1-4.7c1.3-2.9,2.3-6.1,3.8-9.5c0.4-0.8,0.7-1.7,1.1-2.6
				c0.2-0.4,0.4-0.9,0.6-1.3c0.2-0.4,0.4-0.9,0.7-1.3c0.9-1.8,1.9-3.6,2.9-5.6l-0.1,0c1-1.7,2-3.1,2.8-4.4c0.4-0.6,0.8-1.2,1.2-1.8
				c0.4-0.6,0.8-1.1,1.2-1.5c1.5-1.9,2.7-3.4,3.9-4.7c1.2-1.3,2.4-2.4,3.7-3.8c1.3-1.4,2.9-2.8,4.8-4.8c-2.3,2.7-2.3,3-2.4,3.4
				c-0.1,0.4-0.3,0.9-2.8,4.2l2.3-2.1c-1.1,1.4-1.8,2.2-2.6,3c-0.4,0.4-0.8,0.9-1.3,1.5C38.9,391.2,38.4,392,37.8,392.9z"/>
			<path class="st2" d="M23,427.7l-0.5,2.2L23,427.7z"/>
			<path class="st2" d="M21.3,436.5c-0.1,1.1-0.3,2.2-0.3,3.3C21,438.7,21.2,437.6,21.3,436.5z"/>
			<polygon class="st2" points="75.6,265.1 75.5,265.5 73.3,269.3 73.4,268.9 			"/>
			<path class="st2" d="M65.2,296.4c-0.2,0.5,0-0.6,0.4-2.3C66.5,291.4,65.7,294.7,65.2,296.4z"/>
			<path class="st2" d="M22,475.4l0.7,2.6L22,475.4z"/>
			<path class="st2" d="M22.1,481.5c-0.8-2.1-1.7-7.3-2.2-9.9C20.5,475.3,21.4,478,22.1,481.5z"/>
			<path class="st2" d="M19.3,471.9c-0.1-0.8-0.3-1.6-0.4-2.4c0.1,0.4,0.1,0.7,0.2,1.1L19.3,471.9z"/>
			<path class="st2" d="M35.8,508.6c0.8,1.4,0.6,1.3,0.2,0.6c-0.2-0.3-0.6-0.8-0.9-1.3c-0.3-0.5-0.7-1.1-1-1.7
				C34.1,506,34.5,506.4,35.8,508.6z"/>
			<path class="st2" d="M27.4,495.8c-0.7-1.4-1.2-2.9-1.9-4.4l0.6,1.4C26.5,493.8,26.9,494.8,27.4,495.8z"/>
			<path class="st2" d="M41.4,526.5c3.7,4,5,5.7,6.4,7.3c0.4,0.7-4.5-3.7-1.3-0.5c-0.4-0.3-0.8-0.7-1.3-1.2c-0.5-0.5-1-1-1.6-1.6
				c-0.6-0.6-1.2-1.2-1.8-1.9c-0.6-0.7-1.2-1.4-1.8-2.1c-0.6-0.7-1.2-1.4-1.8-2.1c-0.5-0.7-1.1-1.4-1.6-2.1c-1-1.3-1.8-2.5-2.3-3.5
				c-1-1.8-0.4-1.3,1,0.4C36.7,521,38.9,523.8,41.4,526.5z"/>
			<path class="st2" d="M67.7,546.9c-2.4-1.8,6.1,3.3,1.8,0.5c5.1,2.6,12.3,6.4,19.7,8.4c-0.8-0.1,1.2,0.7,3.4,1.4
				c2.2,0.7,4.7,1.3,4.7,1.1c3.5,1.5,9.2,2.7,10.8,3.4c-0.9,0-2.1-0.2-3.3-0.4c-1.2-0.2-2.5-0.3-3.5-0.5c-2-0.3-3-0.4-0.4,0.4
				c-1.3-0.3-2.7-0.6-4.2-1c-1.5-0.4-3-0.8-4.3-1.1c-1.3-0.3-2.5-0.7-3.2-0.9c-0.8-0.2-1.1-0.3-0.9-0.1c-4.4-1.6-7.9-3.2-11.1-4.8
				c-1.6-0.8-3.2-1.7-4.8-2.6c-1.6-0.9-3.2-2-5-3.1c-0.8-0.6,0.2-0.2,0.5-0.2c0.3,0-0.1-0.4-3.7-2.7
				C65.5,545.5,66.3,546.1,67.7,546.9z"/>
			<path class="st2" d="M20,388c-1.1,1.5-1.7,2.4-2.4,3.4c-0.4,0.5-0.7,1-1.2,1.7c-0.2,0.3-0.5,0.7-0.7,1.1
				c-0.3,0.4-0.5,0.9-0.8,1.4c-0.5-0.1,3.4-6.4,3-6.5c0.7-1.1,1.2-2.1,1.9-3c0.6-0.9,1.2-1.8,1.8-2.6c1.2-1.6,2.2-3.1,3.1-4.4
				c2-2.5,3.8-4.4,5.6-6.3c0.5-0.4,0.3-0.1,0.1,0.3c-0.3,0.5-0.6,1-0.6,1.2c-0.8,1.4-2.7,3.6-4.6,6.1C23.3,383.1,21.2,385.8,20,388z
				"/>
			<polygon class="st2" points="109.7,560.5 106.9,560.3 108.8,560.4 			"/>
			<path class="st2" d="M15.7,502.1c0.9,2.3,1.1,3,1.9,4.8c-0.4-0.5-0.9-0.9-1.6-2.3c-0.8-1.4-2-3.7-3.8-8.3c-1-2.7-2.7-7.9-2.9-9.8
				c0.2,0.1,0-1.7,0.8,0.7c0.2,0.6,0.4,1.3,0.6,1.9c0.2,0.6,0.5,1.2,0.7,1.9c0.5,1.2,0.9,2.5,1.4,3.7
				C13.7,497.2,14.6,499.6,15.7,502.1z"/>
			<path class="st2" d="M49.4,542.6c0.9,0.6,2.7,1.9,4.7,3.4c1,0.7,2.1,1.4,3.1,2.2c1,0.7,2,1.4,3,1.9c1.2,0.8,2.2,1.5,3.2,2.2
				c1,0.6,1.9,1.2,2.8,1.7c0.8,0.5,1.6,1,2.3,1.4c0.7,0.4,1.3,0.8,1.9,1.2c1.2,0.8,1,0.8,0.2,0.5c-0.9-0.4-2.5-1.1-4.3-2.2
				c-0.9-0.5-1.9-1-2.8-1.6c-0.9-0.6-1.9-1.1-2.7-1.6c-0.9-0.5-1.7-1-2.3-1.4c-0.6-0.4-1.2-0.7-1.5-0.9c-0.9-0.7-1.8-1.5-2.6-2.2
				c-0.8-0.7-1.6-1.5-2.4-2.2c-0.7-0.7-1.4-1.3-1.9-1.9c-0.5-0.6-1-1-1.3-1.4L49.4,542.6z"/>
			<path class="st2" d="M223.6,563.3c0,0.1,0.1,0.1-0.3,0l-1.6-0.8C222.8,562.9,223.1,563.1,223.6,563.3z"/>
			<path class="st2" d="M1.9,473.1c0.4,2.7,0.7,5.3,0.9,6.6c0.2,1.3,0,1.4-0.6-1c-0.3-1.2-0.7-3.1-1.1-5.3c-0.3-2.2-0.6-4.6-0.9-6.7
				c-0.4-6-0.1-7.1,0.3-5.7c0.2,1.8,0.4,3.7,0.6,5.7C1.4,468.7,1.7,470.8,1.9,473.1z"/>
			<path class="st2" d="M195.3,553.7c0.6,0.6,1.2,1.1,1.8,1.6C196.5,554.7,195.9,554.2,195.3,553.7z"/>
			<path class="st2" d="M182.6,546.5c-0.4,0.4-1,0.9-1.6,1.5c-0.7,0.5-1.5,1.2-2.7,1.8c-2.5,1.4-1,0.2-1.4,0.2
				C178.9,548.9,182,546.6,182.6,546.5z"/>
			<path class="st2" d="M350,123.6c-2.9,0.5-6.7,1-7.8,1.5c-1.1,0-1.4,0-1.9,0c-0.5,0-1.2,0.1-2.9,0.4c-2.2,0.4-4.6,0.9-6.9,1.3
				c-2.4,0.5-4.7,1.2-7,1.8c-1.1,0.3-2.2,0.6-3.2,0.9c-0.5,0.1-1,0.3-1.5,0.4c-0.5,0.2-0.9,0.3-1.4,0.5c-1.8,0.7-3.3,1.3-4.3,1.8
				c0.8-0.5,5.4-2.2,3.8-2c-2,0.6-4.1,1.2-6.4,1.9c-1.1,0.4-2.3,0.7-3.5,1.2c-1.2,0.5-2.4,1-3.7,1.5c4.3-1.8-2.4,0.6-2.6,0.6
				c-1.1,0.4-2.2,0.8-3.4,1.2c-1.1,0.5-2.2,1-3.4,1.6c-2.2,1.1-4.5,2.2-6.8,3.3c-2.2,1.2-4.3,2.5-6.3,3.6c-2,1.2-3.9,2.2-5.6,3.3
				c0.6-0.4,1.3-0.9,2-1.4c0.8-0.4,1.6-0.9,2.5-1.4c1.7-1,3.6-2.1,5.4-3.1c1.7-1.1,3.5-1.8,4.9-2.6c1.4-0.7,2.4-1.3,2.8-1.6
				c-0.8,0.1-3.4,1.2-6.2,2.4c-2.8,1.4-5.7,3-7.3,3.8c0,0,0.7-0.4,1.6-0.9c0.9-0.5,2-1.1,2.7-1.5c-1.4,0.3,3-2.7-5.1,1.6
				c0.5-0.5,1.8-1.4,3.6-2.6c0.9-0.6,2-1.3,3.1-2.1c1.2-0.7,2.5-1.4,3.9-2.2c1.4-0.7,2.8-1.5,4.3-2.3c0.7-0.4,1.5-0.8,2.2-1.2
				l2.3-1.1c3.1-1.4,6.1-2.8,8.9-4c2.5-0.8,5-1.6,7.5-2.3c1.3-0.4,2.5-0.8,3.8-1.1l3.8-0.9l3.8-0.9l1.9-0.4c0.6-0.2,1.3-0.3,1.9-0.4
				c2.6-0.4,5.2-0.9,7.8-1.3c0.3-0.1,0.9-0.3,0.8-0.4c0.7-0.1,1.5-0.1,2.4-0.2c0.9,0,1.9-0.1,3-0.1c2.2-0.1,4.7-0.3,7.3-0.4
				c1.3-0.1,2.6-0.1,3.9-0.1c1.3,0,2.6,0,3.9,0c1.3,0,2.5,0,3.7-0.1c1.2,0,2.3-0.1,3.3,0c2.1,0.2,0.7,0.2-0.8,0.2
				c-1.5,0-3,0.2-1.3,0.3c-0.4,0.2,4.7,0.5,7.1,0.7c-3.4,0.6-4.5,1-5.5,1.7c-2.9-0.3-5.4,0-7.8,0.2C355,123.2,352.6,123.4,350,123.6
				z"/>
			<path class="st2" d="M275.1,570.1c-0.3,0.1,0.5,0,0.9,0l2.6-0.6l2.6-0.7l2.6-0.7c0.9-0.3,1.7-0.6,2.5-0.8l0.3,0.1
				c1.1-0.3,2.1-0.5,3.1-0.8c1-0.3,1.9-0.6,2.8-0.9c1.9-0.6,3.6-1.3,5.4-1.9c3.6-1.4,7.2-3,11.6-5.3c1.6-0.9,3.2-1.7,4.7-2.4
				c1.4-0.8,2.8-1.6,4.1-2.4c2.6-1.6,5.1-3.1,7.2-4.6c4.4-3,8.2-5.9,12.3-10.2c1.1-0.8,0.5-0.2-0.7,1c-0.6,0.6-1.3,1.3-2,2
				c-0.7,0.7-1.4,1.4-2,1.9c0.7-0.5-1.2,1.9,2.2-1.6c-1.3,1.4-1.9,2.1-2.5,2.8c-0.6,0.7-1,1.3-2.1,2.3c1-0.7,1.9-1.5,2.8-2.2
				c-1.6,1.7-3.2,3-4.4,4.2c-1.3,1.2-2.3,2-2.8,2.7c1.3-0.9,2.4-1.8,3.4-2.6c0.9-0.8,1.9-1.6,3-2.5c-0.7,0.7-1.5,1.3-2.3,1.9
				c-0.8,0.6-1.4,1.2-2.2,1.8c-1.6,1.2-2.9,2.3-4.9,3.7c-0.9,0.7-1.9,1.3-2.8,2c-1,0.6-2,1.3-3,1.9c-0.5,0.3-1,0.6-1.6,1
				c-0.5,0.3-1.1,0.6-1.7,0.9c-1.1,0.6-2.3,1.2-3.5,1.8c0.6-0.1,1.1-0.3,1.6-0.5c-1.2,0.7-2.3,1.1-3.4,1.6c-1.1,0.4-2.1,0.9-3.1,1.3
				c-1,0.4-2.1,0.8-3.3,1.3c-0.6,0.2-1.2,0.5-1.8,0.8c-0.6,0.3-1.3,0.5-2,0.8l0.7-0.1c-1.1,0.4-2.2,0.7-3.2,1c-1,0.3-2.1,0.6-3,0.8
				c-1,0.2-1.9,0.5-2.9,0.7c-1,0.2-1.9,0.4-2.8,0.6c-0.9,0.2-1.9,0.4-2.8,0.5c-0.9,0.1-1.9,0.3-2.9,0.4c-1,0.1-2,0.3-3,0.4
				c-1,0.1-2.1,0.2-3.2,0.3c-2.6,0.2-4,0.1-4.7,0c-0.7-0.1-0.6-0.3-0.2-0.4s1.3-0.4,2.1-0.6C273.7,570.6,274.6,570.3,275.1,570.1z"
				/>
			<path class="st2" d="M171.8,555.6c2.1-0.9,2.6-1.1,2.8-1.1c-1.5,1-5.1,2.7-7.8,3.7c-1,0.3-0.5,0,0.7-0.6
				C168.6,557.1,170.4,556.3,171.8,555.6z"/>
			<path class="st2" d="M182,548.3c0.9-0.6,0.2,0,0.3,0c-0.3,0.3-0.8,0.7-1.2,0.9c-0.4,0.2-0.7,0.3-0.5,0.1
				C180.9,549,181.4,548.7,182,548.3z"/>
			<path class="st2" d="M254.3,575.7l1.5,0L254.3,575.7z"/>
			<path class="st2" d="M270.7,575.2c1.2,0.1-3.4,0.6-6,0.5c0.8-0.1,1.6-0.1,2.6-0.2C268.3,575.3,269.4,575.3,270.7,575.2z"/>
			<polygon class="st2" points="332.8,543.7 333,543.4 335.1,541.7 334.8,542 			"/>
			<path class="st2" d="M307,564.6c-1.7,0.6-3.5,1.2-5.3,1.8l4.6-1.7L307,564.6z"/>
			<path class="st2" d="M342.9,542.5c0.5,0.7,0.4,0.7-0.6-0.3C341.5,541.1,341.9,541.4,342.9,542.5z"/>
			<path class="st2" d="M343,543.9l3.2,3.5L343,543.9z"/>
			<path class="st2" d="M342.1,544.4c-0.6-0.3,1.9,2.1,2.6,2.9c-1.1-0.9-2-1.9-3-3.1c-0.5-0.6-1-1.2-1.5-1.9c-0.3-0.3-0.6-0.7-0.8-1
				c-0.1-0.2-0.3-0.4-0.5-0.5l-0.2-0.3l-0.1-0.1l-0.1-0.1c0,0,0,0-0.1,0.1c-0.3,0.3-0.6,0.6-0.9,1c0.3-0.3,0.6-0.6,0.9-1l0.1-0.1
				c0,0,0,0,0.1,0l0.1,0.1l0.2,0.2c0.1,0.2,0.3,0.3,0.4,0.5c0.3,0.3,0.6,0.7,0.9,1C340.8,542.8,341.5,543.6,342.1,544.4z"/>
			<path class="st2" d="M526.1,512.6c0.5-0.9,1-1.9,1.4-3c0.4-1,0.9-2.1,1.3-3.2c0.2-0.5,0.4-1.1,0.6-1.6l0.6-1.7
				c0.4-1.1,0.7-2.2,1.1-3.3c0.3-1.1,0.6-2.2,0.9-3.3c0.3-1.1,0.6-2.1,0.8-3.1c0.4-2,1-3.9,1.3-5.5c0,0.3-0.1,1-0.2,1.5
				c-0.1,0.5-0.2,0.9,0,0.5c0.5-2.9,0.8-4.7,1.1-5.8c0.2-1.2,0.4-1.8,0.6-2.4c0.2-0.6,0.4-1.2,0.6-2.4c0.2-1.2,0.3-3,0.5-5.9
				l-0.2,4.7c0.1-0.3,0.3-1.3,0.4-2.5c0.1-0.6,0.1-1.3,0.2-2c0.1-0.8,0.1-1.6,0.1-2.4c0,0.8,0,1.8-0.1,2.8c-0.1,0.9-0.2,1.8-0.2,2.7
				c0.5-1.7,0.6,0.6,0.7,2.5c0,0-0.1,0.4-0.2,1.1c0,1.7-0.1,2.8-0.2,4.4c-0.1,0.8-0.2,1.7-0.4,2.8c-0.2,1.1-0.3,2.5-0.7,4.1
				c0.1,0.1,0.2-0.4,0.4-1.2c0.2-0.7,0.4-1.7,0.5-2.5c-0.4,1.9-1,4.3-1.7,6.9c-0.3,1.3-0.8,2.7-1.1,4.2c-0.4,1.4-0.9,2.9-1.3,4.4
				c-1.9,5.9-4.5,11.7-6.9,15.3c-0.6,1.4-1.2,2.4-1.7,3.2c-0.5,0.9-1,1.5-1.4,2.1c-0.8,1.2-1.6,2.1-2.7,3.6
				c-1.3,1.9-2.1,2.8-2.5,3.1c-0.4,0.4-0.4,0.2-0.4-0.1c0.9-1.7,1.8-3.8,3.3-6.6c0.7-1.4,1.5-3,2.4-4.9c0.4-0.9,0.9-1.9,1.4-3
				C525.1,515,525.6,513.9,526.1,512.6z"/>
			<path class="st2" d="M214.2,573.2c3.4,1.5,2.8,1.5,2.1,1.4c-3.6-1.3-6.5-3-7.9-3.8c0.1,0,1.1,0.4,2.2,0.9
				C211.8,572.2,213.2,572.8,214.2,573.2z"/>
			<path class="st2" d="M392.3,574c1.2,0.3,2.4,0.8,3.6,1C394.7,574.8,393.5,574.4,392.3,574z"/>
			<path class="st2" d="M302.1,571.4c0.3-0.1,0.6-0.2,0.9-0.3l-2.9,1C300.4,572,301.3,571.7,302.1,571.4z"/>
			<path class="st2" d="M312.4,567.2l0.1,0l-2.6,1.1C311.1,567.7,312,567.3,312.4,567.2z"/>
			<path class="st2" d="M309.4,569.8c2.4-1.1,4.9-2.2,7.2-3.5c-3,1.8-3.9,2.3-4.6,2.8c-0.7,0.5-1.3,0.9-3.7,2.2
				c-3.1,1.2-8.8,3.6-12.9,4.4c-1.5,0.3-1.2-0.1,1.4-1c1.1-0.3,2.5-0.9,4-1.5c0.7-0.3,1.5-0.6,2.2-0.9c0.7-0.3,1.4-0.6,2.1-0.9
				c1.3-0.6,2.5-1.1,3.3-1.4C309.1,569.7,309.5,569.6,309.4,569.8z"/>
			<polygon class="st2" points="535,476.1 535,477.5 535,476.7 			"/>
			<polygon class="st2" points="309.9,569.4 309.5,569.6 310.5,569 			"/>
			<path class="st2" d="M561.8,400.1l-0.1,1.1c0,0.4-0.1,0.8-0.1,1.1c0.1-0.6,0.1-1.1,0.1-1.7L561.8,400.1z"/>
			<path class="st2" d="M301,574.4l2.5-0.9L301,574.4z"/>
			<polygon class="st2" points="535.9,477.3 536.1,474.5 536.2,473.1 536.2,471.5 536.2,473.1 536.1,474.5 			"/>
			<polygon class="st2" points="535.8,462.8 535.9,466 535.8,464.9 			"/>
			<path class="st2" d="M542.8,456.2c1.3-0.8,0.2,0-0.3,0.4C542,456.8,541.3,457.2,542.8,456.2z"/>
			<path class="st2" d="M537.8,473.6c0.1,0.7-0.1,1.3-0.2,2C537.6,474.6,537.7,474.5,537.8,473.6z"/>
			<path class="st2" d="M538.3,478.1c-0.2,1.3-0.3,2.8-0.5,4.1c-0.1,1.3-0.2,2.4-0.4,2.7c0.2-1.2,0.3-2.8,0.4-4.1
				C537.9,479.6,538.1,478.5,538.3,478.1z"/>
			<path class="st2" d="M540.9,458.7c1.5-0.8,2.8-1.7,4.2-2.6C543.8,456.9,542.4,457.9,540.9,458.7z"/>
			<polygon class="st2" points="537.8,469.4 537.9,471.4 537.8,472.9 537.7,470.4 			"/>
			<path class="st2" d="M334.3,556.3c0.7-0.4,0.2,0.2-0.4,0.7c-0.7,0.6-1.4,1.2-1.5,1C332.7,557.6,333.5,556.8,334.3,556.3z"/>
			<path class="st2" d="M337.3,552.8c0.1,0.2-1.8,2.1-1.7,1.6C336.3,553.7,336.8,553.1,337.3,552.8z"/>
			<path class="st2" d="M335.9,555.8c0,0.3-0.7,0.7-1.3,1.2C335.1,556.5,335.1,556.3,335.9,555.8z"/>
			<path class="st2" d="M335.8,559.3c-0.6,0.6-0.9,1-1.2,1.4c-0.1,0.2-0.3,0.4-0.5,0.6c-0.3,0.3-0.7,0.6-1.3,0.9
				c0.2-0.3,0.5-0.5,0.7-0.8c0.1-0.1,0.3-0.3,0.4-0.4c0.1-0.1,0.2-0.2,0.3-0.3C334.7,560.3,335.2,559.8,335.8,559.3z"/>
			<path class="st2" d="M335.4,560.2c-0.1,0-0.1,0.4-0.5,0.5L335.4,560.2z"/>
			<polygon class="st2" points="336.4,559 335.9,559.6 336.2,559.2 			"/>
			<path class="st2" d="M336.8,558.9c-0.2,0.3-0.4,0.5-0.6,0.8C336.4,559.4,336.6,559.2,336.8,558.9L336.8,558.9z"/>
			<path class="st2" d="M346.6,566.2c0.4,0.4,0,0.2-0.6-0.3c-0.6-0.5-1.4-1.2-1.7-1.6C344.6,564.5,345.6,565.4,346.6,566.2z"/>
			<path class="st2" d="M581,396.9l0.4-4c0.1,0.7,0.1,1.7,0.1,2.9c0,1.2,0,2.6-0.2,4c-0.2,1.4-0.3,2.8-0.5,4
				c-0.2,1.2-0.4,2.2-0.6,2.8c-0.3,0.8-0.1-0.7,0.2-2.9c0.1-1.1,0.2-2.3,0.3-3.6c0.1-0.6,0.1-1.2,0.2-1.7
				C580.9,397.9,581,397.4,581,396.9z"/>
			<path class="st2" d="M546.8,467c0.1,0.2,0.1,1.8,0.1,3.1c-0.1,1-0.2,0.2-0.2-0.7C546.7,468.4,546.6,467.1,546.8,467z"/>
			<polygon class="st2" points="580.8,422.9 579,427 580.8,422.7 			"/>
		</g>
	</g>
	<path class="st2" d="M290.3,311.3c0,21.4-17.4,38.8-38.8,38.8c-11.5,0-21.9-5-29-13c-2.1-2.4-3.9-5-5.4-7.8
		c-2.8-5.4-4.5-11.5-4.5-18.1c0-21.4,17.4-38.8,38.8-38.8c3.7,0,7.4,0.5,10.8,1.5c4.1,1.2,8,3.1,11.4,5.5c1.6,1.1,3,2.3,4.4,3.6
		C285.6,290.1,290.3,300.2,290.3,311.3z"/>
	<path class="st6" d="M225.3,340c-7.8-7.1-12.7-17.3-12.7-28.7c0-21.4,17.4-38.8,38.8-38.8S232.2,346.3,225.3,340z"/>
	<path class="st2" d="M358.7,311.3c0,21.4-17.4,38.8-38.8,38.8c-11.5,0-21.9-5-29-13c-6.1-6.9-9.8-15.9-9.8-25.8
		c0-21.4,17.4-38.8,38.8-38.8c10.3,0,19.7,4,26.6,10.6C354,290.1,358.7,300.2,358.7,311.3z"/>
	<path class="st6" d="M293.7,340c-7.8-7.1-12.7-17.3-12.7-28.7c0-21.4,17.4-38.8,38.8-38.8S300.6,346.3,293.7,340z"/>
	<path class="st6" d="M334.4,258.5c15.8,2.8,30.9,8.8,44.3,17.5c3.8,2.5,7.4,5.2,10.9,8.1c1.5,1.2,3.6-0.9,2.1-2.1
		c-12.6-10.5-27.2-18.4-42.9-23.1c-4.5-1.3-9-2.4-13.6-3.2C333.3,255.3,332.5,258.2,334.4,258.5L334.4,258.5z"/>
	<path class="st6" d="M188.1,270c16.3-6.6,33.3-11.9,50.5-15.6c4.9-1.1,9.9-2,14.9-2.8c1.9-0.3,1.1-3.2-0.8-2.9
		c-17.4,2.8-34.6,7.2-51.2,13c-4.8,1.7-9.5,3.5-14.1,5.4C185.6,267.8,186.3,270.7,188.1,270L188.1,270z"/>
	<g>
		<path class="st6" d="M190.6,350C190.7,350,190.7,350,190.6,350C190.7,350,190.6,350,190.6,350C190.6,350,190.6,350,190.6,350
			C190.6,350,190.6,350,190.6,350z"/>
		<path class="st6" d="M189.2,350.8C189.2,350.9,189.2,350.9,189.2,350.8C189.2,350.9,189.2,350.9,189.2,350.8
			C189.2,350.9,189.2,350.9,189.2,350.8z"/>
		<path class="st6" d="M379.7,332.8c-0.4,0-0.7,0-1.1-0.1c-0.1,0-0.2,0-0.2,0c0,0,0,0,0,0c-0.2,0-0.4-0.1-0.5-0.1
			c-0.7-0.1-1.3-0.3-2-0.5c-0.2-0.1-0.3-0.1-0.5-0.2c-0.1,0-0.1,0-0.1,0c-0.1,0-0.1,0-0.2-0.1c-0.3-0.1-0.6-0.3-0.9-0.4
			c-0.6-0.3-1.2-0.7-1.8-1.2c-0.6-0.5-1.7-0.1-2.1,0.5c-0.4,0.8-0.1,1.5,0.5,2.1c0.6,0.4,1.2,0.8,1.8,1.2
			C368.4,347,361,359,351.6,369c-9.7,10.2-21.6,18.4-34.6,23.7c-14.9,6-31,8.3-47,7.1c-15.9-1.1-31.8-5.7-45.7-13.5
			c-12.4-6.9-23.7-16.8-29.8-29.9c-0.6-1.4-1.2-2.9-1.7-4.3c1.2-1,2.1-2.2,2.7-3.7c0.3-0.7-0.3-1.7-1-1.8c-0.8-0.2-1.5,0.2-1.8,1
			c0,0,0,0,0,0.1c0,0.1-0.1,0.1-0.1,0.2c-0.1,0.2-0.2,0.3-0.2,0.5c-0.1,0.1-0.2,0.3-0.3,0.4c0,0.1-0.1,0.1-0.1,0.2
			c-0.2,0.2-0.4,0.5-0.7,0.7c-0.1,0.1-0.2,0.2-0.3,0.3c0,0-0.1,0.1-0.1,0.1c0,0,0,0-0.1,0.1c0,0,0,0-0.1,0.1c0,0,0,0,0,0
			c-0.3,0.2-0.5,0.4-0.8,0.5c-0.1,0.1-0.3,0.1-0.4,0.2c0,0-0.1,0-0.1,0.1c0,0,0,0,0,0c0,0-0.1,0-0.1,0c0,0,0.1,0,0.1,0c0,0,0,0,0,0
			c-0.3,0.1-0.6,0.2-0.9,0.3c-0.2,0-0.3,0.1-0.5,0.1c-0.1,0-0.2,0-0.3,0c-0.8,0.1-1.5,0.6-1.5,1.5c0,0.8,0.7,1.6,1.5,1.5
			c0.9-0.1,1.8-0.3,2.6-0.6c4.9,13.6,15.3,24.3,27.3,32.1c13.6,8.8,29.4,14.2,45.4,16.4c16.6,2.2,33.7,0.8,49.6-4.6
			c13.9-4.7,26.7-12.5,37.4-22.6c10.5-10,18.9-22.2,24.2-35.8c0.5-1.4,1-2.7,1.5-4.1c1.4,0.4,2.8,0.7,4.2,0.7c0.8,0,1.5-0.7,1.5-1.5
			C381.2,333.4,380.6,332.8,379.7,332.8z M191.8,348.8C191.8,348.8,191.8,348.9,191.8,348.8C191.7,349,191.7,348.9,191.8,348.8z"/>
	</g>
	<path class="st2" d="M695.7,569.3c7.5-6.8,12.7-15.9,14.7-25.8c0.4-1.9-2.5-2.7-2.9-0.8c-2,9.4-6.9,18-14,24.5
		C692.1,568.4,694.3,570.6,695.7,569.3L695.7,569.3z"/>
	<path class="st2" d="M704.5,598.9c-7-3.3-14.9-4.3-22.4-2.3c-1.9,0.5-1.1,3.4,0.8,2.9c6.7-1.7,13.8-0.9,20.1,2
		C704.7,602.3,706.3,599.7,704.5,598.9L704.5,598.9z"/>
	<path class="st2" d="M703.9,589.9c-7-3.3-14.9-4.3-22.4-2.3c-1.9,0.5-1.1,3.4,0.8,2.9c6.7-1.7,13.8-0.9,20.1,2
		C704.1,593.3,705.6,590.7,703.9,589.9L703.9,589.9z"/>
	<path class="st2" d="M703.7,580.7c-7-3.3-14.9-4.3-22.4-2.3c-1.9,0.5-1.1,3.4,0.8,2.9c6.7-1.7,13.8-0.9,20.1,2
		C704,584.1,705.5,581.5,703.7,580.7L703.7,580.7z"/>
	<g class="st4">
		<path class="st2" d="M537.5,323.6c-2.3-1.1-4.5-1.7-6.8-1.8c-3.5-0.4-6.7-2.2-10.6-2.6c-1-0.2-1.9-0.2-2.8-0.2
			c-0.9,0-1.8,0-2.8,0.1c-1.9-0.3-4-0.2-6,0c-2.1,0.2-4.1,0.8-6.2,1.6c-0.5,0.1-1.9,0.3-1.2,1.5c-4.2,1-8.5,2.4-11.8,5.5
			c-1.5,1.2-3.7,1.4-5.1,2.6c-2.2,2.1-5.4,2.9-7.5,4.9c-0.2,0.4-0.3,1.5-0.6,1.7c-1.9,0.8-3.2,2.3-4,4c-0.8,1.7-1.4,3.5-1.9,5.2
			c-0.1,0.3-0.3,0.6-0.4,0.9c-0.1,0.3-0.2,0.6-0.3,0.8c-0.2,0.5-0.4,1-0.7,1.6c0.5,0.4,0.3,0.6,0.3,1c-0.1,0.2-0.4,0.6-0.7,1.1
			c-0.4,0.5-0.8,1.1-1.2,1.7c-0.2,0.3-0.4,0.6-0.7,0.9c-0.2,0.3-0.4,0.6-0.6,0.8c-0.4,0.5-0.7,0.8-0.9,0.9c-0.2,0.1,0-2.5,0.9-5
			c0.8-2.6,2.1-5.1,1.8-5.2c-0.1,0-0.4,0.4-0.8,1c-0.4,0.6-0.8,1.5-1.2,2.3c-0.4,0.9-0.7,1.8-1,2.5c-0.2,0.7-0.4,1.3-0.5,1.4
			c0.1-3.4,0.9-6.3,1.6-8.6c0.4-1.1,0.8-2.2,1.2-3c0.4-0.9,0.7-1.6,1-2.3c0.6-1.3,1-2.1,1.2-2.5c0.2-0.5,0.2-0.6,0-0.4
			c-0.2,0.2-0.5,0.6-1,1.3c-0.4,0.7-0.9,1.5-1.5,2.5c-1,2-2,4.5-2.5,6.7c-0.4,0.6-0.5,1.4-0.7,2.4c-0.1,1-0.3,2.1-0.6,3.4
			c0-0.4-0.1-0.9-0.2-1.5c-0.1-0.6-0.1-1.2-0.2-1.9c-0.2-1.3-0.1-2.4,0-2.8c0.2-0.9,0.4-1.6,0.5-2.2c0.1-0.6,0.1-1,0.3-1.5
			c0.2-0.9,0.6-1.8,2-3.5c0.6-0.7,1.2-1.5,1.8-2.5c0.7-0.9,1.3-2,2-3c1.3-2,2.7-3.9,3.7-5.1c-0.6,1.8-1.7,5.9-3.4,7.4
			c2.1-1.3,2.7-2.8,3.2-4.3c0.5-1.6,1.1-3.2,3.2-4.7c0.4-0.3,0.7-0.7,1.1-1.3c0.5-0.2,1.1-0.5,1.7-0.7c3.5-2.4,5.9-5.3,9.7-7.2
			c-0.3,0.2-0.8-0.2-1.2-0.1c-3.8,1-5.4,3.9-8.7,5.9c-0.7,0.3-0.9,1.7-1.5,2.2c-1.2,1-2.7,1.4-4.1,2c1.8-2.6,4.7-4.5,7.2-6.5
			c0.5-0.5,0.7-1.5,1-2.1c-1.2,0.8-2.5,1.6-3.7,2.5c-2,1.7-3.9,4.2-5.8,6.5c-1.8,2.3-3.6,4.4-5.6,5.2c0,0.1-0.1,0.2-0.2,0.5
			c-0.1,0-0.2,0-0.3,0.1c-0.5,0.6-1.2,1.2-2.1,1.6c0.5-0.5,1-1.1,1.5-1.5c1.1-2.8,3.1-5,5.4-7.1c2.2-2,4.6-3.8,6.7-5.8
			c0.8-1,3.2-1.3,4-2.3c2.6-2.6,6.2-4.6,10-5.7c3.4-1.1,6.9-2,10.5-2.5c3.6-0.5,7.1-0.6,10.5-0.3c6.8,0.5,13.3,2.4,18.9,5.3
			c0.3,0,0.6,0,0.8,0.1c-0.1-0.2-0.2-0.3-0.3-0.5c0.2,0.2,0.5,0.3,0.7,0.5c1.5,0.2,3,0.8,4.3,1.9c0.5,0.6-1.1-0.2-1.6,0.2
			c0.3,0.2,0.6,0.3,0.6,0.3s-0.1,0.3-0.3,0.5c0.3-0.1,0.3,0.3,0.5,0.6c-3.1-0.8-6.4-1.2-9.6-1.5c0.3,0.8,1.3,0.8,1.7,1
			c1.1-0.1,2.2-0.1,3.1,0.3c2.7,0.3,5.1,2.3,7.4,3.5c0.4,0.4,0.7,0.8,1.1,1.2c0.2,0.3-0.1,0.6-0.5,0.7
			C538.5,323.9,537.9,323.9,537.5,323.6z M496.1,314.3c1.1-0.1,2.2,0,3.3,0c0.4-0.1,0.7-0.2,1.1-0.2c0.4-0.1,0.9-0.3,1.3-0.5
			c1-0.1,2-0.1,2.9-0.2c1,0,1.9,0,2.9,0c-1-0.4-2.1-0.6-3.2-0.8c-1.1-0.1-2.3-0.1-3.5,0.2c3-1,6.1-1,9-0.6c2.9,0.4,5.7,1.3,8.4,2.1
			c1.6,0.2,3.3,0.4,4.9,0.6c1.2,0.1,2.3,0.1,3.5,0c-7-2.3-14.6-4-22.7-3.6c-4.1,0.2-8.2,1.1-12.1,2.4c-3.9,1.3-7.6,3.1-11,5.1
			C485.9,317.2,490.7,315.2,496.1,314.3z M494.8,315.9c-1.9,0.8-3.7,1.8-5.3,2.9c-4.7,2.6-9.6,5.8-11.2,9.5
			c3.3-3.4,6.9-6.7,11.2-9.5c-2.1,1.2-2.4,1.4-1.4,0.9c1-0.5,3.1-1.8,6-3.3C494.2,316.2,494.5,316.1,494.8,315.9z"/>
		<path class="st2" d="M523.9,311.2c2.2,1.1,4.3,2.1,6.2,3.4c-0.7-1-1.3-1.9-2.2-2.7c-2.5-1.9-5.6-2.1-8.5-3.1
			c-4.2-1.4-8.8-1.9-13.5-1.6c-2.3,0.2-4.7,0.6-7.1,1.2c-2.3,0.6-4.6,1.5-6.8,2.4c-0.5,0.1-1.4,0.5-2,1.1c5.6-2.1,11.6-3.6,17.4-3.7
			C513.2,308.1,518.8,309.1,523.9,311.2z"/>
		<path class="st2" d="M476.8,318.5c-1.2,1.2-2.4,2.3-3.7,3.3c1.6-0.4,3.2-1.4,4.5-2.3c1.7-1.4,3.5-2.7,5.3-3.9
			C480.8,316.4,478.8,317.2,476.8,318.5z"/>
		<path class="st2" d="M490.1,312c-0.4,0.2-0.9,0.3-1.3,0.5c-2.1,0.8-4,1.9-5.8,3.1c2.2-0.8,4.6-1.4,6.9-2.2
			C489.5,312.9,489.7,312.4,490.1,312z"/>
	</g>
	<g class="st4">
		<path class="st2" d="M498.4,287.9c0-1.7,0-3.4-0.2-5c-0.2-1.6-0.5-3.2-0.9-4.7c-0.3-1.2-0.3-2.4-0.5-3.6c-0.1-1.2-0.2-2.4-0.3-3.6
			c-0.1-1.2-0.1-2.5-0.2-3.7c-0.2-1.3-0.3-2.5-0.6-3.9c-0.2-1.3-0.4-2.6-0.8-3.8c-0.4-1.2-0.7-2.4-1.1-3.6c-0.2-1.3-0.4-2.7-0.8-4
			c-0.4-1.3-0.7-2.7-1.2-4.1c-0.8-2.8-2-5.4-3.3-8.1c-0.1-0.3-0.3-0.9-0.5-1.4c-0.3-0.4-0.7-0.7-1.3-0.3c-0.5-1.4-1.1-2.7-1.6-4.1
			c-0.5-1.3-1.1-2.7-1.7-3.9c-0.7-1.3-1.4-2.5-2.1-3.7c-0.4-0.6-0.8-1.2-1.2-1.8c-0.4-0.5-0.9-1.1-1.4-1.6c-0.8-0.9-1.3-2-1.8-3.2
			c-0.3-0.6-0.5-1.1-0.8-1.7c-0.3-0.5-0.7-1-1.1-1.4c-1.4-1.4-2.5-3-3.5-4.6c-1.1-1.6-2.2-3.2-3.5-4.5c-0.5-0.2-1.8-0.6-2-1
			c-1.4-2.3-3.4-3.9-5.5-5.3c-2.2-1.3-4.5-2.3-6.6-3.5c-1.6-1-3-1.6-4.4-2.8c-0.5,0.4-0.8,0-1.3-0.1c-0.3-0.2-0.8-0.7-1.5-1.4
			c-0.7-0.6-1.5-1.4-2.3-2.2c-1.6-1.6-3-3.2-3.1-3.8c0-0.3,3.2,1.7,6.6,3.6c3.2,2.1,6.5,4.3,6.6,3.9c0-0.3-2.1-1.8-4.2-3.3
			c-0.5-0.4-1.1-0.8-1.6-1.1c-0.5-0.3-1-0.7-1.5-0.9c-0.9-0.6-1.5-1-1.7-1.2c1.1,0.5,2.1,0.9,3.1,1.3c1,0.4,1.9,0.9,2.8,1.3
			c1.8,0.9,3.4,1.7,4.8,2.3c2.8,1.5,4.9,2.7,6.4,3.6c3.1,1.8,3.9,2.3,3.5,1.8c-0.4-0.4-2.2-1.8-4.6-3.3c-1.2-0.7-2.5-1.5-3.9-2.3
			c-1.3-0.8-2.8-1.4-4.1-2.1c-1.4-1.2-4-1.9-6.9-3.7c1,0.4,2.7,0.6,4.2,1c1.5,0.4,2.9,0.7,3.3,1c2.1,1,3.2,1.3,4.3,1.7
			c1,0.4,2,1.1,4,2.8c0.8,0.7,1.9,1.5,3,2.3c1.1,0.8,2.3,1.7,3.6,2.5c2.5,1.6,4.8,3.4,6.3,4.7c-1.1-0.4-2.8-1-4.5-1.8
			c-1.7-0.7-3.4-1.7-4.4-2.7c1.8,2.6,3.6,3.3,5.4,4.1c1.8,0.8,3.8,1.5,5.9,4.1c0.4,0.5,1,0.9,1.6,1.4c0.4,0.7,0.7,1.3,1.1,2.1
			c0.8,1.1,1.7,2,2.6,3c0.8,1,1.7,2,2.5,2.9c0.8,1,1.6,2,2.4,3c0.7,1.1,1.4,2.2,2.1,3.3c-0.3-0.4,0.1-1-0.1-1.4
			c-0.4-1.1-0.9-2.2-1.5-3.1c-0.6-0.9-1.3-1.8-2-2.6c-1.4-1.7-2.9-3.3-4.4-5.3c-0.5-0.8-2.1-1.2-2.7-2c-0.7-0.8-1.1-1.6-1.6-2.4
			c-0.5-0.8-0.9-1.7-1.4-2.5c0.8,0.5,1.6,1.2,2.3,1.9c0.7,0.7,1.4,1.5,2.1,2.3c1.4,1.6,2.8,3.2,4.1,4.8c0.6,0.6,1.7,1,2.4,1.4
			l-1.6-2.3c-0.6-0.8-1.2-1.5-1.8-2.2c-1.1-1.2-2.5-2.5-3.8-3.7c-1.4-1.2-3-2.3-4.4-3.4c-2.8-2.3-5.5-4.3-6.6-6.6
			c-0.1-0.1-0.3-0.1-0.6-0.2c0-0.1,0-0.2-0.1-0.3c-0.7-0.6-1.4-1.5-1.9-2.4l0.9,0.9l0.9,0.9c3.1,1.6,6,3.8,8.5,6.5
			c1.3,1.3,2.6,2.7,3.8,4.1c1.2,1.4,2.5,2.8,3.8,4.1c1.3,1,2,3.9,3.2,5c1.7,1.7,3.2,3.6,4.4,5.8c0.6,1.1,1.2,2.1,1.7,3.2
			c0.5,1.1,1.1,2.2,1.4,3.4l2.3,6.1c0.7,2,1.3,4.1,1.9,6.2c0.3,1,0.7,2,0.9,3.1l0.7,3.1c0.5,2.1,1,4.1,1.3,6.2l1,6.2
			c0.2,2.1,0.4,4.2,0.5,6.2c0.2,2.1,0.2,4.1,0.2,6.2c0,2.1,0,4.1-0.2,6.1c0.1,0.4,0.2,0.7,0.2,1.1c0.1-0.2,0.2-0.4,0.3-0.5l-0.2,1.1
			c0.3,2,0.6,4,0,6c-0.4,0.9-0.2-1.4-0.7-1.9c0,0.4-0.1,0.9-0.1,0.9s-0.3,0-0.6-0.1c0.2,0.3-0.2,0.6-0.4,0.8
			c-0.1-1.1-0.3-2.1-0.5-3.2l-0.6-3.2c-0.3-2.1-0.8-4.2-1.3-6.4c-0.7,0.7-0.2,1.9-0.2,2.5c0.5,1.4,0.9,2.7,0.9,4.1
			c0.4,1.8,0.4,3.7,0.3,5.5c-0.2,1.9-0.5,3.7-0.5,5.4c-0.2,0.7-0.4,1.3-0.6,1.9c-0.2,0.4-0.6,0.2-0.9-0.2
			C498.6,289.2,498.4,288.5,498.4,287.9z M494,232.2c0.3,1.3,0.5,2.6,0.5,4c0.1,0.4,0.3,0.9,0.4,1.3c0.2,0.5,0.4,1.1,0.8,1.6
			l0.9,3.6l0.7,3.6c0.1-1.3,0.1-2.7,0-4.1c-0.2-1.4-0.5-2.8-1-4.2c0.4,0.9,0.8,1.8,1.1,2.7c0.2,0.5,0.3,0.9,0.5,1.4
			c0.1,0.5,0.2,0.9,0.3,1.4c0.4,1.8,0.7,3.7,0.9,5.5c0.1,0.5,0.1,0.9,0.2,1.4l0.1,1.4l0.1,2.7c0,0.9,0.1,1.8,0.1,2.7l0.1,1.4l0,1.4
			c0.3,2.1,0.7,4.2,1.2,6.4c0.3,1.5,0.7,3,1.2,4.4c-0.4-9.5-1.3-19.3-3.6-29c-2.3-9.7-6.1-19.3-11.8-27.9c0.7,1.6,1.4,3.1,2.1,4.6
			c0.7,1.5,1.3,3.1,1.9,4.6c0.6,1.5,1.3,3,1.8,4.6C493,229,493.5,230.6,494,232.2z M492.1,230.6c-0.6-1.2-1.1-2.3-1.8-3.4
			c-0.7-1.1-1.4-2.2-2.1-3.2c-3.4-6-8-12.1-12.3-14.2c1.1,1.1,2.2,2.1,3.3,3.2c0.5,0.5,1.1,1.1,1.6,1.6c0.5,0.6,1,1.2,1.5,1.8
			c1,1.2,2,2.4,3.1,3.6c1,1.2,1.9,2.6,2.8,3.9c-1.6-2.7-1.8-3-1.1-1.8c0.4,0.6,0.9,1.6,1.7,2.9c0.4,0.6,0.8,1.3,1.3,2.1
			c0.5,0.8,0.9,1.6,1.4,2.5C491.7,229.8,491.9,230.1,492.1,230.6z"/>
		<path class="st2" d="M504.8,265.9c-0.4,3-0.5,5.9-1,8.8c0.7-1.2,1.3-2.3,1.7-3.7c0.4-1.8,0.4-3.7,0.3-5.6
			c-0.1-1.9-0.4-3.7-0.4-5.6c-0.2-10.9-3.3-21.9-8.5-32.2c-0.2-0.5-0.7-1.7-1.4-2.4c0.7,1.7,1.4,3.4,2.1,5c0.3,0.8,0.7,1.6,1,2.5
			c0.3,0.8,0.6,1.7,0.9,2.5c0.6,1.7,1.1,3.3,1.7,5c0.5,1.7,0.9,3.4,1.3,5.1c0.9,3.3,1.4,6.8,1.8,10.2c0.3,1.7,0.3,3.4,0.4,5.2
			C504.8,262.5,504.9,264.2,504.8,265.9z"/>
		<path class="st2" d="M486.5,208.8c-1.5-1.5-3.1-3-4.3-4.6c0.7,1.9,2.2,3.9,3.4,5.5c1.8,2.2,3.5,4.5,5.2,6.7
			C489.5,213.9,488.2,211.2,486.5,208.8z"/>
		<path class="st2" d="M495.6,225.2c-0.2-0.5-0.5-1.1-0.7-1.6c-1.2-2.4-2.5-4.9-4.1-7.2c1.2,2.8,2.2,5.6,3.3,8.4
			C494.6,224.5,495.1,224.7,495.6,225.2z"/>
	</g>
	<path class="st2" d="M390.2,439c24.4-20.9,49.9-40.3,75.5-59.8c25.2-19.3,50.5-38.6,74.6-59.2c23.1-19.8,45.2-40.8,65-64
		c18.8-22,35.7-45.9,49-71.7c13.2-25.6,23-53.2,27.3-81.7c0.6-4.2,1.2-8.4,1.6-12.6c0.2-1.9-2.8-1.9-3,0
		c-2.9,29.5-11.7,58.2-24.5,84.9c-12.6,26.1-28.8,50.3-47.2,72.7c-19,23.1-40.3,44.1-62.7,63.7c-23.8,20.9-48.9,40.3-74.1,59.6
		c-25,19.2-50.2,38.2-74.5,58.4c-3,2.5-6.1,5.1-9.1,7.7C386.6,438.1,388.7,440.2,390.2,439L390.2,439z"/>
	<ellipse transform="matrix(0.9569 -0.2905 0.2905 0.9569 3.7416 203.4792)" class="st2" cx="687.3" cy="89.1" rx="7.8" ry="4.8"/>
	<g class="st7">
		<g>
			<g>
				<path class="st3" d="M73.6,442.8c0-36.3,21.2-67.6,51.7-81.9c-2.3-8.9-3.6-18.2-3.6-27.8c0-47.5,30.3-87.8,72.4-102.2
					c-2-0.1-4.1-0.2-6.2-0.2c-57.7,0-104.4,47.3-104.4,105.7c0,9.4,1.2,18.6,3.5,27.3c-30,14-50.8,44.7-50.8,80.3
					c0,48.8,39.1,88.4,87.3,88.4c6.3,0,12.5-0.7,18.5-2C102.8,521.2,73.6,485.4,73.6,442.8z"/>
			</g>
		</g>
	</g>
	<g class="st4">
		<path class="st2" d="M86.5,436.4c-1.1,0.9-1.7,2-2,3.3c-0.6,1.8-2.7,3-3.8,5c-0.6,1-0.9,1.9-1.1,3c-1.3,1.9-2,4.4-1.7,6.8
			c-0.1,0.3-0.4,1.1,1,0.8c-0.5,2.5-0.7,5.3,0.8,7.6c0.5,1-0.2,2.5,0.3,3.5c1.1,1.5,0.4,3.7,1.3,5.2c0.3,0.1,1.2,0.3,1.2,0.5
			c-0.1,1.4,0.7,2.3,1.6,2.9c1,0.6,2.2,1,3.1,1.4c0.3,0.2,0.6,0.3,0.9,0.5c0.3,0.1,0.5,0.3,0.7,0.5c0.4-0.4,0.5-0.2,0.7-0.3
			c0.1,0.1,0.2,0.3,0.3,0.6c0.1,0.3,0.3,0.7,0.5,1.1c0.2,0.4,0.3,0.8,0.5,1.1c0.1,0.3,0.2,0.7,0.2,0.9c0,0.2-1.3-0.2-2.6-0.9
			c-1.3-0.7-2.5-1.7-2.8-1.5c-0.1,0.2,0.6,1,1.5,1.6c0.4,0.4,0.9,0.6,1.2,0.9c0.4,0.2,0.6,0.4,0.7,0.5c-2-0.2-3.8-0.9-5.1-1.6
			c-1.4-0.7-2.4-1.3-3.2-1.8c-1.5-1-2-1.3-1.9-1c0.1,0.3,0.9,1.1,2.1,1.9c1.1,0.9,2.6,1.7,4,2.2c0.3,0.3,0.8,0.5,1.4,0.7
			c0.6,0.2,1.3,0.4,1.9,0.7c-0.3,0-0.6,0-1,0.1c-0.4,0-0.9,0.1-1.3,0.1c-0.9,0.1-1.8,0-2-0.1c-1.1-0.5-1.8-0.5-2.4-0.7
			c-0.6-0.2-1.2-0.5-1.9-1.7c-0.6-0.9-1.8-2-3-3c-1.2-1.1-2.3-2.1-2.9-2.9c1.4,0.5,4.4,1.5,4.9,2.8c-0.2-1.6-1.2-2-2.4-2.5
			c-1.1-0.4-2.4-0.9-2.8-2.5c-0.1-0.3-0.4-0.5-0.7-0.8c0-0.4,0-0.8,0-1.2c-0.8-2.5-2.5-4.3-2.9-7c0.1,0.2-0.5,0.5-0.5,0.8
			c-0.4,2.6,1.5,3.9,2.1,6.2c0,0.5,1.2,0.7,1.3,1.2c0.4,0.9,0.2,2,0.2,3c-1.6-1.4-2.2-3.6-3-5.4c-0.2-0.4-1-0.6-1.5-0.8
			c0.2,0.9,0.5,1.8,0.9,2.7c0.7,1.5,2.2,3,3.5,4.4c1.3,1.4,2.3,2.8,2.3,4.3c0.1,0,0.2,0.1,0.3,0.2c0,0.1-0.1,0.1,0,0.2
			c0.3,0.4,0.5,1,0.5,1.7c-0.2-0.4-0.5-0.8-0.7-1.3c-1.9-1-3-2.6-3.9-4.3c-0.9-1.7-1.5-3.5-2.5-5.1c-0.6-0.7,0-2.3-0.5-2.9
			c-1.4-1.9-1.9-4.5-1.6-7.2c0.1-2.4,0.4-4.8,1-7.1c0.6-2.3,1.4-4.5,2.4-6.5c2-4,4.9-7.3,8.2-9.7c0-0.2,0.1-0.3,0.2-0.5
			c-0.2,0-0.3,0-0.5,0c0.2-0.1,0.4-0.2,0.6-0.3c0.4-0.8,1-1.6,2.1-2c0.6-0.1-0.3,0.6,0,1c0.2-0.1,0.3-0.3,0.3-0.3s0.2,0.2,0.5,0.3
			c0-0.2,0.3-0.1,0.5-0.1c-0.9,1.6-1.6,3.4-2.3,5.1c0.8,0.1,0.9-0.5,1.1-0.7c0-0.6,0.2-1.3,0.6-1.7c0.5-1.5,2.6-2.2,3.7-3.2
			c0.3-0.1,0.7-0.2,1.1-0.2c0.3,0,0.5,0.3,0.6,0.6C86.7,436,86.7,436.3,86.5,436.4z M69.9,457.5c0.3-0.7,0.7-1.4,1.1-2.1
			c0-0.2,0.1-0.5,0.1-0.7c0.1-0.3,0-0.6-0.1-0.9c0.4-1.2,0.9-2.4,1.4-3.5c-1.2,1.1-2.2,2.4-2.4,4c0-2,0.8-3.9,1.9-5.5
			c1.1-1.6,2.6-3,3.8-4.4c0.5-0.9,1-1.7,1.4-2.6c0.2-0.6,0.4-1.3,0.5-2c-3,3.4-6.2,7.3-8.1,12.4c-0.9,2.5-1.4,5.3-1.6,8
			c-0.1,2.7,0.2,5.3,0.7,7.7C69.1,464.5,69,461.1,69.9,457.5z M71,458.5c0.1,1.3,0.4,2.5,0.8,3.7c0.7,3.3,1.7,6.8,4.3,8
			c-1.7-2.4-3.3-5-4.3-8c0.3,1.5,0.4,1.7,0.3,1c-0.1-0.7-0.5-2.2-0.8-4.2C71,459,71,458.8,71,458.5z"/>
		<path class="st2" d="M73.6,440.4c1.4-1,2.6-1.9,4.1-2.7c-1,0.1-2,0.2-2.9,0.5c-2.1,0.9-2.8,2.7-4.2,4.3c-2.1,2.2-3.6,4.9-4.5,7.9
			c-0.9,3-1.1,6.4-0.7,9.5c0,0.3,0,1,0.3,1.4c-0.1-3.9,0.4-8.1,1.7-11.7C68.8,446,70.8,442.8,73.6,440.4z"/>
		<path class="st2" d="M66.9,470.7c0.6,0.9,1.2,1.8,1.5,2.8c0.3-1.1-0.1-2.3-0.3-3.3c-0.6-1.3-1.1-2.5-1.5-3.8
			C66.4,467.8,66.4,469.3,66.9,470.7z"/>
		<path class="st2" d="M65.8,461.2c0,0.3,0,0.6,0,0.9c0,1.5,0.3,2.9,0.7,4.2c0.1-1.6,0.3-3.2,0.5-4.8
			C66.4,461.7,66,461.5,65.8,461.2z"/>
	</g>
	<g class="st4">
		<path class="st2" d="M172.6,507.1c-2.4,4.2-4.9,7.3-7.4,10.3c-2.1,2.2-4.4,3.7-6.8,4.9c-1.2,0.6-2.4,1.1-3.6,1.7
			c-1.2,0.5-2.4,1.1-3.7,1.7c-2.6,1.1-5,2.3-8,3.2c-3.1,0.6-6.4,0.7-9.4,0.6c-3.1-0.2-6.1-0.5-9-0.9c-0.6-0.2-2.4-0.9-2.4,0.5
			c-5.7-1.8-10.7-4.3-16.2-6.2c-2.3-1-3.9-3.3-5.9-4.6c-1.7-1-3.1-2.5-4.2-4.1c-1.2-1.6-2.1-3.3-3.3-4.8c-0.5-0.3-1.7-0.9-1.9-1.4
			c-0.8-2.7-2-4.9-3.1-7.4c-1.2-2.4-2.3-4.9-2.8-7.4c-0.3-2-0.6-3.6-0.5-5.5c-0.6-0.2-0.5-0.6-0.6-1.2c0-0.7,0.6-3,1.3-5
			c0.7-2,1.6-3.9,2-4.2c0.2-0.1-0.2,3.4-0.3,7.1c-0.2,3.7,0.1,7.6,0.4,7.4c0.2-0.2,0.1-2.7,0.3-5.2c0.1-2.5,0.4-5,0.6-5.4
			c0.3,4.4,0.8,8,1.4,10.8c0.7,2.8,1.5,4.8,2.2,6.2c0.7,1.4,1.3,2.2,1.6,2.6c0.3,0.4,0.4,0.4,0.4,0.2c-0.1-0.5-1-2.1-1.9-4.4
			c-0.8-2.3-1.6-5.2-2.1-7.8c0.2-1.6-0.7-4-0.3-7.2c0.1,1,0.6,2.4,1.1,3.8c0.5,1.3,1,2.5,1,2.9c0.4,2,0.9,2.8,1.2,3.7
			c0.4,0.9,0.6,1.8,0.8,3.9c0.2,1.7,1.2,3.9,2.6,5.7c1.3,1.8,3,3.2,4,4.2c-0.9-0.2-2.3-0.7-3.5-1.6c-1.3-0.8-2.4-2-2.7-3.2
			c0.4,2.6,1.8,3.6,3.3,4.4c1.5,0.8,3,1.3,4.6,3.2c0.3,0.3,0.8,0.6,1.4,0.8c0.3,0.5,0.6,0.9,1,1.5c1.6,1.3,3.3,2.2,5.1,3
			c1.8,0.8,3.6,1.4,5.5,2.3c-0.3-0.1-0.3-0.8-0.6-1c-1.4-1.2-2.9-1.8-4.3-2.4c-1.5-0.6-3-1.2-4.3-2.4c-0.4-0.5-1.8-0.4-2.3-0.9
			c-1.1-1-1.6-2.4-2.1-3.6c2.3,1.5,4.4,3.7,6.9,5.1c0.5,0.3,1.5,0,2.1,0c-1.1-0.7-2.1-1.4-3.1-2.2c-1.8-1.2-4.2-2.4-6.2-4.1
			c-1.9-1.6-3.2-3.7-2.9-5.5c-0.1-0.1-0.2-0.1-0.3-0.3c0.1-0.1,0.1-0.1,0.1-0.2c-0.1-0.3-0.2-0.6-0.2-1c0-0.3,0-0.7,0.2-1.1
			c0.1,0.6,0.2,1.1,0.3,1.6c1.7,1.7,2.8,3.5,4.3,5.3c1.4,1.8,3.1,3.6,5.3,4.7c1,0.4,1.9,2.3,3,2.5c3.1,1,6.2,2.5,9.4,4.2
			c2.9,1.4,6.2,2.6,9.4,3.5c3.2,0.9,6.4,1.5,9.7,1.4c3.3-0.1,6.8-1.1,10.3-2.3c3.5-1.2,6.9-2.5,10.4-4.4c0.2-0.3,0.5-0.5,0.7-0.8
			c-0.2,0-0.4,0-0.6,0c0.3-0.1,0.7-0.3,1-0.4c1.3-1.4,2.7-2.8,4.5-4.1c0.9-0.4-0.8,1.2-0.8,2c0.4-0.3,0.7-0.6,0.7-0.6
			s0.2,0.2,0.4,0.5c0.1-0.4,0.5-0.3,0.9-0.4c-2.7,3.9-6.1,7.1-9.6,9.6c0.9,0.4,1.8-0.6,2.4-0.9c1.1-1.1,2.1-2.2,3.2-3
			c1.3-1.4,2.9-2.7,4.5-4.2c1.6-1.5,3.1-3.2,4.2-5.2c0.6-0.6,1.1-1.4,1.7-2c0.2-0.1,0.3-0.1,0.4,0c0.1,0.1,0.1,0.1,0.2,0.2
			c0,0.1,0.1,0.3,0.1,0.4C173.3,505.3,173.1,506.4,172.6,507.1z M122.5,519.7c1,0.6,1.9,1.3,2.9,1.9c0.4,0.1,0.7,0.2,1.1,0.3
			c0.5,0.2,1,0.2,1.5,0.1c2,0.7,4,1.3,6.2,1.6c-2.2-1-4.2-2.1-6.7-2.7c3.3,0.4,6.2,1.3,9.4,1.7c3.2,0.5,6.7,0.4,10.1-0.3
			c1.9-0.7,3.8-1.6,5.5-2.6c1.2-0.8,2.4-1.7,3.4-2.6c-2,1-4.1,1.9-6.2,2.6c-2.1,0.7-4.2,1.4-6.4,1.8c-4.3,0.9-8.5,0.4-12.4-0.7
			c-3.9-1.1-7.8-2.6-11.3-4.2c-3.6-1.6-6.8-3.5-9.8-5.4C113.1,514.7,117.6,517.2,122.5,519.7z M120.4,520.1
			c-2.1-0.6-4.1-1.2-6.1-1.9c-2.6-1.1-5.2-2.4-7.6-3.7c-2.3-1.3-4.5-2.4-6.5-3c4.2,3.1,9,5.1,14,6.7c-2.3-1-2.6-1.1-1.6-0.6
			c1,0.5,3.4,1.5,6.8,2.4C119.7,520,120,520,120.4,520.1z"/>
		<path class="st2" d="M150.9,516.3c2.6-0.6,5.1-1.4,7.8-2.4c-1.3,0-2.5-0.1-3.8,0c-1.7,0.3-3.2,0.9-4.7,1.4c-1.5,0.6-3,1.2-4.5,1.5
			c-2.2,0.4-4.3,0.8-6.3,0.8c-1.9,0.1-3.8-0.1-5.7-0.4c-1.9-0.3-3.9-0.7-5.9-1.2c-2.1-0.5-4.2-1-6.2-1.6c-0.4-0.2-1.2-0.5-1.9-0.5
			c2.4,1.1,5,2,7.6,2.8c2.6,0.8,5.1,1.4,7.6,1.7c2.5,0.3,4.9,0.3,7.6-0.2C145.1,517.9,148,517.1,150.9,516.3z"/>
		<path class="st2" d="M109.1,507.5c-1.2-0.5-2.3-1.2-3.2-2.1c0.3,1.2,1.5,2.4,2.5,3.2c1.5,1,3.2,1.8,4.9,2.6
			C111.9,509.9,110.5,508.6,109.1,507.5z"/>
		<path class="st2" d="M119.6,514.1c-0.4-0.2-0.8-0.3-1.1-0.5c-1.7-0.9-3.5-1.6-5.1-2.4c1.5,1.4,3.2,2.7,5.2,3.8
			C118.7,514.4,119.1,514.1,119.6,514.1z"/>
	</g>
	<g class="st8">
		<g>
			<path class="st9" d="M568.8,394.8c-0.4-22.2-11.2-41.7-27.7-54c4.8,9.5,7.5,20.3,7.7,31.6c0.5,28.5-15.3,53.5-38.7,66.2
				c0.1,1.6,0.2,3.2,0.2,4.8c1,58.4-45.5,106.5-103.9,107.5c-5.6,0.1-11-0.2-16.4-1c13.9,7.1,29.7,11,46.4,10.7
				c54.3-0.9,97.5-45.7,96.6-99.9c0-1.5-0.1-3-0.2-4.5C554.6,444.6,569.2,421.3,568.8,394.8z"/>
		</g>
	</g>
	<g class="st4">
		<path class="st2" d="M536.6,481.9c0.1-2.5-0.3-4.8-1.1-7c-1.1-3.4-0.6-7-1.8-10.7c-0.2-0.9-0.6-1.8-0.9-2.7
			c-0.4-0.8-0.8-1.7-1.2-2.5c-0.5-1.9-1.4-3.7-2.4-5.5c-1.1-1.8-2.3-3.5-3.9-5c-0.2-0.4-1-1.6-1.8-0.5c-2.6-3.4-5.6-6.8-9.7-8.6
			c-1.7-0.9-2.7-2.9-4.4-3.7c-2.8-1.1-4.8-3.8-7.5-4.9c-0.5,0-1.5,0.3-1.8,0.1c-1.5-1.4-3.4-1.9-5.3-2.1c-1.9-0.1-3.8,0.1-5.5,0.3
			c-0.3,0-0.7,0-1,0c-0.3,0-0.6,0-0.9,0.1c-0.6,0-1.1,0-1.7,0c-0.1,0.6-0.4,0.5-0.8,0.7c-0.2,0-0.7-0.1-1.3-0.2
			c-0.6-0.1-1.3-0.3-2-0.5c-0.4-0.1-0.7-0.2-1.1-0.2c-0.3-0.1-0.7-0.1-1-0.2c-0.6-0.1-1.1-0.3-1.2-0.4c-0.2-0.1,2.3-1,5-1.2
			c2.7-0.3,5.5-0.1,5.4-0.5c0-0.1-0.5-0.2-1.3-0.3c-0.7-0.1-1.7-0.2-2.6-0.2c-0.9,0-1.9,0.1-2.6,0.1c-0.7,0.1-1.3,0.2-1.5,0.1
			c3.2-1.3,6.1-1.7,8.5-2c1.2-0.1,2.3-0.2,3.3-0.1c1,0,1.8,0,2.5,0c1.4,0,2.3,0.1,2.8,0.1c0.5,0,0.6-0.1,0.4-0.2
			c-0.2-0.1-0.8-0.2-1.5-0.4c-0.8-0.1-1.8-0.3-2.9-0.3c-2.2-0.2-4.9-0.1-7.1,0.4c-0.7-0.1-1.5,0.1-2.5,0.3c-1,0.3-2.1,0.5-3.3,0.8
			c0.4-0.2,0.8-0.5,1.3-0.8c0.5-0.3,1.1-0.6,1.6-1c1.1-0.6,2.2-1.1,2.6-1.2c0.9-0.2,1.6-0.3,2.2-0.5c0.6-0.2,1-0.3,1.5-0.4
			c0.9-0.2,1.9-0.2,4,0.4c0.9,0.2,1.9,0.5,3,0.6c1.1,0.2,2.3,0.4,3.5,0.6c2.4,0.4,4.7,0.9,6.1,1.4c-1.9,0.2-6.1,0.8-8.1-0.2
			c2.1,1.4,3.6,1.3,5.2,1.2c1.6-0.1,3.4-0.3,5.6,1.1c0.4,0.2,1,0.4,1.6,0.5c0.4,0.4,0.9,0.8,1.4,1.3c3.6,2.2,7.2,3.3,10.5,6
			c-0.3-0.2-0.1-0.9-0.4-1.1c-2.4-3-5.7-3.4-8.9-5.6c-0.5-0.5-1.9-0.2-2.6-0.5c-1.4-0.7-2.3-2-3.5-3c3.1,0.6,6,2.5,8.8,4
			c0.6,0.3,1.6,0.1,2.3,0.1c-1.2-0.8-2.4-1.6-3.8-2.4c-2.3-1.2-5.4-1.9-8.2-2.7c-2.8-0.8-5.4-1.5-7-3c-0.1,0-0.3,0-0.5,0
			c0-0.1-0.1-0.2-0.2-0.2c-0.7-0.2-1.6-0.6-2.3-1.2c0.7,0.3,1.4,0.5,2,0.8c3-0.1,5.9,0.9,8.6,2.1c2.7,1.2,5.3,2.7,8,3.8
			c1.3,0.4,2.5,2.4,3.7,2.8c3.5,1.4,6.7,3.8,9.2,6.9c2.4,2.7,4.6,5.5,6.5,8.6c1.9,3.1,3.4,6.3,4.5,9.5c2.3,6.5,3.1,13.1,2.7,19.4
			c0.1,0.3,0.2,0.5,0.3,0.8c0.1-0.2,0.2-0.3,0.3-0.5c-0.1,0.3-0.1,0.6-0.2,0.9c0.4,1.5,0.5,3,0,4.6c-0.4,0.7-0.2-1.1-0.8-1.4
			c0,0.3-0.1,0.7-0.1,0.7s-0.3,0-0.6,0c0.2,0.2-0.1,0.4-0.3,0.6c-0.5-3.2-1.4-6.3-2.4-9.4c-0.6,0.6-0.2,1.5-0.2,1.9
			c0.5,1,0.9,2,0.9,3c0.8,2.6-0.1,5.6-0.2,8.2c-0.2,0.5-0.4,1-0.7,1.5c-0.2,0.4-0.6,0.2-0.9-0.1
			C536.7,482.9,536.5,482.4,536.6,481.9z M528.5,440.3c0.5,1,0.9,2,1.3,3.1c0.2,0.3,0.4,0.6,0.6,0.9c0.2,0.4,0.6,0.7,1,1
			c0.5,0.9,0.9,1.8,1.3,2.6c0.4,0.9,0.8,1.8,1.2,2.7c-0.1-1.1-0.3-2.2-0.6-3.3c-0.4-1.1-0.8-2.2-1.6-3.1c2.1,2.4,3.4,5.2,4.2,8
			c0.8,2.8,1.1,5.8,1.4,8.6c0.5,1.6,0.9,3.1,1.4,4.7c0.4,1.1,0.9,2.2,1.4,3.2c-0.7-7.3-2.1-15-5.8-22.3c-1.8-3.6-4.3-7.1-7-10.1
			c-2.8-3.1-5.9-5.7-9.1-8C521.8,432.1,525.5,435.7,528.5,440.3z M526.6,439.7c-1.5-1.4-3.1-2.7-4.8-3.7c-4.3-3.3-9.2-6.5-13.2-6.4
			c4.4,1.7,8.9,3.6,13.2,6.4c-1.9-1.5-2.2-1.6-1.4-1c0.9,0.7,2.9,2.1,5.4,4.2C526,439.3,526.3,439.5,526.6,439.7z"/>
		<path class="st2" d="M542.5,464.6c-0.1,2.4-0.2,4.8-0.7,7.1c0.7-1,1.3-2,1.6-3.1c0.7-3-0.3-6-0.6-9c-0.5-4.4-1.8-8.8-4-13
			c-1.1-2.1-2.4-4.1-3.9-6c-1.5-1.9-3.2-3.6-4.9-5.2c-0.3-0.4-1-1.1-1.8-1.4c4.2,4.3,8,9.2,10.4,14.4
			C541.1,453.5,542.4,459,542.5,464.6z"/>
		<path class="st2" d="M517,424.3c-1.5-0.6-3.1-1.3-4.5-2.1c1,1.3,2.6,2.4,3.9,3.2c1.9,1.1,3.8,2.1,5.7,3.3
			C520.5,427.1,518.9,425.6,517,424.3z"/>
		<path class="st2" d="M528.2,433.9c-0.3-0.3-0.7-0.7-1-1c-1.6-1.6-3.3-2.9-5.2-4.1c1.6,1.7,3.2,3.6,4.8,5.5
			C527.2,433.7,527.7,433.7,528.2,433.9z"/>
	</g>
	<path class="st2" d="M102.4,314.1c-12.1-16.9-22.6-34.9-31.3-53.8c-8.7-18.9-15.6-38.6-20.7-58.8c-5.1-20.1-8.4-40.7-9.8-61.4
		c-1.4-20.7-1-41.6,1.3-62.3c2.3-20.6,6.6-41,12.7-60.8c0.7-2.3,1.5-4.6,2.2-6.9c1.5,0.2,3.2,0.1,5-0.4c4.1-1.3,6.9-4.3,6.1-6.9
		c-0.8-2.5-4.7-3.6-8.9-2.3c-4.1,1.3-6.9,4.3-6.1,6.9C53.1,8,53.4,8.6,54,9c-6.7,19.8-11.4,40.2-14.2,60.8
		c-2.8,20.7-3.7,41.7-2.7,62.6c1,20.9,3.9,41.7,8.6,62.1c4.7,20.4,11.2,40.3,19.5,59.5c8.3,19.2,18.4,37.7,30.2,55
		c1.5,2.2,3,4.3,4.5,6.4C100.9,317.1,103.5,315.6,102.4,314.1z"/>
</g>
</svg>
