<?xml version="1.0" encoding="utf-8"?>
<!-- Generator: Adobe Illustrator 24.2.0, SVG Export Plug-In . SVG Version: 6.00 Build 0)  -->
<svg version="1.1" id="Warstwa_1" xmlns="http://www.w3.org/2000/svg" xmlns:xlink="http://www.w3.org/1999/xlink" x="0px" y="0px"
	 viewBox="0 0 641.4 690.5" style="enable-background:new 0 0 641.4 690.5;" xml:space="preserve">
<style type="text/css">
	.st0{fill:#424242;}
	.st1{fill:#AAAAAA;}
	.st2{fill:#2B2F35;}
	.st3{fill:#AEEDED;}
	.st4{opacity:0.8;}
	.st5{fill:#FFFFFF;}
	.st6{fill:#8DDEE2;}
	.st7{opacity:0.45;}
	.st8{opacity:0.28;}
	.st9{fill:#72CECE;}
	.st10{fill:#AAAAAA;stroke:#E5E5E5;stroke-width:3;stroke-miterlimit:10;}
</style>
<g>
	<g>
		<path class="st0" d="M599.4,620.4l17.6-73.7c1.5-6.2-2.4-12.5-8.6-14l-28.9-6.9c-6.2-1.5-12.5,2.4-14,8.6l-10.7,44.7
			c-5.3,22.2,8.4,44.5,30.7,49.8h0C591.6,630.5,597.9,626.7,599.4,620.4z"/>
		<path class="st1" d="M593.5,618.8l17.6-73.7c1.5-6.2-2.4-12.5-8.6-14l-28.9-6.9c-6.2-1.5-12.5,2.4-14,8.6l-10.7,44.7
			c-5.3,22.2,8.4,44.5,30.7,49.8l0,0C585.8,628.9,592,625,593.5,618.8z"/>
		<path class="st2" d="M563,560.4c8.2-5.9,14.4-14.4,17.6-23.9c0.6-1.8-2.2-3-2.8-1.1c-3,9.1-8.9,17.1-16.7,22.7
			C559.6,559.2,561.4,561.5,563,560.4L563,560.4z"/>
		<path class="st2" d="M568.4,590.8c-6.6-4-14.3-5.9-22-4.9c-1.9,0.3-1.5,3.2,0.5,3c6.9-0.9,13.8,0.7,19.7,4.3
			C568.2,594.2,570,591.8,568.4,590.8L568.4,590.8z"/>
		<path class="st2" d="M568.8,581.8c-6.6-4-14.3-5.9-22-4.9c-1.9,0.3-1.5,3.2,0.5,3c6.9-0.9,13.8,0.7,19.7,4.3
			C568.6,585.2,570.4,582.8,568.8,581.8L568.8,581.8z"/>
		<path class="st2" d="M569.7,572.7c-6.6-4-14.3-5.9-22-4.9c-1.9,0.3-1.5,3.2,0.5,3c6.9-0.9,13.8,0.7,19.7,4.3
			C569.5,576.1,571.3,573.7,569.7,572.7L569.7,572.7z"/>
	</g>
	<g>
		<path class="st0" d="M342.1,688.5l62.9-42.3c5.3-3.6,6.7-10.8,3.2-16.1l-16.6-24.7c-3.6-5.3-10.8-6.7-16.1-3.2l-38.2,25.7
			c-19,12.8-24,38.5-11.2,57.4l0,0C329.6,690.6,336.8,692.1,342.1,688.5z"/>
		<path class="st1" d="M338,682.4l62.9-42.3c5.3-3.6,6.7-10.8,3.2-16.1l-16.6-24.7c-3.6-5.3-10.8-6.7-16.1-3.2l-38.2,25.7
			c-19,12.8-24,38.5-11.2,57.4l0,0C325.5,684.6,332.7,686,338,682.4z"/>
		<path class="st2" d="M355.1,618.8c10,1.2,20.3-0.8,29.2-5.7c1.7-0.9,0.5-3.7-1.2-2.7c-8.4,4.7-18.1,6.6-27.7,5.4
			C353.5,615.6,353.2,618.6,355.1,618.8L355.1,618.8z"/>
		<path class="st2" d="M338.5,644.9c-2.1-7.4-6.4-14.1-12.8-18.5c-1.6-1.1-3.4,1.3-1.8,2.4c5.7,3.9,9.8,9.9,11.6,16.5
			c0.2,0.8,0.9,1.4,1.7,1.2C338,646.5,338.7,645.6,338.5,644.9L338.5,644.9z"/>
		<path class="st2" d="M344.9,638.5c-2.1-7.4-6.4-14.1-12.8-18.5c-1.6-1.1-3.4,1.3-1.8,2.4c5.7,3.9,9.8,9.9,11.6,16.5
			c0.2,0.8,0.9,1.4,1.7,1.2C344.4,640.1,345.1,639.3,344.9,638.5L344.9,638.5z"/>
		<path class="st2" d="M351.8,632.4c-2.1-7.4-6.4-14.1-12.8-18.5c-1.6-1.1-3.4,1.3-1.8,2.4c5.7,3.9,9.8,9.9,11.6,16.5
			c0.2,0.8,0.9,1.4,1.7,1.2C351.2,634,352,633.2,351.8,632.4L351.8,632.4z"/>
	</g>
	<path class="st2" d="M365.5,355.3c3,22.1,13.6,42.3,29.2,58c7.7,7.8,16.5,14.6,26,20.2c7.8,4.7,16,8.5,24.3,12.1
		c17.3,7.4,35.1,13.6,52.3,21.1c16.9,7.4,33.7,16,47.5,28.6c6.4,5.9,12.1,12.7,16.3,20.4c4.4,8.1,7.1,16.9,8.2,26
		c0.3,2.5,0.5,5.1,0.6,7.7c0.1,1.9,3,1.5,3-0.5c-0.3-9.6-2.2-19.2-5.9-28.1c-3.4-8.1-8.4-15.6-14.3-22c-12.4-13.5-28.6-22.9-45-30.7
		c-17.2-8.2-35.1-14.6-52.8-21.7c-8-3.2-16-6.6-23.8-10.6c-9.6-4.9-18.8-10.9-27-17.9c-16.7-14.2-29.2-33.1-34.1-54.7
		c-0.6-2.8-1.1-5.6-1.5-8.5C368.2,353,365.3,353.4,365.5,355.3L365.5,355.3z"/>
	<path class="st2" d="M213.3,322.3c-2.9,25.9,0,52.2,7.7,77c3.8,12.3,8.8,24.3,14.9,35.7c6.8,12.6,15.4,24.2,24.9,34.8
		c17.6,19.7,38.2,36.3,57.5,54.3c13,12.1,25.6,25.1,35.7,39.8c9.1,13.3,18.5,30.9,13.5,47.5c-0.6,1.8-1.3,3.5-2.2,5.2
		c-0.9,1.7,1.7,3.3,2.6,1.6c8.2-15.7,2.1-33.7-6.3-47.9c-9.4-16-22.1-29.9-35.4-42.7c-17.5-17-36.6-32.3-53.7-49.7
		c-10-10.1-19.4-21-27.2-32.9c-7.3-11.2-13.2-23.5-17.9-36.1c-9.1-24.5-13.5-50.9-12-77.1c0.2-3.2,0.5-6.3,0.8-9.5
		C216.5,320.4,213.5,320.3,213.3,322.3L213.3,322.3z"/>
	<g>
		<path class="st3" d="M577,316.6c3.8-34.2-15.1-65.6-44.6-79.4c2.3-8.4,4-17.1,5-26c10-90.9-55.6-172.8-146.5-182.8
			c-62-6.8-119.8,21.5-153.4,69c-6.9-2.1-14-3.5-21.4-4.3C149.7,85.8,90,133.6,82.7,200c-1.2,10.7-0.9,21.3,0.6,31.5
			c-36.2,12.1-64,44.3-68.4,84.8c-6.1,55.5,33.9,105.4,89.4,111.5c22.6,2.5,44.3-2.7,62.5-13.5c16.7,23.2,42.9,39.5,73.5,42.9
			c30.2,3.3,58.8-6.5,80.1-25c17.5,28.5,47.4,48.9,83.2,52.8c61.4,6.8,116.7-37.5,123.5-98.9c0.2-1.7,0.3-3.4,0.4-5.1
			C553.8,370.8,573.7,346.6,577,316.6z"/>
		<g class="st4">
			<path class="st5" d="M581.2,317.1c-1,6.2-2.7,14.3-6.7,23c-1,2.2-2,4.4-3.4,6.6c-1.2,2.3-2.7,4.5-4.2,6.7
				c-3.1,4.4-6.8,8.9-11.2,13c-4.4,4.1-9.4,7.9-14.9,11.1c-0.7,0.4-1.4,0.8-2.1,1.2c-0.7,0.4-1.4,0.7-2.2,1.1
				c-0.7,0.4-1.5,0.7-2.2,1.1l-0.6,0.3c-0.2,0.1-0.4,0.2-0.5,0.2l-0.8,0.3l-1.6,0.6l-0.8,0.3c-0.1,0-0.2,0-0.2,0.1l0,0.2l0,0.4
				l-0.2,1.7c-0.1,0.6-0.1,1-0.2,1.9c-1.6,13.3-5.8,26.9-12.4,39.4c-6.6,12.5-15.7,23.9-26.3,33.1c-10.6,9.2-22.8,16.2-35.2,20.7
				c-6.2,2.3-12.4,4-18.5,5.1c-6.1,1.1-12.1,1.7-17.8,1.8c-1.4,0-2.8,0-4.2,0c-1.4-0.1-2.8-0.1-4.1-0.2c-0.7,0-1.4,0-2-0.1
				c-0.7-0.1-1.3-0.1-2-0.2c-1.3-0.1-2.6-0.2-3.9-0.4c-2.5-0.4-5-0.7-7.4-1.2c-1.2-0.2-2.3-0.5-3.5-0.7c-1.1-0.2-2.3-0.5-3.3-0.8
				c-1.7-0.4-3.3-0.9-4.9-1.3c-1.6-0.5-3.2-1-4.7-1.5c-1.6-0.5-3-1.1-4.5-1.7c-1.4-0.6-2.9-1.1-4.3-1.8c-1.4-0.6-2.7-1.3-4.1-1.9
				c-1.3-0.6-2.6-1.4-3.8-2c-2.5-1.3-4.8-2.8-7.1-4.2c-1.2-0.7-2.2-1.5-3.2-2.2c-1-0.7-2.1-1.5-3.1-2.2c-1.9-1.6-3.9-3-5.6-4.5
				c-0.9-0.8-1.7-1.5-2.5-2.2c-0.8-0.7-1.6-1.5-2.4-2.2c-0.8-0.8-1.5-1.5-2.2-2.2c-0.7-0.7-1.4-1.4-2.1-2.2
				c-2.2-2.5-2.6-2.9-1.4-1.6c1.2,1.3,3.9,4.3,8.3,8.2c4.4,4,10.5,8.9,18.5,13.6c8,4.7,17.8,9,29.2,12c1.3,0.4,2.6,0.6,3.9,0.9
				c1.3,0.3,2.6,0.5,4,0.8c1.4,0.2,2.7,0.4,4.1,0.6c1.4,0.2,2.8,0.4,4.2,0.5c5.7,0.6,11.7,0.7,17.9,0.4c12.4-0.6,25.9-3.6,39.2-9.5
				c-8.4,3.5-17.1,6.1-25.7,7.4c-8.6,1.4-17.2,1.7-25.3,1.2c-16.2-1.1-30.6-5.5-41.6-11c-16.4-7.5-31.1-19.2-42.3-34l-2.3-3.1
				c-0.8-1.1-1.6-2.3-2.3-3.4l-1.1-1.7l-0.6-0.9l-0.3-0.4l-0.1-0.2l-0.1-0.1c0,0-0.1,0-0.1,0.1l-3.2,2.6c-1,0.9-2.2,1.7-3.3,2.5
				c-1,0.7-2,1.5-3.1,2.2l-3.2,2.1c-1.1,0.7-2.2,1.3-3.2,2l-1.6,1l-1.7,0.9c-1.1,0.6-2.2,1.2-3.4,1.7c-2.3,1.1-4.5,2.2-6.9,3.1
				c-2.3,1-4.7,1.8-7.1,2.6c-1.2,0.4-2.4,0.7-3.6,1.1l-1.8,0.5l-1.8,0.4c-19.5,4.8-40.2,3.6-59-2.9l-3.5-1.3c-1.2-0.4-2.3-1-3.4-1.4
				c-2.3-0.9-4.5-2.1-6.7-3.2c-1.1-0.6-2.2-1.2-3.3-1.8c-1.1-0.6-2.2-1.2-3.2-1.9l-3.1-2l-3-2.2c-0.5-0.4-1-0.7-1.5-1.1l-1.5-1.2
				c-1-0.8-2-1.5-2.9-2.3c-1.9-1.6-3.8-3.2-5.5-5c-1.8-1.7-3.5-3.5-5.2-5.4c-0.8-0.9-1.6-1.9-2.4-2.8l-1.2-1.5
				c-0.5-0.6-0.9-1.1-1.3-1.7l-2.6-3.5c0-0.1-0.1,0-0.1,0l-0.1,0.1l-0.2,0.1l-0.5,0.3l-0.9,0.5l-1.9,1.1c-1.3,0.7-2.6,1.4-3.7,1.9
				c-1.1,0.6-2.3,1.1-3.4,1.6c-4.5,2-9.2,3.7-14,5c-9.6,2.6-19.6,3.8-29.6,3.5c-7.2-0.3-16.6-1.4-26.6-4.5c-5-1.6-10.1-3.6-15.1-6.1
				c-5-2.5-9.9-5.5-14.5-9c-4.6-3.4-8.9-7.2-12.7-11.2c-3.9-4-7.2-8.3-10.1-12.6c-1.5-2.1-2.7-4.3-4-6.3c-1.2-2.1-2.3-4.1-3.2-6.2
				c-1-2-1.8-4-2.6-5.8c-0.8-1.9-1.4-3.6-2-5.3c4.8,13.7,12.7,26.4,22.9,36.9c10.3,10.4,22.7,18.6,36.5,23.6c13.7,5,28.5,7,43.1,5.7
				c3.6-0.4,7.3-0.8,10.8-1.6c1.8-0.3,3.6-0.8,5.3-1.2c1.8-0.5,3.5-0.9,5.3-1.5c3.5-1.1,6.9-2.5,10.2-3.9l2.5-1.2
				c0.4-0.2,0.8-0.4,1.2-0.6l1.3-0.7c2-1,4-2.2,6-3.3c0.1,0,0.1-0.1,0.2-0.1l0.1,0.2l0.3,0.3l0.5,0.7l1,1.4l2.1,2.7l1.9,2.2
				c0.6,0.7,1.2,1.4,1.8,2.1c1.3,1.3,2.5,2.7,3.8,4c1.3,1.3,2.6,2.6,4,3.8c5.4,4.9,11.4,9.3,17.7,12.9c12.7,7.3,26.9,11.9,41.5,13.3
				c14.6,1.5,29.5-0.2,43.3-5c6.9-2.4,13.6-5.5,19.9-9.3c1.6-0.9,3.1-1.9,4.6-3c0.8-0.5,1.5-1,2.3-1.6l2.4-1.8
				c1.8-1.3,3.5-2.8,5.2-4.2l0.6-0.5l0.3-0.3c0.1-0.1,0.2-0.3,0.3-0.1l0.9,1.4l1.8,2.8L322,432l-0.8-1.2l-0.4-0.6c0,0,0-0.1-0.1-0.1
				l-0.1,0.1l-0.1,0.1l-0.3,0.2c-1.5,1.2-3,2.4-4.5,3.6l-1.4,1.1l-1.3,1c-0.8,0.6-1.5,1.2-2.3,1.7c-1.6,1-3.2,2.2-4.8,3.1
				c-1.7,1-3.3,2-5,2.9c-1.7,0.9-3.4,1.8-5.2,2.6c-7,3.3-14.3,5.7-21.8,7.3c-15,3.3-30.8,3-45.7-0.6c-14.9-3.6-29-10.6-40.9-20.2
				c-1.5-1.2-2.9-2.5-4.3-3.7c-1.4-1.3-2.8-2.7-4.1-4c-1.3-1.4-2.6-2.8-3.9-4.2l-1.8-2.2l-0.9-1.1c-0.5-0.5-0.8-1-1.2-1.5l-2.3-3.1
				l-1.2-1.5c-0.1-0.2-0.2,0-0.4,0l-0.4,0.2l-0.8,0.5l-3.4,1.9c-0.6,0.3-1.1,0.6-1.7,0.9l-1.4,0.7c-3.4,1.7-6.9,3.2-10.5,4.5
				c-9.8,3.5-20.2,5.5-31,5.7c10.5-0.2,21-2.1,31-5.7c1.6-0.6,3.2-1.2,4.7-1.9c1.6-0.6,3.1-1.4,4.6-2.1c0.4-0.2,0.8-0.4,1.1-0.6
				l1.2-0.6c1-0.5,2-1.1,3-1.6l3-1.7l0.7-0.4c0.1-0.1,0.2,0,0.3,0.1l0.3,0.3l1,1.4l2.1,2.7c0.7,0.9,1.5,1.9,2,2.4
				c1.1,1.3,2.1,2.6,3.3,3.8c2.3,2.5,4.7,4.9,7.3,7.2c10.2,9.1,22.5,16.4,36.5,20.9c8.7,2.8,18.3,4.8,28.1,5.1
				c4.9,0.3,9.8,0,14.6-0.4c2.4-0.3,4.8-0.5,7.1-1c1.2-0.2,2.3-0.4,3.5-0.6c1.1-0.3,2.3-0.5,3.4-0.8c7.3-1.8,14.1-4.2,20.5-7.2
				c1.6-0.8,3.2-1.6,4.7-2.4c1.6-0.8,3.1-1.7,4.6-2.6c1.5-0.9,3-1.9,4.5-2.9l2.2-1.5c0.8-0.6,1.8-1.3,2.6-1.9l3.3-2.7l1.6-1.3
				c0.1-0.1,0.1,0.1,0.2,0.1l0.1,0.2l0.3,0.4l0.6,0.9l2.3,3.6c0.4,0.6,0.8,1.2,1.2,1.8l1.1,1.6l2,2.8c0.7,0.9,1.5,1.8,2.2,2.7
				c0.7,0.9,1.4,1.8,2.2,2.7l2.3,2.6c0.5,0.5,0.9,1,1.4,1.5c0.5,0.5,1,1,1.5,1.5c1,1,2.1,2,3.2,3c-0.1-0.1-0.2-0.2-0.3-0.3
				c-0.9-1.1-2.5-2.7-4.5-4.9c-1-1.1-2.1-2.4-3.3-3.8c-1.2-1.4-2.4-3-3.7-4.7c-0.7-0.8-1.3-1.8-1.9-2.7c-0.3-0.5-0.7-0.9-1-1.4
				c-0.2-0.3-0.4-0.6-0.7-0.9c-0.2-0.3-0.4-0.7-0.7-1c-0.9-1.4-1.8-2.8-2.7-4.3c-0.5-0.7-0.9-1.5-1.4-2.3l-0.2-0.3l-0.3,0.2
				l-0.5,0.4c-0.4,0.3-0.7,0.6-1.1,0.8c-1.4,1.1-2.9,2.3-4.4,3.5c-0.4,0.3-0.8,0.6-1.2,0.9c-0.4,0.3-0.7,0.5-1.1,0.8
				c-0.6,0.4-1.2,0.8-1.8,1.3c-1.2,0.8-2.5,1.6-3.8,2.4c-1.3,0.8-2.7,1.6-4,2.4c-11,6.2-24.8,11.1-39.9,12.5
				c-15.1,1.5-31.4-0.5-46.4-6.3c-7.5-2.9-14.7-6.6-21.2-11.2c-6.5-4.6-12.5-9.8-17.7-15.6l-1-1.1l-0.9-1.1
				c-0.6-0.7-1.2-1.5-1.8-2.2l-0.3-0.4c-0.2-0.2-0.3-0.3-0.4-0.5l-0.7-1l-1.4-1.9c-1-1.3-1.9-2.6-2.9-3.8l-0.2-0.2l-0.1-0.1
				c0,0-0.1,0-0.1,0l-0.5,0.3l-1,0.6l-2.1,1.1c-1.4,0.7-2.8,1.5-4.1,2.3l-1.6,0.8c-0.4,0.2-0.8,0.4-1.2,0.6
				c-0.8,0.4-1.7,0.8-2.5,1.1c-6.7,2.9-13.4,5-20,6.3c-13.1,2.7-25.2,2.1-34.8,0.6c-9.6-1.6-16.8-4.2-21.1-5.9
				c-13.8-5.5-25.8-13.7-35.9-24.4c-10-10.7-18.2-24.2-22.4-40.5c-1.4-5.4-2.1-10.6-2.5-15.4c-0.1-2.4-0.3-4.7-0.3-7
				c-0.1-2.3,0-4.5,0-6.6c-0.1-0.4-0.1-1.7,0-3.4c0-0.9,0-1.8,0.2-2.9c0.1-1,0.2-2.1,0.4-3.2c1.6-11.1,5.2-21.9,10.3-31.2
				c5-9.3,11.2-17.2,17.1-23.5c3.5-3.9,11.1-9.6,19.1-13.8c4-2.1,8.1-3.9,11.7-5.1c0.4-0.2,0.9-0.3,1.3-0.5c0.4-0.2,0.7-0.3,1.5-0.5
				c1.3-0.4,2.6-0.9,3.8-1.3c2.4-0.8,4.5-1.5,6.1-2.1c-0.3-2.3-0.5-3.9-0.7-4.5c-0.6-2.2-1-3.7-1.3-4.9c-0.1-0.4-0.1-0.5-0.2-0.6
				c0-0.2-0.1-0.3-0.1-0.5c-0.1-0.3-0.2-0.6-0.2-0.9c-0.2-1.1-0.3-2-0.3-3.5c0-1.5,0-3.6,0.2-7.1c0.1-1.7,0.2-3.8,0.4-6.4
				c0.2-2.5,0.5-5.5,1-9c0.1-0.8,0.2-2.2,0.5-3.8c0.2-1.6,0.5-3.5,0.8-5.5c0.4-2,0.7-4.1,1.2-6.1c0.5-2,1-3.9,1.6-5.6
				c0.5-1.4,1-2.7,1.5-3.9c0.4-1.3,1-2.4,1.5-3.5c0.9-2.3,1.9-4.3,2.8-6.3c0.2-0.5,0.5-1,0.7-1.4c0.2-0.5,0.5-0.9,0.7-1.4
				c0.5-0.9,0.9-1.8,1.4-2.7c0.9-1.8,1.9-3.4,2.9-5.2c1-1.7,2.1-3.4,3.2-5.2c1.2-1.7,2.4-3.6,3.9-5.5c2.9-3.8,6.4-8,11.1-12.7
				c7.1-7,13.6-11.7,19.5-15.4c5.9-3.6,11.3-6.3,16.6-8.4c5.4-2.1,10.7-4,16.9-5.6c6.2-1.6,13.3-3,22.1-3.8c1.4-0.1,8.3-0.6,16.4,0
				c4.1,0.2,8.4,0.8,12.5,1.5c2.1,0.4,4,0.8,5.9,1.2c0.6,0.1,1.1,0.3,1.6,0.4c0.6,0.2,1.2,0.3,1.8,0.5c1.1,0.3,2.2,0.6,3.2,0.9
				c1.3-1.7,2.5-3.4,3.7-4.9c0.9-1.2,1.7-2.3,2.5-3.3c1.4-2,2.9-3.6,3.9-4.8c2.2-2.6,3.3-3.9,3.3-3.9c0.9-1.1,1.8-2,2.8-3
				c0.9-1,1.9-1.9,2.8-2.8c0.9-0.9,1.8-1.9,2.7-2.8c0.9-0.9,1.9-1.7,2.8-2.5c1.9-1.7,3.7-3.3,5.5-4.9c1.9-1.5,3.8-2.9,5.6-4.4
				c0.9-0.7,1.8-1.4,2.7-2.1c0.9-0.6,1.9-1.3,2.8-1.9c1.8-1.3,3.7-2.5,5.5-3.7c1.8-1.2,3.7-2.2,5.5-3.3c0.9-0.5,1.8-1.1,2.7-1.6
				c0.9-0.5,1.8-1.1,2.7-1.5c7.4-3.8,14.7-7.2,22.3-9.7c1.9-0.6,3.8-1.3,5.8-1.9c1.9-0.6,3.9-1,5.9-1.5c2-0.5,4-1,6.1-1.4
				c2.1-0.3,4.2-0.7,6.3-1c1.2-0.3,2.4-0.6,3.6-0.8c1.2-0.2,2.5-0.4,3.8-0.6c2.5-0.4,5.1-0.8,7.7-1.1c5.3-0.4,10.7-1,16.3-0.8
				c5.6-0.2,11.3,0.5,17,0.9c2.9,0.4,5.7,0.8,8.6,1.2c2.9,0.6,5.7,1.1,8.6,1.7c11.4,2.6,22.6,6.5,32.9,11.4
				c10.4,4.9,20,10.7,28.5,16.8c8.5,6.2,15.1,12.3,20.8,18.2c5.6,5.9,10.1,11.7,14.2,17.5c1,1.5,1.9,3,2.9,4.4l1.4,2.2
				c0.5,0.8,0.9,1.5,1.3,2.3c0.9,1.5,1.8,3.1,2.7,4.6c0.8,1.6,1.7,3.2,2.5,4.9c3.3,6.7,6.6,13.9,9.4,22.6c3.4,9.8,5.2,17.4,6.2,23.4
				c0.2,1.5,0.5,3.5,1,5.9c0.5,2.3,0.8,5.1,1.2,7.9c0.8,5.7,1.3,12,1.2,17.2c-0.2-0.9-0.4-1.7-0.6-2.6c0,1.7,0.1,4.3-0.1,6.9
				c-0.1,1.3-0.1,2.6-0.2,3.8c0,0.6-0.1,1.2-0.1,1.7c-0.1,0.5-0.1,1-0.1,1.4c-0.3,3.4-0.5,2.6-0.6,1.7c-0.2-1.8-0.5-3.5-1.3,2.5
				c-0.5,4.6-1.2,9.1-2.1,13.7c-0.5,2.3-1,4.6-1.5,6.8l-0.5,1.9c-0.3,1.2-0.6,2.3-0.9,3.5c-0.6,2.3-1.3,4.7-1.9,7
				c2.3,1.2,4.5,2.4,6.8,3.6c1.1,0.6,2.3,1.2,3.4,1.8l1.6,1c1.1,0.7,2.1,1.3,3.2,2c1,0.8,2,1.5,3,2.3c11.3,8.2,20,19.7,24.9,32.6
				c0.5,0.7,1.1,1.5,1.9,3.3c0.6,2,1.2,4,1.7,6l0.6,3c0.2,1,0.5,2,0.6,3.1c0.8,2.4,1.4,1.5,1.9,3.2c0.9-0.1,1.9,4.4,2.5,8.5
				c0.3,2,0.5,4,0.8,5.1c0.3,1.2,0.6,1.5,1.1,0.5c0.1-0.4,0.4-2.4,0.7-5.3c0-0.4,0.1-0.7,0.1-1.1c0-0.4,0-0.8,0-1.2
				c0-0.8,0-1.7,0-2.6c0-0.9,0-1.9,0-2.9c-0.1-1-0.1-2-0.2-3c-0.1-1-0.1-2.1-0.2-3.2c-0.2-1.1-0.3-2.1-0.5-3.2
				c-0.2-1.1-0.3-2.1-0.5-3.2c-0.2-1-0.5-2.1-0.7-3.1c-0.2-1-0.4-2-0.7-3c-0.3-1-0.6-1.9-0.8-2.8c-0.3-0.9-0.5-1.8-0.7-2.6
				c-0.3-0.8-0.6-1.6-0.8-2.3c-0.4-1.3,0.1-0.6,1,0.8c0.5,0.7,0.9,1.6,1.3,2.4c0.4,0.9,0.9,1.7,1.2,2.3c-0.3-0.9-0.6-1.8-0.9-2.7
				c-0.3-0.8-0.5-1.6-0.8-2.3c-0.6-1.4-1.1-2.6-1.5-3.7c-0.2-0.5-0.4-1-0.6-1.4c-0.2-0.4-0.4-0.8-0.5-1.1c-0.3-0.7-0.5-1.1-0.6-1.5
				c-0.5-1.3,0.5-0.3,2.2,2.6c-0.8-1.7-1.7-3.4-2.3-4.7c-0.3-0.6-0.6-1.2-0.8-1.5c-0.2-0.4-0.3-0.6-0.3-0.6c0.4,0.3,1,1.1,1.5,1.7
				c0.5,0.7,1,1.2,1,1.2c-4-7.9-9.3-15.4-15.8-21.9l-1.2-1.2l-1.3-1.2l-2.6-2.3c-0.8-0.8-1.8-1.5-2.7-2.2l-2.8-2.1
				c-1.9-1.4-3.9-2.6-5.9-3.9l-0.3-0.2l0,0l-0.1-0.1l-0.2-0.1c-0.1-0.1-0.2-0.2-0.3-0.2c0.1-0.1,0.1-0.2,0.1-0.2c0,0,0,0,0,0
				c0,0,0,0,0,0l0.1-0.2l0.1-0.5l0.5-2.2c0.7-2.9,1.3-5.9,1.8-8.8c0.5-2.9,1-5.9,1.4-8.9c0.3-3,0.6-5.9,0.8-8.9
				c0.8-11.8,0.3-23.5-1.4-34.5c-0.7-4.1-1.7-9.6-3.1-15.1c-0.6-2.8-1.6-5.5-2.3-8.1c-0.7-2.6-1.7-5.1-2.5-7.2
				c-0.4-1.1-0.8-2.5-1.4-4.1c-0.6-1.6-1.2-3.3-1.8-5c-0.6-1.7-1.3-3.3-1.9-4.8c-0.6-1.4-1.1-2.7-1.5-3.5c-1.6-2.8-2.5-3.9-3.2-4.6
				c-0.7-0.7-1.1-1-2-2.1c-3.2-6.4-7.6-14.4-13.3-22.4c-5.6-8-12.4-15.9-19.1-22.4c-6.7-6.5-13.3-11.9-18.3-15.2
				c-1.2-0.8-2.3-1.6-3.3-2.2c-1-0.6-1.9-1.1-2.6-1.4c-1.4-0.7-2.1-1-2.1-0.6c-1.2-0.8-2.3-1.6-3.4-2.2c-1.1-0.7-2.2-1.3-3.2-1.9
				c-1-0.6-2-1.2-2.9-1.7c-0.9-0.5-1.9-1-2.8-1.4c-1.8-0.9-3.5-1.7-5.1-2.5c-1.7-0.7-3.2-1.4-4.8-2.1c-3.2-1.4-6.5-2.5-10.3-4
				c-3.9-1.3-8.4-2.9-14.1-4.4c-15-4.3-32.8-6.7-51.5-6.2c-18.7,0.7-38.3,4.5-56.5,11.7c-2.5,1.1-4.9,2.1-7.3,3.1
				c-0.6,0.3-1.2,0.5-1.8,0.8l-1.8,0.9c-1.2,0.6-2.3,1.2-3.5,1.8c-4.8,2.2-9.1,5.1-13.7,7.7c-2.2,1.4-4.3,2.9-6.5,4.3
				c-1.1,0.7-2.2,1.4-3.2,2.2l-3.1,2.4c-2,1.6-4.1,3.1-6.1,4.8c-1.9,1.7-3.9,3.4-5.8,5.2c-0.7,0.7-1.5,1.3-2.1,1.9
				c-0.7,0.7-1.3,1.4-2,2c-1.3,1.4-2.7,2.7-4,4c-1.3,1.3-2.5,2.7-3.7,4.1c-1.2,1.4-2.4,2.8-3.6,4.1c-1.5,1.7-2.8,3.6-4.2,5.3
				c-0.5,0.7-1,1.3-1.5,2c-0.4,0.5-0.7,1-1.1,1.4c-0.8-0.2-1.6-0.5-2.4-0.7l-1.8-0.4l-2.1-0.5c-2.8-0.6-5.5-1.1-8.3-1.6
				c-2.8-0.4-5.5-0.8-8.3-1c-1.4-0.1-2.8-0.3-4.1-0.3c-1.4,0-2.8-0.1-4.1-0.1c-1.4-0.1-2.8,0-4.1,0c-1.4,0-2.7,0-4.1,0.1
				c-2.7,0.2-5.5,0.3-8.1,0.7c-5.4,0.5-10.7,1.6-15.9,2.8c-2.6,0.7-5.2,1.3-7.7,2.2c-1.3,0.4-2.5,0.8-3.8,1.2
				c-1.2,0.5-2.5,0.9-3.7,1.4l-1.8,0.7l-1.8,0.8c-1.2,0.5-2.4,1-3.6,1.6l-3.5,1.7l-1.8,0.9l-1.7,0.9l-3.4,1.9l-3.3,2
				c-2.2,1.3-4.3,2.9-6.5,4.3c-4.2,3.1-8.2,6.2-11.9,9.8c-3.8,3.4-7.3,7.2-10.6,11c-1.6,2-3.3,3.9-4.7,6l-2.3,3.1l-2.1,3.2
				c-5.6,8.4-10,17.5-13.3,27c-0.9,2.3-1.5,4.8-2.3,7.2c-0.4,1.2-0.6,2.4-1,3.6l-0.9,3.7c-0.4,2.5-1,4.9-1.3,7.4
				c-0.3,2.5-0.7,5-0.9,7.5c-0.5,5-0.6,10-0.5,15c0.1,2.5,0.2,5,0.4,7.5l0.2,1.8l0.1,1c0.1,0.6,0.2,1.3,0.3,1.9
				c-0.8,0.4-1.8,0.7-2.7,1l-1.4,0.5l-2.1,1l-4.4,2c-1.4,0.7-2.9,1.5-4.3,2.3l-2.1,1.2c-0.7,0.4-1.4,0.9-2.1,1.3l-4.1,2.6
				c-1.3,0.9-2.6,1.9-3.9,2.9l-2,1.5c-0.6,0.5-1.2,1.1-1.9,1.6l-3.7,3.2c-1.2,1.1-2.3,2.3-3.5,3.5l-1.8,1.7
				c-0.6,0.6-1.1,1.2-1.6,1.9c-1.1,1.2-2.2,2.5-3.3,3.7c-1,1.3-2,2.6-3,4l-1.5,2l-1.4,2.1c-0.9,1.4-1.8,2.8-2.7,4.2
				c-0.8,1.5-1.6,2.9-2.4,4.4c-0.4,0.7-0.8,1.5-1.2,2.2l-1.1,2.3c-0.7,1.5-1.4,3-2.1,4.6c-0.6,1.6-1.2,3.2-1.8,4.8
				c-0.3,0.8-0.6,1.6-0.9,2.4l-0.7,2.4c-2.1,6.5-3.2,13.3-4.1,20.2c-1.4,13.8,0,28.1,4.5,41.9c5.9,18.3,17,35,31.8,47.5
				c7.4,6.2,15.6,11.5,24.4,15.4l1.6,0.8l1.7,0.7c1.1,0.4,2.2,0.9,3.4,1.3c2.3,0.8,4.6,1.6,6.9,2.2c4.6,1.4,9.4,2.4,14.1,3.1
				c9.5,1.4,19.3,1.5,28.8,0.2c9.5-1.3,18.9-3.9,27.6-7.8c1.1-0.5,2.2-1,3.3-1.5c0.5-0.2,1.1-0.5,1.6-0.8l1.4-0.7
				c0.8-0.4,1.6-0.8,2.3-1.3l1.2-0.7c0.1-0.1,0.1,0,0.1,0l0.1,0.1l0.2,0.3l0.4,0.5l1.6,2.1l2.1,2.5c1.5,1.9,3.2,3.5,4.8,5.3
				c6.7,6.8,14.2,12.7,22.3,17.4c8.2,4.7,16.9,8.5,25.9,10.9c9,2.4,18.3,3.7,27.5,3.8c9.2,0.1,18.4-1.1,27.3-3.3
				c8.8-2.3,17.3-5.7,25.2-10c1-0.5,1.9-1.1,2.9-1.7c1-0.6,1.9-1.1,2.9-1.7c1.9-1.2,3.8-2.4,5.5-3.8l2.1-1.5l1.8-1.5l0.9-0.7
				c0.1,0,0.2-0.2,0.2-0.1l0.2,0.2l0.3,0.5l1.3,2c0.4,0.6,0.8,1.3,1.3,1.9l1.9,2.7l1,1.3l1,1.3l2.1,2.5c0.7,0.9,1.4,1.7,2.1,2.5
				l2.2,2.4c0.7,0.8,1.5,1.6,2.3,2.3l2.3,2.3c12.5,11.9,27.6,20.6,43.3,25.7c15.7,5.1,32,6.6,47.5,5c15.5-1.6,30.1-6.4,42.8-13.3
				c12.8-6.9,23.6-16,32.3-26c4.3-5,8.1-10.3,11.4-15.7c3.3-5.4,6.1-10.9,8.3-16.4c2.2-5.5,4.1-11,5.3-16.4c0.2-0.7,0.3-1.3,0.5-2
				c0.1-0.7,0.3-1.4,0.4-2c0.3-1.3,0.6-2.7,0.8-4c0.2-1.3,0.4-2.6,0.6-4l0.1-1l0.1-0.5l0-0.3l0.1-1l0.1-0.9c0-0.2,0-0.3,0.1-0.5
				l0.5-0.2c0.6-0.2,1.2-0.5,1.8-0.7l0.2-0.1c0.1,0,0.1-0.1,0.3-0.1l0.8-0.4c0.6-0.3,1.1-0.6,1.7-0.8c1.1-0.6,2.2-1.1,3.3-1.7
				c1-0.6,2.1-1.2,3.1-1.8c1-0.6,2-1.3,2.9-1.9c0.9-0.7,1.9-1.3,2.8-2c0.9-0.7,1.8-1.4,2.6-2.1c6.9-5.5,12.2-11.5,16.1-17.2
				c4-5.7,6.6-11.1,8.5-15.6C579,332.1,580.6,324.6,581.2,317.1z"/>
		</g>
	</g>
	<g>
		<path class="st6" d="M585.2,328.1c3.8-34.2-15.1-65.6-44.6-79.4c2.3-8.4,4-17.1,5-26c10-90.9-55.6-172.8-146.5-182.8
			c-62-6.8-119.8,21.5-153.4,69c-6.9-2.1-14-3.5-21.4-4.3c-66.3-7.3-126,40.5-133.4,106.9c-1.2,10.7-0.9,21.3,0.6,31.5
			c-36.2,12.1-64,44.3-68.4,84.8C17,383.2,57,433.1,112.5,439.2c22.6,2.5,44.3-2.7,62.5-13.5c16.7,23.2,42.9,39.5,73.5,42.9
			c30.2,3.3,58.8-6.5,80.1-25c17.5,28.5,47.4,48.9,83.2,52.8c61.4,6.8,116.7-37.5,123.5-98.9c0.2-1.7,0.3-3.4,0.4-5.1
			C562,382.3,581.9,358.1,585.2,328.1z"/>
		<g class="st4">
			<path class="st5" d="M526.8,209.3c0.3-3.6,0.4,1.4,0.7-4.1c0.2,1.5,0.4,7.2-0.2,12.2c-0.2,1.4-0.4,2.9-0.7,4.3
				c0.2-2.2,0-3.9,0.1-5.7C526.7,214.2,526.8,212.2,526.8,209.3z"/>
			<path class="st5" d="M578.6,323c0.2-1.9,0.4-1.4,0.5-1.2c-0.1,1.8-0.3,3.6-0.5,4.8C578.4,327.2,578.5,324.8,578.6,323z"/>
			<path class="st5" d="M531.4,247.2c1.4-4.7,3-10.8,4.1-15.9c0.2-0.4,0.4-0.4,0.4,0.3c0,0.8-0.1,2.3-0.4,4.2
				c-0.5,3.7-1.7,9.2-3.1,14.8c-0.1,0.2-0.1,0.5-0.2,0.8c0,0.2-0.2,0.6,0,0.7c2.8,1.4,5.8,3.1,6.7,3.7c0.9,0.8,2.2,1.8,2.2,2.1
				c0,0.1-0.3,0.1-1.1-0.2c-0.8-0.3-2.2-1-4.4-2c-1.1-0.3-3.3-1.5-5.5-2.7c0-0.1-0.1-0.2,0-0.2l0.1-0.3c0.1-0.2,0.1-0.4,0.2-0.6
				c0.1-0.4,0.2-0.8,0.3-1.1c0.2-0.7,0.4-1.4,0.6-2C531.5,247.5,531.7,246.9,531.4,247.2z"/>
			<path class="st5" d="M580.2,298.1c-0.1-0.2-0.3-0.5-0.4-0.7c-0.6-1.9,0.1-1.1-0.8-4.1l-0.5-1.2c-0.2-0.4-0.4-0.8-0.6-1.2
				l-1.2-2.3c-1.2-2.9-0.2-1.1,0-0.9c-0.5-1.4-1.3-2.5-1.8-3.6c-0.6-1.1-1.1-2.2-1.7-3.1c-0.6-0.9-1.1-1.8-1.7-2.7
				c-0.5-0.9-1-1.8-1.6-2.6c-0.6-0.8-1.2-1.6-1.8-2.5c-0.3-0.4-0.6-0.9-0.9-1.3c-0.3-0.4-0.7-0.9-1.1-1.3c-0.8-0.9-1.5-1.8-2.4-2.8
				c-0.9-1-1.9-2-3-3.1l2.9,2.3c-1.1-1.2-2.6-2.8-4.1-4.2c-1.5-1.4-3-2.7-3.9-3.6c3.3,2.6,2.7,1.9,1.3,0.5c-0.4-0.4-0.8-0.8-1.2-1.2
				c-0.4-0.4-0.9-0.7-1.3-1.1c-0.8-0.7-1.4-1.2-1.3-1.3c0.7,0.4,1.7,0.9,3,1.7c1.2,0.8,2.8,2,4.9,3.6c-1.4-1.2-2.8-2.6-4.1-3.9
				c-0.7-0.6-1.4-1.2-2.1-1.8c-0.7-0.6-1.3-1.1-1.9-1.6l3.8,2.8c0.5,0.3,0.4,0-0.2-0.5c-0.3-0.3-0.8-0.6-1.3-1.1
				c-0.6-0.4-1.2-0.9-1.9-1.4c0.8,0.6,1.4,1,1.7,1.2c0.3,0.2,0.5,0.2,0.6,0.2c0.1,0,0-0.3,0.6,0.1c-1.1-0.8-2.1-1.6-3.2-2.4
				c-1-0.7-2.1-1.3-3.2-2c-2.1-1.4-4.5-2.4-6.8-3.7c-0.1,0-0.1-0.1-0.2-0.1l0.1-0.2l0.1-0.4l0.2-0.8c0.1-0.5,0.3-1,0.4-1.5
				c0.3-1,0.6-2.1,0.9-3.2c1.1-3.5,1.4-3.6,2.1-5.4c-0.4,2.4-0.8,4.4-1.1,6.2c-0.2,0.9-0.3,1.7-0.5,2.5c-0.1,0.4-0.2,0.8-0.2,1.1
				l-0.1,0.5l-0.1,0.3c0,0-0.1,0.1,0,0.1l0.1,0.1c0.8,0.3,1.5,0.7,2.1,1c0.7,0.5,1.7,1,2.9,1.8c1.1,0.8,2.4,1.6,3.6,2.4
				c0.6,0.4,1.1,0.9,1.6,1.2c0.6,0.5,1.1,0.9,1.6,1.3c0.9,0.8,1.5,1.3,1.5,1.5c2.1,1.8,4.9,3.8,6.5,5.2c-0.3-0.4-0.9-1-1.5-1.7
				c-0.7-0.6-1.5-1.4-2.3-2.1c-0.8-0.7-1.6-1.4-2.4-2.1c-0.8-0.6-1.4-1.1-1.8-1.5c1.9,1.3,3.4,2.6,4.8,3.7c0.7,0.6,1.4,1.1,2,1.7
				c0.6,0.6,1.2,1.2,1.8,1.8c1.2,1.2,2.4,2.3,3.6,3.7c0.6,0.7,1.2,1.4,1.9,2.2c0.3,0.4,0.7,0.8,1,1.2c0.3,0.4,0.7,0.9,1,1.3
				l-0.8-1.5c2.8,4,6.6,9.3,9.3,14.7c0.8,1.3,1.3,2.7,1.9,4c0.6,1.3,1.2,2.5,1.6,3.7c0.8,2.4,1.5,4.4,1.9,5.8
				c0.3,1.3,0.5,2.5,0.8,3.8c0.1,0.6,0.2,1.2,0.4,1.8c0.1,0.6,0.1,1.2,0.2,1.8c0.1,1.2,0.2,2.3,0.4,3.5c0,0.6,0.1,1.1,0.1,1.6
				c0,0.5,0,1,0,1.6c0,2,0,3.7-0.1,5.1c-0.2,1.4-0.3,2.4-0.5,3c-0.1-4.3-0.4-4.2-0.5-3.1c-0.2,1.1-0.4,3.1-0.5,2.7
				c0-2.7-0.3-7-0.5-6.1c0,1.2,0.1,2.3,0.1,3.3c0,1,0,2,0,2.9c0,1.8,0.1,3.2-0.3,4.1c-0.2-4.2-0.6-5.1-0.9-5.3c-0.4-0.2-0.7,0.4-1-1
				c-0.1-0.6-0.3-1.7-0.5-3c-0.1-0.7-0.2-1.4-0.2-2.1c-0.1-0.7-0.1-1.5-0.3-2.2c-0.5-2.9-1-5.3-1.2-4.6c1.1,6-0.1,0.3-0.1,1.7
				C581.5,303.3,581,301.5,580.2,298.1z"/>
			<path class="st5" d="M540.8,171.7c-0.7-3.5-0.2-2.4-0.3-3.4c0-0.9,0.5,0.7,1,3.1c0.3,1.2,0.5,2.5,0.8,3.8
				c0.2,1.3,0.4,2.5,0.6,3.5c0.3,2,0.3,3.2,0.2,3.7c-0.1,0.6-0.2,0.6-0.3,0.4c-0.3-0.5-0.5-2.4-0.9-4.6
				C541.5,176,541.2,173.5,540.8,171.7z"/>
			<path class="st5" d="M548.3,222.3c0.4-3.3,0.7-7.3,1.1-8.8c0.3,0,0.7-0.1,0.5,3.7c-0.4,5.9-0.7,10.1-1.9,14.5
				c-0.6,2.4-0.8,2.2-0.7,0.3C547.4,230.1,547.8,226.5,548.3,222.3z"/>
			<path class="st5" d="M476.3,78c-4.1-3-5.4-4.1-6-4.7c-0.6-0.6-0.3-0.7-1.2-1.6c1.2,0.8,2.1,1.3,2.7,1.6c0.6,0.3,0.8,0.5,0.9,0.5
				c0.2,0-0.4-0.5-1-1.1c-1.3-1-2.7-2.3,1.6,0.5c1.1,0.8,2.3,1.6,3.4,2.5c1.2,0.9,2.3,1.7,3,2.5c-2.2-1.4,0.9,1.3,3.9,3.9
				c2.9,2.7,5.6,5.4,3,3.5c-0.5-0.2-2-1.5-4-3c-1-0.7-2.1-1.6-3.1-2.4C478.3,79.5,477.3,78.7,476.3,78z"/>
			<path class="st5" d="M518,116.8c-0.9-1.6-1.6-2.8-1.9-3.5c-0.3-0.7-0.3-0.8,0.3-0.2c1,0.8,3.8,5.5,5.4,8.2c1.7,3.2,2.4,5.1,1,3.1
				c-0.7-1-1.4-2.2-2.2-3.5C519.8,119.6,518.9,118.2,518,116.8z"/>
			<path class="st5" d="M532.1,137.6c-0.8-2-0.1-0.7-0.4-1.7c0.4,0.7,1,2,1.6,3.4c0.3,0.7,0.6,1.4,0.9,2.1c0.3,0.7,0.5,1.3,0.7,1.9
				l0.7,2.8c-0.6-1.3-1.1-2.6-1.6-3.9C533.5,140.8,532.9,139.4,532.1,137.6z"/>
			<path class="st5" d="M512.1,106.5c-0.9-1.5-1.4-2.5-0.7-2c2.7,3.2,5.2,6.7,7,9.8c1.4,2.6,0.2,0.9,0.2,1.3
				c-0.9-1.4-2.1-2.9-3.1-4.5C514.2,109.7,513.2,108,512.1,106.5z"/>
			<path class="st5" d="M527.9,126.8c-0.8-1.7-1.7-3.3-2.6-4.8c-0.4-0.8-0.9-1.5-1.3-2.3c-0.5-0.7-0.9-1.5-1.4-2.2
				c0-0.3-0.9-2-2-3.9c-1.1-1.9-2.4-3.9-3-4.9c3.8,5.5,1.8,1.7,3.2,3.1c2,2.9,5,7.3,7.4,11.9c1.3,2.3,2.4,4.6,3.3,6.7
				c0.5,1.1,0.9,2.1,1.3,3c0.4,0.9,0.7,1.8,0.9,2.6c-1-1.1,1.9,6.9-2.6-3.1C529.9,130.4,528.5,127.5,527.9,126.8z"/>
			<path class="st5" d="M549.9,177.8c-0.4-2.4-0.7-4.8-1.1-7.2l-1.5-7.1c-0.6-4.4,1.5,1.2,1.2-1.2c0.4,1.3,0.7,3.1,1.2,5
				c0.4,1.9,0.9,3.9,1.2,5.8c0.6,3.7,1.2,6.7,1.5,6.7c0.2,1.6,0.5,3.2,0.7,4.9c0.2,1.7,0.4,3.4,0.5,5.2c0.2,3.4,0.4,6.8,0.2,9.5
				c-0.2,1.4-0.4,0.9-0.5-0.5c-0.1-0.7-0.2-1.7-0.3-2.7c-0.1-1-0.3-2.2-0.4-3.3c-0.5-4.5-1.2-8.4-1.1-3.8c0-1.6-0.2-3.4-0.4-5.3
				C550.7,181.8,550.5,179.8,549.9,177.8z"/>
			<path class="st5" d="M504.9,96.7c-1-1.3-2-2.5-2.9-3.6c-0.9-1.1-1.6-2-2.2-2.8c2.1,2.1,3.4,3.1,5.5,5.2c1.1,1.5,2.7,3.4,3.9,5
				c1.2,1.6,2.1,3,2.1,3.3c-0.1,0.1-1-0.9-2.2-2.3C507.9,100.2,506.3,98.4,504.9,96.7z"/>
			<path class="st5" d="M483.4,75.6c-0.4-0.6,0.9,0.3,2.7,1.7c0.5,0.4,0.9,0.7,1.5,1.1c0.5,0.4,1,0.8,1.5,1.2c1,0.8,1.9,1.6,2.7,2.2
				c2.1,1.8,3.7,3.7,5.2,5.3c0.6,1,0.1,0.7-2.3-1.4c-0.5-0.5-1.1-1-1.6-1.5c-0.5-0.5-1-0.9-1.4-1.3c-0.9-0.9-1.8-1.7-2.6-2.4
				C487.5,78.9,485.7,77.4,483.4,75.6z"/>
			<path class="st5" d="M426.8,49.8c-4.9-1.5-2.2-1-2.4-1.3c1.2,0.3,2.7,0.7,4.2,1.1c0.8,0.2,1.5,0.5,2.3,0.7
				c0.8,0.3,1.5,0.6,2.3,0.9c2.5,1,2.6,1.3,1.2,0.9c-0.7-0.2-1.7-0.5-3-0.9C430,50.7,428.4,50.3,426.8,49.8z"/>
			<path class="st5" d="M452.7,52.4c-2.6-1.3-0.8-0.9,3.2,1l3.5,2.3c-1.2-0.6-2.2-1.1-3.3-1.6C455.1,53.6,454,53.1,452.7,52.4z"/>
			<path class="st5" d="M117,197.7c-0.2,0.6-0.2,0.7-0.3,0.7l0.5-1.6C117.3,196.7,117.1,197.4,117,197.7z"/>
			<path class="st5" d="M259.8,98.9c-0.6,0.5-1,0.8-1.4,1.1c-0.2,0.1-0.4,0.2-0.6,0.4c-0.2,0.1-0.5,0.4-0.8,0.6
				c-0.6,0.5-1.3,1.1-2.2,2.3c-0.9,1.1-2.2,2.8-3.9,5.1c-0.6,0.8-1.2,1.7-1.7,2.5c-0.3,0.4-0.6,0.8-0.9,1.2l-0.4,0.6
				c-0.1,0.1-0.1,0.2-0.2,0.3l-0.3,0c-4.8-1.3-9.7-2.7-14.5-3.7c-0.5-0.1-1.1-0.2-1.6-0.3c-0.5-0.1-1-0.2-1.5-0.3
				c-1-0.2-2-0.3-3.1-0.5c-2.1-0.3-4.3-0.5-6.5-0.6c0.6-0.1,0.1-0.3-1.3-0.5c-1.4-0.2-3.7-0.3-6.7-0.4c-1.9,0-4.1,0.2-4.7,0.3
				c-1.1-0.2,0.9-1.1-5-1.1c3-0.9,8.6-1.6,8.9-2c-1.4-0.1-3,0.2-4.4,0c6.8-0.2,15.3-0.1,23,0.9l-1.4-0.4c5.3,0.4,12,2,17.2,3.7
				l0.2,0.1c0.1,0,0.1,0.1,0.2,0l0.2-0.3c0.2-0.2,0.3-0.4,0.4-0.6c0.3-0.4,0.6-0.7,0.8-1.1c2.2-2.8,1.5-2.4,2.3-3.7c0.5-0.6,1-1,2-2
				c0.2-0.3,0.5-0.5,0.8-0.9c0.3-0.3,0.7-0.7,1.1-1.2c0.9-0.9,1.9-2,3.1-3.5c1.1-1.4,2.1-2.9,3.2-4.3c0.1,0.1-3.7,4.9-0.6,1.8
				c0.5-0.6,1.1-1.2,1.7-1.7c0.6-0.5,1.1-1.1,1.6-1.5c1-1,1.8-1.7,2.2-2.2c-1.1,1.5,0.7-0.1,2.5-1.5c0.8-0.7,1.7-1.3,2.2-1.6
				c0.5-0.2,0.5-0.1-0.3,0.8c-5.6,5.7-2,2.8-0.8,1.9l-3.7,3.4c0.7-0.3,0.3,0.3-0.5,1.4c-0.8,1.1-2.2,2.6-3.2,4.2l-2,2.1
				C255.2,102.8,260.9,97,259.8,98.9z"/>
			<path class="st5" d="M262,95.2l0.2-0.3c0.5-0.4,1-0.8,1.6-1.2c-0.7,0.7-1,0.9-1.2,1C262.4,94.8,262.3,94.9,262,95.2z"/>
			<path class="st5" d="M272.3,82c-0.1,0-1.1,0.8-0.3,0C273,81.2,274,80.4,272.3,82z"/>
			<path class="st5" d="M527.1,103.1c0.7,0.7,1.5,1.9,2.3,3.1c0.8,1.2,1.5,2.6,2.1,3.7c-0.7-0.9-1.6-2.4-2.5-3.7
				C528.2,104.9,527.4,103.7,527.1,103.1z"/>
			<path class="st5" d="M267.3,85.3l-0.6,0.6c0.6-0.6,1.1-1.1,1.7-1.7C268.4,84.2,267.9,84.7,267.3,85.3z"/>
			<path class="st5" d="M212.9,107.5c1.1,0,1.6-0.2,2.6,0C215.2,107.6,213.7,107.5,212.9,107.5z"/>
			<path class="st5" d="M188.8,110c-0.4,0.1-1.2,0.2-0.9,0.1c0.6-0.1,1.3-0.3,2-0.3C190,109.8,189.5,109.8,188.8,110z"/>
			<path class="st5" d="M192.6,107.1l-0.8,0.1c1-0.2,2-0.4,3-0.5C194.1,106.8,193.7,106.9,192.6,107.1z"/>
			<path class="st5" d="M155.3,118.5c-0.5,0.4-1.3,0.9-2.4,1.5c-1.1,0.6-2.4,1.3-3.7,2.2c-1.3,0.8-2.8,1.6-4.2,2.6
				c-1.4,0.9-2.7,1.9-3.9,2.8c0.5-0.3,1.3-1.1,1.5-1.3c0.1-0.1,0-0.1-0.4,0.1c-0.4,0.2-1.1,0.6-2.2,1.5c-1.9,1.4-2.4,1.9-2.8,2.2
				c-0.4,0.3-0.6,0.6-2,1.6c0.5-0.4,0.9-0.8,1.4-1.2c0.4-0.4,0.8-0.7,1.2-1c0.7-0.6,1.3-1.1,1.7-1.5c0.9-0.8,1.1-1.2,0.8-1.1
				l-3.8,2.9c6.3-5.4,14.1-10.7,21.5-13.9c5.9-2.5-0.5,0.8,3.7-0.8c-2.2,0.8-3,1.4-3.6,1.8C157.3,117.5,156.8,117.8,155.3,118.5z"/>
			<path class="st5" d="M226,99.8c-2.8-0.3-4-0.6-1.7-0.5c2.6,0.2,4.5,0.6,5,0.7C229.8,100.2,228.9,100.1,226,99.8z"/>
			<path class="st5" d="M128.3,140.9c-1.1,1.1-3.3,3.3-2.6,2.3c1.9-2.1,3.7-3.9,4.3-4.1C129.2,139.8,128.5,140.7,128.3,140.9z"/>
			<path class="st5" d="M89.3,234c0.3,0.6,0.7,3.9,1.3,7.4c0.1,0.2-0.1,0.2-0.2,0.2l-0.3,0.1l-0.7,0.3c-0.4,0.2-0.9,0.4-1.3,0.5
				c-0.9,0.4-1.7,0.7-2.4,1c-1.5,0.6-2.4,1.3-2.7,1.6c1-0.6,0.9-0.7,1-0.9c0.1-0.2,0.5-0.4,2.4-1.1c-0.6,0.3-1.2,0.5-1.8,0.7
				c-0.6,0.2-1.2,0.5-1.9,0.8c-1.3,0.5-2.6,1.1-4.1,1.7l-0.5,0.2c-0.1,0-0.2,0.1-0.2,0.1l-0.3,0.1c-0.4,0.2-0.8,0.4-1.2,0.6
				c-0.8,0.4-1.6,0.8-2.5,1.2c-0.8,0.4-1.8,0.9-2.7,1.4c-0.9,0.6-1.8,1.2-2.8,1.8c-0.6-0.2-0.4-0.7-3.2,0.4c2-1.3,3.9-2.6,5.4-3.7
				c1.6-1,2.8-1.8,3.3-2.2l-1.9,1c1.8-1,3.4-1.9,4.8-2.6c1.2-0.6,2.3-1.1,3.3-1.5c1-0.4,1.8-0.9,2.6-1.3c0.8-0.4,1.5-0.7,2.2-1.1
				l-0.8,0.2c2.8-0.9,0.1,0.2,1.6-0.1c0.3-0.1,0.7-0.3,1.1-0.4c0.2-0.1,0.4-0.1,0.6-0.2l0.3-0.1c0.1,0,0.3,0,0.2-0.2
				c-0.2-1.5-0.3-2.9-0.5-3.4c-0.1-1.9,0-3.5,0-5.4c0-2.1,0.1-4.5,0.1-7.9c0,1.5,0,2.7,0.1,3.6c0.1,0.8,0.1,1.3,0.2,1.7
				c0.2,0.7,0.3,0.7,0.5,0.7C88.8,229.1,89,229,89.3,234z"/>
			<path class="st5" d="M87.1,215.5c-0.1-0.2-0.2-1.6,0.2-4.2c0.3-1.7,0.5-1.9,0.4-0.5C87.5,212.5,87.2,214.6,87.1,215.5z"/>
			<polygon class="st5" points="66.1,253.6 67.6,252.8 66.4,253.6 			"/>
			<polygon class="st5" points="64.5,252.1 66.3,250.9 65.3,251.6 			"/>
			<path class="st5" d="M40.9,276c-2.1,2.6,0.7-1.4,0.1-0.8C41.3,274.8,40.6,276,40.9,276z"/>
			<path class="st5" d="M45.5,267.9c-0.9,1.2,0.2,0.2,1.2-0.8c-5.2,5.3-4.6,6-6.3,8.5c-6.1,7.7-11,17.1-14.9,27.8
				c0,0.3,0.4-0.9,0.6-1.3c-0.9,1.4-1.9,4.5-3.1,8c-0.1,0.4-0.3,0.9-0.4,1.3c-0.1,0.5-0.2,0.9-0.3,1.4c-0.2,0.9-0.5,1.9-0.7,2.8
				c-0.2,0.9-0.5,1.9-0.7,2.8c-0.2,0.9-0.3,1.8-0.5,2.7c0.2-1.7,0.3-2.5,0.3-2.7c0-0.2-0.2,0.2-0.3,0.9c-0.3,1.3-0.7,3.8-1,4.9
				c0,0.8-0.2,1.9-0.2,3.1c-0.1,1.2-0.2,2.6-0.3,3.9c-0.1,1.4-0.1,2.7-0.2,4c0,1.3-0.1,2.4-0.1,3.3c-0.1-1.2,0-2.4,0-3.6
				c0-1.2,0-2.4,0.1-3.6c-0.2-0.5-0.1-4.3-0.6-1.5c-0.1,1.6-0.2,4-0.3,5.4c0-1.1,0-2.8,0.1-4.4c-0.2,0.1-0.4,1.1-0.5,2.6
				c-0.1,1.6-0.3,3.7-0.3,6c-0.1-2.3-0.1-4.2-0.2-5.8c-0.1-1.6-0.1-3-0.1-4.2c0-1.2-0.1-2.3-0.1-3.3c0-1,0-2,0.1-3.1
				c-0.2,1.2-0.5,2.4-0.7,3.6c0.2-1,0.5-3,0.8-5.1c0.1-1.1,0.3-2.1,0.4-3.1c0.2-1,0.4-1.9,0.6-2.7c-0.1-1,0.8-5.6,2.3-10.2
				c0.4-1.2,0.7-2.3,1.1-3.5c0.4-1.1,0.8-2.2,1.2-3.2c0.7-2,1.2-3.7,1.6-4.6c1.6-2.7,2.9-5.8,4.8-9c0.5-0.8,0.9-1.6,1.4-2.5
				c0.2-0.4,0.5-0.8,0.7-1.3c0.3-0.4,0.5-0.8,0.8-1.2c1.1-1.7,2.3-3.4,3.5-5.2l-0.1,0c1.2-1.5,2.3-2.9,3.3-4.1
				c0.5-0.6,1-1.1,1.4-1.7c0.4-0.5,0.9-1,1.3-1.4c1.7-1.7,3.1-3.1,4.4-4.2c1.4-1.1,2.6-2.1,4.1-3.3c1.4-1.2,3.2-2.5,5.3-4.2
				c-2.6,2.4-2.6,2.7-2.8,3.1c-0.2,0.4-0.4,0.9-3.2,3.9l2.5-1.9c-1.2,1.3-2,2-2.9,2.7c-0.4,0.4-0.9,0.8-1.4,1.3
				C46.8,266.3,46.2,267,45.5,267.9z"/>
			<path class="st5" d="M27,300.8l-0.7,2.2L27,300.8z"/>
			<path class="st5" d="M24.3,309.4c-0.2,1.1-0.5,2.1-0.7,3.2C23.8,311.5,24.1,310.5,24.3,309.4z"/>
			<polygon class="st5" points="97.1,144.9 96.9,145.3 94.3,148.9 94.5,148.5 			"/>
			<path class="st5" d="M83.4,174.9c-0.3,0.5,0-0.6,0.6-2.2C85.1,170.1,84,173.3,83.4,174.9z"/>
			<path class="st5" d="M20.7,348.1l0.4,2.7L20.7,348.1z"/>
			<path class="st5" d="M20.2,354.2c-0.5-2.2-0.9-7.4-1.1-10.1C19.3,347.9,19.9,350.7,20.2,354.2z"/>
			<path class="st5" d="M18.4,344.4c-0.1-0.8-0.1-1.6-0.1-2.5c0,0.4,0.1,0.7,0.1,1.1L18.4,344.4z"/>
			<path class="st5" d="M30.8,382.6c0.6,1.4,0.5,1.4,0.1,0.7c-0.2-0.4-0.5-0.9-0.7-1.4c-0.3-0.6-0.5-1.2-0.8-1.8
				C29.4,379.9,29.8,380.3,30.8,382.6z"/>
			<path class="st5" d="M23.9,369c-0.5-1.5-0.9-3.1-1.4-4.6l0.5,1.5C23.2,366.9,23.5,368,23.9,369z"/>
			<path class="st5" d="M34.4,401.1c3.2,4.4,4.4,6.2,5.6,7.9c0.3,0.7-4.1-4.2-1.2-0.6c-0.3-0.4-0.7-0.8-1.1-1.3
				c-0.4-0.5-0.9-1.1-1.4-1.8c-0.5-0.6-1-1.3-1.6-2.1c-0.5-0.7-1.1-1.5-1.6-2.3c-0.5-0.8-1-1.5-1.6-2.3c-0.5-0.8-0.9-1.5-1.4-2.3
				c-0.8-1.4-1.6-2.7-1.9-3.7c-0.8-1.9-0.3-1.3,0.9,0.5C30.4,395,32.3,398.1,34.4,401.1z"/>
			<path class="st5" d="M58.3,424.2c-2.2-2,5.7,4,1.7,0.7c4.8,3.2,11.5,7.7,18.7,10.5c-0.8-0.2,1.1,0.9,3.2,1.7
				c2.2,0.9,4.5,1.8,4.6,1.6c3.4,1.8,8.8,3.7,10.3,4.5c-0.9-0.1-2-0.4-3.3-0.7c-1.2-0.3-2.5-0.6-3.5-0.8c-2-0.6-2.9-0.7-0.5,0.3
				c-1.2-0.4-2.7-0.9-4.1-1.4c-1.5-0.5-2.9-1.1-4.2-1.6c-1.3-0.5-2.4-1-3.1-1.2c-0.7-0.3-1.1-0.4-0.9-0.2c-4.2-2.1-7.5-4.1-10.5-6
				c-1.5-1-3-2-4.5-3.1c-1.5-1.1-3-2.3-4.6-3.6c-0.7-0.7,0.3-0.2,0.6-0.2c0.3,0-0.1-0.4-3.4-3.1C56.3,422.5,57,423.3,58.3,424.2z"/>
			<path class="st5" d="M28.3,261c-1.2,1.4-1.9,2.2-2.8,3.2c-0.4,0.5-0.8,1-1.4,1.6c-0.3,0.3-0.5,0.6-0.9,1c-0.3,0.4-0.6,0.8-1,1.3
				c-0.5-0.2,4.1-6,3.7-6.1c0.8-1,1.5-2,2.2-2.8c0.7-0.8,1.4-1.6,2.1-2.4c1.3-1.5,2.5-2.8,3.6-4c2.3-2.2,4.2-4,6.2-5.6
				c0.6-0.3,0.4-0.1,0,0.3c-0.3,0.4-0.8,1-0.8,1.1c-1,1.3-3.1,3.3-5.2,5.6C32.1,256.5,29.8,259,28.3,261z"/>
			<polygon class="st5" points="98.6,442.4 95.8,441.8 97.7,442.1 			"/>
			<path class="st5" d="M11.6,373.9c0.7,2.4,0.7,3.1,1.4,5c-0.4-0.5-0.8-1-1.4-2.4c-0.6-1.5-1.6-3.9-2.8-8.6
				c-0.7-2.8-1.9-8.2-1.9-10c0.2,0.1,0.1-1.7,0.7,0.8c0.1,0.7,0.3,1.3,0.4,2c0.2,0.6,0.3,1.3,0.5,1.9c0.3,1.3,0.6,2.6,0.9,3.8
				C10.1,368.9,10.8,371.4,11.6,373.9z"/>
			<path class="st5" d="M40.6,418c0.8,0.7,2.5,2.2,4.3,3.9c0.9,0.8,1.9,1.7,2.9,2.5c1,0.8,1.9,1.6,2.7,2.2c1.1,0.9,2.1,1.8,3,2.6
				c0.9,0.8,1.8,1.4,2.5,2c0.8,0.6,1.5,1.2,2.1,1.7c0.7,0.5,1.2,1,1.8,1.4c1.1,0.9,0.9,0.9,0.1,0.5c-0.8-0.5-2.4-1.4-4.1-2.6
				c-0.9-0.6-1.8-1.2-2.7-1.9c-0.9-0.7-1.7-1.3-2.5-1.9c-0.8-0.6-1.5-1.2-2.1-1.6c-0.6-0.5-1.1-0.8-1.4-1c-0.8-0.8-1.6-1.6-2.4-2.4
				c-0.8-0.8-1.5-1.6-2.1-2.4c-0.6-0.8-1.2-1.5-1.7-2.1c-0.5-0.6-0.8-1.1-1.1-1.5L40.6,418z"/>
			<path class="st5" d="M211.5,457.6c0,0.1,0.1,0.1-0.3,0l-1.5-1C210.7,457.1,211.1,457.4,211.5,457.6z"/>
			<path class="st5" d="M1,343.6c0.1,2.7,0.2,5.3,0.2,6.6c0,1.3-0.1,1.3-0.5-1.1c-0.2-1.2-0.4-3.2-0.6-5.4c-0.1-2.2-0.1-4.6-0.2-6.7
				c0.3-6,0.7-7.1,0.9-5.6c0,1.8,0,3.7,0,5.7C1,339.2,1,341.3,1,343.6z"/>
			<path class="st5" d="M184.4,444.9c0.5,0.6,1.1,1.2,1.6,1.8C185.5,446.1,184.9,445.5,184.4,444.9z"/>
			<path class="st5" d="M172.6,436.4c-0.5,0.3-1,0.8-1.8,1.3c-0.7,0.5-1.6,1-2.9,1.5c-2.6,1.1-1,0-1.4,0
				C168.7,438.4,172,436.4,172.6,436.4z"/>
			<path class="st5" d="M385.4,34.4c-2.9,0.2-6.8,0.3-7.9,0.6c-1.1-0.1-1.4-0.1-1.9-0.2c-0.5,0-1.2,0-2.9,0.1
				c-2.2,0.2-4.6,0.4-7,0.6c-2.4,0.2-4.8,0.7-7.1,1c-1.1,0.2-2.2,0.4-3.3,0.5c-0.5,0.1-1,0.2-1.5,0.3c-0.5,0.1-1,0.2-1.4,0.3
				c-1.8,0.5-3.4,0.9-4.5,1.3c0.8-0.4,5.6-1.6,3.9-1.5c-2.1,0.4-4.2,0.7-6.5,1.2c-1.1,0.2-2.4,0.4-3.6,0.8c-1.2,0.3-2.5,0.7-3.8,1.1
				c4.4-1.3-2.5,0.4-2.6,0.3c-1.1,0.3-2.3,0.6-3.5,0.9c-1.2,0.3-2.3,0.8-3.5,1.2c-2.3,0.8-4.7,1.7-7.1,2.5c-2.3,1-4.5,2-6.7,2.9
				c-2.1,0.9-4.2,1.7-5.9,2.6c0.6-0.3,1.4-0.7,2.2-1.1c0.8-0.4,1.7-0.7,2.6-1.1c1.8-0.8,3.8-1.6,5.7-2.5c1.8-0.9,3.7-1.4,5.1-2
				c1.4-0.6,2.5-1,3-1.3c-0.8,0-3.5,0.8-6.5,1.7c-2.9,1.1-6,2.3-7.7,2.9c0,0,0.7-0.3,1.7-0.7c1-0.4,2.1-0.9,2.8-1.2
				c-1.4,0.2,3.3-2.4-5.3,1.1c0.5-0.4,1.9-1.2,3.9-2.2c1-0.5,2.1-1.1,3.4-1.7c1.3-0.6,2.6-1.1,4.1-1.7c1.5-0.6,3-1.2,4.5-1.8
				c0.8-0.3,1.6-0.6,2.3-0.9l2.4-0.8c3.2-1,6.4-2.1,9.3-3c2.5-0.5,5.1-1,7.7-1.5c1.3-0.2,2.6-0.6,3.9-0.7l3.9-0.5l3.9-0.5l2-0.2
				c0.7-0.1,1.3-0.2,2-0.2c2.6-0.1,5.2-0.3,7.9-0.4c0.3-0.1,1-0.2,0.8-0.3c0.7,0,1.5,0,2.4,0.1c0.9,0.1,1.9,0.1,3,0.2
				c2.2,0.1,4.7,0.3,7.3,0.4c1.3,0,2.6,0.2,3.9,0.3c1.3,0.1,2.6,0.3,3.9,0.4c1.3,0.1,2.5,0.2,3.7,0.3c1.2,0.1,2.3,0.2,3.3,0.4
				c2,0.4,0.7,0.3-0.8,0.1c-1.5-0.1-3-0.1-1.4,0.1c-0.4,0.2,4.6,1,6.9,1.5c-3.5,0.3-4.6,0.5-5.6,1.1c-2.8-0.6-5.4-0.6-7.8-0.6
				C390.4,34.5,388,34.5,385.4,34.4z"/>
			<path class="st5" d="M263.6,469.3c-0.3,0.1,0.5,0.1,0.9,0.1l2.7-0.3l2.6-0.4l2.6-0.4c0.9-0.2,1.7-0.4,2.6-0.5l0.3,0.2
				c1.1-0.2,2.1-0.3,3.1-0.5c1-0.2,2-0.4,2.9-0.6c1.9-0.4,3.7-0.9,5.6-1.3c3.7-1,7.4-2.2,12.1-4c1.7-0.7,3.4-1.3,4.9-1.9
				c1.5-0.7,3-1.3,4.4-1.9c2.7-1.3,5.4-2.5,7.6-3.8c4.7-2.5,8.8-5,13.4-8.8c1.2-0.7,0.5-0.1-0.8,0.9c-0.6,0.5-1.4,1.2-2.2,1.8
				c-0.8,0.6-1.6,1.2-2.2,1.7c0.7-0.4-1.4,1.7,2.4-1.4c-1.4,1.2-2.2,1.9-2.8,2.5c-0.6,0.6-1.2,1.2-2.3,2.1c1-0.6,2-1.3,3-1.9
				c-1.8,1.5-3.5,2.7-4.9,3.7c-1.4,1-2.5,1.8-3.1,2.4c1.4-0.8,2.6-1.5,3.6-2.2c1-0.7,2.1-1.4,3.3-2.1c-0.8,0.6-1.7,1.1-2.5,1.6
				c-0.8,0.5-1.6,1.1-2.4,1.6c-1.7,1-3.1,2-5.3,3.1c-1,0.6-2,1.1-3,1.7c-1,0.5-2.1,1-3.2,1.6c-0.5,0.3-1.1,0.5-1.7,0.8
				c-0.6,0.2-1.2,0.5-1.7,0.7c-1.2,0.5-2.4,1-3.7,1.4c0.6-0.1,1.1-0.2,1.7-0.3c-1.2,0.5-2.4,0.9-3.5,1.2c-1.1,0.3-2.2,0.6-3.2,1
				c-1.1,0.3-2.2,0.6-3.4,0.9c-0.6,0.2-1.2,0.4-1.9,0.6c-0.7,0.2-1.4,0.4-2.1,0.6l0.7,0c-1.2,0.2-2.3,0.5-3.3,0.7
				c-1.1,0.2-2.1,0.3-3.1,0.5c-1,0.1-2,0.3-2.9,0.4c-1,0.1-1.9,0.2-2.9,0.2c-0.9,0.1-1.9,0.1-2.9,0.2c-1,0-1.9,0.1-2.9,0.1
				c-1,0-2,0.1-3,0.1c-1,0-2.1,0-3.2,0c-2.6-0.1-4-0.3-4.7-0.5c-0.7-0.2-0.6-0.3-0.1-0.5c0.5-0.1,1.3-0.3,2.2-0.4
				C262.2,469.7,263.1,469.5,263.6,469.3z"/>
			<path class="st5" d="M160.8,444.3c2.1-0.7,2.7-0.8,2.9-0.8c-1.6,0.9-5.3,2.2-8.1,2.8c-1.1,0.2-0.5-0.1,0.7-0.5
				C157.5,445.4,159.4,444.8,160.8,444.3z"/>
			<path class="st5" d="M171.8,438.1c1-0.5,0.3,0,0.3,0c-0.4,0.3-0.9,0.6-1.3,0.8c-0.4,0.2-0.7,0.3-0.5,0.1
				C170.6,438.7,171.2,438.4,171.8,438.1z"/>
			<path class="st5" d="M240.6,473.3l1.5,0.2L240.6,473.3z"/>
			<polygon class="st5" points="322.2,450.1 322.4,449.8 324.7,448.3 324.4,448.6 			"/>
			<path class="st5" d="M294.2,468c-1.8,0.5-3.6,0.8-5.4,1.2l4.8-1.1L294.2,468z"/>
			<path class="st5" d="M332.3,449.9c0.5,0.7,0.3,0.7-0.6-0.4C331.2,448.5,331.5,448.7,332.3,449.9z"/>
			<path class="st5" d="M332.3,451.4l2.8,3.9L332.3,451.4z"/>
			<path class="st5" d="M331.4,451.8c-0.5-0.3,1.6,2.3,2.3,3.1c-1-1-1.8-2.1-2.6-3.4c-0.4-0.7-0.8-1.3-1.3-2.1
				c-0.2-0.4-0.5-0.7-0.7-1.1c-0.1-0.2-0.3-0.4-0.4-0.6l-0.2-0.3l-0.1-0.2l-0.1-0.1c0,0,0,0-0.1,0.1c-0.3,0.3-0.6,0.6-1,0.9
				c0.3-0.3,0.6-0.6,1-0.9l0.1-0.1c0,0,0,0,0,0l0.1,0.1l0.2,0.3c0.1,0.2,0.2,0.3,0.4,0.5c0.3,0.4,0.5,0.7,0.8,1.1
				C330.3,450,330.8,450.9,331.4,451.8z"/>
			<path class="st5" d="M517.7,440.4c0.6-0.9,1.2-1.8,1.7-2.8c0.5-1,1.1-2,1.6-3c0.3-0.5,0.5-1,0.8-1.5l0.7-1.6
				c0.5-1.1,1-2.1,1.4-3.2c0.4-1.1,0.8-2.1,1.3-3.2c0.4-1,0.8-2,1.1-3c0.7-2,1.4-3.7,1.9-5.3c-0.1,0.3-0.2,0.9-0.4,1.4
				c-0.2,0.5-0.2,0.8-0.1,0.5c0.8-2.8,1.3-4.5,1.8-5.7c0.3-1.2,0.6-1.8,0.8-2.4c0.2-0.6,0.5-1.2,0.8-2.4c0.3-1.2,0.6-2.9,1.2-5.8
				l-0.7,4.7c0.2-0.3,0.4-1.2,0.7-2.4c0.1-0.6,0.3-1.3,0.4-2c0.2-0.8,0.3-1.6,0.4-2.4c-0.1,0.8-0.2,1.8-0.4,2.8
				c-0.2,0.9-0.4,1.8-0.5,2.7c0.6-1.6,0.6,0.7,0.5,2.5c-0.1,0-0.1,0.4-0.3,1c-0.2,1.6-0.4,2.8-0.7,4.4c-0.2,0.8-0.4,1.7-0.7,2.7
				c-0.3,1.1-0.6,2.4-1.1,4c0,0.1,0.3-0.4,0.5-1.1c0.3-0.7,0.5-1.6,0.8-2.4c-0.6,1.8-1.5,4.1-2.4,6.7c-0.5,1.3-1,2.6-1.6,4
				c-0.5,1.4-1.2,2.8-1.8,4.2c-2.6,5.6-5.7,11.1-8.5,14.5c-0.8,1.3-1.4,2.3-2,3c-0.6,0.8-1.1,1.4-1.6,2c-0.9,1.1-1.8,1.9-3.1,3.3
				c-1.5,1.8-2.4,2.5-2.8,2.9c-0.4,0.3-0.4,0.1-0.4-0.2c1.1-1.6,2.2-3.6,4-6.2c0.8-1.4,1.8-2.8,2.9-4.6c0.5-0.9,1.1-1.8,1.7-2.8
				C516.5,442.6,517.1,441.5,517.7,440.4z"/>
			<path class="st5" d="M201.1,466.4c3.2,1.9,2.6,1.8,2,1.6c-3.4-1.7-6.2-3.7-7.5-4.7c0.1,0,1,0.5,2.1,1.1
				C198.8,465.1,200.1,465.9,201.1,466.4z"/>
			<path class="st5" d="M378,486.7c1.2,0.5,2.3,1,3.5,1.4C380.3,487.7,379.1,487.2,378,486.7z"/>
			<path class="st5" d="M288.7,474.2c0.3-0.1,0.6-0.1,0.9-0.2l-2.9,0.7C286.9,474.6,287.9,474.4,288.7,474.2z"/>
			<path class="st5" d="M299.4,471.2l0.1,0l-2.7,0.8C298,471.5,299,471.3,299.4,471.2z"/>
			<path class="st5" d="M296,473.5c2.5-0.8,5.1-1.6,7.5-2.7c-3.1,1.5-4.1,1.8-4.9,2.2c-0.8,0.4-1.3,0.8-3.9,1.8
				c-3.2,0.8-9.2,2.7-13.3,2.9c-1.5,0.2-1.2-0.2,1.5-0.9c1.2-0.2,2.6-0.6,4.1-1c0.8-0.2,1.5-0.4,2.3-0.6c0.8-0.2,1.5-0.5,2.2-0.7
				c1.4-0.4,2.6-0.8,3.4-1C295.8,473.4,296.2,473.3,296,473.5z"/>
			<polygon class="st5" points="530.6,405 530.4,406.4 530.5,405.6 			"/>
			<polygon class="st5" points="296.6,473.1 296.2,473.2 297.2,472.8 			"/>
			<path class="st5" d="M565.6,332.5l-0.2,1.1c-0.1,0.4-0.2,0.7-0.3,1.1c0.1-0.5,0.3-1.1,0.3-1.7L565.6,332.5z"/>
			<path class="st5" d="M287.2,477.1l2.6-0.6L287.2,477.1z"/>
			<polygon class="st5" points="531.3,406.3 531.8,403.6 532.1,402.2 532.3,400.6 532.1,402.2 531.8,403.6 			"/>
			<polygon class="st5" points="532.8,391.8 532.6,395 532.6,394 			"/>
			<path class="st5" d="M540.5,386.1c1.4-0.6,0.2,0-0.4,0.3C539.7,386.6,538.9,386.9,540.5,386.1z"/>
			<path class="st5" d="M533.6,402.8c0,0.7-0.3,1.3-0.4,1.9C533.3,403.9,533.4,403.8,533.6,402.8z"/>
			<path class="st5" d="M533.6,407.4c-0.3,1.3-0.6,2.8-0.9,4.1c-0.3,1.3-0.5,2.3-0.7,2.7c0.3-1.2,0.6-2.7,0.8-4
				C533.1,408.8,533.4,407.7,533.6,407.4z"/>
			<path class="st5" d="M538.4,388.4c1.5-0.6,3-1.4,4.5-2.1C541.4,386.9,539.9,387.7,538.4,388.4z"/>
			<polygon class="st5" points="534.1,398.6 534,400.7 533.8,402.1 533.9,399.7 			"/>
			<path class="st5" d="M322.3,462.7c0.7-0.3,0.2,0.2-0.5,0.7c-0.7,0.5-1.6,1-1.6,0.9C320.6,463.9,321.5,463.2,322.3,462.7z"/>
			<path class="st5" d="M325.7,459.6c0.1,0.2-2,1.8-1.8,1.4C324.6,460.4,325.2,459.8,325.7,459.6z"/>
			<path class="st5" d="M323.9,462.4c0,0.3-0.8,0.7-1.4,1.1C323.1,463.1,323.1,462.8,323.9,462.4z"/>
			<path class="st5" d="M323.5,465.9c-0.7,0.6-1,0.9-1.3,1.3c-0.2,0.2-0.3,0.3-0.6,0.5c-0.3,0.2-0.8,0.5-1.4,0.8
				c0.2-0.2,0.5-0.5,0.8-0.7c0.2-0.1,0.3-0.2,0.5-0.4c0.1-0.1,0.2-0.2,0.3-0.3C322.3,466.7,322.9,466.4,323.5,465.9z"/>
			<path class="st5" d="M323,466.8c-0.1,0-0.2,0.4-0.6,0.5L323,466.8z"/>
			<polygon class="st5" points="324.1,465.7 323.5,466.2 323.9,465.9 			"/>
			<path class="st5" d="M324.5,465.6c-0.2,0.2-0.5,0.5-0.7,0.7c0.2-0.2,0.4-0.4,0.6-0.6L324.5,465.6z"/>
			<path class="st5" d="M333.5,473.9c0.4,0.4,0,0.2-0.6-0.4c-0.5-0.5-1.2-1.3-1.6-1.8C331.7,472,332.6,473.1,333.5,473.9z"/>
			<path class="st5" d="M585,331.4l0.9-3.9c0,0.7-0.1,1.7-0.2,2.9c-0.2,1.2-0.3,2.6-0.6,4c-0.3,1.4-0.6,2.7-0.9,3.9
				c-0.3,1.2-0.7,2.1-0.9,2.7c-0.4,0.8,0-0.7,0.5-2.9c0.2-1.1,0.5-2.3,0.7-3.5c0.1-0.6,0.3-1.2,0.4-1.7
				C584.8,332.3,584.9,331.8,585,331.4z"/>
			<path class="st5" d="M543.3,397.3c0.1,0.2-0.1,1.8-0.2,3.1c-0.2,0.9-0.2,0.2-0.2-0.8C543,398.6,543.2,397.4,543.3,397.3z"/>
			<polygon class="st5" points="582,357.2 579.7,361 582,357 			"/>
		</g>
	</g>
	<path class="st5" d="M311.3,211c0,21.4-17.4,38.8-38.8,38.8c-11.5,0-21.9-5-29-13c-2.1-2.4-3.9-5-5.4-7.8
		c-2.8-5.4-4.5-11.5-4.5-18.1c0-21.4,17.4-38.8,38.8-38.8c3.7,0,7.4,0.5,10.8,1.5c4.1,1.2,8,3.1,11.4,5.5c1.6,1.1,3,2.3,4.4,3.6
		C306.6,189.8,311.3,199.9,311.3,211z"/>
	<path class="st2" d="M325.7,151.8c16,0.8,31.7,4.9,46.1,11.9c4.1,2,8,4.2,11.8,6.7c1.6,1,3.5-1.3,1.8-2.4
		c-13.8-8.9-29.3-14.9-45.4-17.7c-4.6-0.8-9.2-1.3-13.9-1.5C324.2,148.7,323.8,151.7,325.7,151.8L325.7,151.8z"/>
	<path class="st2" d="M341.8,278.7c-15.3,4.5-31.5,5.9-47.4,4.1c-4.5-0.5-9-1.3-13.4-2.4c-1.9-0.4-2.8,2.4-1,2.8
		c15.9,3.8,32.6,4.3,48.7,1.5c4.6-0.8,9.1-1.9,13.6-3.2C344.2,281.1,343.6,278.1,341.8,278.7L341.8,278.7z"/>
	<path class="st2" d="M226.5,173.2c15.3-8.9,31.3-16.4,47.8-22.5c4.7-1.7,9.5-3.3,14.3-4.8c1.8-0.6,0.6-3.3-1.2-2.8
		c-16.8,5.2-33.2,12-48.9,20.1c-4.5,2.3-8.9,4.7-13.3,7.3C223.7,171.4,224.8,174.1,226.5,173.2L226.5,173.2z"/>
	<g class="st4">
		<path class="st5" d="M549.5,254.4c-2.1-1.4-4.3-2.2-6.6-2.6c-3.5-0.8-6.4-2.9-10.2-3.8c-0.9-0.3-1.9-0.4-2.8-0.5
			c-0.9-0.1-1.8-0.2-2.8-0.2c-1.9-0.5-3.9-0.7-6-0.7c-2.1,0-4.2,0.3-6.3,0.9c-0.5,0-1.9,0.1-1.4,1.3c-4.3,0.5-8.7,1.5-12.3,4.2
			c-1.6,1-3.8,0.9-5.4,2c-2.4,1.9-5.6,2.2-8,4.1c-0.2,0.4-0.5,1.5-0.8,1.6c-2,0.6-3.4,2-4.4,3.5c-1,1.6-1.8,3.3-2.5,4.9
			c-0.2,0.3-0.3,0.6-0.5,0.8c-0.1,0.3-0.3,0.5-0.4,0.8c-0.2,0.5-0.6,1-0.9,1.5c0.4,0.4,0.2,0.6,0.2,1c-0.1,0.2-0.5,0.5-0.8,1
			c-0.4,0.4-0.9,1-1.4,1.5c-0.2,0.3-0.5,0.5-0.7,0.8c-0.2,0.3-0.4,0.5-0.6,0.7c-0.4,0.4-0.8,0.8-1,0.8c-0.2,0.1,0.3-2.5,1.4-4.9
			c1-2.5,2.6-4.8,2.3-4.9c-0.1,0-0.4,0.4-0.9,0.9c-0.5,0.6-1,1.4-1.4,2.2c-0.5,0.8-0.9,1.7-1.2,2.3c-0.3,0.7-0.5,1.2-0.6,1.3
			c0.5-3.4,1.6-6.2,2.6-8.4c0.5-1.1,1-2.1,1.5-2.9c0.5-0.8,0.9-1.6,1.3-2.1c0.7-1.2,1.2-2,1.5-2.4c0.2-0.4,0.2-0.5,0-0.4
			c-0.2,0.2-0.6,0.6-1.1,1.2c-0.5,0.6-1.1,1.4-1.7,2.3c-1.2,1.8-2.5,4.2-3.3,6.4c-0.4,0.5-0.7,1.4-1,2.3c-0.2,1-0.6,2.1-1,3.3
			c0-0.4,0-0.9,0-1.5c0-0.6,0-1.3,0-1.9c0-1.3,0.1-2.4,0.3-2.8c0.3-0.9,0.5-1.6,0.7-2.1c0.1-0.6,0.3-1,0.4-1.4
			c0.3-0.9,0.8-1.7,2.3-3.3c0.6-0.6,1.3-1.4,2.1-2.3c0.7-0.8,1.5-1.8,2.3-2.7c1.5-1.9,3.1-3.6,4.3-4.6c-0.8,1.7-2.3,5.7-4.2,7
			c2.3-1.1,3-2.4,3.7-3.9c0.7-1.5,1.4-3.1,3.7-4.3c0.4-0.3,0.8-0.7,1.2-1.2c0.6-0.2,1.1-0.4,1.8-0.5c3.7-2,6.5-4.6,10.5-6.1
			c-0.3,0.2-0.8-0.3-1.2-0.2c-3.8,0.6-5.8,3.3-9.3,4.9c-0.7,0.2-1.1,1.6-1.8,2c-1.3,0.8-2.9,1.1-4.3,1.6c2-2.4,5.2-4,7.9-5.6
			c0.5-0.4,0.9-1.4,1.2-1.9c-1.3,0.6-2.6,1.3-3.9,2.1c-2.2,1.4-4.4,3.7-6.4,5.8c-2.1,2.1-4,3.9-6.1,4.6c-0.1,0.1-0.1,0.2-0.2,0.5
			c-0.1,0-0.2,0-0.3,0c-0.6,0.5-1.3,1.1-2.2,1.4c0.6-0.5,1.1-0.9,1.7-1.4c1.4-2.7,3.7-4.7,6.1-6.4c2.4-1.8,5-3.2,7.3-5
			c1-0.9,3.3-0.9,4.3-1.8c2.9-2.3,6.6-3.9,10.6-4.6c3.5-0.7,7.1-1.3,10.7-1.4c3.6-0.1,7.1,0.2,10.5,0.8c6.7,1.3,12.9,3.8,18.2,7.3
			c0.3,0.1,0.6,0.1,0.8,0.2c-0.1-0.2-0.2-0.3-0.2-0.5c0.2,0.2,0.4,0.4,0.7,0.6c1.5,0.4,2.9,1.1,4,2.3c0.4,0.7-1-0.4-1.6,0
			c0.3,0.2,0.6,0.4,0.6,0.4s-0.2,0.3-0.3,0.5c0.3,0,0.3,0.3,0.4,0.6c-3-1.1-6.2-1.9-9.4-2.6c0.2,0.8,1.2,0.9,1.6,1.1
			c1.1,0,2.2,0.2,3,0.7c2.7,0.6,4.8,2.9,7,4.2c0.3,0.4,0.7,0.8,0.9,1.3c0.2,0.4-0.1,0.6-0.5,0.7
			C550.4,254.7,549.9,254.7,549.5,254.4z M509.4,240.6c1.1,0,2.2,0.2,3.3,0.4c0.4,0,0.7-0.1,1.1-0.1c0.5,0,0.9-0.2,1.4-0.4
			c1,0,2,0.1,2.9,0.1c1,0.1,1.9,0.2,2.9,0.3c-1-0.5-2-0.8-3.1-1.1c-1.1-0.2-2.3-0.4-3.5-0.2c3.1-0.7,6.2-0.3,9,0.4
			c2.9,0.7,5.5,1.9,8.1,3c1.6,0.4,3.2,0.8,4.8,1.1c1.2,0.2,2.3,0.3,3.4,0.4c-6.7-3-14-5.6-22.2-6.1c-4.1-0.2-8.3,0.2-12.3,1
			c-4,0.9-7.9,2.2-11.5,3.9C498.9,242.4,503.9,240.9,509.4,240.6z M507.9,242.1c-2,0.6-3.8,1.4-5.6,2.3c-5,2.1-10.2,4.8-12.2,8.2
			c3.7-3,7.6-5.9,12.2-8.2c-2.2,0.9-2.5,1.1-1.5,0.7c1-0.4,3.3-1.4,6.4-2.6C507.2,242.3,507.5,242.2,507.9,242.1z"/>
		<path class="st5" d="M537.4,240.6c2,1.3,4,2.6,5.8,4.1c-0.5-1.1-1.1-2.1-1.9-3c-2.3-2.1-5.3-2.7-8.1-4c-4-1.8-8.5-2.8-13.2-3
			c-2.3-0.1-4.8,0-7.2,0.4c-2.4,0.4-4.7,0.9-7,1.7c-0.5,0.1-1.5,0.3-2.1,0.9c5.8-1.5,11.9-2.3,17.7-1.8
			C527.1,236.4,532.5,238,537.4,240.6z"/>
		<path class="st5" d="M489.7,242.7c-1.3,1-2.7,2.1-4.1,2.8c1.6-0.2,3.4-1.1,4.8-1.8c1.9-1.2,3.7-2.3,5.7-3.3
			C493.9,241,491.8,241.6,489.7,242.7z"/>
		<path class="st5" d="M503.7,237.7c-0.5,0.1-0.9,0.2-1.4,0.4c-2.1,0.6-4.2,1.4-6.1,2.4c2.3-0.5,4.7-0.9,7.1-1.4
			C503,238.5,503.2,238,503.7,237.7z"/>
	</g>
	<g class="st4">
		<path class="st5" d="M514.6,214.6c0.2-1.7,0.3-3.4,0.4-5c0-1.6-0.2-3.2-0.4-4.8c-0.1-1.2-0.1-2.5-0.1-3.7c0-1.2,0-2.4,0.1-3.6
			c0.1-1.2,0.2-2.5,0.2-3.7c0-1.3-0.1-2.6-0.2-3.9c-0.1-1.3-0.2-2.6-0.4-3.9c-0.2-1.2-0.5-2.5-0.7-3.8c-0.1-1.3-0.1-2.7-0.3-4.1
			c-0.2-1.4-0.4-2.8-0.7-4.2c-0.5-2.8-1.4-5.6-2.4-8.5c0-0.3-0.1-1-0.4-1.5c-0.2-0.5-0.7-0.8-1.2-0.4c-0.4-1.4-0.7-2.8-1.1-4.2
			c-0.4-1.4-0.8-2.8-1.3-4.1c-0.5-1.3-1.1-2.6-1.7-3.9c-0.3-0.6-0.6-1.3-1-1.9c-0.4-0.6-0.8-1.2-1.2-1.7c-0.7-1-1-2.2-1.4-3.3
			c-0.2-0.6-0.4-1.2-0.6-1.7c-0.3-0.5-0.6-1.1-0.9-1.6c-1.3-1.5-2.1-3.2-2.9-5c-0.9-1.7-1.8-3.4-3-4.9c-0.5-0.3-1.7-0.8-1.9-1.2
			c-1.1-2.4-2.9-4.3-4.8-5.8c-2-1.5-4.3-2.7-6.2-4.2c-1.5-1.2-2.8-1.9-4.1-3.2c-0.5,0.3-0.8,0-1.3-0.2c-0.3-0.2-0.7-0.8-1.3-1.5
			c-0.6-0.7-1.3-1.6-2-2.4c-1.4-1.7-2.7-3.5-2.7-4.1c0-0.3,3,2,6.1,4.3c3,2.5,6,5,6.1,4.6c0-0.3-1.9-2-3.8-3.8
			c-0.5-0.4-1-0.9-1.5-1.3c-0.5-0.4-1-0.8-1.4-1.1c-0.8-0.7-1.4-1.2-1.6-1.4c1,0.6,2,1.1,3,1.7c0.9,0.5,1.8,1.1,2.6,1.6
			c1.7,1.1,3.2,2,4.5,2.9c2.6,1.8,4.6,3.2,6,4.3c2.9,2.1,3.7,2.7,3.3,2.2c-0.4-0.5-2-2.1-4.2-3.7c-1.1-0.9-2.3-1.8-3.6-2.7
			c-1.2-0.9-2.6-1.7-3.9-2.5c-1.2-1.3-3.7-2.4-6.5-4.5c1,0.5,2.6,0.9,4.1,1.4c1.5,0.5,2.8,1,3.2,1.3c2,1.2,3.1,1.6,4.1,2.1
			c1,0.6,1.9,1.3,3.7,3.3c0.7,0.8,1.7,1.7,2.8,2.6c1,1,2.1,2,3.3,2.9c2.3,1.9,4.4,3.9,5.7,5.3c-1-0.5-2.7-1.3-4.2-2.3
			c-1.6-0.9-3.2-2-4.1-3.2c1.5,2.8,3.2,3.6,4.9,4.6c1.7,1,3.6,1.9,5.4,4.7c0.3,0.5,0.8,1,1.4,1.6c0.3,0.7,0.6,1.3,0.9,2.2
			c0.7,1.2,1.5,2.2,2.2,3.3c0.7,1.1,1.4,2.1,2.1,3.2c0.7,1.1,1.4,2.1,2.1,3.2c0.6,1.1,1.2,2.3,1.7,3.5c-0.2-0.4,0.2-1,0.1-1.4
			c-0.3-1.2-0.6-2.3-1.1-3.2c-0.5-1-1.1-1.9-1.7-2.8c-1.2-1.8-2.5-3.6-3.8-5.7c-0.4-0.9-1.9-1.4-2.5-2.3c-0.6-0.8-1-1.7-1.3-2.6
			c-0.4-0.9-0.7-1.8-1.2-2.6c0.7,0.6,1.4,1.3,2.1,2.1c0.7,0.8,1.3,1.6,1.9,2.5c1.2,1.7,2.4,3.5,3.5,5.2c0.5,0.7,1.6,1.2,2.2,1.6
			l-1.4-2.5c-0.5-0.8-1-1.6-1.5-2.4c-1-1.4-2.2-2.7-3.4-4.1c-1.3-1.4-2.7-2.6-4-3.9c-2.5-2.6-5-4.9-5.8-7.3
			c-0.1-0.1-0.3-0.2-0.5-0.3c0-0.1,0-0.2-0.1-0.3c-0.6-0.7-1.3-1.6-1.7-2.6l0.8,1l0.8,1c2.9,1.9,5.6,4.5,7.8,7.4
			c1.1,1.5,2.3,2.9,3.4,4.5c1.1,1.5,2.1,3,3.3,4.5c1.2,1.2,1.6,4.1,2.7,5.4c1.5,1.9,2.8,4,3.8,6.2c0.5,1.1,1,2.3,1.4,3.4
			c0.4,1.2,0.8,2.3,1,3.5l1.6,6.3c0.5,2.1,0.9,4.3,1.3,6.4c0.2,1.1,0.4,2.1,0.5,3.2l0.4,3.2c0.2,2.1,0.6,4.2,0.6,6.3l0.3,6.3
			c0,2.1-0.1,4.2-0.2,6.3c0,2.1-0.3,4.1-0.5,6.2c-0.2,2-0.4,4.1-0.9,6.1c0,0.4,0.1,0.7,0.1,1.1c0.1-0.2,0.3-0.3,0.4-0.5l-0.3,1.1
			c0.1,2,0.1,4-0.7,6c-0.5,0.8,0-1.4-0.5-2c-0.1,0.4-0.2,0.9-0.2,0.9s-0.3-0.1-0.6-0.2c0.1,0.3-0.2,0.5-0.4,0.8c0-1.1,0-2.2-0.1-3.2
			l-0.2-3.2c-0.1-2.2-0.4-4.3-0.6-6.5c-0.7,0.6-0.5,1.8-0.5,2.5c0.4,1.4,0.6,2.8,0.4,4.2c0.2,1.8,0,3.7-0.3,5.5
			c-0.4,1.8-0.9,3.6-1.1,5.4c-0.2,0.6-0.5,1.3-0.8,1.9c-0.3,0.4-0.6,0.1-0.8-0.3C514.6,215.9,514.4,215.2,514.6,214.6z M516.2,158.8
			c0.1,1.3,0.2,2.6,0.1,4c0.1,0.4,0.2,0.9,0.3,1.3c0.1,0.6,0.3,1.1,0.6,1.7l0.5,3.6l0.3,3.7c0.2-1.3,0.4-2.7,0.4-4
			c0-1.4-0.2-2.8-0.5-4.3c0.3,0.9,0.6,1.9,0.8,2.8c0.1,0.5,0.2,0.9,0.3,1.4c0.1,0.5,0.1,0.9,0.2,1.4c0.2,1.9,0.3,3.7,0.3,5.6
			c0,0.5,0,0.9,0,1.4l-0.1,1.4l-0.2,2.7c-0.1,0.9-0.1,1.8-0.2,2.7l-0.1,1.4l-0.1,1.4c0.1,2.1,0.2,4.3,0.5,6.5c0.1,1.5,0.4,3,0.7,4.5
			c0.6-9.5,0.8-19.3-0.4-29.3c-1.2-9.9-3.9-19.8-8.7-29c0.5,1.6,1,3.2,1.6,4.8c0.5,1.6,0.9,3.2,1.4,4.8c0.4,1.6,0.9,3.1,1.3,4.8
			C515.6,155.5,516,157.1,516.2,158.8z M514.6,156.9c-0.4-1.2-0.9-2.4-1.4-3.6c-0.5-1.2-1.1-2.3-1.7-3.4
			c-2.7-6.3-6.6-12.9-10.7-15.4c1,1.2,1.9,2.3,2.9,3.5c0.5,0.6,1,1.2,1.4,1.8c0.4,0.6,0.9,1.3,1.3,1.9c0.9,1.3,1.8,2.6,2.6,3.9
			c0.9,1.3,1.6,2.8,2.3,4.2c-1.3-2.8-1.5-3.2-0.9-1.9c0.3,0.6,0.8,1.7,1.4,3c0.3,0.7,0.7,1.4,1,2.2c0.4,0.8,0.7,1.7,1.1,2.7
			C514.2,156.1,514.4,156.5,514.6,156.9z"/>
		<path class="st5" d="M523.3,193.5c-0.7,2.9-1.1,5.8-1.9,8.7c0.9-1.1,1.6-2.1,2.1-3.4c0.6-1.8,0.8-3.6,1-5.5c0.1-1.9,0-3.8,0.2-5.6
			c1-10.8-0.9-22.2-5-33c-0.1-0.6-0.5-1.8-1.1-2.5c0.5,1.8,1,3.5,1.5,5.2c0.2,0.9,0.5,1.7,0.7,2.6c0.2,0.9,0.4,1.7,0.6,2.6
			c0.4,1.7,0.7,3.5,1.1,5.2c0.3,1.7,0.5,3.5,0.7,5.2c0.5,3.4,0.6,6.9,0.7,10.3c0.1,1.7-0.1,3.5-0.2,5.2
			C523.7,190,523.6,191.7,523.3,193.5z"/>
		<path class="st5" d="M511.3,134.7c-1.4-1.7-2.7-3.3-3.8-5.1c0.5,1.9,1.7,4.1,2.8,5.8c1.6,2.4,3,4.8,4.4,7.3
			C513.8,140.1,512.8,137.3,511.3,134.7z"/>
		<path class="st5" d="M518.6,152c-0.2-0.6-0.3-1.1-0.5-1.7c-0.9-2.5-2-5.1-3.3-7.6c0.9,2.9,1.5,5.8,2.4,8.7
			C517.7,151.2,518.2,151.5,518.6,152z"/>
	</g>
	<g class="st7">
		<g>
			<g>
				<path class="st3" d="M75.3,322c4-36.1,28.5-64.9,60.4-75.7c-1.4-9.1-1.6-18.5-0.5-28.1c5.2-47.2,39.8-84,83.2-93.6
					c-2-0.3-4.1-0.6-6.1-0.9c-57.3-6.3-109,35.6-115.4,93.7c-1,9.4-0.8,18.6,0.5,27.5C66,255.6,42,283.8,38.1,319.2
					c-5.4,48.5,29.2,92.2,77.1,97.5c6.3,0.7,12.5,0.7,18.6,0C95.8,403.1,70.6,364.4,75.3,322z"/>
			</g>
		</g>
	</g>
	<g class="st4">
		<path class="st5" d="M88.8,317.1c-1.2,0.8-2,1.8-2.4,3c-0.8,1.8-3,2.6-4.3,4.5c-0.7,0.9-1.1,1.8-1.4,2.8c-1.5,1.8-2.5,4.1-2.5,6.6
			c-0.1,0.3-0.5,1.1,0.9,0.9c-0.8,2.4-1.3,5.2-0.1,7.6c0.4,1.1-0.5,2.5,0,3.5c0.9,1.6,0,3.7,0.8,5.3c0.3,0.2,1.1,0.4,1.1,0.6
			c-0.2,1.3,0.4,2.3,1.3,3.1c0.9,0.7,2,1.2,2.9,1.7c0.3,0.2,0.6,0.4,0.9,0.6c0.3,0.2,0.5,0.4,0.7,0.6c0.5-0.3,0.5-0.2,0.8-0.2
			c0.1,0.1,0.2,0.3,0.3,0.6c0.1,0.3,0.2,0.7,0.4,1.1c0.1,0.4,0.3,0.8,0.4,1.2c0.1,0.4,0.2,0.7,0.1,0.9c0,0.2-1.3-0.4-2.5-1.2
			c-1.2-0.8-2.3-2-2.6-1.8c-0.1,0.2,0.5,1,1.3,1.8c0.4,0.4,0.8,0.7,1.1,1c0.3,0.3,0.6,0.5,0.6,0.5c-2-0.5-3.6-1.3-4.9-2.1
			c-1.3-0.8-2.3-1.6-3-2.2c-1.4-1.2-1.9-1.5-1.8-1.2c0.1,0.3,0.8,1.2,1.8,2.1c1,1,2.4,2,3.7,2.6c0.2,0.3,0.7,0.6,1.3,0.8
			c0.6,0.2,1.2,0.5,1.9,0.9c-0.3,0-0.6,0-1,0c-0.4,0-0.9,0-1.3,0c-0.9,0-1.8-0.2-2-0.3c-1.1-0.6-1.8-0.7-2.3-1
			c-0.6-0.3-1.1-0.7-1.7-1.9c-0.5-1-1.6-2.2-2.6-3.4c-1-1.2-2-2.4-2.5-3.2c1.3,0.7,4.2,2,4.6,3.3c-0.1-1.6-1-2.2-2.1-2.7
			c-1.1-0.6-2.2-1.2-2.6-2.8c-0.1-0.3-0.3-0.6-0.6-0.9c0-0.4,0.1-0.7,0.1-1.2c-0.6-2.6-2-4.6-2.1-7.3c0.1,0.2-0.6,0.5-0.6,0.7
			c-0.7,2.5,1.1,4,1.4,6.4c-0.1,0.5,1.1,0.9,1.2,1.3c0.3,0.9-0.1,2-0.1,3c-1.4-1.6-1.8-3.8-2.4-5.7c-0.2-0.4-1-0.7-1.4-0.9
			c0.1,0.9,0.3,1.8,0.6,2.7c0.6,1.6,1.9,3.2,3,4.8c1.1,1.6,2,3,1.8,4.6c0.1,0,0.2,0.1,0.3,0.2c0,0.1-0.1,0.1-0.1,0.2
			c0.2,0.4,0.4,1,0.3,1.7c-0.2-0.4-0.4-0.9-0.5-1.3c-1.8-1.2-2.7-3-3.4-4.7c-0.7-1.8-1.1-3.7-2-5.3c-0.5-0.7,0.3-2.2-0.2-2.9
			c-1.2-2.1-1.4-4.7-0.8-7.3c0.4-2.3,0.9-4.7,1.7-6.9c0.8-2.3,1.9-4.3,3.1-6.2c2.5-3.7,5.6-6.7,9.2-8.8c0.1-0.2,0.1-0.3,0.2-0.5
			c-0.2,0-0.3,0-0.5,0c0.2-0.1,0.4-0.1,0.6-0.2c0.5-0.8,1.2-1.5,2.3-1.7c0.6,0-0.4,0.5-0.1,1c0.2-0.1,0.4-0.2,0.4-0.2
			s0.2,0.2,0.4,0.4c0-0.2,0.3-0.1,0.6,0c-1.1,1.5-2,3.2-2.9,4.8c0.8,0.2,0.9-0.4,1.2-0.6c0.1-0.6,0.3-1.2,0.8-1.6
			c0.7-1.4,2.8-1.9,4-2.8c0.4-0.1,0.7-0.1,1.1-0.1c0.3,0,0.5,0.3,0.6,0.6C89.1,316.7,89.1,317,88.8,317.1z M70,336.3
			c0.3-0.7,0.8-1.3,1.3-2c0.1-0.2,0.1-0.4,0.2-0.7c0.1-0.3,0.1-0.6,0-0.9c0.5-1.2,1.2-2.3,1.8-3.3c-1.3,1-2.5,2.1-2.9,3.7
			c0.2-2,1.2-3.8,2.5-5.3c1.3-1.5,2.9-2.7,4.3-3.9c0.6-0.8,1.1-1.6,1.7-2.5c0.3-0.6,0.5-1.3,0.7-1.9c-3.4,3-7,6.6-9.4,11.5
			c-1.2,2.4-2,5.1-2.4,7.8c-0.4,2.7-0.4,5.3-0.1,7.8C68.4,343.1,68.7,339.7,70,336.3z M71,337.4c0,1.3,0.1,2.6,0.3,3.8
			c0.3,3.3,1,6.9,3.4,8.5c-1.4-2.6-2.7-5.4-3.4-8.5c0.1,1.5,0.2,1.7,0.2,1c0-0.7-0.2-2.2-0.4-4.3C71,337.8,71,337.6,71,337.4z"/>
		<path class="st5" d="M75.6,319.6c1.5-0.8,2.8-1.6,4.3-2.2c-1,0-2-0.1-2.9,0.1c-2.2,0.7-3.1,2.4-4.7,3.8c-2.3,2-4.1,4.5-5.3,7.4
			c-1.2,2.9-1.8,6.2-1.7,9.3c-0.1,0.3-0.1,1,0.2,1.5c0.4-3.9,1.2-8,3-11.4C70.2,324.7,72.6,321.8,75.6,319.6z"/>
		<path class="st5" d="M65.6,349c0.5,1,1,1.9,1.2,3c0.4-1.1,0.2-2.3,0-3.3c-0.4-1.3-0.8-2.6-1.1-4C65.4,346.1,65.3,347.6,65.6,349z"
			/>
		<path class="st5" d="M65.5,339.5c0,0.3-0.1,0.6-0.1,0.9c-0.1,1.5,0,2.9,0.3,4.2c0.3-1.6,0.7-3.2,1-4.7
			C66.1,340,65.7,339.8,65.5,339.5z"/>
	</g>
	<g class="st4">
		<path class="st5" d="M166.7,396.8c-2.8,4-5.7,6.7-8.5,9.4c-2.3,2-4.8,3.2-7.3,4.1c-1.2,0.5-2.5,0.9-3.7,1.3
			c-1.2,0.4-2.5,0.8-3.8,1.3c-2.7,0.9-5.3,1.7-8.3,2.3c-3.1,0.2-6.4,0-9.4-0.5c-3.1-0.5-6-1.2-8.8-1.9c-0.6-0.3-2.3-1.1-2.5,0.2
			c-5.4-2.4-10.2-5.4-15.4-8c-2.1-1.2-3.5-3.7-5.3-5.2c-1.6-1.2-2.8-2.8-3.8-4.5c-1-1.7-1.8-3.5-2.8-5.1c-0.4-0.4-1.6-1.1-1.7-1.6
			c-0.5-2.8-1.4-5.1-2.3-7.7c-0.9-2.5-1.7-5.1-2-7.7c-0.1-2-0.2-3.6,0.1-5.5c-0.6-0.3-0.4-0.7-0.5-1.3c0.1-0.7,0.9-2.9,1.9-4.8
			c1-2,2-3.7,2.4-3.9c0.2-0.1-0.5,3.3-1.1,7c-0.6,3.6-0.7,7.5-0.4,7.4c0.2-0.2,0.4-2.7,0.9-5.1c0.4-2.5,1-4.9,1.1-5.3
			c-0.2,4.4-0.1,8,0.2,10.9c0.4,2.9,1,5,1.5,6.4c0.5,1.5,1,2.3,1.3,2.8c0.3,0.4,0.4,0.5,0.3,0.2c-0.1-0.5-0.8-2.2-1.4-4.6
			c-0.6-2.3-1-5.3-1.2-8c0.4-1.6-0.2-4.1,0.5-7.1c0,1,0.4,2.5,0.7,3.9c0.3,1.4,0.7,2.6,0.7,3c0.2,2.1,0.6,2.9,0.8,3.8
			c0.3,0.9,0.4,1.9,0.4,4c0,1.8,0.8,4,2,6c1.1,2,2.6,3.5,3.5,4.6c-0.8-0.3-2.2-1-3.3-2c-1.2-1-2.2-2.3-2.3-3.4
			c0.1,2.6,1.4,3.8,2.8,4.7c1.4,0.9,2.8,1.6,4.2,3.7c0.3,0.3,0.7,0.7,1.3,1c0.3,0.5,0.5,1,0.9,1.6c1.4,1.5,3.1,2.6,4.8,3.5
			c1.7,1,3.4,1.8,5.2,2.9c-0.3-0.1-0.2-0.8-0.5-1.1c-1.3-1.3-2.6-2.1-4.1-2.8c-1.4-0.8-2.9-1.6-4-2.9c-0.4-0.6-1.7-0.6-2.2-1.2
			c-1-1.1-1.3-2.6-1.7-3.9c2.1,1.7,4,4.2,6.3,5.9c0.5,0.3,1.5,0.2,2.1,0.2c-1-0.8-1.9-1.6-2.9-2.5c-1.7-1.4-4-2.9-5.7-4.7
			c-1.7-1.8-2.8-4-2.3-5.8c-0.1-0.1-0.1-0.2-0.3-0.3c0.1-0.1,0.1-0.1,0.1-0.2c-0.1-0.3-0.1-0.6-0.1-1c0-0.3,0.1-0.7,0.3-1.1
			c0,0.6,0.1,1.1,0.1,1.7c1.5,1.9,2.4,3.8,3.7,5.7c1.2,1.9,2.7,3.9,4.7,5.3c0.9,0.5,1.6,2.5,2.7,2.9c3,1.3,5.8,3.1,8.9,5.2
			c2.7,1.7,5.8,3.3,8.9,4.5c3.1,1.3,6.2,2.2,9.5,2.5c3.3,0.2,6.9-0.3,10.5-1.1c3.6-0.8,7.2-1.7,10.8-3.2c0.3-0.2,0.5-0.5,0.8-0.7
			c-0.2,0-0.4,0-0.6,0c0.3-0.1,0.7-0.2,1-0.3c1.5-1.3,3-2.5,4.9-3.5c0.9-0.3-0.9,1.1-1,1.9c0.4-0.3,0.8-0.6,0.8-0.6s0.2,0.3,0.3,0.5
			c0.1-0.4,0.6-0.3,0.9-0.3c-3.1,3.6-6.8,6.4-10.6,8.5c0.8,0.4,1.9-0.4,2.5-0.6c1.2-1,2.3-1.9,3.6-2.6c1.5-1.3,3.2-2.4,4.9-3.7
			c1.7-1.3,3.4-2.8,4.7-4.7c0.6-0.6,1.2-1.2,1.9-1.8c0.2-0.1,0.3-0.1,0.4,0c0.1,0.1,0.1,0.1,0.1,0.2c0,0.1,0,0.3,0,0.4
			C167.6,395.1,167.3,396.1,166.7,396.8z M115.5,403.8c0.9,0.7,1.8,1.5,2.7,2.2c0.4,0.2,0.7,0.3,1.1,0.5c0.4,0.2,0.9,0.3,1.5,0.3
			c1.9,0.9,3.9,1.7,6,2.3c-2.1-1.3-4-2.6-6.4-3.4c3.2,0.8,6,1.9,9.1,2.8c3.1,0.8,6.6,1.2,10,0.8c2-0.5,3.9-1.2,5.8-2
			c1.3-0.6,2.5-1.4,3.7-2.2c-2.1,0.8-4.3,1.4-6.4,1.9c-2.2,0.5-4.4,0.9-6.5,1.1c-4.4,0.4-8.5-0.6-12.2-2.1
			c-3.7-1.5-7.5-3.4-10.8-5.4c-3.4-2-6.4-4.2-9.1-6.5C106.7,397.9,110.9,400.8,115.5,403.8z M113.4,404c-2-0.8-3.9-1.7-5.8-2.5
			c-2.5-1.4-4.9-3-7.1-4.5c-2.2-1.5-4.2-2.9-6.1-3.7c3.8,3.5,8.4,6,13.2,8.2c-2.2-1.2-2.5-1.4-1.6-0.8c1,0.6,3.3,1.9,6.5,3.1
			C112.7,403.8,113,403.9,113.4,404z"/>
		<path class="st5" d="M144.1,403.6c2.6-0.3,5.3-0.8,8-1.5c-1.3-0.2-2.5-0.4-3.8-0.4c-1.7,0.1-3.2,0.5-4.8,0.9
			c-1.6,0.4-3.1,0.9-4.7,1c-2.2,0.2-4.4,0.3-6.4,0.1c-1.9-0.1-3.7-0.5-5.6-1c-1.9-0.5-3.8-1.1-5.8-1.8c-2-0.7-4-1.5-6-2.3
			c-0.4-0.2-1.2-0.6-1.9-0.7c2.3,1.3,4.7,2.5,7.2,3.6c2.5,1,4.9,1.9,7.3,2.5c2.4,0.6,4.8,0.8,7.6,0.7
			C138.2,404.6,141.1,404.1,144.1,403.6z"/>
		<path class="st5" d="M103.5,390.3c-1.1-0.7-2.2-1.5-2.9-2.4c0.2,1.3,1.2,2.5,2.1,3.4c1.4,1.1,3,2.1,4.6,3.1
			C106,392.9,104.8,391.5,103.5,390.3z"/>
		<path class="st5" d="M113.2,398c-0.4-0.2-0.7-0.4-1.1-0.7c-1.6-1-3.3-2-4.9-3c1.4,1.5,2.9,3,4.7,4.4
			C112.3,398.1,112.7,397.9,113.2,398z"/>
	</g>
	<g class="st8">
		<g>
			<path class="st9" d="M572.8,328.6c2.1-22.1-6.6-42.7-21.7-56.7c3.7,10,5.3,21,4.2,32.3c-2.6,28.4-21,51.5-45.7,61.6
				c-0.1,1.6-0.2,3.2-0.3,4.8c-5.4,58.1-56.9,100.9-115,95.5c-5.5-0.5-10.9-1.5-16.2-2.8c13,8.6,28.3,14.2,45,15.8
				c54,5,101.9-34.7,107-88.8c0.1-1.5,0.2-3,0.3-4.5C553.2,376.5,570.3,355,572.8,328.6z"/>
		</g>
	</g>
	<g class="st4">
		<path class="st5" d="M531.3,411.7c0.4-2.5,0.3-4.8-0.3-7.1c-0.7-3.5,0.1-7-0.6-10.9c-0.1-1-0.4-1.9-0.6-2.7
			c-0.3-0.9-0.6-1.7-1-2.6c-0.3-1.9-0.9-3.9-1.8-5.8c-0.9-1.9-1.9-3.7-3.3-5.4c-0.2-0.4-0.8-1.8-1.8-0.7c-2.2-3.7-4.8-7.3-8.7-9.6
			c-1.5-1-2.4-3.1-4-4.1c-2.7-1.4-4.3-4.3-6.9-5.7c-0.5,0-1.6,0.1-1.8-0.1c-1.4-1.6-3.2-2.3-5-2.7c-1.9-0.3-3.8-0.3-5.5-0.3
			c-0.3,0-0.6-0.1-1-0.1c-0.3,0-0.6,0-0.9,0c-0.6,0-1.1-0.1-1.7-0.2c-0.2,0.6-0.5,0.4-0.8,0.6c-0.2,0-0.7-0.2-1.2-0.4
			c-0.6-0.2-1.3-0.5-2-0.7c-0.3-0.1-0.7-0.2-1-0.4c-0.3-0.1-0.7-0.2-0.9-0.3c-0.6-0.2-1-0.4-1.2-0.6c-0.1-0.1,2.4-0.7,5.1-0.7
			c2.7,0,5.5,0.5,5.4,0.1c0-0.1-0.5-0.3-1.2-0.4c-0.7-0.2-1.6-0.3-2.6-0.4c-0.9-0.1-1.9-0.1-2.6-0.2c-0.8,0-1.3,0-1.5,0
			c3.3-0.9,6.3-1,8.7-1c1.2,0.1,2.3,0.1,3.3,0.2c1,0.1,1.8,0.2,2.5,0.3c1.4,0.2,2.3,0.4,2.8,0.4c0.5,0,0.6,0,0.4-0.1
			c-0.2-0.1-0.8-0.3-1.5-0.5c-0.8-0.2-1.7-0.4-2.8-0.7c-2.2-0.4-4.9-0.6-7.1-0.4c-0.7-0.2-1.5-0.1-2.5,0c-1,0.2-2.1,0.3-3.4,0.4
			c0.4-0.1,0.9-0.4,1.4-0.6c0.5-0.2,1.1-0.5,1.7-0.8c1.2-0.5,2.3-0.9,2.7-0.9c1-0.1,1.6-0.1,2.2-0.2c0.6-0.1,1-0.2,1.5-0.2
			c0.9-0.1,1.9,0,3.9,0.8c0.8,0.3,1.8,0.7,2.9,1c1.1,0.3,2.3,0.6,3.4,1c2.3,0.7,4.6,1.4,5.9,2.1c-1.9,0-6.2,0.1-8.1-1.1
			c1.9,1.6,3.4,1.7,5.1,1.8c1.6,0,3.4,0.1,5.5,1.7c0.4,0.3,0.9,0.5,1.5,0.7c0.4,0.5,0.8,0.9,1.2,1.4c3.3,2.6,6.8,4.1,9.8,7.1
			c-0.3-0.2,0-0.9-0.3-1.2c-2.1-3.3-5.3-4-8.2-6.5c-0.5-0.6-1.9-0.4-2.5-0.8c-1.3-0.9-2.1-2.2-3.2-3.3c3,0.9,5.7,3.2,8.3,5
			c0.6,0.3,1.6,0.3,2.2,0.3c-1.1-0.9-2.3-1.9-3.5-2.8c-2.2-1.4-5.2-2.5-7.9-3.6c-2.7-1.1-5.2-2.1-6.6-3.8c-0.1,0-0.3,0-0.5,0
			c0-0.1-0.1-0.2-0.1-0.2c-0.7-0.3-1.5-0.8-2.1-1.5c0.6,0.3,1.3,0.6,1.9,1c3,0.2,5.8,1.5,8.3,3c2.6,1.5,5,3.3,7.5,4.7
			c1.2,0.5,2.2,2.7,3.4,3.2c3.3,1.7,6.2,4.5,8.4,7.9c2.1,2.9,4,6,5.5,9.3c1.5,3.3,2.7,6.6,3.4,9.9c1.5,6.7,1.7,13.4,0.6,19.6
			c0.1,0.3,0.1,0.5,0.2,0.8c0.1-0.1,0.2-0.3,0.4-0.4c-0.1,0.3-0.2,0.6-0.3,0.8c0.2,1.5,0.2,3.1-0.5,4.6c-0.4,0.6-0.1-1.1-0.6-1.5
			c-0.1,0.3-0.1,0.7-0.1,0.7s-0.3,0-0.6-0.1c0.2,0.2-0.2,0.4-0.4,0.6c-0.2-3.2-0.7-6.4-1.4-9.6c-0.7,0.5-0.4,1.4-0.4,1.9
			c0.4,1,0.7,2,0.6,3c0.5,2.7-0.7,5.6-1.1,8.1c-0.2,0.5-0.5,0.9-0.8,1.4c-0.2,0.3-0.6,0.1-0.8-0.2
			C531.3,412.6,531.1,412.1,531.3,411.7z M527.8,369.4c0.4,1,0.7,2.1,1,3.2c0.2,0.3,0.4,0.6,0.5,0.9c0.2,0.4,0.5,0.8,0.9,1.1
			c0.4,0.9,0.7,1.8,1.1,2.7c0.3,0.9,0.6,1.8,0.9,2.8c0-1.1,0-2.2-0.2-3.3c-0.2-1.1-0.6-2.2-1.2-3.3c1.9,2.6,2.8,5.5,3.2,8.4
			c0.5,2.9,0.4,5.8,0.5,8.7c0.3,1.6,0.6,3.2,0.9,4.9c0.3,1.1,0.6,2.2,1,3.3c0.1-7.3-0.5-15.1-3.3-22.8c-1.4-3.8-3.5-7.5-5.9-10.9
			c-2.4-3.3-5.2-6.3-8.2-9C522,360.5,525.3,364.5,527.8,369.4z M525.9,368.6c-1.3-1.6-2.8-3-4.3-4.2c-3.9-3.7-8.4-7.4-12.4-7.8
			c4.2,2.2,8.5,4.6,12.4,7.8c-1.8-1.7-2-1.9-1.3-1.1c0.8,0.8,2.6,2.4,4.9,4.8C525.4,368.1,525.6,368.3,525.9,368.6z"/>
		<path class="st5" d="M539,395c-0.4,2.4-0.8,4.7-1.4,7c0.8-0.9,1.5-1.8,2-2.9c1-2.9,0.4-6,0.4-9c0-4.4-0.8-9-2.5-13.4
			c-0.9-2.2-2-4.4-3.2-6.4c-1.3-2-2.8-4-4.3-5.8c-0.3-0.4-0.9-1.2-1.6-1.6c3.7,4.7,6.9,10,8.7,15.5C538.8,383.9,539.5,389.5,539,395
			z"/>
		<path class="st5" d="M518,352.2c-1.5-0.8-3-1.6-4.2-2.6c0.8,1.4,2.3,2.7,3.5,3.7c1.8,1.3,3.6,2.5,5.3,3.9
			C521.3,355.4,519.8,353.7,518,352.2z"/>
		<path class="st5" d="M528.2,363c-0.3-0.4-0.6-0.7-0.9-1.1c-1.4-1.7-3-3.3-4.7-4.6c1.4,1.9,2.8,4,4.1,6
			C527.2,362.7,527.7,362.7,528.2,363z"/>
	</g>
	<ellipse class="st2" cx="271.5" cy="220.8" rx="15.3" ry="25.2"/>
	<g>
		
			<image style="overflow:visible;opacity:5.000000e-02;" width="97" height="97" xlink:href="8392932E.png"  transform="matrix(1 0 0 1 288.1903 158.583)">
		</image>
		<g>
			<path class="st5" d="M379.6,211c0,21.4-17.4,38.8-38.8,38.8c-11.5,0-21.9-5-29-13c-6.1-6.9-9.8-15.9-9.8-25.8
				c0-21.4,17.4-38.8,38.8-38.8c10.3,0,19.7,4,26.6,10.6C375,189.8,379.6,199.9,379.6,211z"/>
		</g>
	</g>
	<ellipse class="st2" cx="339.8" cy="220.8" rx="15.3" ry="25.2"/>
	<g>
		<g>
			<path class="st10" d="M484.6,304.4l0-16.1c-1.2-33.6,12.9-69.2,47.3-103.8c30.9-30.5,48.4-53.4,50.6-81.2
				c2.4-31.5-16.1-54-55.7-57.7c-22.7-1.8-48.4,3.7-65,14.2l-12.1-40.1C471.6,6.5,508.2-0.6,541.5,2c72.4,5.6,101.7,52,98.1,98.9
				c-3.2,42-29.5,70.4-62.4,103.2c-30.2,30-42.3,56.3-42.9,88l-0.6,16.1L484.6,304.4z M464.1,389.7c1.8-22.8,18.7-37.7,40.8-36
				c22,1.7,35.9,18.9,34.1,41.8c-1.7,21.6-17.4,37.2-40.7,35.3C476.2,429.1,462.4,411.3,464.1,389.7z"/>
		</g>
	</g>
	<g>
		<g>
			<path class="st10" d="M160,299.2l-3.8-10.9c-8.7-22.5-7.4-49.8,7.7-81.3c13.7-27.9,20.3-47.5,15.3-66.8
				c-5.7-21.9-23.5-32.8-51.2-26c-15.7,4.1-31.9,13.8-40.7,24.8l-17.6-24.3c11.7-14.1,34.9-27.4,58.1-33.5
				c50.3-13.1,81,11.4,89.5,44c7.6,29.2-3.5,54.5-18.1,84.5c-13.4,27.3-15.5,48-8.5,69.6l3.4,11L160,299.2z M166,361.7
				c-4.1-15.9,3.9-29.9,19.2-33.9c15.3-4,28.7,4.4,32.9,20.3c3.9,15-3.1,29.2-19.3,33.5C183.5,385.6,170,376.8,166,361.7z"/>
		</g>
	</g>
	<path class="st2" d="M537.7,280.1c-1-1.6-3.7-0.3-2.7,1.4c12.7,20.3,15.7,45.4,11,68.7c-4.6,23-16.9,44.8-35.6,59.2
		c-8.2,6.3-17.6,10.9-27.6,13.1c0.3-0.6,0.4-1.3,0.2-1.9c-0.5-2.6-4.4-4-8.6-3.2c-4.2,0.9-7.2,3.7-6.7,6.3s4.4,4,8.6,3.2
		c0.6-0.1,1.1-0.3,1.6-0.4c23.2-2.9,43-18.6,55.6-37.8c13.4-20.4,19.5-45.6,17-69.8C549.2,305.1,544.9,291.8,537.7,280.1z"/>
	<path class="st2" d="M98.7,269.1c0.1-1.9,3.1-2,3-0.1c-1.7,23.9,7.4,47.5,22.5,65.9c14.9,18.1,35.9,31.6,59.2,35.6
		c10.2,1.7,20.7,1.4,30.6-1.4c-0.5-0.4-0.9-1-1.1-1.6c-0.8-2.5,2-5.6,6.1-6.8c4.1-1.2,8.1-0.2,8.9,2.4c0.8,2.5-2,5.6-6.1,6.8
		c-0.6,0.2-1.1,0.3-1.6,0.4c-21.9,8.4-46.7,3.7-66.8-7.3c-21.4-11.7-38.6-31.1-47.8-53.7C100.2,296.6,97.7,282.8,98.7,269.1z"/>
</g>
</svg>
