<?xml version="1.0" encoding="utf-8"?>
<!-- Generator: Adobe Illustrator 24.2.0, SVG Export Plug-In . SVG Version: 6.00 Build 0)  -->
<svg version="1.1" id="Warstwa_1" xmlns="http://www.w3.org/2000/svg" xmlns:xlink="http://www.w3.org/1999/xlink" x="0px" y="0px"
	 viewBox="0 0 352.6 273.2" style="enable-background:new 0 0 352.6 273.2;" xml:space="preserve">
<style type="text/css">
	.st0{fill:#27CBDE;}
	.st1{opacity:0.8;}
	.st2{fill:#FFFFFF;}
	.st3{opacity:0.45;}
	.st4{fill:#5AD9ED;}
	.st5{opacity:0.28;}
	.st6{fill:#1BA2C1;}
</style>
<g>
	<g>
		<path class="st0" d="M6.6,158.8c0.2-20.1,13.8-37.3,32.6-43.6c-0.8-5-1.2-10.2-1.1-15.5C38.7,46.2,84.1,2.4,139.6,2
			c37.8-0.3,70.5,19.6,87.3,49.2c4.3-0.8,8.7-1.2,13.2-1.3c40.5-0.3,72.9,31,72.5,70.1c-0.1,6.3-1,12.4-2.7,18.3
			c20.9,9.2,35.3,29.6,35,53.4c-0.4,32.7-28.1,59.4-61.9,59.6c-13.8,0.1-26.5-4.2-36.6-11.5c-11.8,12.5-28.7,20.5-47.4,20.6
			c-18.4,0.2-34.9-7.3-46.4-19.3c-12.6,15.5-32.1,25.6-53.9,25.8c-37.5,0.3-67.5-28.7-67.1-64.9c0-1,0-2,0.1-3
			C16.6,191.7,6.4,176.4,6.6,158.8z"/>
		<g class="st1">
			<path class="st2" d="M4,158.8c0.1,3.7,0.6,8.5,2.3,13.8c0.5,1.3,0.9,2.7,1.5,4.1c0.6,1.4,1.3,2.8,2,4.2c1.6,2.8,3.5,5.6,5.8,8.2
				c2.3,2.6,5.1,5.1,8.2,7.4c0.4,0.3,0.8,0.6,1.2,0.8c0.4,0.3,0.8,0.5,1.2,0.8c0.4,0.3,0.8,0.5,1.2,0.8l0.3,0.2
				c0.1,0.1,0.2,0.1,0.3,0.2l0.4,0.2l0.9,0.5l0.4,0.2c0,0,0.1,0,0.1,0.1l0,0.1l0,0.2l0,1c0,0.4,0,0.6,0,1.1c0,7.8,1.5,16,4.6,23.7
				c3.1,7.7,7.7,14.8,13.4,20.8c5.7,6,12.6,10.8,19.7,14.2c3.6,1.7,7.2,3,10.8,4.1c3.6,1,7.2,1.7,10.6,2.1c0.9,0.1,1.7,0.2,2.6,0.3
				c0.8,0.1,1.7,0.1,2.5,0.1c0.4,0,0.8,0.1,1.2,0.1c0.4,0,0.8,0,1.2,0c0.8,0,1.6,0,2.4,0c1.6-0.1,3.1-0.1,4.5-0.2
				c0.7-0.1,1.4-0.1,2.1-0.2c0.7-0.1,1.4-0.1,2.1-0.3c1-0.2,2.1-0.3,3.1-0.5c1-0.2,2-0.4,2.9-0.6c1-0.2,1.9-0.5,2.8-0.7
				c0.9-0.3,1.8-0.5,2.7-0.8c0.9-0.3,1.7-0.6,2.6-0.9c0.9-0.3,1.7-0.6,2.5-1c1.6-0.6,3.1-1.3,4.6-2c0.7-0.3,1.4-0.7,2.1-1.1
				c0.7-0.4,1.4-0.7,2-1.1c1.3-0.8,2.5-1.5,3.7-2.3c0.6-0.4,1.1-0.8,1.7-1.2c0.6-0.4,1.1-0.7,1.6-1.2c0.5-0.4,1-0.8,1.5-1.2
				c0.5-0.4,1-0.7,1.4-1.1c1.5-1.3,1.8-1.5,1-0.9c-0.8,0.7-2.7,2.3-5.6,4.3c-2.9,2.1-7,4.5-12.1,6.8c-5.1,2.3-11.4,4.2-18.4,5.3
				c-0.8,0.1-1.6,0.2-2.4,0.3c-0.8,0.1-1.6,0.2-2.5,0.2c-0.8,0-1.7,0.1-2.5,0.1c-0.8,0-1.7,0.1-2.6,0.1c-3.5,0-7.1-0.3-10.8-0.8
				c-7.4-1.1-15.3-3.6-22.9-7.8c4.8,2.5,9.8,4.5,14.9,5.8c5.1,1.3,10.2,2,15.1,2.2c9.9,0.3,18.8-1.4,25.9-3.9
				c10.4-3.4,20.1-9.3,27.9-17.3l1.6-1.7c0.6-0.6,1.1-1.2,1.6-1.9l0.8-0.9l0.4-0.5l0.2-0.2l0.1-0.1l0.1-0.1c0,0,0,0,0.1,0l1.7,1.7
				c0.6,0.6,1.2,1.1,1.8,1.7c0.6,0.5,1.1,1,1.7,1.5l1.7,1.4c0.6,0.5,1.2,0.9,1.8,1.3l0.9,0.7l0.9,0.6c0.6,0.4,1.3,0.8,1.9,1.2
				c1.3,0.7,2.6,1.5,3.9,2.2c1.3,0.7,2.7,1.3,4.1,1.9c0.7,0.3,1.4,0.6,2.1,0.8l1,0.4l1.1,0.4c11.4,4,24,4.5,35.7,1.8l2.2-0.5
				c0.7-0.2,1.5-0.4,2.2-0.6c1.5-0.4,2.9-1,4.3-1.5c0.7-0.3,1.4-0.6,2.1-0.9c0.7-0.3,1.4-0.6,2.1-0.9l2-1l2-1.1
				c0.3-0.2,0.7-0.4,1-0.5l1-0.6c0.6-0.4,1.3-0.8,1.9-1.2c1.2-0.8,2.5-1.7,3.7-2.6c1.2-0.9,2.4-1.9,3.5-2.8c0.6-0.5,1.1-1,1.7-1.5
				l0.9-0.8c0.3-0.3,0.6-0.6,0.9-0.9l1.8-1.9c0,0,0,0,0.1,0l0.1,0l0.1,0.1l0.3,0.2l0.5,0.4l1.1,0.7c0.7,0.5,1.5,0.9,2.1,1.3
				c0.6,0.4,1.3,0.7,1.9,1.1c2.6,1.4,5.3,2.7,8.1,3.8c5.6,2.1,11.5,3.4,17.6,3.8c4.4,0.3,10.1,0.2,16.3-1.1c3.1-0.6,6.3-1.5,9.5-2.6
				c3.2-1.2,6.4-2.6,9.4-4.4c3-1.7,5.9-3.7,8.5-5.8c2.6-2.1,4.9-4.4,7-6.7c1-1.1,2-2.3,2.9-3.5c0.9-1.2,1.7-2.3,2.4-3.4
				c0.8-1.1,1.4-2.2,2-3.2c0.6-1,1.1-2,1.6-3c-3.9,7.7-9.6,14.6-16.5,20.1c-6.9,5.4-15,9.5-23.7,11.6c-8.6,2.1-17.7,2.4-26.4,0.8
				c-2.2-0.4-4.3-0.9-6.4-1.6c-1.1-0.3-2.1-0.7-3.1-1c-1-0.4-2.1-0.8-3.1-1.2c-2-0.8-4-1.8-5.9-2.9l-1.4-0.8
				c-0.2-0.1-0.5-0.3-0.7-0.4l-0.7-0.5c-1.2-0.7-2.3-1.5-3.4-2.3c0,0-0.1-0.1-0.1,0l-0.1,0.1l-0.2,0.2l-0.4,0.4l-0.7,0.7l-1.4,1.5
				l-1.3,1.2c-0.4,0.4-0.8,0.8-1.2,1.1c-0.9,0.7-1.7,1.4-2.6,2.1c-0.9,0.7-1.8,1.3-2.7,2c-3.6,2.5-7.5,4.7-11.6,6.5
				c-8.2,3.5-17.1,5.3-26,5.3c-8.9,0-17.7-1.9-25.7-5.5c-4-1.8-7.8-4-11.3-6.6c-0.9-0.6-1.7-1.3-2.6-2c-0.4-0.3-0.9-0.7-1.2-1
				l-1.3-1.2c-1-0.9-1.9-1.8-2.8-2.7l-0.3-0.3l-0.2-0.2c-0.1,0-0.1-0.2-0.2-0.1l-0.6,0.8l-1.3,1.5l1.1-1.3l0.6-0.7l0.3-0.3
				c0,0,0,0,0,0l0,0l0.1,0.1l0.2,0.1c0.8,0.8,1.6,1.6,2.4,2.3l0.8,0.7l0.7,0.7c0.4,0.4,0.8,0.8,1.3,1.1c0.9,0.7,1.8,1.5,2.7,2.1
				c0.9,0.7,1.8,1.4,2.8,2c1,0.6,1.9,1.3,2.9,1.8c4,2.3,8.2,4.2,12.6,5.6c8.8,2.8,18.3,3.6,27.5,2.4c9.2-1.2,18.2-4.4,26.1-9.4
				c1-0.6,1.9-1.3,2.9-1.9c0.9-0.7,1.9-1.4,2.8-2.1c0.9-0.7,1.8-1.5,2.7-2.2l1.3-1.2l0.6-0.6c0.3-0.3,0.6-0.5,0.8-0.8l1.6-1.6
				l0.8-0.8c0.1-0.1,0.1,0,0.2,0l0.2,0.2l0.5,0.3l1.9,1.3c0.3,0.2,0.6,0.4,1,0.6l0.8,0.5c1.9,1.2,3.9,2.3,6,3.2
				c5.6,2.6,11.7,4.4,18.2,5.1c-6.3-0.7-12.5-2.5-18.2-5.1c-0.9-0.4-1.8-0.9-2.7-1.4c-0.9-0.5-1.8-1-2.6-1.5
				c-0.2-0.1-0.4-0.3-0.6-0.4l-0.7-0.4c-0.6-0.4-1.1-0.7-1.7-1.1l-1.7-1.2l-0.4-0.3c-0.1-0.1-0.1,0-0.2,0.1l-0.2,0.2l-0.7,0.7
				l-1.5,1.5c-0.5,0.5-1,1-1.4,1.3c-0.8,0.7-1.5,1.4-2.3,2c-1.6,1.3-3.2,2.6-4.9,3.7c-6.8,4.7-14.7,8.2-23.5,10
				c-5.4,1.1-11.4,1.7-17.3,1.3c-3-0.1-5.9-0.6-8.8-1.1c-1.4-0.3-2.8-0.6-4.2-1c-0.7-0.2-1.4-0.4-2-0.6c-0.7-0.2-1.3-0.4-2-0.7
				c-4.2-1.5-8.1-3.3-11.8-5.4c-0.9-0.5-1.8-1.1-2.7-1.7c-0.9-0.6-1.7-1.2-2.6-1.8c-0.8-0.6-1.7-1.3-2.5-1.9l-1.2-1
				c-0.4-0.4-1-0.8-1.4-1.3l-1.8-1.7l-0.9-0.9c0-0.1-0.1,0-0.1,0.1l-0.1,0.1l-0.2,0.2l-0.4,0.5l-1.6,1.9c-0.3,0.3-0.5,0.6-0.8,1
				l-0.8,0.8l-1.4,1.5c-0.5,0.5-1,1-1.5,1.4c-0.5,0.5-1,1-1.5,1.4l-1.6,1.3c-0.3,0.3-0.6,0.5-1,0.8c-0.3,0.3-0.7,0.5-1,0.8
				c-0.7,0.5-1.4,1-2.1,1.6c0.1,0,0.1-0.1,0.2-0.1c0.6-0.6,1.7-1.4,3.1-2.6c0.7-0.6,1.4-1.3,2.2-2c0.8-0.8,1.6-1.6,2.6-2.5
				c0.5-0.4,0.9-1,1.4-1.5c0.2-0.3,0.5-0.5,0.7-0.8c0.2-0.2,0.3-0.3,0.5-0.5c0.2-0.2,0.3-0.4,0.5-0.6c0.6-0.8,1.3-1.5,1.9-2.4
				c0.3-0.4,0.7-0.8,1-1.2l0.1-0.2l0.1,0.1l0.3,0.3c0.2,0.2,0.4,0.4,0.6,0.6c0.8,0.7,1.6,1.5,2.4,2.3c0.2,0.2,0.4,0.4,0.6,0.6
				c0.2,0.2,0.4,0.3,0.6,0.5c0.3,0.3,0.6,0.6,1,0.8c0.7,0.5,1.4,1.1,2.1,1.6c0.7,0.6,1.5,1.1,2.3,1.6c6.2,4.2,14.1,7.9,23.1,9.6
				c8.9,1.8,18.9,1.6,28.4-0.9c4.7-1.2,9.3-3,13.6-5.3c4.3-2.3,8.2-5,11.8-8l0.7-0.6l0.6-0.6c0.4-0.4,0.8-0.8,1.3-1.2l0.2-0.2
				c0.1-0.1,0.2-0.2,0.3-0.3l0.5-0.5l1-1c0.7-0.7,1.3-1.4,2-2.1l0.1-0.1l0.1-0.1c0,0,0,0,0.1,0l0.3,0.2l0.6,0.4l1.2,0.8
				c0.8,0.5,1.5,1.1,2.3,1.6l0.9,0.6c0.2,0.1,0.5,0.3,0.7,0.4c0.5,0.3,0.9,0.5,1.4,0.8c3.8,2.1,7.7,3.7,11.6,4.8
				c7.7,2.3,15,2.7,20.9,2.4c5.9-0.4,10.4-1.5,13.1-2.2c8.7-2.4,16.5-6.5,23.4-12.1c6.8-5.7,12.7-13,16.4-22.2c1.2-3.1,2-6,2.6-8.8
				c0.3-1.4,0.5-2.7,0.7-4.1c0.2-1.3,0.3-2.6,0.5-3.9c0.1-0.2,0.2-1,0.3-2c0-0.5,0.1-1.1,0.1-1.7c0-0.6,0-1.2,0-1.9
				c-0.2-6.6-1.6-13.1-3.9-18.8c-2.4-5.7-5.5-10.6-8.6-14.7c-1.8-2.5-6-6.3-10.5-9.2c-2.3-1.4-4.6-2.7-6.6-3.7
				c-0.3-0.1-0.5-0.2-0.8-0.4c-0.3-0.1-0.4-0.2-0.9-0.4c-0.8-0.3-1.5-0.7-2.2-1c-1.4-0.6-2.6-1.1-3.5-1.6c0.3-1.3,0.6-2.2,0.7-2.6
				c0.5-1.2,0.8-2.1,1.1-2.8c0.1-0.2,0.1-0.3,0.2-0.4c0-0.1,0.1-0.2,0.1-0.3c0.1-0.2,0.1-0.3,0.2-0.5c0.2-0.6,0.3-1.2,0.5-2
				c0.1-0.9,0.2-2.1,0.4-4.1c0.1-1,0.2-2.2,0.2-3.7c0.1-1.5,0.1-3.2,0-5.3c0-0.5,0-1.3,0-2.2c0-1,0-2.1-0.1-3.3
				c-0.1-1.2-0.1-2.4-0.3-3.6c-0.2-1.2-0.3-2.3-0.6-3.3c-0.2-0.8-0.4-1.6-0.6-2.4c-0.2-0.8-0.4-1.5-0.6-2.1
				c-0.4-1.4-0.8-2.6-1.2-3.8c-0.1-0.3-0.2-0.6-0.3-0.9c-0.1-0.3-0.2-0.6-0.3-0.8c-0.2-0.6-0.4-1.1-0.6-1.7
				c-0.4-1.1-0.9-2.1-1.4-3.2c-0.5-1.1-1-2.1-1.6-3.2c-0.6-1.1-1.2-2.2-1.9-3.4c-1.5-2.4-3.3-5-5.8-8c-3.8-4.5-7.3-7.6-10.6-10.1
				c-3.3-2.5-6.3-4.3-9.4-5.9c-3.1-1.6-6.2-2.9-9.8-4.3c-3.6-1.3-7.8-2.5-13-3.5c-0.8-0.2-4.9-0.8-9.9-0.9c-2.5-0.1-5.1,0-7.6,0.1
				c-1.3,0.1-2.5,0.2-3.6,0.3c-0.3,0-0.7,0.1-1,0.1c-0.4,0.1-0.7,0.1-1.1,0.2c-0.7,0.1-1.4,0.2-2,0.3c-0.7-1.1-1.3-2.1-1.8-3
				c-0.4-0.7-0.9-1.4-1.2-2.1c-0.7-1.3-1.5-2.2-2-3.1c-1.1-1.6-1.7-2.4-1.7-2.4c-0.5-0.7-1-1.3-1.5-1.9c-0.5-0.6-1-1.2-1.5-1.8
				c-0.5-0.6-1-1.2-1.4-1.8c-0.5-0.6-1-1.1-1.5-1.6c-1-1.1-2-2.1-3-3.2c-1-1-2-1.9-3-2.9c-0.5-0.5-1-0.9-1.5-1.4
				c-0.5-0.4-1-0.9-1.5-1.3c-1-0.8-2-1.7-3-2.5c-1-0.8-2.1-1.5-3.1-2.3c-0.5-0.4-1-0.7-1.5-1.1c-0.5-0.4-1-0.7-1.5-1
				c-4.2-2.7-8.3-5.1-12.7-7c-1.1-0.5-2.2-1-3.3-1.4c-1.1-0.5-2.3-0.8-3.5-1.2c-1.2-0.4-2.3-0.8-3.5-1.2c-1.2-0.3-2.5-0.6-3.7-1
				c-0.7-0.2-1.4-0.5-2.1-0.7c-0.7-0.2-1.5-0.4-2.2-0.6c-1.5-0.4-3-0.8-4.6-1.1c-3.2-0.5-6.4-1.2-9.8-1.4c-3.4-0.4-6.8-0.4-10.3-0.5
				c-1.7,0.1-3.5,0.1-5.3,0.2c-1.8,0.2-3.5,0.3-5.3,0.5C122,4.7,115,6.3,108.4,8.5c-6.6,2.2-12.8,5-18.4,8.1
				c-5.6,3.1-10,6.3-13.8,9.4c-3.8,3.1-6.9,6.2-9.8,9.3c-0.7,0.8-1.4,1.6-2.1,2.4l-1,1.2c-0.3,0.4-0.7,0.8-1,1.3
				c-0.6,0.8-1.3,1.7-2,2.5c-0.6,0.9-1.2,1.8-1.9,2.7c-2.5,3.7-5,7.7-7.3,12.6c-2.7,5.5-4.4,9.8-5.4,13.3c-0.3,0.9-0.6,2-1,3.4
				c-0.5,1.3-0.9,2.9-1.3,4.5c-0.9,3.3-1.6,6.9-2,9.9c0.2-0.5,0.4-1,0.6-1.5c-0.1,1-0.4,2.5-0.4,4c-0.1,0.8-0.1,1.5-0.2,2.2
				c0,0.3-0.1,0.7-0.1,1c0,0.3,0,0.6,0,0.8c0,2,0.1,1.5,0.2,1c0.3-1,0.5-2,0.6,1.5c-0.1,2.7,0.1,5.4,0.3,8.1
				c0.1,1.4,0.3,2.7,0.4,4.1l0.1,1.1c0.1,0.7,0.2,1.4,0.3,2.1c0.2,1.4,0.4,2.8,0.7,4.2c-1.4,0.6-2.9,1.1-4.4,1.7
				c-0.7,0.3-1.5,0.6-2.2,0.8l-1,0.5c-0.7,0.3-1.4,0.7-2.1,1c-0.7,0.4-1.3,0.8-2,1.2c-7.4,4.1-13.5,10.3-17.4,17.5
				c-0.4,0.4-0.7,0.8-1.4,1.8c-0.5,1.1-1,2.2-1.5,3.4l-0.6,1.7c-0.2,0.6-0.4,1.2-0.6,1.7c-0.7,1.4-0.9,0.8-1.4,1.8
				c-0.5-0.1-1.5,2.4-2.1,4.8c-0.3,1.2-0.6,2.3-0.9,2.9c-0.3,0.7-0.5,0.9-0.7,0.2c-0.1-0.3,0-1.4,0-3.1c0-0.2,0-0.4,0-0.7
				c0-0.2,0-0.5,0.1-0.7c0.1-0.5,0.1-1,0.2-1.5c0.1-0.5,0.1-1.1,0.2-1.7c0.1-0.6,0.2-1.2,0.3-1.8c0.1-0.6,0.2-1.2,0.4-1.8
				c0.2-0.6,0.3-1.2,0.5-1.8c0.2-0.6,0.3-1.2,0.5-1.8c0.2-0.6,0.4-1.2,0.6-1.8c0.2-0.6,0.4-1.2,0.6-1.7c0.2-0.5,0.5-1.1,0.7-1.6
				c0.2-0.5,0.4-1,0.6-1.5c0.2-0.5,0.4-0.9,0.6-1.3c0.4-0.7,0-0.3-0.6,0.4c-0.3,0.4-0.6,0.9-1,1.3c-0.3,0.5-0.6,0.9-0.9,1.3
				c0.3-0.5,0.5-1,0.7-1.5c0.2-0.5,0.4-0.9,0.7-1.3c0.4-0.8,0.8-1.5,1.2-2c0.2-0.3,0.3-0.6,0.4-0.8c0.1-0.2,0.3-0.4,0.4-0.6
				c0.2-0.4,0.4-0.6,0.5-0.8c0.4-0.8-0.3-0.2-1.5,1.4c0.6-1,1.3-1.9,1.7-2.6c0.2-0.3,0.4-0.6,0.6-0.8c0.2-0.2,0.2-0.3,0.2-0.3
				c-0.2,0.2-0.7,0.6-1,0.9c-0.4,0.4-0.7,0.7-0.7,0.7c3-4.4,6.7-8.4,11.1-11.8l0.8-0.7l0.9-0.6l1.7-1.2c0.6-0.4,1.2-0.8,1.8-1.1
				l1.8-1.1c1.2-0.7,2.5-1.3,3.8-1.9l0.2-0.1l0,0l0.1,0l0.1-0.1c0.1,0,0.1-0.1,0.2-0.1c0-0.1,0-0.1-0.1-0.1c0,0,0,0,0,0c0,0,0,0,0,0
				l0-0.1l0-0.3l-0.2-1.3c-0.2-1.7-0.4-3.5-0.5-5.2c-0.1-1.7-0.2-3.5-0.2-5.2c0-1.7,0.1-3.5,0.1-5.2c0.4-6.9,1.5-13.7,3.4-20
				c0.7-2.4,1.7-5.5,3-8.6c0.6-1.6,1.3-3.1,2-4.6c0.6-1.5,1.4-2.8,2-4.1c0.3-0.6,0.7-1.4,1.2-2.3c0.5-0.9,1-1.8,1.4-2.8
				c0.5-1,1-1.9,1.5-2.7c0.5-0.8,0.9-1.5,1.1-2c1.2-1.6,1.8-2.1,2.2-2.5c0.5-0.4,0.8-0.5,1.4-1.1c2.4-3.5,5.6-7.9,9.6-12.3
				c4-4.3,8.6-8.5,13.1-11.9c4.5-3.4,8.9-6.1,12.1-7.8c0.8-0.4,1.5-0.8,2.2-1.1c0.6-0.3,1.2-0.5,1.6-0.7c0.9-0.3,1.4-0.4,1.3-0.2
				c0.8-0.4,1.5-0.8,2.2-1.1c0.7-0.3,1.4-0.6,2.1-0.9c0.7-0.3,1.3-0.6,1.9-0.8c0.6-0.3,1.2-0.5,1.8-0.7c1.1-0.4,2.2-0.8,3.2-1.2
				c1-0.3,2.1-0.6,3.1-0.9c2-0.6,4.1-1.1,6.5-1.7c2.4-0.5,5.2-1.2,8.8-1.7c9.4-1.6,20.2-2,31.5-0.6C165.1,2.4,176.6,5.7,187,11
				c1.4,0.8,2.8,1.5,4.2,2.3c0.3,0.2,0.7,0.4,1,0.6l1,0.6c0.7,0.4,1.3,0.8,2,1.2c2.7,1.6,5.1,3.5,7.7,5.3c1.2,1,2.4,1.9,3.6,2.9
				c0.6,0.5,1.2,1,1.8,1.5l1.7,1.6c1.1,1.1,2.3,2.1,3.3,3.2c1,1.1,2.1,2.2,3.1,3.3c0.4,0.4,0.8,0.8,1.1,1.3c0.4,0.4,0.7,0.9,1.1,1.3
				c0.7,0.9,1.4,1.7,2.1,2.6c0.7,0.8,1.3,1.7,1.9,2.6c0.6,0.9,1.2,1.7,1.8,2.6c0.8,1.1,1.4,2.2,2.1,3.3c0.3,0.4,0.5,0.8,0.8,1.2
				c0.2,0.3,0.4,0.6,0.6,0.9c0.5-0.1,1-0.2,1.5-0.2l1.1-0.2l1.3-0.2c1.7-0.2,3.4-0.3,5.1-0.4c1.7-0.1,3.4-0.1,5.1-0.1
				c0.8,0,1.7,0,2.5,0.1c0.8,0.1,1.7,0.1,2.5,0.2c0.8,0,1.7,0.1,2.5,0.2c0.8,0.1,1.6,0.2,2.5,0.3c1.6,0.3,3.3,0.5,4.9,0.9
				c3.2,0.6,6.3,1.6,9.4,2.6c1.5,0.6,3,1.1,4.5,1.7c0.7,0.3,1.5,0.6,2.2,0.9c0.7,0.3,1.4,0.7,2.1,1l1.1,0.5l1,0.6
				c0.7,0.4,1.4,0.8,2.1,1.1l2,1.2l1,0.6l1,0.7l1.9,1.3l1.8,1.4c1.3,0.9,2.4,1.9,3.6,2.9c2.3,2,4.5,4.1,6.5,6.4c2,2.2,3.9,4.6,5.6,7
				c0.8,1.2,1.7,2.5,2.4,3.8l1.1,1.9l1,2c2.7,5.2,4.7,10.8,6,16.5c0.4,1.4,0.6,2.9,0.8,4.3c0.1,0.7,0.2,1.4,0.3,2.2l0.3,2.2
				c0.1,1.5,0.2,2.9,0.3,4.4c0,1.5,0.1,2.9,0,4.4c-0.1,2.9-0.3,5.9-0.8,8.8c-0.2,1.5-0.5,2.9-0.8,4.4l-0.2,1l-0.1,0.6
				c-0.1,0.4-0.2,0.7-0.3,1.1c0.5,0.3,1,0.5,1.5,0.8l0.8,0.4l1.2,0.7l2.5,1.4c0.8,0.5,1.6,1.1,2.4,1.6l1.2,0.8
				c0.4,0.3,0.8,0.6,1.1,0.9l2.3,1.8c0.7,0.6,1.4,1.3,2.2,1.9l1.1,1c0.4,0.3,0.7,0.7,1,1l2,2.1c0.6,0.7,1.2,1.5,1.9,2.2l0.9,1.1
				c0.3,0.4,0.6,0.8,0.9,1.2c0.6,0.8,1.1,1.6,1.7,2.4c0.5,0.8,1,1.7,1.5,2.5l0.8,1.2l0.7,1.3c0.4,0.9,0.9,1.7,1.3,2.6
				c0.4,0.9,0.8,1.8,1.2,2.7c0.2,0.5,0.4,0.9,0.6,1.4l0.5,1.4c0.3,0.9,0.6,1.9,0.9,2.8c0.2,1,0.5,1.9,0.7,2.9c0.1,0.5,0.3,1,0.3,1.4
				l0.3,1.5c0.8,3.9,1,7.9,1,12c-0.2,8.1-2.1,16.4-5.8,24.1c-4.9,10.3-12.8,19.4-22.6,25.8c-4.9,3.2-10.2,5.8-15.8,7.5l-1,0.3
				l-1.1,0.3c-0.7,0.2-1.4,0.4-2.1,0.6c-1.4,0.3-2.9,0.7-4.3,0.9c-2.9,0.5-5.8,0.8-8.7,1c-5.8,0.2-11.7-0.3-17.3-1.6
				c-5.6-1.3-11.1-3.4-16.1-6.1c-0.6-0.3-1.2-0.7-1.9-1.1c-0.3-0.2-0.6-0.4-0.9-0.6l-0.8-0.5c-0.4-0.3-0.9-0.6-1.3-0.9l-0.6-0.4
				c0,0-0.1,0-0.1,0l-0.1,0.1l-0.1,0.1l-0.3,0.3l-1.1,1.1l-1.5,1.3c-1,1-2.2,1.9-3.3,2.8c-4.5,3.5-9.5,6.5-14.7,8.8
				c-5.3,2.3-10.8,3.9-16.4,4.8c-5.6,0.9-11.3,1.1-16.8,0.6c-5.6-0.5-11-1.7-16.2-3.5c-5.2-1.8-10-4.3-14.4-7.3
				c-0.6-0.4-1.1-0.8-1.6-1.2c-0.5-0.4-1.1-0.8-1.6-1.2c-1-0.8-2.1-1.6-3-2.5l-1.1-1l-1-1l-0.5-0.5c0,0-0.1-0.1-0.1-0.1l-0.1,0.1
				l-0.2,0.3l-0.9,1.1c-0.3,0.4-0.6,0.7-0.9,1l-1.4,1.4l-0.7,0.7l-0.7,0.7l-1.4,1.4c-0.5,0.5-1,0.9-1.5,1.3l-1.5,1.3
				c-0.5,0.4-1,0.8-1.5,1.2l-1.6,1.2c-8.4,6.2-18.1,10.4-27.9,12.4c-9.8,2-19.8,2-29,0.1c-9.2-1.9-17.7-5.5-24.8-10.3
				c-7.2-4.8-13.1-10.7-17.6-17c-2.2-3.2-4.1-6.5-5.7-9.8c-1.6-3.3-2.9-6.7-3.8-10c-0.9-3.3-1.6-6.6-2-9.9c0-0.4-0.1-0.8-0.2-1.2
				c0-0.4-0.1-0.8-0.1-1.2c-0.1-0.8-0.1-1.6-0.2-2.4c0-0.8,0-1.6-0.1-2.3l0-0.6l0-0.3l0-0.2l0-0.6l0-0.6c0-0.1,0-0.2,0-0.3l-0.3-0.1
				c-0.3-0.2-0.7-0.4-1-0.5l-0.1-0.1c0,0-0.1,0-0.2-0.1l-0.5-0.3c-0.3-0.2-0.6-0.4-0.9-0.6c-0.6-0.4-1.3-0.7-1.8-1.2
				c-0.6-0.4-1.2-0.8-1.7-1.2c-0.6-0.4-1.1-0.9-1.6-1.3c-0.5-0.4-1.1-0.8-1.6-1.3c-0.5-0.5-1-0.9-1.4-1.4c-3.7-3.6-6.5-7.4-8.5-11
				c-2-3.6-3.2-6.9-4-9.6C4.3,167.7,3.9,163.2,4,158.8z"/>
		</g>
	</g>
	<g>
		<path class="st0" d="M0.8,165c0.2-20.1,13.8-37.3,32.6-43.6c-0.8-5-1.2-10.2-1.1-15.5c0.6-53.5,46-97.3,101.5-97.8
			c37.8-0.3,70.5,19.6,87.3,49.2c4.3-0.8,8.7-1.2,13.2-1.3c40.5-0.3,72.9,31,72.5,70.1c-0.1,6.3-1,12.4-2.7,18.3
			c20.9,9.2,35.3,29.6,35,53.4c-0.4,32.7-28.1,59.4-61.9,59.6c-13.8,0.1-26.5-4.2-36.6-11.5c-11.8,12.5-28.7,20.5-47.4,20.6
			c-18.4,0.2-34.9-7.3-46.4-19.3c-12.6,15.5-32.1,25.6-53.9,25.8c-37.5,0.3-67.5-28.7-67.1-64.9c0-1,0-2,0.1-3
			C10.8,197.9,0.6,182.6,0.8,165z"/>
		<g class="st1">
			<path class="st2" d="M44.8,99.7c0.1-2.1-0.3,0.8-0.1-2.4c-0.2,0.8-0.8,4.2-0.8,7.1c0,0.8,0,1.7,0.1,2.5c0.1-1.3,0.3-2.2,0.4-3.3
				C44.5,102.5,44.6,101.4,44.8,99.7z"/>
			<path class="st2" d="M5.3,162.8c0-1.1-0.1-0.8-0.2-0.7c-0.1,1-0.1,2.1-0.1,2.9C5.1,165.3,5.3,163.8,5.3,162.8z"/>
			<path class="st2" d="M39.2,121.5c-0.5-2.8-1-6.4-1.3-9.5c-0.1-0.3-0.2-0.2-0.3,0.2c-0.1,0.5-0.1,1.3,0,2.4
				c0.1,2.2,0.4,5.5,0.8,8.8c0,0.1,0,0.3,0.1,0.4c0,0.1,0.1,0.3,0,0.4c-1.8,0.7-3.7,1.5-4.3,1.8c-0.6,0.4-1.4,0.9-1.5,1.1
				c0,0.1,0.2,0.1,0.7-0.1c0.5-0.1,1.4-0.5,2.8-0.9c0.7-0.1,2.1-0.7,3.5-1.2c0,0,0-0.1,0-0.1l0-0.2c0-0.1,0-0.2-0.1-0.4
				c0-0.2-0.1-0.5-0.1-0.7c-0.1-0.4-0.1-0.8-0.2-1.2C39.1,121.6,39.1,121.3,39.2,121.5z"/>
			<path class="st2" d="M6.2,148.2c0.1-0.1,0.2-0.3,0.3-0.4c0.5-1.1,0-0.6,0.8-2.3l0.4-0.7c0.1-0.2,0.3-0.4,0.4-0.6l0.9-1.3
				c0.9-1.6,0.2-0.6,0.1-0.5c0.4-0.8,0.9-1.4,1.4-2c0.4-0.6,0.8-1.2,1.2-1.7c0.4-0.5,0.8-1,1.2-1.5c0.4-0.5,0.7-1,1.2-1.4
				c0.4-0.4,0.8-0.9,1.3-1.4c0.2-0.2,0.4-0.5,0.7-0.7c0.2-0.2,0.5-0.5,0.7-0.7c0.5-0.5,1.1-1,1.7-1.5c0.6-0.5,1.3-1,2.1-1.6
				l-1.9,1.1c0.8-0.6,1.8-1.5,2.8-2.2c1-0.7,2-1.4,2.6-1.8c-2.2,1.3-1.8,0.9-0.8,0.2c0.2-0.2,0.5-0.4,0.8-0.6
				c0.3-0.2,0.6-0.4,0.8-0.6c0.5-0.3,0.9-0.6,0.9-0.7c-0.5,0.2-1.1,0.4-1.9,0.8c-0.8,0.4-1.8,1-3.2,1.8c0.9-0.6,1.9-1.3,2.8-2
				c0.5-0.3,0.9-0.6,1.4-0.9c0.4-0.3,0.8-0.6,1.2-0.8l-2.5,1.4c-0.3,0.1-0.3,0,0.2-0.3c0.2-0.1,0.5-0.3,0.9-0.5
				c0.4-0.2,0.8-0.5,1.2-0.7c-0.5,0.3-0.9,0.5-1.1,0.6c-0.2,0.1-0.3,0.1-0.3,0.1c-0.1,0,0-0.2-0.4,0c0.7-0.4,1.4-0.8,2.1-1.2
				c0.7-0.4,1.4-0.7,2.1-1c1.4-0.7,2.9-1.1,4.4-1.7c0,0,0.1,0,0.1,0l0-0.1l0-0.2l-0.1-0.5c0-0.3-0.1-0.6-0.2-0.9
				c-0.1-0.6-0.2-1.3-0.3-1.9c-0.4-2.1-0.6-2.2-0.9-3.3c0.1,1.4,0.2,2.6,0.2,3.7c0,0.5,0.1,1,0.1,1.5c0,0.2,0,0.5,0.1,0.7l0,0.3
				l0,0.2c0,0,0,0.1,0,0.1l-0.1,0c-0.5,0.2-0.9,0.3-1.4,0.5c-0.4,0.2-1.1,0.5-1.9,0.9c-0.7,0.4-1.6,0.8-2.3,1.2
				c-0.4,0.2-0.7,0.4-1,0.6c-0.4,0.2-0.7,0.5-1,0.6c-0.6,0.4-1,0.7-1,0.8c-1.4,0.9-3.2,1.9-4.3,2.7c0.2-0.2,0.6-0.5,1-0.9
				c0.5-0.3,1-0.7,1.6-1.1c0.5-0.4,1.1-0.7,1.6-1.1c0.5-0.3,0.9-0.6,1.2-0.7c-1.2,0.6-2.2,1.3-3.2,1.9c-0.5,0.3-0.9,0.6-1.3,0.9
				c-0.4,0.3-0.8,0.6-1.2,0.9c-0.8,0.6-1.6,1.2-2.5,2c-0.4,0.4-0.9,0.8-1.3,1.2c-0.2,0.2-0.5,0.4-0.7,0.6c-0.2,0.2-0.5,0.5-0.7,0.7
				l0.6-0.8c-2,2.2-4.7,5-6.6,8c-0.6,0.7-1,1.5-1.4,2.2c-0.4,0.7-0.9,1.4-1.2,2.1c-0.7,1.3-1.2,2.4-1.5,3.2
				c-0.2,0.7-0.5,1.4-0.7,2.1c-0.1,0.4-0.2,0.7-0.3,1c-0.1,0.3-0.2,0.7-0.3,1c-0.2,0.7-0.3,1.4-0.5,2c-0.1,0.3-0.2,0.6-0.2,0.9
				c0,0.3-0.1,0.6-0.1,0.9c-0.1,1.2-0.3,2.2-0.3,3c0,0.8,0,1.4,0.1,1.8c0.4-2.5,0.6-2.4,0.6-1.8c0,0.6,0,1.8,0.1,1.6
				c0.2-1.6,0.7-4,0.8-3.5c-0.1,0.7-0.2,1.3-0.3,1.9c-0.1,0.6-0.2,1.2-0.2,1.7c-0.1,1-0.3,1.9-0.1,2.4c0.4-2.5,0.7-2.9,0.9-3
				c0.2-0.1,0.4,0.2,0.7-0.5c0.1-0.3,0.3-1,0.5-1.7c0.1-0.4,0.2-0.8,0.3-1.2c0.1-0.4,0.2-0.9,0.3-1.3c0.5-1.6,1-3,1-2.6
				c-1.1,3.4,0.1,0.2-0.1,1C5,151.2,5.4,150.1,6.2,148.2z"/>
			<path class="st2" d="M39,76.9c0.7-2,0.3-1.4,0.4-1.9c0.1-0.5-0.3,0.4-0.9,1.7c-0.3,0.7-0.5,1.4-0.7,2.2c-0.2,0.7-0.5,1.5-0.6,2
				c-0.3,1.2-0.4,1.8-0.4,2.2c0,0.3,0.1,0.4,0.2,0.2c0.2-0.3,0.5-1.4,0.9-2.6C38.3,79.4,38.7,77.9,39,76.9z"/>
			<path class="st2" d="M30.9,106c0-1.9,0.1-4.3,0-5.2c-0.2,0-0.4-0.1-0.6,2.1c-0.2,3.5-0.3,5.9,0.1,8.6c0.2,1.5,0.4,1.3,0.4,0.2
				C30.8,110.5,30.9,108.4,30.9,106z"/>
			<path class="st2" d="M84.7,26.2c2.7-1.5,3.6-2.1,4-2.4c0.4-0.3,0.3-0.4,0.9-0.8c-0.8,0.4-1.4,0.6-1.7,0.8
				c-0.4,0.2-0.5,0.2-0.6,0.2c-0.1,0,0.3-0.3,0.7-0.6c0.9-0.5,1.8-1.2-1,0.2c-0.7,0.4-1.5,0.8-2.2,1.2c-0.8,0.4-1.5,0.9-2,1.3
				c1.4-0.7-0.6,0.7-2.6,2.1c-1.9,1.4-3.8,2.8-2.1,1.9c0.3-0.1,1.3-0.8,2.6-1.5c0.6-0.4,1.3-0.8,2-1.2C83.4,27,84.1,26.5,84.7,26.2z
				"/>
			<path class="st2" d="M56.8,46.3c0.7-0.9,1.2-1.5,1.4-1.9c0.2-0.4,0.2-0.5-0.2-0.1c-0.6,0.4-2.7,3-3.9,4.4
				c-1.2,1.8-1.8,2.9-0.8,1.7c0.5-0.5,1-1.2,1.6-1.9C55.5,47.9,56.1,47.1,56.8,46.3z"/>
			<path class="st2" d="M46.8,57.6c0.6-1.1,0.1-0.4,0.3-1c-0.3,0.4-0.8,1.1-1.2,1.9c-0.2,0.4-0.5,0.8-0.7,1.2
				c-0.2,0.4-0.4,0.8-0.6,1.1L44,62.4c0.5-0.7,0.8-1.4,1.3-2.2C45.7,59.4,46.2,58.6,46.8,57.6z"/>
			<path class="st2" d="M61.1,40.7c0.7-0.8,1-1.4,0.6-1.1c-1.8,1.7-3.6,3.6-4.9,5.3c-1.1,1.4-0.2,0.5-0.2,0.8
				c0.6-0.8,1.4-1.6,2.2-2.4C59.6,42.4,60.3,41.5,61.1,40.7z"/>
			<path class="st2" d="M50.1,51.5c0.6-0.9,1.3-1.8,1.9-2.7c0.3-0.4,0.6-0.9,1-1.3c0.3-0.4,0.7-0.8,1-1.2c0-0.2,0.7-1.1,1.5-2.2
				c0.8-1,1.7-2.1,2.2-2.7c-2.7,2.9-1.2,0.9-2.1,1.6c-1.4,1.6-3.5,4-5.3,6.5c-0.9,1.2-1.7,2.5-2.5,3.7c-0.4,0.6-0.7,1.2-1,1.7
				c-0.3,0.5-0.5,1-0.7,1.5c0.7-0.6-1.7,3.9,1.8-1.6C48.6,53.5,49.7,51.9,50.1,51.5z"/>
			<path class="st2" d="M33.1,80c0.4-1.4,0.8-2.7,1.2-4.1l1.4-4.1c0.7-2.5-1,0.6-0.6-0.8c-0.3,0.8-0.7,1.8-1.1,2.9
				c-0.4,1.1-0.8,2.2-1.1,3.3c-0.7,2.1-1.2,3.9-1.4,3.8c-0.3,0.9-0.5,1.9-0.8,2.8c-0.3,1-0.5,2-0.7,3c-0.4,2-0.7,3.9-0.8,5.5
				c0,0.9,0.1,0.6,0.4-0.3c0.1-0.4,0.2-1,0.4-1.6c0.2-0.6,0.3-1.3,0.5-1.9c0.6-2.6,1.3-4.8,0.9-2.2c0.1-0.9,0.4-1.9,0.6-3
				C32.4,82.3,32.7,81.1,33.1,80z"/>
			<path class="st2" d="M66.1,35.4c0.7-0.7,1.4-1.3,2-1.9c0.6-0.6,1.1-1.1,1.5-1.5c-1.4,1.1-2.3,1.6-3.7,2.7
				c-0.8,0.8-1.8,1.8-2.7,2.7c-0.9,0.9-1.5,1.7-1.5,1.8c0.1,0.1,0.7-0.4,1.5-1.2C64.1,37.3,65.2,36.3,66.1,35.4z"/>
			<path class="st2" d="M80.6,24.4c0.3-0.4-0.6,0.1-1.8,0.8c-0.3,0.2-0.6,0.4-1,0.6c-0.3,0.2-0.7,0.4-1,0.6
				c-0.6,0.4-1.3,0.8-1.8,1.1c-1.4,0.9-2.5,1.9-3.5,2.8c-0.5,0.5-0.1,0.4,1.5-0.7c0.4-0.3,0.7-0.5,1-0.8c0.3-0.2,0.7-0.5,1-0.7
				c0.6-0.4,1.2-0.9,1.7-1.3C77.9,26.1,79.1,25.3,80.6,24.4z"/>
			<path class="st2" d="M116.6,12.7c3-0.6,1.4-0.5,1.6-0.6c-0.8,0.1-1.6,0.2-2.6,0.4c-0.5,0.1-1,0.2-1.4,0.3c-0.5,0.1-1,0.2-1.4,0.4
				c-1.6,0.5-1.7,0.6-0.8,0.5c0.4-0.1,1.1-0.2,1.9-0.3C114.5,13.1,115.5,12.9,116.6,12.7z"/>
			<path class="st2" d="M100.8,12.7c1.7-0.6,0.6-0.5-2,0.4l-2.3,1.1c0.8-0.3,1.4-0.5,2.1-0.8C99.3,13.2,100,13,100.8,12.7z"/>
			<path class="st2" d="M292.2,117.1c0.1,0.4,0.1,0.4,0.1,0.4l-0.2-1C292.1,116.5,292.2,116.9,292.2,117.1z"/>
			<path class="st2" d="M213.5,51.2c0.3,0.4,0.6,0.5,0.8,0.7c0.1,0.1,0.2,0.2,0.3,0.2c0.1,0.1,0.3,0.2,0.4,0.4
				c0.3,0.3,0.7,0.7,1.2,1.4c0.5,0.7,1.1,1.7,2,3.2c0.3,0.5,0.6,1,0.9,1.5c0.1,0.3,0.3,0.5,0.4,0.8l0.2,0.4c0,0.1,0.1,0.1,0.1,0.2
				l0.2,0c3-0.5,6-1,9-1.3c0.3,0,0.7-0.1,1-0.1c0.3,0,0.6,0,0.9-0.1c0.6,0,1.3-0.1,1.9-0.1c1.3-0.1,2.6,0,4,0
				c-0.3-0.1-0.1-0.2,0.8-0.2c0.8,0,2.2,0,4.1,0.2c1.2,0.1,2.4,0.3,2.8,0.4c0.7,0-0.5-0.7,3.1-0.3c-1.8-0.7-5.1-1.4-5.2-1.7
				c0.9,0,1.8,0.3,2.7,0.2c-4.1-0.5-9.2-1-13.9-0.8l0.9-0.1c-3.2-0.1-7.3,0.4-10.6,1.1l-0.1,0c0,0-0.1,0-0.1,0l-0.1-0.2
				c-0.1-0.1-0.2-0.2-0.2-0.4c-0.1-0.2-0.3-0.5-0.4-0.7c-1.1-1.8-0.7-1.5-1.1-2.3c-0.3-0.4-0.5-0.6-1.1-1.3
				c-0.1-0.2-0.3-0.3-0.4-0.6c-0.2-0.2-0.4-0.5-0.6-0.7c-0.5-0.6-1-1.3-1.6-2.2c-0.5-0.9-1.1-1.8-1.6-2.7c-0.1,0.1,1.8,3,0.3,1.1
				c-0.3-0.4-0.6-0.8-0.9-1.1c-0.3-0.3-0.6-0.7-0.8-1c-0.5-0.6-0.9-1.1-1.2-1.4c0.6,0.9-0.4-0.1-1.4-1c-0.5-0.5-1-0.9-1.2-1.1
				c-0.3-0.2-0.3-0.1,0.1,0.5c3,3.7,1,1.8,0.3,1.2l2,2.2c-0.4-0.2-0.2,0.1,0.2,0.8c0.4,0.7,1.1,1.6,1.6,2.6l1.1,1.3
				C216,53.7,212.9,50,213.5,51.2z"/>
			<path class="st2" d="M212.5,48.9l-0.1-0.2c-0.3-0.3-0.6-0.5-0.9-0.8c0.4,0.4,0.5,0.6,0.6,0.7C212.2,48.6,212.3,48.7,212.5,48.9z"
				/>
			<path class="st2" d="M207.2,40.5c0,0,0.6,0.5,0.2,0C206.8,40.1,206.3,39.5,207.2,40.5z"/>
			<path class="st2" d="M52.3,37.8c-0.5,0.4-1,1-1.6,1.7c-0.6,0.7-1.1,1.4-1.6,2c0.5-0.5,1.1-1.3,1.8-2
				C51.5,38.8,52.1,38.1,52.3,37.8z"/>
			<path class="st2" d="M209.9,42.8l0.3,0.4c-0.3-0.4-0.6-0.7-0.9-1.1C209.4,42.1,209.7,42.4,209.9,42.8z"/>
			<path class="st2" d="M241.1,58.9c-0.7-0.1-1-0.2-1.5-0.2C239.7,58.9,240.6,58.9,241.1,58.9z"/>
			<path class="st2" d="M255.4,61.8c0.2,0.1,0.7,0.2,0.5,0.1c-0.4-0.1-0.8-0.2-1.2-0.3C254.7,61.6,255,61.6,255.4,61.8z"/>
			<path class="st2" d="M253.3,59.9l0.5,0.1c-0.6-0.2-1.2-0.3-1.8-0.5C252.4,59.6,252.6,59.7,253.3,59.9z"/>
			<path class="st2" d="M274.9,68.7c0.3,0.3,0.7,0.6,1.3,1c0.6,0.4,1.3,0.9,2.1,1.5c0.7,0.6,1.6,1.1,2.3,1.8
				c0.8,0.6,1.5,1.3,2.1,1.8c-0.3-0.2-0.7-0.7-0.8-0.8c0-0.1,0-0.1,0.3,0.1c0.2,0.2,0.6,0.4,1.2,1c1.1,0.9,1.3,1.2,1.5,1.5
				c0.2,0.2,0.3,0.4,1.1,1.1c-0.3-0.3-0.5-0.5-0.7-0.8c-0.2-0.2-0.4-0.4-0.6-0.6c-0.4-0.4-0.7-0.7-0.9-1c-0.5-0.5-0.6-0.8-0.4-0.7
				l2.1,1.9c-3.4-3.5-7.7-7.1-11.9-9.3c-3.3-1.8,0.2,0.5-2.2-0.7c1.2,0.6,1.7,1,2,1.3C273.8,68,274.1,68.2,274.9,68.7z"/>
			<path class="st2" d="M233.8,53.7c1.7,0,2.5-0.1,1.1-0.2c-1.6,0-2.7,0.1-3.1,0.1C231.4,53.7,232,53.7,233.8,53.7z"/>
			<path class="st2" d="M289.6,83.4c0.6,0.7,1.8,2.1,1.4,1.5c-1-1.4-2-2.5-2.3-2.7C289.1,82.7,289.5,83.2,289.6,83.4z"/>
			<path class="st2" d="M306.3,139.9c-0.2,0.3-0.7,2.2-1.3,4.2c-0.1,0.1,0,0.1,0.1,0.1l0.2,0.1l0.4,0.2c0.3,0.1,0.5,0.3,0.7,0.4
				c0.5,0.3,0.9,0.5,1.4,0.7c0.8,0.4,1.4,0.9,1.5,1.1c-0.6-0.4-0.5-0.4-0.6-0.6c0-0.1-0.2-0.3-1.4-0.8c0.3,0.2,0.7,0.4,1,0.5
				c0.4,0.2,0.7,0.4,1.1,0.6c0.7,0.4,1.5,0.8,2.3,1.2l0.3,0.2c0.1,0,0.1,0.1,0.1,0.1l0.2,0.1c0.2,0.1,0.4,0.3,0.7,0.4
				c0.4,0.3,0.9,0.6,1.4,0.9c0.5,0.3,1,0.6,1.5,1c0.5,0.4,1,0.8,1.5,1.2c0.4-0.1,0.3-0.4,1.9,0.4c-1.1-0.9-2.2-1.8-3-2.5
				c-0.9-0.7-1.6-1.2-1.8-1.5l1.1,0.7c-1-0.7-1.9-1.3-2.7-1.8c-0.7-0.4-1.3-0.8-1.9-1.1c-0.6-0.3-1-0.7-1.5-0.9
				c-0.5-0.3-0.9-0.5-1.2-0.8l0.5,0.2c-1.6-0.7-0.1,0.1-0.9-0.2c-0.2-0.1-0.4-0.2-0.6-0.3c-0.1-0.1-0.2-0.1-0.3-0.2l-0.2-0.1
				c-0.1,0-0.2,0-0.1-0.1c0.2-0.8,0.4-1.7,0.6-2c0.2-1.1,0.3-2,0.4-3.2c0.1-1.2,0.3-2.6,0.5-4.6c-0.1,0.9-0.2,1.6-0.3,2.1
				c-0.1,0.5-0.2,0.8-0.2,1c-0.1,0.4-0.2,0.4-0.3,0.4C306.9,137,306.8,136.9,306.3,139.9z"/>
			<path class="st2" d="M308.9,129.2c0.1-0.1,0.2-0.9,0.2-2.4c0-1-0.1-1.2-0.2-0.3C308.9,127.4,308.9,128.7,308.9,129.2z"/>
			<polygon class="st2" points="318.8,152.7 318,152.1 318.6,152.6 			"/>
			<polygon class="st2" points="319.9,151.8 318.9,151.1 319.4,151.5 			"/>
			<path class="st2" d="M332.4,167.1c1.1,1.6-0.3-0.9,0-0.4C332.2,166.5,332.5,167.2,332.4,167.1z"/>
			<path class="st2" d="M330.1,162.2c0.5,0.7-0.1,0.1-0.7-0.5c2.7,3.4,2.3,3.8,3.2,5.3c3.1,4.8,5.4,10.6,6.9,17.1
				c0,0.2-0.2-0.5-0.3-0.8c0.4,0.9,0.8,2.7,1.3,4.8c0.1,0.3,0.1,0.5,0.2,0.8c0,0.3,0.1,0.6,0.1,0.8c0.1,0.6,0.1,1.1,0.2,1.7
				c0.1,0.6,0.1,1.1,0.2,1.7c0.1,0.5,0.1,1.1,0.1,1.6c0-1,0-1.5,0-1.6c0-0.1,0.1,0.1,0.1,0.5c0.1,0.8,0.2,2.2,0.2,2.9
				c0,0.5,0,1.1-0.1,1.8c0,0.7-0.1,1.5-0.1,2.3c0,0.8-0.1,1.6-0.2,2.3c-0.1,0.7-0.1,1.4-0.2,1.9c0.1-0.7,0.2-1.4,0.3-2.1
				c0.1-0.7,0.2-1.4,0.2-2.1c0.2-0.3,0.4-2.5,0.4-0.8c0,0.9-0.2,2.4-0.2,3.2c0.1-0.7,0.2-1.6,0.3-2.6c0.1,0,0.2,0.6,0.1,1.6
				c0,0.9-0.1,2.2-0.3,3.5c0.3-1.3,0.4-2.4,0.5-3.4c0.2-0.9,0.3-1.7,0.4-2.4c0.1-0.7,0.2-1.3,0.3-1.9c0.1-0.6,0.1-1.2,0.2-1.8
				c0,0.7,0.1,1.4,0.1,2.1c0-0.6-0.1-1.8-0.1-3c0-0.6,0-1.3,0-1.9c0-0.6-0.1-1.1-0.1-1.6c0.1-0.6,0-3.3-0.6-6.1
				c-0.1-0.7-0.2-1.4-0.4-2.1c-0.2-0.7-0.3-1.3-0.5-1.9c-0.3-1.2-0.5-2.2-0.6-2.8c-0.8-1.7-1.3-3.6-2.3-5.5c-0.2-0.5-0.4-1-0.7-1.5
				c-0.1-0.3-0.2-0.5-0.3-0.8c-0.1-0.3-0.3-0.5-0.4-0.8c-0.5-1-1.1-2.1-1.7-3.2l0,0c-0.6-1-1.2-1.8-1.7-2.6
				c-0.3-0.4-0.5-0.7-0.7-1.1c-0.2-0.3-0.5-0.6-0.7-0.9c-0.9-1.1-1.6-2-2.3-2.7c-0.7-0.7-1.4-1.4-2.2-2.2c-0.8-0.8-1.7-1.6-2.9-2.8
				c1.4,1.6,1.4,1.7,1.5,2c0.1,0.2,0.2,0.5,1.7,2.5l-1.4-1.2c0.6,0.8,1.1,1.3,1.6,1.8c0.2,0.3,0.5,0.5,0.8,0.9
				C329.5,161.2,329.8,161.6,330.1,162.2z"/>
			<path class="st2" d="M338.9,182.4l0.3,1.3L338.9,182.4z"/>
			<path class="st2" d="M339.9,187.6c0.1,0.6,0.2,1.3,0.2,1.9C340.1,188.9,340,188.2,339.9,187.6z"/>
			<polygon class="st2" points="308,87.6 308.1,87.8 309.4,90 309.3,89.8 			"/>
			<path class="st2" d="M314.1,105.8c0.1,0.3,0-0.4-0.2-1.3C313.4,102.9,313.9,104.8,314.1,105.8z"/>
			<path class="st2" d="M339.2,210.3l-0.4,1.5L339.2,210.3z"/>
			<path class="st2" d="M339.1,213.9c0.5-1.2,1.1-4.3,1.4-5.8C340.1,210.3,339.6,211.9,339.1,213.9z"/>
			<path class="st2" d="M340.9,208.3c0.1-0.5,0.2-0.9,0.3-1.4c0,0.2-0.1,0.4-0.1,0.6L340.9,208.3z"/>
			<path class="st2" d="M330.7,229.8c-0.5,0.8-0.4,0.8-0.1,0.4c0.1-0.2,0.3-0.5,0.6-0.8c0.2-0.3,0.4-0.7,0.6-1
				C331.7,228.3,331.5,228.6,330.7,229.8z"/>
			<path class="st2" d="M335.8,222.3c0.4-0.8,0.8-1.7,1.2-2.6l-0.4,0.8C336.3,221.1,336.1,221.7,335.8,222.3z"/>
			<path class="st2" d="M327.1,240.3c-2.3,2.4-3.1,3.4-3.9,4.3c-0.3,0.4,2.7-2.2,0.8-0.3c0.2-0.2,0.5-0.4,0.8-0.7
				c0.3-0.3,0.6-0.6,1-1c0.3-0.3,0.7-0.7,1.1-1.1c0.4-0.4,0.7-0.8,1.1-1.2c0.4-0.4,0.7-0.8,1.1-1.2c0.3-0.4,0.7-0.8,1-1.2
				c0.6-0.8,1.1-1.5,1.4-2c0.6-1.1,0.3-0.7-0.6,0.3C330,237.1,328.6,238.7,327.1,240.3z"/>
			<path class="st2" d="M311.1,252.4c1.5-1.1-3.7,2-1.1,0.3c-3.1,1.6-7.5,3.8-12,5c0.5-0.1-0.7,0.4-2.1,0.8
				c-1.4,0.4-2.9,0.8-2.9,0.7c-2.1,0.9-5.6,1.6-6.6,2c0.5,0,1.3-0.1,2-0.2c0.8-0.1,1.5-0.2,2.2-0.3c1.2-0.2,1.8-0.3,0.3,0.2
				c0.8-0.2,1.7-0.4,2.6-0.6c0.9-0.2,1.8-0.5,2.6-0.7c0.8-0.2,1.5-0.4,2-0.5c0.5-0.1,0.7-0.2,0.6-0.1c2.7-1,4.8-1.9,6.8-2.9
				c1-0.5,1.9-1,2.9-1.5c1-0.5,2-1.2,3-1.8c0.5-0.3-0.1-0.1-0.3-0.1c-0.2,0,0.1-0.2,2.2-1.6C312.4,251.6,311.9,251.9,311.1,252.4z"
				/>
			<path class="st2" d="M341,159.2c0.6,0.9,1,1.4,1.4,2c0.2,0.3,0.4,0.6,0.7,1c0.1,0.2,0.3,0.4,0.4,0.6c0.2,0.2,0.3,0.5,0.5,0.8
				c0.3-0.1-2-3.7-1.8-3.8c-0.4-0.6-0.7-1.2-1.1-1.8c-0.4-0.5-0.7-1-1.1-1.5c-0.7-0.9-1.3-1.8-1.9-2.5c-1.2-1.4-2.3-2.6-3.3-3.6
				c-0.3-0.2-0.2-0.1,0,0.2c0.2,0.3,0.4,0.6,0.4,0.7c0.5,0.8,1.6,2.1,2.7,3.6C339,156.3,340.3,157.9,341,159.2z"/>
			<polygon class="st2" points="285.5,260.6 287.2,260.4 286.1,260.5 			"/>
			<path class="st2" d="M342.9,225.9c-0.6,1.4-0.7,1.8-1.2,2.8c0.3-0.3,0.5-0.5,1-1.3c0.5-0.8,1.2-2.2,2.3-4.9
				c0.6-1.6,1.7-4.6,1.8-5.7c-0.1,0.1,0-1-0.5,0.4c-0.1,0.4-0.2,0.7-0.4,1.1c-0.1,0.4-0.3,0.7-0.4,1.1c-0.3,0.7-0.6,1.4-0.8,2.2
				C344.1,223,343.5,224.5,342.9,225.9z"/>
			<path class="st2" d="M322.2,249.8c-0.6,0.4-1.7,1.1-2.9,2c-0.6,0.4-1.3,0.9-1.9,1.3c-0.6,0.4-1.2,0.8-1.8,1.1
				c-0.7,0.5-1.4,0.9-2,1.3c-0.6,0.4-1.2,0.7-1.7,1c-0.5,0.3-1,0.6-1.4,0.9c-0.4,0.3-0.8,0.5-1.2,0.7c-0.7,0.5-0.6,0.5-0.1,0.3
				c0.5-0.2,1.5-0.7,2.6-1.3c0.6-0.3,1.1-0.6,1.7-0.9c0.6-0.3,1.1-0.7,1.7-1c0.5-0.3,1-0.6,1.4-0.8c0.4-0.2,0.7-0.4,0.9-0.5
				c0.5-0.4,1.1-0.9,1.6-1.3c0.5-0.4,1-0.9,1.4-1.3c0.4-0.4,0.8-0.8,1.2-1.1c0.3-0.3,0.6-0.6,0.8-0.8L322.2,249.8z"/>
			<path class="st2" d="M216.5,262.8c0,0-0.1,0.1,0.2,0l1-0.5C217,262.6,216.7,262.7,216.5,262.8z"/>
			<path class="st2" d="M351.4,208.9c-0.3,1.6-0.5,3.1-0.6,3.8c-0.1,0.8,0,0.8,0.4-0.6c0.2-0.7,0.5-1.8,0.7-3.1
				c0.2-1.3,0.4-2.7,0.6-3.9c0.3-3.5,0.1-4.2-0.1-3.3c-0.1,1.1-0.3,2.2-0.4,3.3C351.7,206.3,351.6,207.5,351.4,208.9z"/>
			<path class="st2" d="M233.7,257c-0.4,0.3-0.7,0.6-1.1,0.9C233,257.7,233.3,257.3,233.7,257z"/>
			<path class="st2" d="M241.4,252.8c0.3,0.2,0.6,0.5,1,0.9c0.4,0.3,0.9,0.7,1.6,1c1.5,0.8,0.6,0.1,0.8,0.1
				C243.6,254.2,241.8,252.8,241.4,252.8z"/>
			<path class="st2" d="M142.6,6.2c1.8,0.3,4.1,0.6,4.7,0.8c0.7,0,0.9,0,1.2,0c0.3,0,0.7,0,1.7,0.2c1.3,0.2,2.8,0.5,4.2,0.8
				c1.4,0.3,2.9,0.7,4.2,1c0.7,0.2,1.3,0.3,2,0.5c0.3,0.1,0.6,0.2,0.9,0.2c0.3,0.1,0.6,0.2,0.8,0.3c1.1,0.4,2,0.7,2.6,1
				c-0.5-0.3-3.3-1.2-2.3-1.1c1.2,0.3,2.5,0.7,3.8,1.1c0.7,0.2,1.4,0.4,2.1,0.7c0.7,0.3,1.4,0.6,2.2,0.8c-2.6-1,1.5,0.4,1.6,0.3
				c0.7,0.2,1.3,0.5,2,0.7c0.7,0.3,1.3,0.6,2,0.9c1.4,0.6,2.7,1.3,4.1,1.9c1.3,0.7,2.6,1.4,3.8,2.1c1.2,0.7,2.4,1.3,3.4,1.9
				c-0.4-0.2-0.8-0.5-1.2-0.8c-0.5-0.3-1-0.5-1.5-0.8c-1.1-0.6-2.2-1.2-3.2-1.8c-1-0.6-2.1-1.1-2.9-1.5c-0.8-0.4-1.4-0.7-1.7-0.9
				c0.5,0.1,2,0.7,3.8,1.4c1.7,0.8,3.4,1.7,4.4,2.2c0,0-0.4-0.2-1-0.5c-0.5-0.3-1.2-0.6-1.6-0.9c0.8,0.2-1.8-1.6,3.1,0.9
				c-0.3-0.3-1.1-0.8-2.2-1.5c-0.6-0.4-1.2-0.8-1.9-1.2c-0.7-0.4-1.5-0.8-2.3-1.2c-0.8-0.4-1.7-0.9-2.6-1.3
				c-0.4-0.2-0.9-0.5-1.3-0.7l-1.4-0.6c-1.9-0.8-3.7-1.6-5.4-2.3c-1.5-0.4-3-0.9-4.5-1.3c-0.8-0.2-1.5-0.5-2.3-0.6l-2.3-0.5
				l-2.3-0.5l-1.2-0.3c-0.4-0.1-0.8-0.2-1.2-0.2c-1.6-0.2-3.1-0.5-4.7-0.7c-0.2-0.1-0.6-0.2-0.5-0.2c-0.4,0-0.9-0.1-1.5-0.1
				c-0.6,0-1.2,0-1.8-0.1c-1.3-0.1-2.8-0.1-4.4-0.2c-0.8-0.1-1.6,0-2.4,0c-0.8,0-1.6,0-2.4,0c-0.8,0-1.5,0-2.2,0c-0.7,0-1.4,0-2,0
				c-1.3,0.1-0.4,0.1,0.5,0.1c0.9,0,1.8,0.1,0.8,0.2c0.2,0.1-2.9,0.3-4.3,0.5c2.1,0.4,2.7,0.6,3.3,1c1.7-0.2,3.3,0,4.8,0.1
				C139.6,6,141,6.1,142.6,6.2z"/>
			<path class="st2" d="M185.2,267c0.2,0.1-0.3,0-0.6,0l-1.6-0.3l-1.6-0.4l-1.6-0.4c-0.5-0.1-1-0.3-1.5-0.5l-0.2,0.1
				c-0.6-0.2-1.3-0.3-1.9-0.5c-0.6-0.2-1.2-0.4-1.7-0.5c-1.1-0.3-2.2-0.7-3.2-1.1c-2.1-0.8-4.3-1.7-7-3c-1-0.5-1.9-1-2.8-1.4
				c-0.9-0.5-1.7-0.9-2.5-1.4c-1.6-0.9-3-1.8-4.3-2.6c-2.6-1.7-4.9-3.4-7.4-5.9c-0.7-0.5-0.3-0.1,0.4,0.6c0.3,0.3,0.8,0.8,1.2,1.2
				c0.4,0.4,0.9,0.8,1.2,1.1c-0.4-0.3,0.7,1.1-1.3-0.9c0.8,0.8,1.2,1.2,1.5,1.6c0.3,0.4,0.6,0.8,1.3,1.4c-0.6-0.4-1.1-0.9-1.7-1.3
				c1,1,1.9,1.8,2.7,2.4c0.8,0.7,1.4,1.2,1.7,1.6c-0.8-0.5-1.5-1-2-1.5c-0.6-0.5-1.2-0.9-1.8-1.4c0.4,0.4,0.9,0.7,1.4,1.1
				c0.5,0.4,0.9,0.7,1.3,1.1c1,0.7,1.7,1.3,2.9,2.1c0.6,0.4,1.1,0.8,1.7,1.2c0.6,0.4,1.2,0.7,1.8,1.1c0.3,0.2,0.6,0.4,0.9,0.6
				c0.3,0.2,0.7,0.3,1,0.5c0.7,0.3,1.4,0.7,2.1,1.1c-0.3-0.1-0.7-0.2-1-0.3c0.7,0.4,1.4,0.6,2,0.9c0.6,0.3,1.2,0.5,1.9,0.8
				c0.6,0.2,1.3,0.5,2,0.7c0.3,0.1,0.7,0.3,1.1,0.4c0.4,0.1,0.8,0.3,1.2,0.5l-0.4,0c0.7,0.2,1.3,0.4,1.9,0.6
				c0.6,0.2,1.2,0.3,1.8,0.5c0.6,0.1,1.2,0.3,1.7,0.4c0.6,0.1,1.1,0.2,1.7,0.3c0.6,0.1,1.1,0.2,1.7,0.3c0.6,0.1,1.2,0.1,1.7,0.2
				c0.6,0.1,1.2,0.2,1.8,0.2c0.6,0.1,1.3,0.1,2,0.2c1.5,0.1,2.4,0.1,2.9,0c0.4-0.1,0.4-0.2,0.1-0.3c-0.3-0.1-0.8-0.2-1.3-0.4
				C186,267.3,185.5,267.2,185.2,267z"/>
			<path class="st2" d="M247.9,258.1c-1.2-0.5-1.6-0.6-1.7-0.6c0.9,0.6,3.1,1.6,4.7,2.1c0.6,0.2,0.3,0-0.4-0.3
				C249.8,258.9,248.8,258.4,247.9,258.1z"/>
			<path class="st2" d="M241.8,253.8c-0.5-0.4-0.2,0-0.2,0c0.2,0.2,0.5,0.4,0.7,0.5c0.2,0.1,0.4,0.2,0.3,0.1
				C242.5,254.2,242.1,254,241.8,253.8z"/>
			<path class="st2" d="M197.8,270.2l-0.9,0L197.8,270.2z"/>
			<polygon class="st2" points="150.4,251.9 150.3,251.7 149,250.7 149.2,250.9 			"/>
			<path class="st2" d="M165.9,264c1.1,0.4,2.1,0.7,3.2,1l-2.8-0.9L165.9,264z"/>
			<path class="st2" d="M144.3,251.2c-0.3,0.4-0.2,0.4,0.4-0.2C145.1,250.4,144.9,250.6,144.3,251.2z"/>
			<path class="st2" d="M144.2,252.1l-2,2.1L144.2,252.1z"/>
			<path class="st2" d="M144.7,252.4c0.3-0.2-1.2,1.2-1.6,1.7c0.7-0.5,1.2-1.1,1.8-1.8c0.3-0.4,0.6-0.7,0.9-1.1
				c0.2-0.2,0.3-0.4,0.5-0.6c0.1-0.1,0.2-0.2,0.3-0.3l0.1-0.2l0.1-0.1l0,0c0,0,0,0,0,0c0.2,0.2,0.3,0.4,0.5,0.6
				c-0.2-0.2-0.3-0.4-0.5-0.6l0,0c0,0,0,0,0,0l-0.1,0.1l-0.1,0.1c-0.1,0.1-0.2,0.2-0.3,0.3c-0.2,0.2-0.4,0.4-0.6,0.6
				C145.5,251.4,145.1,251.9,144.7,252.4z"/>
			<path class="st2" d="M33.4,234.7c-0.3-0.6-0.6-1.1-0.8-1.7c-0.2-0.6-0.5-1.2-0.8-1.9c-0.1-0.3-0.3-0.6-0.4-0.9l-0.3-1
				c-0.2-0.6-0.4-1.3-0.6-1.9c-0.2-0.6-0.4-1.3-0.5-1.9c-0.2-0.6-0.3-1.2-0.5-1.8c-0.3-1.2-0.6-2.3-0.8-3.2c0,0.2,0.1,0.6,0.1,0.9
				c0.1,0.3,0.1,0.5,0,0.3c-0.3-1.7-0.5-2.7-0.6-3.4c-0.1-0.7-0.2-1.1-0.3-1.4c-0.1-0.4-0.2-0.7-0.3-1.4c-0.1-0.7-0.2-1.7-0.3-3.5
				l0.1,2.7c-0.1-0.2-0.2-0.7-0.2-1.5c0-0.4-0.1-0.8-0.1-1.2c0-0.5,0-0.9-0.1-1.4c0,0.5,0,1.1,0.1,1.6c0,0.5,0.1,1.1,0.1,1.6
				c-0.3-1-0.4,0.4-0.5,1.4c0,0,0.1,0.2,0.1,0.6c0,1,0,1.7,0.1,2.6c0.1,0.5,0.1,1,0.2,1.6c0.1,0.6,0.2,1.4,0.4,2.4
				c0,0-0.1-0.3-0.2-0.7c-0.1-0.4-0.2-1-0.3-1.4c0.2,1.1,0.6,2.5,1,4c0.2,0.8,0.4,1.6,0.7,2.4c0.2,0.8,0.5,1.7,0.8,2.5
				c1.1,3.4,2.6,6.8,4.1,8.9c0.4,0.8,0.7,1.4,1,1.9c0.3,0.5,0.6,0.9,0.8,1.2c0.5,0.7,1,1.2,1.6,2.1c0.8,1.1,1.2,1.6,1.5,1.8
				c0.2,0.2,0.2,0.1,0.2-0.1c-0.5-1-1.1-2.2-1.9-3.8c-0.4-0.8-0.9-1.8-1.4-2.8c-0.3-0.5-0.5-1.1-0.8-1.8
				C34,236.1,33.7,235.4,33.4,234.7z"/>
			<path class="st2" d="M222.1,268.5c-2.1,0.9-1.7,0.9-1.3,0.8c2.2-0.8,4-1.8,4.8-2.3c-0.1,0-0.6,0.2-1.4,0.5
				C223.5,267.9,222.7,268.3,222.1,268.5z"/>
			<path class="st2" d="M114.1,269.9c-0.7,0.2-1.5,0.5-2.2,0.6C112.7,270.4,113.4,270.1,114.1,269.9z"/>
			<path class="st2" d="M168.8,267.9c-0.2-0.1-0.4-0.1-0.5-0.2l1.7,0.6C169.8,268.3,169.3,268.1,168.8,267.9z"/>
			<path class="st2" d="M162.6,265.5L162.6,265.5l1.5,0.6C163.4,265.8,162.8,265.6,162.6,265.5z"/>
			<path class="st2" d="M164.4,267.1c-1.5-0.6-2.9-1.3-4.3-2c1.8,1,2.3,1.3,2.8,1.6c0.4,0.3,0.8,0.5,2.2,1.3
				c1.9,0.7,5.3,2.1,7.8,2.5c0.9,0.2,0.7-0.1-0.9-0.6c-0.7-0.2-1.5-0.5-2.4-0.8c-0.4-0.2-0.9-0.3-1.3-0.5c-0.4-0.2-0.9-0.4-1.3-0.5
				c-0.8-0.3-1.5-0.6-2-0.8C164.6,267,164.3,266.9,164.4,267.1z"/>
			<polygon class="st2" points="28.2,213.4 28.2,214.2 28.2,213.7 			"/>
			<polygon class="st2" points="164.1,266.8 164.4,266.9 163.8,266.6 			"/>
			<path class="st2" d="M12.5,169.1l0,0.7c0,0.2,0.1,0.4,0.1,0.7c0-0.3-0.1-0.7-0.1-1L12.5,169.1z"/>
			<path class="st2" d="M169.5,269.7l-1.5-0.5L169.5,269.7z"/>
			<polygon class="st2" points="27.7,214.1 27.6,212.5 27.6,211.6 27.5,210.7 27.6,211.6 27.6,212.5 			"/>
			<polygon class="st2" points="27.9,205.6 27.8,207.4 27.8,206.8 			"/>
			<path class="st2" d="M23.7,201.8c-0.8-0.5-0.1,0,0.2,0.2C24.1,202.1,24.5,202.4,23.7,201.8z"/>
			<path class="st2" d="M26.6,211.9c-0.1,0.4,0.1,0.8,0.1,1.1C26.7,212.5,26.6,212.5,26.6,211.9z"/>
			<path class="st2" d="M26.3,214.6c0.1,0.8,0.2,1.7,0.3,2.4c0.1,0.8,0.1,1.4,0.2,1.6c-0.1-0.7-0.1-1.6-0.2-2.4
				C26.4,215.4,26.4,214.8,26.3,214.6z"/>
			<path class="st2" d="M24.8,203.2c-0.9-0.5-1.7-1-2.5-1.5C23.1,202.2,23.9,202.8,24.8,203.2z"/>
			<polygon class="st2" points="26.6,209.5 26.5,210.7 26.5,211.5 26.6,210.1 			"/>
			<path class="st2" d="M149.4,259.3c-0.4-0.2-0.1,0.1,0.3,0.4c0.4,0.3,0.9,0.7,0.9,0.6C150.3,260,149.9,259.6,149.4,259.3z"/>
			<path class="st2" d="M147.6,257.2c-0.1,0.1,1.1,1.2,1,0.9C148.2,257.8,147.9,257.4,147.6,257.2z"/>
			<path class="st2" d="M148.4,259c0,0.2,0.4,0.4,0.8,0.7C148.9,259.4,148.9,259.3,148.4,259z"/>
			<path class="st2" d="M148.5,261c0.4,0.4,0.5,0.6,0.7,0.8c0.1,0.1,0.2,0.2,0.3,0.3c0.2,0.1,0.4,0.3,0.8,0.5
				c-0.1-0.1-0.3-0.3-0.4-0.4c-0.1-0.1-0.2-0.2-0.3-0.2c-0.1-0.1-0.1-0.1-0.2-0.2C149.1,261.6,148.8,261.3,148.5,261z"/>
			<path class="st2" d="M148.7,261.6c0.1,0,0.1,0.2,0.3,0.3L148.7,261.6z"/>
			<polygon class="st2" points="148.1,260.9 148.4,261.2 148.2,261 			"/>
			<path class="st2" d="M147.8,260.8c0.1,0.2,0.3,0.3,0.4,0.5C148.1,261.1,148,261,147.8,260.8L147.8,260.8z"/>
			<path class="st2" d="M141.8,265.1c-0.2,0.2,0,0.1,0.4-0.2c0.4-0.3,0.8-0.7,1.1-0.9C143.1,264.1,142.5,264.7,141.8,265.1z"/>
			<path class="st2" d="M0.9,167.3L0.6,165c0,0.4-0.1,1-0.1,1.7c0,0.7,0,1.5,0.1,2.3c0.1,0.8,0.2,1.6,0.3,2.3
				c0.1,0.7,0.2,1.3,0.3,1.6c0.2,0.5,0.1-0.4-0.1-1.7c-0.1-0.6-0.1-1.4-0.2-2.1c0-0.4-0.1-0.7-0.1-1C0.9,167.9,0.9,167.6,0.9,167.3z
				"/>
			<path class="st2" d="M21.1,208.1c-0.1,0.1-0.1,1-0.1,1.8c0.1,0.6,0.1,0.1,0.1-0.4C21.2,208.9,21.2,208.2,21.1,208.1z"/>
			<polygon class="st2" points="0.8,182.5 1.9,184.9 0.8,182.4 			"/>
		</g>
	</g>
	<g class="st1">
		<path class="st2" d="M27.7,124.2c1.4-0.7,2.7-1,4.1-1.1c2.1-0.3,4-1.3,6.4-1.6c0.6-0.1,1.1-0.1,1.7-0.1c0.6,0,1.1,0,1.7,0.1
			c1.2-0.2,2.4-0.2,3.7-0.1c1.3,0.1,2.5,0.4,3.7,0.9c0.3,0,1.2,0.2,0.7,0.8c2.5,0.5,5.1,1.4,7.1,3.1c0.9,0.7,2.2,0.8,3.1,1.5
			c1.3,1.2,3.2,1.6,4.5,2.8c0.1,0.2,0.2,0.9,0.4,1c1.2,0.5,1.9,1.4,2.4,2.3c0.5,1,0.8,2.1,1.1,3c0.1,0.2,0.2,0.3,0.2,0.5
			c0.1,0.2,0.1,0.3,0.2,0.5c0.1,0.3,0.3,0.6,0.4,0.9c-0.3,0.2-0.2,0.3-0.2,0.6c0.1,0.1,0.2,0.3,0.4,0.6c0.2,0.3,0.5,0.6,0.7,1
			c0.1,0.2,0.3,0.3,0.4,0.5c0.1,0.2,0.2,0.3,0.3,0.5c0.2,0.3,0.4,0.5,0.5,0.5c0.1,0.1,0-1.5-0.5-2.9c-0.5-1.5-1.2-2.9-1-3
			c0.1,0,0.2,0.2,0.5,0.6c0.2,0.4,0.5,0.8,0.7,1.4c0.2,0.5,0.4,1,0.6,1.4c0.1,0.4,0.2,0.7,0.3,0.8c0-2-0.5-3.7-0.9-5
			c-0.2-0.7-0.5-1.3-0.7-1.8c-0.2-0.5-0.4-1-0.6-1.3c-0.4-0.7-0.6-1.2-0.7-1.5c-0.1-0.3-0.1-0.3,0-0.2c0.1,0.1,0.3,0.4,0.6,0.7
			c0.2,0.4,0.6,0.9,0.9,1.5c0.6,1.1,1.2,2.6,1.5,3.9c0.2,0.3,0.3,0.8,0.4,1.4c0.1,0.6,0.2,1.2,0.4,2c0-0.2,0.1-0.5,0.1-0.9
			c0-0.3,0.1-0.7,0.1-1.1c0.1-0.7,0.1-1.4,0-1.7c-0.1-0.5-0.2-0.9-0.3-1.3c0-0.3-0.1-0.6-0.1-0.9c-0.1-0.5-0.3-1.1-1.2-2
			c-0.3-0.4-0.7-0.9-1.1-1.5c-0.4-0.5-0.8-1.1-1.2-1.7c-0.8-1.2-1.6-2.3-2.2-2.9c0.3,1.1,1,3.5,2,4.3c-1.3-0.8-1.6-1.6-1.9-2.5
			c-0.3-0.9-0.6-1.9-1.9-2.7c-0.2-0.2-0.4-0.4-0.7-0.7c-0.3-0.1-0.6-0.3-1-0.4c-2.1-1.4-3.6-3.1-5.9-4.2c0.2,0.1,0.5-0.1,0.7-0.1
			c2.3,0.6,3.3,2.2,5.2,3.4c0.4,0.2,0.6,1,0.9,1.3c0.7,0.6,1.6,0.8,2.5,1.2c-1.1-1.5-2.8-2.6-4.3-3.8c-0.3-0.3-0.4-0.9-0.6-1.2
			c0.7,0.5,1.5,0.9,2.2,1.4c1.2,1,2.4,2.4,3.5,3.8c1.1,1.3,2.1,2.5,3.3,3c0,0.1,0.1,0.1,0.1,0.3c0.1,0,0.1,0,0.2,0
			c0.3,0.3,0.7,0.7,1.2,0.9c-0.3-0.3-0.6-0.6-0.9-0.9c-0.7-1.6-1.9-2.9-3.2-4.1c-1.3-1.2-2.8-2.2-4-3.3c-0.5-0.6-1.9-0.7-2.4-1.3
			c-1.6-1.5-3.7-2.6-6-3.3c-2.1-0.6-4.2-1.2-6.3-1.4c-2.2-0.3-4.3-0.3-6.4-0.1c-4.1,0.3-8.1,1.5-11.5,3.2c-0.2,0-0.3,0-0.5,0.1
			c0.1-0.1,0.1-0.2,0.2-0.3c-0.1,0.1-0.3,0.2-0.4,0.3c-0.9,0.1-1.8,0.5-2.6,1.1c-0.3,0.4,0.6-0.1,1,0.1c-0.2,0.1-0.4,0.2-0.4,0.2
			s0.1,0.2,0.2,0.3c-0.2,0-0.2,0.2-0.3,0.3c1.9-0.5,3.9-0.7,5.8-0.9c-0.2,0.5-0.8,0.5-1,0.6c-0.7,0-1.3,0-1.9,0.2
			c-1.7,0.2-3.1,1.4-4.5,2.1c-0.2,0.2-0.5,0.4-0.7,0.7c-0.2,0.2,0,0.3,0.3,0.4C27.1,124.3,27.4,124.3,27.7,124.2z M52.8,118.5
			c-0.7-0.1-1.3,0-2,0c-0.2,0-0.4-0.1-0.6-0.1c-0.3,0-0.5-0.1-0.8-0.3c-0.6-0.1-1.2-0.1-1.8-0.1c-0.6,0-1.2,0-1.8,0
			c0.6-0.2,1.3-0.4,2-0.5c0.7-0.1,1.4-0.1,2.1,0.1c-1.8-0.6-3.7-0.6-5.5-0.3c-1.8,0.3-3.5,0.8-5.1,1.3c-1,0.1-2,0.2-3,0.4
			c-0.7,0-1.4,0.1-2.1,0c4.2-1.4,8.9-2.4,13.8-2.2c2.5,0.1,5,0.6,7.3,1.3c2.4,0.8,4.6,1.8,6.6,2.9C59,120.2,56.1,119,52.8,118.5z
			 M53.6,119.4c1.1,0.5,2.2,1,3.2,1.6c2.9,1.5,5.8,3.4,6.7,5.5c-2-2-4.1-3.9-6.7-5.5c1.3,0.7,1.4,0.8,0.9,0.5
			c-0.6-0.3-1.9-1-3.6-1.9C54,119.6,53.8,119.5,53.6,119.4z"/>
		<path class="st2" d="M36,116.9c-1.3,0.7-2.6,1.3-3.8,2c0.4-0.6,0.8-1.1,1.3-1.6c1.5-1.1,3.4-1.3,5.2-1.8c2.6-0.8,5.3-1.1,8.2-1
			c1.4,0.1,2.9,0.3,4.3,0.7c1.4,0.4,2.8,0.8,4.1,1.4c0.3,0.1,0.9,0.3,1.2,0.6c-3.4-1.2-7-2.1-10.5-2.1C42.5,115,39.1,115.6,36,116.9
			z"/>
		<path class="st2" d="M64.5,120.9c0.7,0.7,1.4,1.4,2.2,1.9c-0.9-0.2-1.9-0.8-2.7-1.3c-1.1-0.8-2.1-1.5-3.2-2.2
			C62.1,119.6,63.3,120.1,64.5,120.9z"/>
		<path class="st2" d="M56.5,117.1c0.3,0.1,0.5,0.2,0.8,0.3c1.2,0.5,2.4,1.1,3.5,1.8c-1.4-0.5-2.8-0.8-4.2-1.2
			C56.8,117.7,56.7,117.4,56.5,117.1z"/>
	</g>
	<g class="st1">
		<path class="st2" d="M211.1,80.4c0.9-0.3,1.7-0.6,2.5-0.8c0.8-0.2,1.7-0.2,2.6-0.3c0.7-0.1,1.3-0.2,1.9-0.3
			c0.6-0.1,1.3-0.3,1.9-0.5c0.6-0.2,1.3-0.4,1.9-0.6c0.7-0.1,1.3-0.3,2.1-0.3c0.7-0.1,1.4-0.2,2.1-0.2c0.7,0,1.4,0,2.1,0.1
			c0.7-0.1,1.4-0.2,2.2-0.2c0.7,0,1.5,0,2.3,0c1.5,0,3.1,0.3,4.8,0.6c0.2,0,0.5,0,0.8,0.1c0.3,0.1,0.5,0.3,0.4,0.8
			c0.8,0.1,1.6,0.2,2.4,0.3c0.8,0.1,1.6,0.2,2.3,0.4c0.8,0.2,1.5,0.4,2.3,0.7c0.4,0.1,0.8,0.3,1.1,0.4c0.4,0.2,0.7,0.4,1.1,0.6
			c0.6,0.3,1.3,0.4,1.9,0.6c0.3,0.1,0.7,0.1,1,0.2c0.3,0.1,0.6,0.2,0.9,0.4c1,0.6,2,1,3,1.3c1,0.4,2,0.8,3,1.4
			c0.2,0.3,0.7,1,0.9,1.1c1.4,0.5,2.6,1.4,3.7,2.5c1.1,1.1,2,2.5,3.1,3.6c0.8,0.8,1.4,1.6,2.3,2.3c-0.1,0.4,0.1,0.5,0.3,0.8
			c0.2,0.1,0.5,0.4,1,0.7c0.5,0.3,1,0.7,1.6,1c1.1,0.7,2.2,1.3,2.5,1.3c0.1,0-1.5-1.7-3.2-3.5c-1.7-1.7-3.4-3.3-3.3-3.4
			c0.1,0,1.3,1,2.5,2.1c0.3,0.3,0.6,0.5,0.9,0.8c0.3,0.3,0.5,0.5,0.8,0.8c0.5,0.5,0.8,0.8,0.9,0.9c-0.5-0.6-0.9-1.2-1.3-1.7
			c-0.4-0.6-0.8-1-1.2-1.5c-0.8-1-1.5-1.8-2.1-2.6c-1.3-1.5-2.3-2.6-3.1-3.4c-1.5-1.6-1.9-2.1-1.6-1.9c0.3,0.2,1.4,1,2.6,2.3
			c0.6,0.6,1.3,1.3,1.9,2c0.7,0.7,1.3,1.5,1.9,2.2c0.9,0.7,1.8,2.2,3.3,3.7c-0.4-0.6-0.9-1.6-1.3-2.5c-0.5-0.9-0.9-1.7-1.2-1.9
			c-0.9-1.2-1.3-1.8-1.7-2.4c-0.4-0.6-0.9-1.1-2.2-2c-0.5-0.4-1.1-0.9-1.8-1.5c-0.6-0.6-1.3-1.2-2-1.8c-1.3-1.3-2.7-2.4-3.6-3.1
			c0.4,0.6,1.1,1.6,1.8,2.5c0.7,1,1.5,1.9,2.3,2.3c-1.7-0.7-2.4-1.7-3.1-2.7c-0.7-1-1.5-2.1-3.2-3c-0.3-0.2-0.7-0.4-1-0.8
			c-0.4-0.1-0.8-0.2-1.3-0.3c-0.7-0.3-1.4-0.7-2-1.1c-0.7-0.3-1.3-0.7-2-1c-0.7-0.3-1.3-0.7-2-1c-0.7-0.3-1.4-0.5-2.1-0.7
			c0.2,0.1,0.5-0.3,0.7-0.2c0.6,0,1.3,0.1,1.8,0.4c0.6,0.2,1.1,0.5,1.7,0.8c1.1,0.6,2.2,1.2,3.5,1.8c0.5,0.1,1,1.1,1.5,1.3
			c0.5,0.3,1,0.4,1.5,0.6c0.5,0.2,1,0.3,1.5,0.5c-0.4-0.4-0.9-0.8-1.4-1.1c-0.5-0.3-1-0.6-1.6-0.9c-1.1-0.6-2.2-1.2-3.2-1.7
			c-0.4-0.2-0.9-0.9-1.2-1.3l1.5,0.6c0.5,0.2,1,0.5,1.5,0.7c0.9,0.5,1.7,1.1,2.6,1.8c0.9,0.7,1.8,1.5,2.6,2.1
			c1.7,1.3,3.3,2.7,4.7,2.9c0.1,0.1,0.1,0.2,0.2,0.3c0.1,0,0.1,0,0.2,0c0.5,0.3,1,0.6,1.6,0.8l-0.6-0.4l-0.6-0.4
			c-1.4-1.7-3.1-3.1-5-4.2c-0.9-0.6-1.9-1.2-2.8-1.7c-1-0.5-1.9-1-2.8-1.7c-0.8-0.7-2.4-0.6-3.2-1.1c-1.2-0.7-2.5-1.4-3.8-1.8
			c-0.7-0.2-1.3-0.4-2-0.5c-0.7-0.1-1.3-0.3-2-0.3l-3.5-0.4c-1.2-0.1-2.3-0.1-3.5-0.1c-0.6,0-1.2,0-1.7,0l-1.7,0.1
			c-1.1,0.1-2.3,0.1-3.4,0.3l-3.3,0.5c-1.1,0.3-2.2,0.5-3.2,0.8c-1.1,0.2-2.1,0.7-3.1,1c-1,0.4-2.1,0.7-3,1.2c-0.2,0-0.4,0-0.6,0.1
			c0.1-0.1,0.1-0.2,0.2-0.3l-0.5,0.3c-1.1,0.2-2.1,0.4-3,1.1c-0.3,0.4,0.7-0.2,1.1,0.1c-0.2,0.1-0.4,0.2-0.4,0.2s0.1,0.2,0.2,0.4
			c-0.2,0-0.2,0.2-0.3,0.4c0.6-0.1,1.1-0.2,1.7-0.3l1.7-0.2c1.1-0.2,2.3-0.2,3.5-0.3c-0.2,0.5-0.9,0.5-1.2,0.6
			c-0.8-0.1-1.6-0.1-2.2,0.2c-1,0.1-1.9,0.4-2.8,0.8c-0.9,0.5-1.8,1-2.6,1.3c-0.3,0.2-0.6,0.5-0.8,0.8c-0.2,0.2,0,0.4,0.3,0.5
			C210.4,80.5,210.8,80.6,211.1,80.4z M239.9,73c-0.7,0.1-1.4,0.2-2.1,0.4c-0.2,0-0.5,0-0.7,0c-0.3,0-0.6-0.1-1-0.2l-2,0.1l-1.9,0.2
			c0.7-0.3,1.3-0.6,2-0.7c0.7-0.1,1.5-0.2,2.3-0.1c-0.5-0.1-1.1-0.2-1.6-0.2c-0.3,0-0.5,0-0.8,0c-0.3,0-0.5,0-0.8,0
			c-1,0.1-2,0.2-2.9,0.4c-0.2,0-0.5,0.1-0.7,0.1l-0.7,0.2l-1.4,0.4c-0.5,0.1-0.9,0.3-1.4,0.4l-0.7,0.2l-0.7,0.2
			c-1.1,0.2-2.3,0.3-3.4,0.4c-0.8,0.1-1.6,0.1-2.4,0c4.9-1.5,10-2.7,15.3-3c5.3-0.3,10.9,0.3,16.4,2.4c-0.9-0.1-1.8-0.3-2.7-0.5
			c-0.9-0.1-1.8-0.2-2.7-0.4c-0.9-0.1-1.8-0.3-2.7-0.3C241.7,73.1,240.8,73,239.9,73z M241.1,73.9c0.7,0.2,1.4,0.3,2.1,0.5
			c0.7,0.2,1.4,0.5,2,0.7c3.7,1,7.7,2.9,9.6,5.2c-0.7-0.5-1.5-1-2.3-1.5c-0.4-0.2-0.8-0.5-1.2-0.7c-0.4-0.2-0.8-0.4-1.2-0.7
			c-0.8-0.4-1.6-0.9-2.4-1.3c-0.8-0.4-1.7-0.7-2.5-1.1c1.7,0.5,1.9,0.6,1.1,0.4c-0.4-0.1-1-0.3-1.8-0.5c-0.4-0.1-0.8-0.3-1.3-0.4
			c-0.5-0.2-1-0.3-1.6-0.4C241.6,74.1,241.4,74,241.1,73.9z"/>
		<path class="st2" d="M220.8,72.4c-1.4,0.8-2.9,1.4-4.2,2.2c0.5-0.7,0.9-1.2,1.5-1.8c0.8-0.6,1.8-0.9,2.7-1.2c1-0.3,2-0.4,2.9-0.8
			c5.5-1.9,11.7-1.9,17.9-0.5c0.3,0,1,0.1,1.5,0.4c-1-0.1-2-0.3-2.9-0.4c-0.5-0.1-1-0.1-1.5-0.2c-0.5,0-1-0.1-1.4-0.1
			c-1,0-1.9-0.1-2.9-0.1c-0.9,0-1.9,0.1-2.8,0.1c-1.9,0-3.7,0.4-5.5,0.7c-0.9,0.1-1.8,0.4-2.7,0.7C222.6,71.8,221.7,72,220.8,72.4z"
			/>
		<path class="st2" d="M253.2,73.5c1.1,0.7,2.1,1.4,3.2,1.9c-1.1-0.1-2.4-0.7-3.4-1.1c-1.5-0.8-3-1.4-4.4-2.1
			C250,72.5,251.6,72.9,253.2,73.5z"/>
		<path class="st2" d="M243.1,70.8c0.3,0,0.6,0.1,1,0.2c1.5,0.3,3,0.7,4.4,1.3c-1.6-0.3-3.3-0.3-4.9-0.6
			C243.7,71.3,243.4,71,243.1,70.8z"/>
	</g>
	<g class="st3">
		<g>
			<g>
				<path class="st4" d="M308.2,191.5c0.2-21.2-12.4-39.4-30.8-47.6c1.5-5.2,2.3-10.7,2.4-16.3c0.3-27.8-17.8-51.2-43.3-59.4
					c1.2-0.1,2.5-0.1,3.7-0.1c35-0.3,63,27.2,62.6,61.3c-0.1,5.5-0.9,10.9-2.3,16c18.1,8,30.5,25.9,30.3,46.7
					c-0.3,28.6-24.3,51.9-53.5,52.2c-3.8,0-7.6-0.3-11.2-1.1C289.9,237.5,307.9,216.5,308.2,191.5z"/>
			</g>
		</g>
	</g>
	<g class="st1">
		<path class="st2" d="M143,254.1c2.2-1.8,3.8-3.5,5.2-5.3c1.1-1.4,1.7-2.9,2.2-4.4c0.2-0.8,0.4-1.5,0.6-2.3
			c0.2-0.8,0.4-1.5,0.6-2.3c0.4-1.6,0.9-3.2,1.1-5c0-1.9-0.2-3.9-0.6-5.7c-0.4-1.8-0.9-3.6-1.4-5.3c-0.2-0.4-0.7-1.4,0.1-1.5
			c-1.6-3.2-3.5-6.1-5.2-9.2c-0.8-1.3-2.3-2-3.2-3.1c-0.7-0.9-1.7-1.6-2.8-2.2c-1-0.6-2.1-1-3.1-1.6c-0.2-0.2-0.7-0.9-1-1
			c-1.6-0.3-3.1-0.8-4.6-1.3c-1.5-0.5-3-1-4.6-1.1c-1.2,0-2.1-0.1-3.2,0.2c-0.2-0.3-0.4-0.2-0.8-0.3c-0.4,0.1-1.7,0.6-2.8,1.2
			c-1.1,0.6-2.1,1.3-2.2,1.5c-0.1,0.1,1.9-0.4,4.1-0.8c2.1-0.4,4.4-0.6,4.3-0.3c-0.1,0.1-1.6,0.3-3,0.6c-1.4,0.3-2.9,0.7-3.1,0.8
			c2.6-0.2,4.7-0.2,6.4,0c1.7,0.2,2.9,0.5,3.8,0.8c0.9,0.3,1.4,0.6,1.7,0.7c0.3,0.2,0.3,0.2,0.1,0.2c-0.3,0-1.3-0.5-2.7-0.7
			c-1.4-0.3-3.2-0.5-4.7-0.6c-0.9,0.2-2.4-0.1-4.2,0.4c0.6,0,1.5,0.2,2.3,0.4c0.8,0.2,1.5,0.4,1.8,0.4c1.2,0.1,1.7,0.3,2.3,0.4
			c0.5,0.1,1.1,0.2,2.3,0.2c1,0,2.4,0.4,3.6,1.1c1.2,0.7,2.2,1.5,2.8,2c-0.2-0.5-0.6-1.3-1.3-2c-0.6-0.7-1.4-1.3-2.1-1.4
			c1.6,0,2.3,0.8,2.8,1.6c0.6,0.8,1,1.7,2.3,2.5c0.2,0.2,0.4,0.4,0.6,0.8c0.3,0.1,0.6,0.3,0.9,0.5c0.9,0.8,1.6,1.8,2.2,2.8
			c0.6,1,1.2,2,1.9,3.1c-0.1-0.2-0.5-0.1-0.6-0.3c-0.8-0.8-1.3-1.6-1.8-2.4c-0.5-0.8-1-1.7-1.8-2.4c-0.4-0.2-0.4-1-0.7-1.3
			c-0.7-0.6-1.5-0.8-2.3-1c1.1,1.2,2.6,2.3,3.6,3.7c0.2,0.3,0.2,0.9,0.2,1.2c-0.5-0.6-1-1.1-1.6-1.7c-0.9-1-1.8-2.3-2.9-3.4
			c-1.1-1-2.4-1.6-3.4-1.3c0,0-0.1-0.1-0.2-0.2c0,0-0.1,0.1-0.1,0.1c-0.2,0-0.4-0.1-0.6-0.1c-0.2,0-0.4,0.1-0.6,0.2c0.3,0,0.7,0,1,0
			c1.1,0.9,2.3,1.4,3.5,2.1c1.2,0.7,2.4,1.6,3.2,2.8c0.3,0.6,1.5,0.9,1.8,1.6c0.9,1.8,2,3.5,3.3,5.3c1.1,1.6,2.1,3.5,3,5.3
			c0.8,1.8,1.5,3.7,1.8,5.7c0.3,2,0,4.2-0.3,6.3c-0.4,2.2-0.8,4.4-1.5,6.6c-0.1,0.2-0.3,0.3-0.4,0.5c0-0.1,0-0.2,0-0.4
			c-0.1,0.2-0.1,0.4-0.1,0.6c-0.7,0.9-1.3,1.9-1.9,3c-0.2,0.5,0.6-0.6,1.1-0.6c-0.1,0.2-0.3,0.5-0.3,0.5s0.2,0.1,0.3,0.2
			c-0.2,0.1-0.2,0.3-0.2,0.5c2-2,3.5-4.2,4.6-6.5c0.3,0.5-0.1,1.2-0.3,1.5c-0.5,0.7-1.1,1.4-1.4,2.2c-0.7,0.9-1.3,2-2,3
			c-0.7,1.1-1.5,2.1-2.6,2.9c-0.3,0.4-0.7,0.8-1,1.2c-0.1,0.1,0,0.2,0,0.3c0,0,0.1,0.1,0.1,0.1c0.1,0,0.2,0,0.3,0
			C142,254.6,142.6,254.4,143,254.1z M145.4,223.1c0.4,0.5,0.9,1,1.4,1.6c0.1,0.2,0.2,0.4,0.3,0.6c0.1,0.3,0.2,0.6,0.2,0.9
			c0.6,1.1,1.1,2.3,1.5,3.6c-0.8-1.2-1.6-2.3-2.2-3.8c0.6,1.9,1.3,3.6,1.9,5.5c0.6,1.8,0.9,4,0.8,6.1c-0.2,1.2-0.6,2.4-1,3.5
			c-0.3,0.8-0.7,1.5-1.2,2.3c0.4-1.3,0.7-2.6,0.9-3.9c0.2-1.3,0.4-2.6,0.4-4c0.1-2.7-0.6-5.1-1.6-7.4c-1-2.2-2.3-4.5-3.5-6.4
			c-1.3-2-2.7-3.8-4.1-5.4C141.7,217.8,143.5,220.3,145.4,223.1z M145.5,221.8c-0.6-1.2-1.1-2.4-1.7-3.5c-0.9-1.5-1.9-2.9-2.9-4.2
			c-1-1.3-1.8-2.5-2.4-3.6c2.2,2.2,3.8,5,5.3,7.9c-0.8-1.3-0.9-1.5-0.5-0.9c0.4,0.6,1.2,1.9,2,3.9
			C145.3,221.4,145.4,221.6,145.5,221.8z"/>
		<path class="st2" d="M146.2,240.3c-0.1,1.6-0.3,3.2-0.6,4.8c-0.1-0.8-0.3-1.5-0.4-2.3c0-1,0.2-2,0.4-2.9c0.2-0.9,0.4-1.9,0.4-2.8
			c0-1.4,0-2.7-0.1-3.8c-0.1-1.2-0.4-2.2-0.8-3.4c-0.3-1.1-0.8-2.3-1.3-3.5c-0.5-1.2-1-2.4-1.5-3.6c-0.1-0.2-0.4-0.7-0.5-1.1
			c0.9,1.4,1.6,2.8,2.3,4.3c0.7,1.5,1.3,2.9,1.7,4.4c0.4,1.5,0.6,2.9,0.6,4.6C146.6,236.7,146.4,238.5,146.2,240.3z"/>
		<path class="st2" d="M137.1,216.1c-0.4-0.7-0.9-1.3-1.5-1.7c0.8,0.1,1.5,0.7,2.1,1.2c0.7,0.8,1.3,1.8,2,2.7
			C138.7,217.5,137.9,216.8,137.1,216.1z"/>
		<path class="st2" d="M141.9,221.8c-0.1-0.2-0.3-0.4-0.4-0.6c-0.7-1-1.3-1.9-1.9-2.9c0.9,0.8,1.9,1.7,2.7,2.8
			C142,221.2,141.9,221.5,141.9,221.8z"/>
	</g>
	<g class="st5">
		<g>
			<path class="st6" d="M8.3,166c0.4-13,7.1-24.4,17.2-31.7c-2.9,5.6-4.7,11.9-4.9,18.6c-0.5,16.7,8.9,31.2,23,38.6
				c-0.1,0.9-0.1,1.9-0.1,2.8c-1,34.2,26.9,62.1,62.3,62.4c3.4,0,6.7-0.2,9.9-0.7c-8.5,4.2-18.1,6.6-28.2,6.5
				c-32.9-0.3-58.8-26.2-57.9-58c0-0.9,0.1-1.7,0.1-2.6C16.6,195,7.8,181.5,8.3,166z"/>
		</g>
	</g>
	<g class="st1">
		<path class="st2" d="M65.6,100.8c-0.5-1.4-0.8-2.7-0.7-4.1c-0.1-2.1-1-4-1-6.3c0-0.6,0-1.1,0-1.7c0.1-0.5,0.1-1.1,0.2-1.6
			c-0.1-1.1,0.1-2.3,0.3-3.6c0.3-1.2,0.7-2.4,1.3-3.6c0.1-0.3,0.3-1.1,0.9-0.7c0.8-2.4,1.9-4.9,3.9-6.8c0.8-0.8,1-2.2,1.8-3
			c1.4-1.2,2-3.1,3.3-4.3c0.3-0.1,0.9-0.2,1-0.3c0.6-1.1,1.6-1.8,2.6-2.3c1.1-0.4,2.2-0.7,3.2-1c0.2-0.1,0.4-0.1,0.5-0.2
			c0.2,0,0.3-0.1,0.5-0.1c0.3-0.1,0.6-0.2,1-0.4c0.2,0.3,0.3,0.2,0.6,0.2c0.1-0.1,0.4-0.2,0.7-0.4c0.3-0.2,0.7-0.5,1.1-0.7
			c0.2-0.1,0.4-0.2,0.6-0.4c0.2-0.1,0.4-0.2,0.5-0.3c0.3-0.2,0.5-0.4,0.6-0.5c0.1-0.1-1.5-0.1-3.1,0.4c-1.6,0.4-3.1,1.1-3.2,0.9
			c0-0.1,0.3-0.2,0.7-0.4c0.4-0.2,0.9-0.4,1.4-0.6c0.5-0.2,1.1-0.3,1.5-0.5c0.4-0.1,0.8-0.2,0.9-0.2c-2,0-3.8,0.3-5.2,0.7
			c-0.7,0.2-1.3,0.4-1.9,0.6c-0.6,0.2-1,0.4-1.4,0.5c-0.8,0.3-1.3,0.5-1.6,0.6c-0.3,0.1-0.3,0.1-0.2,0c0.1-0.1,0.4-0.3,0.8-0.5
			c0.4-0.2,1-0.5,1.6-0.8c1.2-0.6,2.8-1.1,4.1-1.3c0.4-0.2,0.9-0.3,1.5-0.4c0.6,0,1.3-0.1,2-0.3c-0.2,0-0.6-0.1-0.9-0.2
			c-0.4-0.1-0.7-0.1-1.1-0.2c-0.8-0.1-1.5-0.1-1.7-0.1c-0.6,0.1-1,0.2-1.3,0.2c-0.4,0-0.6,0.1-0.9,0.1c-0.5,0.1-1.1,0.3-2.2,1.1
			c-0.4,0.3-1,0.7-1.6,1c-0.6,0.4-1.2,0.7-1.9,1.1c-1.3,0.7-2.5,1.5-3.2,2.1c1.1-0.3,3.6-0.8,4.6-1.8c-0.9,1.2-1.8,1.5-2.8,1.8
			c-1,0.3-2,0.5-3,1.8c-0.2,0.2-0.5,0.4-0.8,0.6c-0.2,0.3-0.3,0.6-0.5,1c-1.6,2-3.5,3.3-4.8,5.5c0.2-0.2-0.1-0.5,0-0.7
			c0.8-2.2,2.6-3.1,4-5c0.2-0.4,1.1-0.5,1.4-0.9c0.7-0.7,1-1.6,1.4-2.4c-1.6,1-3,2.7-4.2,4.1c-0.3,0.3-0.9,0.4-1.3,0.5
			c0.5-0.7,1.1-1.4,1.7-2.1c1.1-1.1,2.7-2.2,4.2-3.2c1.5-1,2.8-2,3.4-3.1c0.1,0,0.1,0,0.3-0.1c0-0.1,0-0.1,0.1-0.2
			c0.4-0.3,0.8-0.7,1.1-1.2c-0.3,0.3-0.7,0.6-1,0.9c-1.7,0.6-3.2,1.7-4.5,3c-1.3,1.3-2.5,2.6-3.8,3.8c-0.7,0.5-0.9,1.9-1.6,2.3
			c-1.7,1.5-3.1,3.5-3.9,5.8c-0.8,2-1.6,4-2,6.1c-0.5,2.1-0.7,4.2-0.7,6.2c0,4,0.7,7.9,2.2,11.3c0,0.2,0,0.3,0,0.5
			c-0.1-0.1-0.2-0.1-0.3-0.2c0.1,0.1,0.2,0.3,0.3,0.4c0.1,0.9,0.3,1.8,0.9,2.6c0.3,0.3-0.1-0.6,0.2-1c0.1,0.2,0.2,0.4,0.2,0.4
			s0.2-0.1,0.3-0.1c-0.1,0.2,0.2,0.2,0.3,0.3c-0.3-1.9-0.4-3.8-0.4-5.7c0.5,0.2,0.4,0.8,0.5,1c-0.1,0.6-0.1,1.3,0,1.8
			c0,1.6,1.1,3.1,1.7,4.5c0.2,0.2,0.4,0.5,0.7,0.7c0.2,0.2,0.4,0,0.5-0.3C65.7,101.3,65.7,101,65.6,100.8z M62.2,76
			c-0.1,0.6-0.1,1.3-0.1,2c-0.1,0.2-0.1,0.4-0.2,0.6c-0.1,0.3-0.2,0.5-0.4,0.8c-0.1,0.6-0.2,1.2-0.3,1.7c-0.1,0.6-0.1,1.1-0.1,1.7
			c-0.2-0.6-0.3-1.3-0.3-1.9c0-0.7,0.1-1.4,0.3-2.1c-0.8,1.8-0.9,3.6-0.8,5.3c0.1,1.7,0.5,3.4,0.8,5c0,1,0.1,1.9,0.1,2.9
			c0,0.7-0.1,1.4-0.2,2c-1-4.2-1.7-8.7-1-13.5c0.3-2.4,1.1-4.8,2-7.1c1-2.3,2.2-4.4,3.6-6.3C64.4,70.1,63,72.9,62.2,76z M63.2,75.3
			c0.6-1.1,1.3-2.1,2-3.1c1.8-2.7,4-5.5,6.3-6.3c-2.2,1.9-4.4,3.9-6.3,6.3c0.8-1.2,1-1.4,0.6-0.8c-0.4,0.5-1.2,1.8-2.3,3.5
			C63.4,75,63.3,75.1,63.2,75.3z"/>
		<path class="st2" d="M58.9,92.4c0.5,1.3,1,2.6,1.7,3.8c-0.6-0.4-1.1-0.8-1.5-1.4c-1-1.5-1-3.4-1.4-5.1c-0.6-2.5-0.7-5.3-0.2-8
			c0.2-1.4,0.6-2.8,1.1-4.1c0.5-1.4,1.1-2.7,1.8-3.9c0.1-0.3,0.4-0.8,0.8-1.2c-1.6,3.2-2.8,6.7-3.1,10.1
			C57.6,86,57.9,89.3,58.9,92.4z"/>
		<path class="st2" d="M65.7,64.8c0.8-0.7,1.5-1.4,2.1-2.1c-0.3,0.9-1,1.9-1.6,2.6c-0.9,1-1.8,2-2.6,3
			C64.2,67.1,64.8,65.9,65.7,64.8z"/>
		<path class="st2" d="M61.1,72.4c0.1-0.3,0.3-0.5,0.4-0.8c0.6-1.2,1.3-2.3,2.2-3.4c-0.6,1.3-1.1,2.7-1.6,4
			C61.7,72.1,61.4,72.2,61.1,72.4z"/>
	</g>
</g>
</svg>
