<?xml version="1.0" encoding="utf-8"?>
<!-- Generator: Adobe Illustrator 24.2.0, SVG Export Plug-In . SVG Version: 6.00 Build 0)  -->
<svg version="1.1" id="Warstwa_1" xmlns="http://www.w3.org/2000/svg" xmlns:xlink="http://www.w3.org/1999/xlink" x="0px" y="0px"
	 viewBox="0 0 567.7 399.6" style="enable-background:new 0 0 567.7 399.6;" xml:space="preserve">
<style type="text/css">
	.st0{fill:#AEEDED;}
	.st1{opacity:0.8;}
	.st2{fill:#FFFFFF;}
	.st3{fill:#8DDEE2;}
	.st4{opacity:0.45;}
	.st5{opacity:0.28;}
	.st6{fill:#72CECE;}
</style>
<g>
	<g>
		<path class="st0" d="M556.9,223.5c-1.6-29.4-24.6-53.6-55.3-61.6c1-7.4,1.3-15,0.9-22.7C498.3,61,422.2,0,332.5,3
			c-61.2,2.1-112.8,33.3-138.2,77.8c-7-0.9-14.1-1.2-21.4-1c-65.4,2.2-116,50.3-113,107.3c0.5,9.2,2.4,18.1,5.4,26.6
			C32,228.7,10,259.5,11.8,294.3c2.5,47.7,48.9,85,103.7,83.1c22.3-0.7,42.6-7.9,58.5-19.3c19.8,17.5,47.6,28,77.8,27
			c29.8-1,56.1-13,73.9-31.3c21.3,21.9,53.4,35.4,88.7,34.2c60.6-2,107.4-46.5,104.6-99.4c-0.1-1.5-0.2-2.9-0.3-4.3
			C542.6,272.3,558.2,249.4,556.9,223.5z"/>
		<g class="st1">
			<path class="st2" d="M561,223.4c0,5.4-0.4,12.4-2.9,20.3c-0.7,2-1.3,4-2.2,6c-0.8,2.1-1.9,4.1-3,6.2c-2.4,4.2-5.3,8.4-8.9,12.4
				c-3.6,4-7.9,7.9-12.8,11.3c-0.6,0.4-1.2,0.9-1.8,1.3c-0.6,0.4-1.3,0.8-1.9,1.2c-0.7,0.4-1.3,0.8-2,1.2l-0.5,0.3
				c-0.2,0.1-0.3,0.2-0.4,0.3l-0.7,0.4l-1.4,0.7l-0.7,0.4c0,0-0.2,0-0.1,0.1l0,0.2l0,0.4l0.1,1.4c0,0.5,0.1,0.8,0.1,1.7
				c0.4,11.5-1.5,23.5-6,34.9c-4.5,11.4-11.6,22.2-20.5,31.3c-8.9,9.2-19.7,16.6-30.9,22c-5.6,2.7-11.4,4.9-17.2,6.7
				c-5.8,1.7-11.5,2.9-17,3.8c-1.4,0.2-2.8,0.4-4.1,0.6c-1.4,0.1-2.7,0.3-4,0.4c-0.7,0.1-1.3,0.1-2,0.2c-0.7,0-1.3,0.1-2,0.1
				c-1.3,0.1-2.6,0.1-3.8,0.2c-2.5,0-5,0.1-7.3-0.1c-1.2-0.1-2.3-0.1-3.5-0.2c-1.1-0.1-2.3-0.1-3.3-0.2c-1.7-0.2-3.3-0.3-5-0.5
				c-1.6-0.2-3.2-0.5-4.8-0.7c-1.6-0.2-3.1-0.5-4.6-0.9c-1.5-0.3-3-0.6-4.4-1c-1.4-0.4-2.8-0.7-4.2-1.1c-1.4-0.3-2.7-0.8-4-1.2
				c-2.7-0.8-5.1-1.8-7.5-2.7c-1.2-0.4-2.3-1-3.5-1.5c-1.1-0.5-2.2-1-3.3-1.5c-2.1-1.1-4.2-2-6.1-3.1c-1-0.5-1.9-1.1-2.8-1.6
				c-0.9-0.5-1.8-1-2.6-1.6c-0.8-0.5-1.7-1.1-2.5-1.6c-0.8-0.5-1.6-1-2.3-1.6c-2.5-1.8-2.9-2.1-1.6-1.2c1.3,1,4.4,3.1,9.3,5.9
				c4.8,2.8,11.5,6.2,20,9.1c8.4,3,18.7,5.4,30.1,6.5c1.3,0.2,2.6,0.2,3.9,0.3c1.3,0.1,2.6,0.1,4,0.2c1.3,0,2.7,0,4.1,0
				c1.4,0,2.8,0,4.2-0.1c5.6-0.2,11.4-0.9,17.4-1.9c12-2.1,24.5-6.3,36.6-13c-7.6,4-15.6,7.3-23.8,9.5c-8.2,2.3-16.4,3.6-24.3,4.2
				c-15.9,1.1-30.6-0.8-42-4c-17-4.3-33.1-12.3-46.2-23.4l-2.7-2.3c-1-0.8-1.9-1.7-2.8-2.6l-1.4-1.3l-0.7-0.7l-0.3-0.3l-0.2-0.2
				l-0.1-0.1c0,0-0.1,0-0.1,0.1l-2.7,2.6c-0.9,0.9-1.8,1.7-2.8,2.6c-0.9,0.8-1.7,1.6-2.7,2.3l-2.7,2.2c-0.9,0.7-1.9,1.4-2.8,2.1
				l-1.4,1l-1.5,1c-1,0.6-2,1.3-3,1.9c-2.1,1.2-4.1,2.4-6.2,3.5c-2.1,1.1-4.3,2.1-6.5,3.1c-1.1,0.5-2.2,0.9-3.3,1.4l-1.7,0.7
				l-1.7,0.6c-18.2,6.6-38.5,8.2-57.7,5l-3.6-0.7c-1.2-0.2-2.4-0.5-3.6-0.8c-2.4-0.5-4.7-1.2-7-1.9c-1.2-0.3-2.3-0.7-3.4-1.1
				c-1.1-0.4-2.3-0.8-3.4-1.2l-3.4-1.3l-3.3-1.4c-0.5-0.2-1.1-0.5-1.6-0.7l-1.6-0.8c-1.1-0.5-2.1-1-3.2-1.6
				c-2.1-1.2-4.2-2.3-6.1-3.5c-2-1.2-3.9-2.6-5.8-3.9c-1-0.7-1.8-1.4-2.8-2.1l-1.4-1.1c-0.5-0.4-1-0.9-1.5-1.3l-3.1-2.6
				c0,0-0.1,0-0.1,0l-0.1,0.1l-0.2,0.1l-0.4,0.3l-0.8,0.6l-1.7,1.1c-1.1,0.7-2.3,1.5-3.3,2.1c-1,0.6-2,1.2-3,1.8
				c-4.1,2.3-8.4,4.3-12.9,6c-8.9,3.5-18.4,5.7-28.2,6.7c-7.1,0.7-16.3,0.9-26.5-0.4c-5.1-0.7-10.3-1.7-15.6-3.2
				c-5.2-1.5-10.4-3.4-15.4-5.7c-5-2.3-9.7-5-14.1-7.9c-4.4-2.9-8.3-6.1-11.7-9.3c-1.8-1.6-3.3-3.3-4.8-4.9
				c-1.4-1.6-2.9-3.2-4.1-4.8c-1.3-1.6-2.3-3.1-3.4-4.6c-1-1.5-1.9-2.9-2.7-4.2c6.8,11,16.4,20.8,27.9,28.3
				c11.5,7.5,24.9,12.9,39,15.3c14.1,2.5,28.7,2.3,42.7-0.6c3.5-0.8,6.9-1.6,10.3-2.7c1.7-0.5,3.3-1.1,5-1.7c1.6-0.7,3.3-1.2,4.9-2
				c3.2-1.4,6.3-2.9,9.3-4.6l2.2-1.3c0.4-0.2,0.7-0.4,1.1-0.7l1.2-0.7c1.8-1.1,3.6-2.4,5.3-3.6c0.1,0,0.1-0.1,0.2-0.1l0.2,0.1
				l0.3,0.3l0.6,0.5l1.2,1l2.4,2.1l2.2,1.7c0.7,0.5,1.3,1,2,1.5c1.4,1,2.8,2,4.3,2.9c1.5,0.9,2.9,1.8,4.4,2.7
				c6,3.5,12.4,6.4,19.1,8.7c13.4,4.6,27.9,6.7,42.3,6c14.4-0.6,28.5-3.9,41.3-9.7c6.4-2.9,12.4-6.4,17.9-10.4c1.4-1,2.7-2,4-3.1
				c0.7-0.5,1.3-1,2-1.6l2-1.8c1.5-1.3,2.9-2.8,4.4-4.2l0.5-0.5l0.3-0.3c0.1-0.1,0.2-0.3,0.3-0.1l1.1,1.1l2.2,2.1l-1.9-1.9l-0.9-0.9
				l-0.5-0.5c0,0,0,0-0.1,0l-0.1,0.1l-0.1,0.1l-0.2,0.2c-1.3,1.2-2.5,2.4-3.8,3.6l-1.2,1.1l-1.2,1c-0.7,0.6-1.3,1.2-2,1.7
				c-1.4,1.1-2.8,2.2-4.2,3.3c-1.5,1-2.9,2.1-4.4,3.1c-1.5,1-3,2-4.6,2.8c-6.3,3.6-13,6.7-20,9c-14.1,4.7-29.4,6.4-44.4,5.3
				c-15-1.1-29.7-5.3-42.7-12c-1.6-0.8-3.2-1.8-4.8-2.6c-1.6-0.9-3.1-1.9-4.6-2.8c-1.5-1-3-2-4.4-3.1l-2.1-1.6l-1.1-0.8
				c-0.5-0.4-0.9-0.8-1.4-1.2l-2.7-2.3l-1.4-1.2c-0.1-0.2-0.2,0-0.4,0.1l-0.4,0.3l-0.7,0.5l-3,2c-0.5,0.3-1,0.7-1.5,1l-1.2,0.8
				c-3.1,1.8-6.2,3.6-9.5,5.1c-8.9,4.2-18.7,7.2-29.2,8.7c10.2-1.5,20.1-4.5,29.2-8.7c1.5-0.7,2.9-1.4,4.3-2.2
				c1.4-0.7,2.8-1.6,4.2-2.3c0.3-0.2,0.7-0.4,1-0.6l1.1-0.7c0.9-0.6,1.8-1.2,2.7-1.8l2.6-1.8l0.7-0.5c0.1-0.1,0.2,0,0.3,0.1l0.3,0.3
				l1.2,1l2.4,2c0.8,0.7,1.7,1.4,2.3,1.8c1.3,0.9,2.5,1.9,3.8,2.8c2.6,1.8,5.3,3.5,8.1,5.1c11.3,6.4,24.3,11,38.6,13.1
				c8.8,1.3,18.5,1.7,28,0.8c4.8-0.4,9.5-1.2,14.1-2.2c2.3-0.6,4.5-1,6.7-1.7c1.1-0.3,2.2-0.6,3.3-1c1.1-0.4,2.1-0.7,3.1-1.1
				c6.8-2.4,13-5.3,18.7-8.7c1.4-0.8,2.8-1.8,4.2-2.6c1.4-0.9,2.7-1.9,4.1-2.8c1.3-1,2.6-2,3.9-3l1.9-1.6c0.7-0.6,1.5-1.3,2.2-2
				l2.8-2.7l1.4-1.3c0.1-0.1,0.1,0,0.2,0.1l0.2,0.2l0.3,0.3l0.7,0.7l2.8,2.7c0.5,0.5,0.9,0.9,1.4,1.3l1.3,1.2l2.4,2.1
				c0.8,0.7,1.7,1.3,2.5,2c0.8,0.7,1.7,1.3,2.5,2l2.7,1.9c0.5,0.4,1.1,0.7,1.6,1.1c0.5,0.4,1.1,0.7,1.7,1c1.1,0.7,2.3,1.4,3.5,2.2
				c-0.1,0-0.2-0.2-0.3-0.2c-1.1-0.8-2.9-1.9-5.1-3.5c-1.1-0.8-2.4-1.8-3.7-2.8c-1.3-1-2.7-2.2-4.3-3.5c-0.8-0.6-1.5-1.3-2.3-2.1
				c-0.4-0.4-0.8-0.7-1.2-1.1c-0.3-0.2-0.5-0.5-0.8-0.7c-0.3-0.3-0.5-0.5-0.8-0.8c-1.1-1.1-2.2-2.2-3.3-3.3
				c-0.6-0.6-1.1-1.2-1.7-1.7l-0.2-0.2l-0.2,0.2l-0.4,0.4c-0.3,0.3-0.6,0.6-0.9,0.8c-1.2,1.1-2.4,2.3-3.8,3.5
				c-0.3,0.3-0.7,0.6-1,0.9c-0.3,0.3-0.6,0.5-0.9,0.8c-0.5,0.4-1,0.9-1.5,1.3c-1.1,0.8-2.2,1.7-3.3,2.5c-1.1,0.9-2.3,1.7-3.5,2.5
				c-9.7,6.6-22.3,12.5-36.7,15.6c-14.4,3.2-30.5,3.5-45.9,0.6c-7.7-1.5-15.3-3.7-22.3-6.8c-7-3-13.6-6.7-19.5-11l-1.1-0.8l-1.1-0.8
				c-0.7-0.5-1.4-1.1-2.1-1.6l-0.4-0.3c-0.2-0.1-0.3-0.2-0.5-0.4l-0.8-0.7l-1.7-1.4c-1.1-1-2.2-1.9-3.4-2.9l-0.2-0.2l-0.1-0.1
				c0,0-0.1,0-0.1,0.1l-0.5,0.3l-0.9,0.6l-1.8,1.2c-1.2,0.8-2.4,1.7-3.7,2.4l-1.4,0.9c-0.4,0.2-0.7,0.5-1.1,0.7
				c-0.8,0.4-1.5,0.9-2.2,1.3c-6,3.3-12.2,6-18.4,7.9c-12.3,3.9-24.1,5-33.6,4.9c-9.6-0.2-16.9-1.4-21.4-2.4
				c-14.2-2.9-27.1-8.3-38.5-16.1c-11.3-7.8-21.3-18.2-27.9-31.4c-2.2-4.4-3.7-8.7-4.8-12.7c-0.5-2-1-4-1.4-5.9
				c-0.4-1.9-0.7-3.8-1-5.6c-0.2-0.4-0.3-1.4-0.5-2.9c-0.1-0.7-0.2-1.6-0.3-2.4c0-0.9-0.1-1.8-0.1-2.7c-0.1-9.6,1.7-19.2,5.3-27.7
				c3.5-8.5,8.2-15.9,13-22c2.8-3.8,9.3-9.6,16.4-14.1c3.6-2.3,7.2-4.3,10.5-5.8c0.4-0.2,0.8-0.4,1.2-0.6c0.4-0.2,0.7-0.3,1.4-0.7
				c1.2-0.5,2.4-1.1,3.5-1.6c2.2-1,4.1-1.8,5.6-2.6c-0.6-1.9-1.1-3.2-1.4-3.7c-0.9-1.8-1.5-3-2-4c-0.1-0.3-0.2-0.4-0.3-0.5
				c-0.1-0.1-0.1-0.3-0.2-0.4c-0.1-0.3-0.2-0.5-0.4-0.7c-0.4-0.9-0.6-1.7-0.9-2.9c-0.2-1.3-0.5-3.1-0.9-6c-0.2-1.5-0.4-3.3-0.6-5.4
				c-0.2-2.2-0.4-4.7-0.4-7.7c0-0.7-0.1-1.9-0.1-3.3c0-1.4-0.1-3-0.1-4.8c0.1-1.7,0.1-3.6,0.3-5.3c0.2-1.8,0.4-3.5,0.7-4.9
				c0.3-1.2,0.6-2.4,0.8-3.5c0.2-1.1,0.6-2.2,0.9-3.2c0.5-2,1.2-3.9,1.8-5.7c0.1-0.4,0.3-0.9,0.4-1.3c0.2-0.4,0.3-0.8,0.5-1.3
				c0.3-0.8,0.6-1.7,0.9-2.5c0.6-1.6,1.4-3.2,2-4.8c0.7-1.6,1.5-3.1,2.3-4.8c0.9-1.6,1.8-3.3,2.9-5.1c2.2-3.6,5-7.6,8.9-12.1
				c5.8-6.8,11.4-11.6,16.6-15.5c5.2-3.8,10-6.7,14.8-9.2c4.9-2.5,9.8-4.7,15.5-6.9c5.8-2.1,12.4-4.2,20.9-6c1.3-0.3,7.9-1.5,15.9-2
				c4-0.3,8.3-0.4,12.4-0.3c2,0,4,0.1,5.9,0.3c0.6,0,1.1,0.1,1.7,0.1c0.6,0.1,1.2,0.1,1.8,0.2c1.1,0.1,2.2,0.2,3.3,0.3
				c1-1.6,1.9-3.2,2.8-4.6c0.7-1.1,1.3-2.2,1.9-3.1c1.1-1.9,2.2-3.4,3.1-4.6c1.7-2.4,2.6-3.7,2.6-3.7c0.7-1,1.5-1.9,2.3-2.9
				c0.8-0.9,1.5-1.8,2.3-2.7c0.8-0.9,1.5-1.8,2.2-2.7c0.8-0.9,1.6-1.7,2.4-2.5c1.6-1.7,3.1-3.3,4.6-4.9c1.6-1.5,3.2-3,4.7-4.4
				c0.8-0.7,1.5-1.4,2.3-2.1c0.8-0.7,1.6-1.3,2.4-2c1.6-1.3,3.2-2.6,4.7-3.9c1.6-1.2,3.2-2.4,4.8-3.5c0.8-0.6,1.6-1.1,2.4-1.7
				c0.8-0.6,1.6-1.1,2.4-1.6c6.6-4.2,13.1-7.9,20.2-11c1.8-0.8,3.5-1.5,5.3-2.3c1.8-0.7,3.7-1.4,5.5-2c1.9-0.6,3.7-1.4,5.7-1.9
				c2-0.5,3.9-1.1,5.9-1.6c1.1-0.4,2.3-0.8,3.4-1.2c1.2-0.3,2.4-0.7,3.6-1c2.4-0.6,4.8-1.3,7.3-1.9c5.1-1,10.3-2.2,15.7-2.7
				c5.4-0.8,11-1,16.6-1.4c2.8,0,5.7,0,8.5-0.1c2.9,0.1,5.7,0.2,8.6,0.4c11.5,0.8,22.9,2.6,33.7,5.4c10.8,2.8,21,6.5,30.2,10.7
				c9.2,4.2,16.6,8.5,22.9,12.8c6.3,4.3,11.5,8.6,16.4,13c1.2,1.1,2.3,2.3,3.5,3.4l1.7,1.7c0.6,0.6,1.1,1.2,1.7,1.8
				c1.1,1.2,2.2,2.4,3.3,3.6c1,1.3,2.1,2.5,3.2,3.8c4.2,5.2,8.5,10.9,12.6,17.9c4.8,7.9,7.7,14.1,9.6,19c0.5,1.2,1.1,2.9,1.8,4.9
				c0.8,1.9,1.6,4.2,2.4,6.5c1.7,4.7,3,10,3.8,14.4c-0.3-0.7-0.7-1.4-1-2.1c0.3,1.5,0.7,3.7,0.9,5.9c0.1,1.1,0.3,2.2,0.4,3.2
				c0.1,0.5,0.1,1,0.2,1.4c0,0.5,0.1,0.9,0.1,1.2c0.2,3-0.1,2.2-0.3,1.5c-0.5-1.5-1-2.9-0.9,2.3c0.3,3.9,0.2,7.9,0,11.8
				c-0.1,2-0.3,4-0.4,6l-0.2,1.7c-0.1,1-0.2,2-0.4,3.1c-0.3,2.1-0.5,4.1-0.8,6.2c2.4,0.7,4.8,1.5,7.2,2.2c1.2,0.4,2.4,0.7,3.6,1.1
				l1.7,0.7c1.1,0.4,2.3,0.9,3.4,1.3c1.1,0.5,2.2,1,3.3,1.6c12.2,5.5,22.4,14.2,29.1,24.4c0.6,0.5,1.2,1.1,2.3,2.5
				c0.8,1.6,1.8,3.2,2.6,4.8l1.1,2.5c0.4,0.8,0.8,1.7,1,2.5c1.1,2,1.5,1.1,2.3,2.5c0.9-0.2,2.5,3.5,3.8,6.8c0.6,1.7,1.1,3.3,1.6,4.2
				c0.5,0.9,0.8,1.2,1.1,0.2c0.1-0.4,0-2.1-0.2-4.6c0-0.3,0-0.6-0.1-1c-0.1-0.3-0.1-0.7-0.2-1c-0.1-0.7-0.2-1.5-0.4-2.2
				c-0.1-0.8-0.2-1.6-0.4-2.4c-0.2-0.8-0.4-1.7-0.7-2.5c-0.2-0.9-0.4-1.8-0.7-2.6c-0.3-0.9-0.6-1.8-0.9-2.6c-0.3-0.9-0.6-1.8-1-2.6
				c-0.4-0.9-0.8-1.7-1.1-2.5c-0.4-0.8-0.7-1.7-1.1-2.5c-0.4-0.8-0.8-1.5-1.2-2.3c-0.4-0.7-0.8-1.4-1.1-2.1
				c-0.4-0.7-0.8-1.2-1.1-1.8c-0.6-1.1,0-0.5,1.1,0.6c0.5,0.5,1.1,1.2,1.6,1.9c0.6,0.7,1.1,1.3,1.5,1.8c-0.5-0.8-0.9-1.5-1.3-2.1
				c-0.4-0.7-0.8-1.3-1.2-1.9c-0.8-1.1-1.4-2.1-2-2.9c-0.3-0.4-0.5-0.8-0.7-1.1c-0.2-0.3-0.5-0.6-0.7-0.9c-0.4-0.5-0.6-0.9-0.8-1.2
				c-0.7-1.1,0.4-0.3,2.5,1.9c-1-1.4-2.2-2.7-3-3.7c-0.4-0.5-0.7-0.9-1-1.2c-0.3-0.3-0.4-0.4-0.4-0.4c0.4,0.2,1.1,0.8,1.7,1.3
				c0.6,0.5,1.2,0.9,1.2,0.9c-5-6.2-11.3-11.8-18.6-16.5l-1.4-0.9l-1.4-0.8l-2.9-1.6c-0.9-0.6-2-1-3-1.5l-3-1.4
				c-2-0.9-4.2-1.7-6.3-2.5l-0.4-0.1l-0.1,0l-0.1,0l-0.2-0.1c-0.1-0.1-0.2-0.1-0.3-0.2c0-0.1,0.1-0.2,0.1-0.2c0,0,0,0,0,0
				c0,0,0,0,0,0l0-0.2l0.1-0.5l0.2-1.9c0.2-2.6,0.4-5.1,0.4-7.7c0.1-2.6,0.1-5.1,0-7.7c-0.1-2.5-0.3-5.1-0.5-7.6
				c-1-10.1-3.3-19.9-6.7-29c-1.3-3.4-3.1-7.9-5.4-12.4c-1-2.3-2.4-4.4-3.5-6.6c-1.1-2.1-2.4-4.1-3.5-5.8c-0.6-0.9-1.2-2-2-3.3
				c-0.8-1.2-1.7-2.6-2.5-4c-0.8-1.4-1.7-2.7-2.5-3.8c-0.8-1.1-1.5-2.1-1.9-2.8c-2-2.2-3-3-3.8-3.5c-0.8-0.5-1.3-0.7-2.3-1.5
				c-4-5-9.6-11.2-16.3-17.3c-6.7-6-14.4-11.9-21.9-16.5c-7.5-4.7-14.7-8.4-20-10.5c-1.3-0.6-2.5-1-3.6-1.5c-1.1-0.4-2-0.7-2.7-0.9
				c-1.5-0.4-2.2-0.5-2.1-0.3c-1.3-0.5-2.5-1-3.7-1.5c-1.2-0.4-2.3-0.8-3.4-1.2c-1.1-0.4-2.1-0.7-3.1-1.1c-1-0.3-2-0.6-2.9-0.9
				c-1.9-0.5-3.6-1-5.3-1.5c-1.7-0.4-3.4-0.8-5-1.1c-3.3-0.8-6.7-1.3-10.6-2.1c-4-0.6-8.5-1.4-14.3-2c-15.2-1.7-32.8-1.5-50.9,1.2
				c-18,3-36.4,8.7-53,17.1c-2.2,1.2-4.4,2.4-6.6,3.6c-0.5,0.3-1.1,0.6-1.6,0.9l-1.6,1c-1,0.7-2.1,1.3-3.1,2
				c-4.3,2.5-8.1,5.5-12.1,8.2c-1.9,1.5-3.7,3-5.6,4.5c-0.9,0.8-1.9,1.5-2.8,2.3l-2.6,2.4c-1.7,1.6-3.5,3.2-5.2,4.8
				c-1.6,1.7-3.2,3.4-4.8,5.1c-0.6,0.6-1.2,1.3-1.8,1.9c-0.5,0.7-1.1,1.3-1.6,2c-1.1,1.3-2.2,2.6-3.2,3.9c-1.1,1.3-2,2.6-3,3.9
				c-1,1.3-1.9,2.6-2.8,3.9c-1.2,1.6-2.2,3.4-3.3,5c-0.4,0.6-0.8,1.2-1.1,1.9c-0.3,0.5-0.6,1-0.9,1.4c-0.8-0.1-1.6-0.2-2.4-0.3
				l-1.8-0.2l-2.1-0.1c-2.8-0.2-5.5-0.3-8.3-0.3c-2.8,0-5.5,0.1-8.2,0.2c-1.4,0.1-2.7,0.1-4.1,0.3c-1.3,0.1-2.7,0.3-4,0.4
				c-1.3,0.1-2.7,0.3-4,0.5c-1.3,0.2-2.7,0.4-4,0.6c-2.6,0.5-5.2,0.9-7.8,1.6c-5.2,1.1-10.1,2.7-15,4.4c-2.4,0.9-4.8,1.8-7.1,2.8
				c-1.2,0.5-2.3,1-3.5,1.5c-1.1,0.6-2.3,1.1-3.4,1.7l-1.7,0.8l-1.6,0.9c-1.1,0.6-2.2,1.2-3.3,1.8l-3.2,1.9l-1.6,1l-1.5,1l-3,2
				l-2.9,2.1c-2,1.4-3.7,3-5.6,4.5c-3.6,3.1-7,6.3-10.1,9.8c-3.2,3.4-6,7-8.6,10.7c-1.2,1.9-2.6,3.7-3.7,5.6l-1.7,2.9l-1.6,2.9
				c-4.1,7.8-7,16.1-8.8,24.6c-0.5,2.1-0.8,4.2-1.1,6.4c-0.2,1.1-0.3,2.1-0.4,3.2l-0.3,3.2c-0.1,2.1-0.2,4.3-0.2,6.4
				c0.1,2.1,0,4.3,0.2,6.4c0.3,4.3,0.9,8.6,1.8,12.8c0.4,2.1,1,4.2,1.6,6.3l0.4,1.5l0.3,0.8c0.2,0.5,0.3,1,0.5,1.6
				c-0.8,0.4-1.6,0.8-2.4,1.2l-1.2,0.6l-1.9,1.1l-4,2.3c-1.3,0.8-2.5,1.7-3.8,2.5l-1.9,1.3c-0.6,0.4-1.2,0.9-1.8,1.4l-3.6,2.8
				c-1.1,1-2.3,2-3.4,3l-1.7,1.5c-0.5,0.5-1.1,1.1-1.6,1.6l-3.1,3.2c-1,1.1-1.9,2.2-2.9,3.4l-1.4,1.7c-0.5,0.6-0.9,1.2-1.3,1.8
				c-0.9,1.2-1.7,2.4-2.6,3.6c-0.8,1.2-1.5,2.5-2.3,3.7l-1.2,1.9l-1,1.9c-0.7,1.3-1.3,2.6-2,3.9c-0.6,1.3-1.1,2.7-1.7,4
				c-0.3,0.7-0.6,1.3-0.8,2l-0.7,2.1c-0.4,1.4-0.9,2.8-1.3,4.2c-0.3,1.4-0.7,2.8-1,4.3c-0.2,0.7-0.4,1.4-0.5,2.1l-0.3,2.2
				c-1.1,5.8-1.1,11.7-0.9,17.6c0.8,11.8,4.3,23.8,10.7,34.9c8.5,14.8,21.9,27.5,38.1,36.2c8.1,4.3,16.9,7.8,26,10l1.7,0.4l1.7,0.4
				c1.2,0.2,2.3,0.5,3.5,0.7c2.3,0.4,4.7,0.8,7,1c4.7,0.6,9.4,0.8,14.2,0.8c9.5,0,18.9-1.2,27.9-3.5c9-2.3,17.7-5.7,25.6-10.1
				c1-0.5,2-1.1,2.9-1.7c0.5-0.3,1-0.6,1.4-0.9l1.3-0.8c0.7-0.4,1.4-0.9,2.1-1.4l1-0.7c0-0.1,0.1,0,0.1,0l0.1,0.1l0.2,0.2l0.5,0.4
				l1.9,1.6l2.5,1.9c1.7,1.4,3.6,2.6,5.5,3.9c7.5,4.9,15.7,8.9,24.3,12c8.6,3,17.6,5,26.8,5.9c9.1,0.9,18.3,0.8,27.3-0.3
				c9-1.1,17.7-3.3,25.9-6.3c8.2-3,15.9-7,22.9-11.6c0.9-0.6,1.7-1.2,2.6-1.8c0.8-0.6,1.7-1.2,2.5-1.8c1.6-1.3,3.3-2.5,4.8-3.9
				l1.8-1.5l1.5-1.5l0.8-0.7c0.1,0,0.1-0.2,0.2-0.1l0.2,0.2l0.4,0.4l1.5,1.5c0.5,0.5,1,1,1.5,1.4l2.3,2l1.1,1l1.2,0.9l2.4,1.9
				c0.8,0.6,1.6,1.2,2.5,1.8l2.5,1.8c0.8,0.6,1.7,1.1,2.6,1.7l2.6,1.6c14,8.5,29.9,14,45.9,16.3c16,2.3,32.1,1.6,46.8-1.8
				c14.8-3.3,28.2-9.2,39.5-16.7c11.3-7.5,20.5-16.5,27.4-26.1c3.4-4.8,6.3-9.8,8.7-14.7c2.4-5,4.2-10,5.5-14.9
				c1.3-5,2.2-9.8,2.6-14.6c0.1-0.6,0.1-1.2,0.2-1.8c0-0.6,0.1-1.2,0.1-1.8c0-1.2,0.1-2.3,0.1-3.5c0-1.2,0-2.3,0-3.4l0-0.8l0-0.4
				l0-0.2l0-0.8l0-0.8c0-0.1,0-0.3,0-0.4l0.4-0.2c0.5-0.3,1.1-0.6,1.6-0.8l0.2-0.1c0.1,0,0.1-0.1,0.3-0.2l0.8-0.5
				c0.5-0.3,1-0.6,1.5-0.9c1-0.6,2-1.2,2.9-1.9c0.9-0.6,1.8-1.3,2.7-1.9c0.9-0.6,1.7-1.3,2.6-2c0.8-0.7,1.7-1.3,2.4-2
				c0.8-0.7,1.5-1.4,2.2-2.1c5.8-5.5,10.1-11.3,13-16.6c3-5.3,4.7-10.2,5.9-14.3C561.1,236.4,561.6,229.9,561,223.4z"/>
		</g>
	</g>
	<g>
		<path class="st3" d="M566.6,232.2c-1.6-29.4-24.6-53.6-55.3-61.6c1-7.4,1.3-15,0.9-22.7C508,69.7,431.9,8.7,342.2,11.7
			C281,13.7,229.3,45,204,89.5c-7-0.9-14.1-1.2-21.4-1c-65.4,2.2-116,50.3-113,107.3c0.5,9.2,2.4,18.1,5.4,26.6
			c-33.3,14.8-55.3,45.6-53.4,80.4c2.5,47.7,48.9,85,103.7,83.1c22.3-0.7,42.6-7.9,58.5-19.3c19.8,17.5,47.6,28,77.8,27
			c29.8-1,56.1-13,73.9-31.3c21.3,21.9,53.4,35.4,88.7,34.2c60.6-2,107.4-46.5,104.6-99.4c-0.1-1.5-0.2-2.9-0.3-4.3
			C552.4,281,567.9,258,566.6,232.2z"/>
		<g class="st1">
			<path class="st2" d="M491.6,139.6c-0.2-3.1,0.6,1.2,0.1-3.5c0.4,1.2,1.5,6,1.7,10.3c0,1.2,0.1,2.5,0,3.7
				c-0.2-1.9-0.5-3.3-0.8-4.8C492.3,143.8,492,142.1,491.6,139.6z"/>
			<path class="st2" d="M559.2,229.4c-0.1-1.6,0.1-1.2,0.3-1.1c0.2,1.5,0.3,3.1,0.3,4.2C559.6,232.9,559.4,230.8,559.2,229.4z"/>
			<path class="st2" d="M501.9,171.1c0.7-4.2,1.3-9.5,1.5-14c0.2-0.4,0.3-0.4,0.4,0.2c0.1,0.7,0.2,1.9,0.2,3.6
				c0.1,3.2-0.3,8-0.7,12.9c0,0.2,0,0.4-0.1,0.7c0,0.2-0.1,0.5,0.1,0.6c3,0.9,6.1,1.9,7.1,2.3c1,0.6,2.4,1.2,2.4,1.5
				c0,0.1-0.3,0.1-1.1-0.1c-0.9-0.2-2.3-0.6-4.5-1.1c-1.1-0.1-3.5-0.9-5.7-1.6c0-0.1-0.1-0.1-0.1-0.2l0-0.3c0-0.2,0.1-0.4,0.1-0.5
				c0.1-0.3,0.1-0.7,0.2-1c0.1-0.7,0.2-1.2,0.2-1.7C502.1,171.4,502.1,170.8,501.9,171.1z"/>
			<path class="st2" d="M557,208c-0.2-0.2-0.3-0.4-0.5-0.6c-0.9-1.5-0.1-0.9-1.4-3.4l-0.7-0.9c-0.2-0.3-0.5-0.6-0.8-0.9l-1.5-1.8
				c-1.6-2.3-0.4-0.9-0.1-0.8c-0.7-1.1-1.6-1.9-2.3-2.8c-0.7-0.9-1.4-1.7-2.1-2.4c-0.7-0.7-1.4-1.4-2-2.1c-0.7-0.7-1.2-1.4-2-2
				c-0.7-0.6-1.4-1.2-2.1-1.9c-0.4-0.3-0.7-0.7-1.1-1c-0.4-0.3-0.8-0.6-1.2-1c-0.9-0.7-1.8-1.3-2.8-2.1c-1-0.7-2.2-1.4-3.4-2.2
				l3.1,1.5c-1.3-0.9-2.9-2-4.6-3.1c-1.7-1-3.3-1.9-4.4-2.5c3.6,1.8,2.9,1.2,1.3,0.2c-0.4-0.3-0.8-0.5-1.3-0.8
				c-0.5-0.3-1-0.5-1.4-0.8c-0.9-0.5-1.5-0.9-1.5-1c0.8,0.3,1.8,0.6,3.1,1c1.3,0.6,3,1.3,5.3,2.5c-1.5-0.9-3.1-1.8-4.6-2.8
				c-0.8-0.5-1.5-0.8-2.3-1.2c-0.7-0.4-1.4-0.8-2-1.1l4.1,1.9c0.6,0.2,0.4,0-0.3-0.4c-0.4-0.2-0.8-0.4-1.4-0.7c-0.6-0.3-1.3-0.6-2-1
				c0.9,0.4,1.5,0.7,1.9,0.8c0.4,0.1,0.5,0.1,0.6,0.1c0.1-0.1-0.1-0.3,0.6,0c-1.2-0.5-2.3-1.1-3.5-1.6c-1.1-0.5-2.3-0.9-3.4-1.3
				c-2.3-0.9-4.7-1.5-7.2-2.3c-0.1,0-0.1,0-0.2-0.1l0-0.2l0-0.3l0.1-0.7c0.1-0.5,0.1-0.9,0.2-1.4c0.1-0.9,0.3-1.9,0.4-2.8
				c0.5-3.1,0.8-3.2,1.2-4.9c-0.1,2.1-0.1,3.8-0.1,5.4c0,0.8,0,1.5-0.1,2.1c0,0.3,0,0.7,0,1l0,0.5l0,0.2c0,0,0,0.1,0,0.1l0.1,0
				c0.8,0.2,1.5,0.4,2.2,0.6c0.7,0.3,1.8,0.6,3.1,1.1c1.2,0.5,2.6,1,3.8,1.5c0.6,0.3,1.2,0.6,1.7,0.8c0.6,0.3,1.2,0.6,1.7,0.9
				c1,0.5,1.6,0.9,1.6,1.1c2.4,1.3,5.3,2.6,7.1,3.6c-0.4-0.3-1-0.7-1.7-1.2c-0.8-0.5-1.7-1-2.6-1.5c-0.9-0.5-1.8-1-2.6-1.5
				c-0.8-0.4-1.5-0.7-1.9-1c2.1,0.8,3.7,1.8,5.2,2.5c0.8,0.4,1.5,0.8,2.2,1.2c0.7,0.4,1.4,0.8,2,1.3c1.3,0.9,2.7,1.6,4.1,2.7
				c0.7,0.5,1.4,1,2.2,1.6c0.4,0.3,0.8,0.6,1.2,0.9c0.4,0.3,0.8,0.7,1.2,1l-1-1.2c3.3,3,7.8,7,11.2,11.3c0.9,1,1.7,2.1,2.4,3.1
				c0.7,1,1.5,2,2.1,2.9c1.2,1.9,2.1,3.5,2.7,4.6c0.4,1,0.9,2.1,1.3,3.1c0.2,0.5,0.4,1,0.6,1.5c0.2,0.5,0.3,1,0.5,1.5
				c0.3,1,0.6,2,0.9,2.9c0.1,0.5,0.3,0.9,0.4,1.4c0.1,0.4,0.2,0.9,0.3,1.3c0.3,1.7,0.6,3.2,0.7,4.4c0.1,1.2,0.1,2.1,0,2.6
				c-0.8-3.6-1-3.5-1-2.6c0,0.9,0.1,2.6-0.1,2.3c-0.4-2.3-1.4-5.9-1.4-5.1c0.2,1,0.4,1.9,0.6,2.8c0.2,0.9,0.3,1.7,0.5,2.4
				c0.3,1.5,0.6,2.7,0.3,3.5c-0.8-3.6-1.4-4.2-1.7-4.3c-0.4-0.1-0.6,0.4-1.1-0.7c-0.2-0.5-0.6-1.4-0.9-2.5c-0.2-0.6-0.4-1.2-0.5-1.8
				c-0.2-0.6-0.3-1.3-0.6-1.8c-0.9-2.4-1.7-4.4-1.8-3.7c1.9,4.9-0.1,0.3,0.2,1.4C559.1,212.3,558.3,210.8,557,208z"/>
			<path class="st2" d="M499.5,106c-1.2-2.9-0.6-2-0.8-2.8c-0.1-0.8,0.6,0.6,1.5,2.5c0.5,0.9,0.9,2.1,1.3,3.1
				c0.4,1.1,0.8,2.1,1.1,2.9c0.6,1.7,0.8,2.6,0.8,3.1c0,0.5-0.1,0.5-0.3,0.4c-0.3-0.4-0.9-2-1.6-3.8
				C500.8,109.6,500.2,107.4,499.5,106z"/>
			<path class="st2" d="M514.5,147.9c-0.2-2.8-0.4-6.3-0.3-7.6c0.3-0.1,0.6-0.2,1,3.1c0.5,5.1,0.8,8.6,0.4,12.6
				c-0.2,2.1-0.5,1.9-0.7,0.3C514.8,154.6,514.6,151.5,514.5,147.9z"/>
			<path class="st2" d="M422.7,34.8c-4.4-2-5.9-2.8-6.6-3.2c-0.7-0.4-0.4-0.6-1.4-1.2c1.3,0.5,2.2,0.8,2.8,1c0.6,0.2,0.9,0.3,1,0.3
				c0.2,0-0.5-0.4-1.2-0.8c-1.4-0.7-3-1.6,1.6,0.2c1.1,0.5,2.5,1.1,3.7,1.7c1.3,0.6,2.5,1.2,3.3,1.7c-2.4-0.9,1.1,1,4.3,2.8
				c3.2,1.9,6.2,3.8,3.5,2.6c-0.5-0.1-2.2-1-4.3-2c-1.1-0.5-2.2-1.1-3.4-1.6C424.8,35.8,423.7,35.3,422.7,34.8z"/>
			<path class="st2" d="M469,62.4c-1.1-1.2-2-2.2-2.4-2.7c-0.4-0.5-0.4-0.7,0.3-0.2c1,0.5,4.5,4.2,6.5,6.2c2.1,2.5,3.1,4.1,1.5,2.5
				c-0.8-0.7-1.6-1.7-2.6-2.7C471.2,64.6,470.1,63.5,469,62.4z"/>
			<path class="st2" d="M485.8,78.2c-1-1.6-0.2-0.6-0.6-1.4c0.5,0.5,1.3,1.6,2.1,2.7c0.4,0.6,0.8,1.1,1.2,1.7c0.4,0.6,0.7,1.1,1,1.5
				l1.1,2.3c-0.8-1.1-1.5-2-2.2-3.1C487.7,80.8,486.9,79.6,485.8,78.2z"/>
			<path class="st2" d="M461.7,54.5c-1.2-1.2-1.8-1.9-1-1.6c3.1,2.4,6.1,5,8.3,7.4c1.8,2,0.3,0.7,0.4,1.1c-1.1-1.1-2.4-2.2-3.7-3.4
				C464.3,56.8,463,55.6,461.7,54.5z"/>
			<path class="st2" d="M480.2,69.6c-1.1-1.3-2.2-2.6-3.2-3.8c-0.5-0.6-1.1-1.2-1.6-1.8c-0.6-0.6-1.1-1.1-1.7-1.7
				c0-0.3-1.2-1.6-2.5-3.1c-1.3-1.5-3-3-3.6-3.8c4.6,4.1,2,1.2,3.5,2.2c2.4,2.2,5.9,5.6,9,9.2c1.6,1.7,3,3.6,4.2,5.3
				c0.6,0.8,1.2,1.6,1.7,2.4c0.5,0.8,0.9,1.5,1.3,2.1c-1.1-0.8,2.9,5.6-3-2.3C482.6,72.4,480.8,70.1,480.2,69.6z"/>
			<path class="st2" d="M509.3,110c-0.7-2-1.4-4-2.2-5.9l-2.5-5.8c-1.3-3.6,1.7,0.8,0.9-1.2c0.6,1.1,1.2,2.6,1.9,4.1
				c0.7,1.6,1.4,3.2,2,4.7c1.2,3.1,2.2,5.6,2.5,5.5c0.5,1.3,0.9,2.7,1.4,4.1c0.5,1.4,0.9,2.9,1.3,4.3c0.7,2.9,1.4,5.7,1.6,8
				c0,1.2-0.2,0.8-0.6-0.4c-0.2-0.6-0.4-1.4-0.7-2.3c-0.3-0.9-0.6-1.8-0.9-2.7c-1.2-3.7-2.4-7-1.7-3.1c-0.2-1.3-0.7-2.8-1.2-4.4
				C510.6,113.3,510.1,111.6,509.3,110z"/>
			<path class="st2" d="M453.3,47c-1.2-1-2.4-1.9-3.4-2.7c-1-0.8-1.9-1.5-2.6-2.1c2.4,1.5,3.8,2.2,6.1,3.7c1.3,1.1,3.1,2.5,4.6,3.8
				c1.4,1.2,2.5,2.3,2.5,2.6c-0.1,0.1-1.1-0.6-2.4-1.7C456.7,49.6,454.9,48.3,453.3,47z"/>
			<path class="st2" d="M429.2,31.9c-0.5-0.5,0.9,0.1,2.9,1.1c0.5,0.2,1,0.5,1.6,0.8c0.5,0.3,1.1,0.6,1.6,0.9c1.1,0.6,2.1,1.1,3,1.6
				c2.3,1.3,4.2,2.6,5.8,3.8c0.8,0.7,0.2,0.6-2.5-0.9c-0.6-0.4-1.2-0.7-1.7-1.1c-0.6-0.3-1.1-0.6-1.6-0.9c-1-0.6-2-1.2-2.9-1.7
				C433.6,34.2,431.7,33.1,429.2,31.9z"/>
			<path class="st2" d="M370.3,17.2c-4.9-0.7-2.3-0.6-2.5-0.8c1.2,0.1,2.7,0.2,4.2,0.4c0.8,0.1,1.5,0.2,2.3,0.3
				c0.8,0.1,1.6,0.3,2.4,0.4c2.6,0.6,2.7,0.7,1.3,0.6c-0.7-0.1-1.7-0.2-3.1-0.4C373.6,17.6,372,17.4,370.3,17.2z"/>
			<path class="st2" d="M395.8,16.2c-2.8-0.8-0.9-0.7,3.3,0.4l3.8,1.5c-1.3-0.4-2.3-0.7-3.4-1C398.3,16.8,397.2,16.6,395.8,16.2z"/>
			<path class="st2" d="M92.6,181.6c-0.1,0.5-0.1,0.6-0.2,0.6l0.3-1.4C92.7,180.7,92.6,181.3,92.6,181.6z"/>
			<path class="st2" d="M215.9,79.9c-0.5,0.5-0.9,0.8-1.2,1.1c-0.2,0.1-0.3,0.2-0.5,0.4c-0.2,0.1-0.4,0.4-0.7,0.6
				c-0.5,0.5-1.1,1.1-1.8,2.2c-0.7,1.1-1.7,2.6-3,4.8c-0.4,0.8-0.9,1.6-1.3,2.3c-0.2,0.4-0.4,0.8-0.7,1.1l-0.3,0.6
				c-0.1,0.1-0.1,0.2-0.2,0.3l-0.3,0.1c-4.9-0.5-9.8-1.1-14.6-1.3c-0.5,0-1.1,0-1.6-0.1c-0.5,0-1,0-1.5,0c-1,0-2,0-3.1,0
				c-2.1,0-4.2,0.1-6.4,0.3c0.6-0.1,0.1-0.2-1.3-0.2c-1.4,0-3.6,0.2-6.6,0.5c-1.9,0.3-3.9,0.7-4.5,0.8c-1.1,0,0.7-1.1-5-0.3
				c2.8-1.1,8.1-2.5,8.3-2.8c-1.4,0.1-2.8,0.5-4.3,0.5c6.5-1.1,14.8-2,22.4-2.1l-1.4-0.1c5.2-0.3,11.9,0.2,17.3,0.9l0.2,0
				c0.1,0,0.1,0,0.2,0l0.2-0.3c0.1-0.2,0.2-0.4,0.3-0.5c0.2-0.4,0.4-0.7,0.7-1c1.7-2.7,1.1-2.3,1.7-3.4c0.4-0.6,0.8-1,1.6-1.9
				c0.2-0.2,0.4-0.5,0.7-0.9c0.3-0.3,0.6-0.7,0.9-1.1c0.7-0.9,1.5-1.9,2.5-3.4c0.8-1.3,1.6-2.7,2.5-4c0.1,0.1-2.8,4.6-0.4,1.6
				c0.4-0.6,0.9-1.1,1.4-1.7c0.5-0.5,0.9-1,1.3-1.5c0.8-0.9,1.5-1.7,1.8-2.1c-0.9,1.4,0.7-0.2,2.2-1.6c0.7-0.7,1.5-1.4,1.9-1.6
				c0.4-0.3,0.5-0.2-0.2,0.7c-4.6,5.5-1.5,2.7-0.5,1.7l-3.1,3.3c0.6-0.4,0.4,0.2-0.3,1.2c-0.6,1-1.7,2.5-2.5,3.9l-1.6,2
				C212.1,83.8,216.8,78.2,215.9,79.9z"/>
			<path class="st2" d="M217.5,76.5l0.2-0.3c0.4-0.4,0.9-0.8,1.4-1.2c-0.6,0.7-0.8,0.9-1,1C217.9,76.1,217.7,76.2,217.5,76.5z"/>
			<path class="st2" d="M225.5,63.9c-0.1,0-0.9,0.8-0.3,0.1C226.1,63.2,226.9,62.4,225.5,63.9z"/>
			<path class="st2" d="M475.8,49.6c0.8,0.5,1.7,1.4,2.7,2.3c0.9,0.9,1.8,2,2.6,2.9c-0.8-0.7-1.9-1.8-3-2.8
				C477,51,476.1,50.1,475.8,49.6z"/>
			<path class="st2" d="M221.2,67.4l-0.5,0.6c0.5-0.5,0.9-1.1,1.3-1.6C222.1,66.3,221.6,66.9,221.2,67.4z"/>
			<path class="st2" d="M171.8,93.1c1.1-0.1,1.5-0.3,2.5-0.3C174.1,92.9,172.5,93,171.8,93.1z"/>
			<path class="st2" d="M148.8,98.2c-0.4,0.1-1.2,0.3-0.8,0.2c0.6-0.2,1.2-0.4,1.8-0.5C149.9,97.9,149.5,98,148.8,98.2z"/>
			<path class="st2" d="M152,95.3l-0.8,0.2c0.9-0.3,1.9-0.6,2.8-0.8C153.4,94.9,153.1,95,152,95.3z"/>
			<path class="st2" d="M117.7,109.7c-0.4,0.4-1.1,1-2.1,1.6c-1,0.7-2.1,1.4-3.3,2.3c-1.2,0.9-2.5,1.8-3.7,2.7
				c-1.2,1-2.3,1.9-3.3,2.8c0.4-0.4,1.1-1.1,1.2-1.3c0.1-0.1,0-0.1-0.4,0.1c-0.4,0.2-1,0.7-1.9,1.5c-1.6,1.4-2.1,1.9-2.4,2.3
				c-0.3,0.3-0.5,0.6-1.7,1.6c0.4-0.4,0.8-0.8,1.1-1.2c0.4-0.4,0.7-0.7,1-1c0.6-0.6,1.1-1.1,1.4-1.5c0.7-0.8,0.9-1.2,0.6-1l-3.2,2.9
				c5.3-5.3,12-10.8,18.7-14.5c5.3-2.9-0.3,0.7,3.4-1.1c-2,1-2.6,1.6-3.2,2C119.4,108.5,119,108.9,117.7,109.7z"/>
			<path class="st2" d="M183.3,84.9c-2.8,0.1-4,0-1.7-0.2c2.5-0.2,4.4-0.1,5,0C187.1,84.7,186.2,84.8,183.3,84.9z"/>
			<path class="st2" d="M94.9,132.1c-0.9,1.1-2.7,3.2-2.2,2.3c1.5-2.1,3-3.7,3.5-4C95.5,131,95,131.9,94.9,132.1z"/>
			<path class="st2" d="M71.2,215.8c0.4,0.5,1.2,3.2,2.4,6.1c0.1,0.1-0.1,0.2-0.2,0.2l-0.3,0.2l-0.6,0.3c-0.4,0.2-0.8,0.4-1.2,0.6
				c-0.8,0.4-1.5,0.8-2.2,1.2c-1.3,0.7-2.2,1.4-2.3,1.7c0.9-0.6,0.8-0.7,0.9-0.9c0.1-0.2,0.4-0.4,2.2-1.3c-0.5,0.3-1.1,0.6-1.7,0.9
				c-0.6,0.3-1.1,0.6-1.7,0.9c-1.2,0.6-2.4,1.2-3.7,1.9l-0.5,0.3c-0.1,0-0.2,0.1-0.2,0.1l-0.3,0.2c-0.3,0.2-0.7,0.4-1,0.6
				c-0.7,0.4-1.4,0.9-2.2,1.4c-0.8,0.5-1.6,1-2.4,1.5c-0.8,0.6-1.6,1.2-2.4,1.9c-0.6-0.1-0.5-0.5-3,0.7c1.7-1.4,3.4-2.7,4.7-3.8
				c1.4-1,2.4-1.9,2.8-2.3l-1.7,1.1c1.6-1.1,3-2,4.2-2.8c1.1-0.6,2.1-1.2,3-1.7c0.9-0.5,1.6-1,2.3-1.4c0.7-0.4,1.4-0.8,2-1.2
				l-0.8,0.3c2.6-1.1,0.1,0.1,1.5-0.3c0.3-0.2,0.6-0.3,1-0.5c0.2-0.1,0.4-0.2,0.6-0.3l0.3-0.1c0.1,0,0.2-0.1,0.2-0.2
				c-0.4-1.2-0.8-2.4-1-2.9c-0.4-1.6-0.6-3-0.8-4.6c-0.3-1.8-0.6-3.8-1.1-6.7c0.2,1.3,0.5,2.3,0.6,3c0.2,0.7,0.3,1.1,0.5,1.4
				c0.3,0.6,0.4,0.6,0.6,0.6C70,211.7,70.1,211.6,71.2,215.8z"/>
			<path class="st2" d="M66.3,200.4c-0.1-0.2-0.4-1.4-0.5-3.6c0-1.5,0.2-1.7,0.3-0.4C66.2,197.8,66.3,199.6,66.3,200.4z"/>
			<polygon class="st2" points="51.8,235.4 53,234.5 52,235.3 			"/>
			<polygon class="st2" points="50,234.2 51.5,233.1 50.6,233.8 			"/>
			<path class="st2" d="M30.7,257.5c-1.6,2.5,0.5-1.3-0.1-0.6C31,256.5,30.5,257.6,30.7,257.5z"/>
			<path class="st2" d="M34,250.1c-0.7,1.1,0.2,0.1,1-0.8c-4.2,5.2-3.6,5.7-4.8,8c-4.7,7.3-8,15.8-10.2,25.4c0,0.3,0.3-0.8,0.4-1.1
				c-0.7,1.3-1.2,4-1.8,7.1c-0.1,0.4-0.1,0.8-0.2,1.2c0,0.4-0.1,0.8-0.1,1.2c-0.1,0.8-0.2,1.7-0.2,2.5c-0.1,0.8-0.2,1.6-0.2,2.4
				c-0.1,0.8-0.1,1.6-0.1,2.3c0-1.5-0.1-2.1-0.1-2.3c0-0.2-0.1,0.2-0.1,0.8c-0.1,1.2-0.1,3.3-0.2,4.2c0.1,0.7,0.1,1.6,0.2,2.7
				c0.1,1,0.2,2.2,0.4,3.3c0.1,1.2,0.3,2.3,0.5,3.4c0.2,1.1,0.3,2.1,0.5,2.8c-0.3-1-0.4-2-0.6-3c-0.2-1-0.4-2-0.5-3
				c-0.3-0.4-0.7-3.6-0.8-1.2c0.1,1.3,0.4,3.4,0.5,4.6c-0.2-1-0.5-2.3-0.6-3.7c-0.2,0.1-0.2,1-0.1,2.3c0.1,1.4,0.3,3.2,0.7,5.2
				c-0.5-1.9-0.8-3.5-1.1-4.9c-0.3-1.4-0.5-2.5-0.7-3.5c-0.2-1-0.4-1.9-0.6-2.8c-0.1-0.9-0.3-1.7-0.4-2.6c0,1-0.1,2.1-0.1,3.1
				c0-0.9,0.1-2.6,0-4.4c0-0.9,0-1.8-0.1-2.7c0-0.9,0.1-1.7,0.1-2.3c-0.2-0.9-0.1-4.8,0.6-8.9c0.2-1,0.3-2.1,0.5-3.1
				c0.2-1,0.4-2,0.7-2.8c0.4-1.8,0.6-3.3,0.8-4.1c1.1-2.5,1.9-5.3,3.3-8.2c0.3-0.7,0.6-1.5,1-2.3c0.2-0.4,0.3-0.8,0.5-1.2
				c0.2-0.4,0.4-0.8,0.6-1.2c0.8-1.6,1.7-3.2,2.6-4.8l-0.1,0c0.9-1.5,1.8-2.7,2.5-3.9c0.4-0.6,0.8-1.1,1.1-1.6
				c0.3-0.5,0.7-0.9,1.1-1.4c1.4-1.7,2.5-3,3.6-4.1c1.2-1.1,2.2-2.1,3.5-3.3c1.2-1.2,2.7-2.5,4.5-4.2c-2.1,2.4-2.1,2.6-2.2,3
				c-0.1,0.3-0.3,0.8-2.5,3.7L39,244c-1,1.2-1.7,1.9-2.4,2.7c-0.4,0.4-0.7,0.8-1.2,1.3C35,248.6,34.5,249.2,34,250.1z"/>
			<path class="st2" d="M21,280.3l-0.4,1.9L21,280.3z"/>
			<path class="st2" d="M19.7,287.9c-0.1,0.9-0.2,1.9-0.1,2.8C19.5,289.8,19.7,288.8,19.7,287.9z"/>
			<polygon class="st2" points="65.2,139.4 65.1,139.8 63.1,143.1 63.3,142.8 			"/>
			<path class="st2" d="M56.5,166.6c-0.2,0.4-0.1-0.5,0.3-1.9C57.4,162.3,56.8,165.1,56.5,166.6z"/>
			<path class="st2" d="M22.2,321.1l0.8,2.2L22.2,321.1z"/>
			<path class="st2" d="M22.6,326.3c-0.9-1.8-2-6.2-2.6-8.4C20.7,321.1,21.7,323.4,22.6,326.3z"/>
			<path class="st2" d="M19.4,318.2c-0.2-0.7-0.4-1.4-0.5-2.1c0.1,0.3,0.2,0.6,0.3,0.9L19.4,318.2z"/>
			<path class="st2" d="M37.2,349.1c0.8,1.1,0.7,1.1,0.2,0.5c-0.2-0.3-0.6-0.7-0.9-1.1c-0.3-0.5-0.7-1-1-1.4
				C35.4,346.9,35.8,347.2,37.2,349.1z"/>
			<path class="st2" d="M28.4,338.4c-0.7-1.2-1.4-2.5-2-3.7l0.7,1.2C27.5,336.7,27.9,337.5,28.4,338.4z"/>
			<path class="st2" d="M43.5,364.2c3.8,3.3,5.2,4.7,6.6,6c0.4,0.6-4.6-3.1-1.3-0.4c-0.4-0.3-0.8-0.6-1.3-1c-0.5-0.4-1-0.9-1.6-1.3
				c-0.6-0.5-1.2-1-1.8-1.5c-0.6-0.5-1.2-1.1-1.9-1.7c-0.6-0.6-1.3-1.2-1.9-1.7c-0.6-0.6-1.1-1.2-1.7-1.7c-1-1.1-1.9-2.1-2.4-2.9
				c-1.1-1.5-0.5-1.1,1,0.3C38.7,359.6,41,361.9,43.5,364.2z"/>
			<path class="st2" d="M70.2,380.8c-2.5-1.4,6.1,2.6,1.8,0.4c5.2,2.1,12.3,5.1,19.7,6.5c-0.8-0.1,1.2,0.6,3.4,1.1
				c2.2,0.5,4.7,1,4.7,0.8c3.5,1.1,9.1,2,10.7,2.5c-0.9,0-2-0.1-3.3-0.2c-1.2-0.1-2.5-0.2-3.5-0.3c-2-0.2-2.9-0.3-0.4,0.3
				c-1.2-0.2-2.7-0.4-4.2-0.7c-1.5-0.3-3-0.6-4.3-0.8c-1.3-0.2-2.4-0.5-3.2-0.7c-0.8-0.1-1.1-0.2-0.9-0.1c-4.4-1.2-7.9-2.5-11.1-3.8
				c-1.6-0.6-3.2-1.4-4.8-2.1c-1.6-0.7-3.2-1.6-5-2.5c-0.8-0.5,0.2-0.2,0.5-0.2c0.3,0-0.1-0.3-3.7-2.2
				C68,379.6,68.8,380.1,70.2,380.8z"/>
			<path class="st2" d="M16.2,246.4c-1,1.3-1.5,2.1-2.2,3c-0.3,0.4-0.7,0.9-1.1,1.5c-0.2,0.3-0.4,0.6-0.7,1
				c-0.2,0.4-0.5,0.8-0.7,1.2c-0.5-0.1,3.1-5.6,2.7-5.6c0.6-0.9,1.1-1.9,1.7-2.7c0.6-0.8,1.1-1.6,1.7-2.3c1.1-1.4,2-2.7,2.9-3.8
				c1.9-2.2,3.5-3.9,5.2-5.5c0.5-0.4,0.3-0.1,0.1,0.3c-0.2,0.4-0.6,0.9-0.6,1c-0.8,1.2-2.5,3.2-4.2,5.4
				C19.2,242.1,17.4,244.5,16.2,246.4z"/>
			<polygon class="st2" points="112,391.1 109.3,390.9 111.1,391 			"/>
			<path class="st2" d="M17.2,344.1c1,1.9,1.2,2.5,2.1,4.1c-0.4-0.4-0.9-0.7-1.7-1.9c-0.8-1.2-2.1-3.1-4.1-7c-1.1-2.3-3-6.7-3.3-8.3
				c0.2,0.1-0.1-1.5,0.8,0.6c0.2,0.5,0.4,1.1,0.7,1.6c0.3,0.5,0.5,1,0.8,1.6c0.5,1,1,2.1,1.5,3.1C15.1,340,16,342.1,17.2,344.1z"/>
			<path class="st2" d="M52.1,377.7c0.9,0.5,2.8,1.5,4.8,2.8c1,0.6,2.1,1.2,3.2,1.7c1.1,0.6,2.1,1.1,3,1.5c1.2,0.7,2.3,1.2,3.3,1.8
				c1,0.5,1.9,1,2.8,1.4c0.8,0.4,1.6,0.8,2.3,1.2c0.7,0.3,1.4,0.7,2,1c1.2,0.6,1.1,0.7,0.2,0.4c-0.9-0.3-2.5-0.9-4.3-1.7
				c-0.9-0.4-1.9-0.8-2.9-1.2c-0.9-0.5-1.9-0.9-2.7-1.3c-0.9-0.4-1.7-0.8-2.3-1.1c-0.6-0.3-1.2-0.6-1.5-0.7
				c-0.9-0.6-1.8-1.2-2.7-1.8c-0.9-0.6-1.7-1.2-2.4-1.8c-0.7-0.6-1.4-1.1-2-1.5c-0.6-0.5-1-0.9-1.3-1.2L52.1,377.7z"/>
			<path class="st2" d="M223.8,389.7c0,0.1,0.1,0.1-0.3,0l-1.6-0.6C223,389.4,223.4,389.5,223.8,389.7z"/>
			<path class="st2" d="M2.4,319.8c0.5,2.3,1,4.5,1.2,5.6c0.2,1.1,0.1,1.2-0.6-0.8c-0.4-1-0.9-2.6-1.4-4.5c-0.4-1.8-0.8-3.9-1.2-5.7
				c-0.6-5.1-0.4-6.1,0-4.9c0.3,1.5,0.6,3.1,0.9,4.8C1.7,316.1,2,317.8,2.4,319.8z"/>
			<path class="st2" d="M195.6,382.4c0.6,0.5,1.2,0.9,1.9,1.3C196.8,383.2,196.2,382.8,195.6,382.4z"/>
			<path class="st2" d="M182.9,376.6c-0.4,0.4-0.9,0.8-1.5,1.3c-0.6,0.5-1.4,1.1-2.5,1.6c-2.4,1.3-1,0.2-1.4,0.2
				C179.4,378.9,182.3,376.7,182.9,376.6z"/>
			<path class="st2" d="M327.8,9.4c-2.8,0.5-6.5,1.1-7.5,1.5c-1.1,0.1-1.4,0.1-1.9,0.1c-0.5,0-1.1,0.1-2.8,0.5
				c-2.1,0.4-4.4,0.9-6.7,1.4c-2.3,0.5-4.6,1.2-6.7,1.8c-1.1,0.3-2.1,0.6-3.1,0.9c-0.5,0.1-1,0.3-1.5,0.4c-0.5,0.2-0.9,0.3-1.3,0.5
				c-1.7,0.6-3.1,1.2-4.2,1.7c0.7-0.4,5.2-2,3.6-1.8c-2,0.6-4,1.2-6.1,1.8c-1.1,0.4-2.2,0.6-3.3,1.1c-1.1,0.4-2.3,0.9-3.5,1.4
				c4.1-1.7-2.3,0.6-2.5,0.6c-1.1,0.4-2.1,0.8-3.2,1.2c-1.1,0.4-2.1,0.9-3.2,1.4c-2.1,1-4.3,2-6.5,3c-2.1,1.1-4.1,2.2-6,3.3
				c-1.9,1.1-3.8,2-5.3,3c0.6-0.4,1.2-0.8,1.9-1.2c0.7-0.4,1.5-0.8,2.4-1.3c1.7-0.9,3.5-1.9,5.1-2.8c1.7-1,3.3-1.7,4.7-2.4
				c1.3-0.7,2.3-1.2,2.7-1.5c-0.8,0.1-3.3,1.1-6,2.3c-2.6,1.3-5.5,2.7-7,3.5c0,0,0.7-0.4,1.5-0.8c0.9-0.5,1.9-1,2.6-1.4
				c-1.4,0.3,2.8-2.4-4.9,1.6c0.4-0.4,1.7-1.3,3.4-2.4c0.9-0.6,1.9-1.2,3-1.9c1.1-0.6,2.4-1.3,3.7-2c1.3-0.7,2.7-1.4,4.1-2.1
				c0.7-0.4,1.4-0.7,2.1-1.1l2.2-1c3-1.3,5.9-2.6,8.5-3.7c2.4-0.7,4.8-1.5,7.2-2.2c1.2-0.4,2.4-0.8,3.6-1.1l3.7-0.9l3.7-0.9l1.9-0.4
				c0.6-0.2,1.2-0.3,1.9-0.4c2.5-0.5,5-0.9,7.5-1.4c0.3-0.1,0.9-0.3,0.7-0.4c0.7-0.1,1.5-0.1,2.4-0.2c0.9-0.1,1.9-0.1,3-0.2
				c2.2-0.2,4.6-0.4,7.1-0.6c1.3-0.1,2.6-0.2,3.8-0.2c1.3-0.1,2.6-0.1,3.8-0.2c1.2-0.1,2.5-0.1,3.6-0.2c1.2-0.1,2.2-0.1,3.3-0.1
				c2,0.1,0.7,0.2-0.7,0.2c-1.4,0.1-3,0.3-1.3,0.3c-0.3,0.2,4.7,0.3,7,0.4c-3.3,0.7-4.3,1-5.3,1.6c-2.8-0.2-5.3,0.2-7.7,0.5
				C332.7,8.9,330.4,9.2,327.8,9.4z"/>
			<path class="st2" d="M274.6,393.8c-0.3,0.1,0.5,0,0.9-0.1l2.5-0.6l2.5-0.7l2.5-0.7c0.8-0.2,1.6-0.5,2.4-0.8l0.3,0.1
				c1-0.3,2-0.5,3-0.8c0.9-0.3,1.8-0.6,2.7-0.9c1.8-0.5,3.5-1.2,5.2-1.8c3.4-1.3,6.9-2.8,11.1-4.9c1.6-0.8,3.1-1.5,4.5-2.2
				c1.4-0.8,2.7-1.5,4-2.2c2.5-1.4,4.8-2.8,6.8-4.2c4.1-2.7,7.7-5.3,11.6-9.1c1-0.7,0.4-0.2-0.6,0.9c-0.5,0.5-1.2,1.2-1.9,1.8
				c-0.7,0.6-1.4,1.2-1.8,1.7c0.7-0.4-1.1,1.6,2.1-1.5c-1.2,1.2-1.8,1.9-2.3,2.5c-0.5,0.6-1,1.2-1.9,2.1c0.9-0.6,1.8-1.3,2.6-2
				c-1.5,1.5-3,2.7-4.2,3.7c-1.2,1-2.2,1.8-2.6,2.4c1.3-0.8,2.3-1.6,3.2-2.3c0.9-0.8,1.8-1.4,2.8-2.2c-0.7,0.6-1.5,1.1-2.1,1.7
				c-0.7,0.6-1.3,1.1-2.1,1.6c-1.5,1.1-2.7,2.1-4.6,3.3c-0.9,0.6-1.8,1.2-2.7,1.8c-0.9,0.6-1.9,1.1-2.9,1.7c-0.5,0.3-1,0.6-1.5,0.9
				c-0.5,0.3-1,0.5-1.6,0.8c-1.1,0.6-2.2,1.1-3.4,1.7c0.5-0.1,1.1-0.3,1.6-0.5c-1.1,0.6-2.2,1-3.2,1.5c-1,0.4-2,0.8-3,1.2
				c-1,0.4-2,0.8-3.1,1.2c-0.6,0.2-1.1,0.5-1.7,0.7c-0.6,0.2-1.3,0.5-1.9,0.7l0.7-0.1c-1.1,0.3-2.1,0.7-3.1,1c-1,0.3-2,0.5-2.9,0.8
				c-1,0.2-1.9,0.5-2.8,0.7c-0.9,0.2-1.8,0.4-2.7,0.6c-0.9,0.2-1.8,0.4-2.7,0.5c-0.9,0.1-1.9,0.3-2.8,0.4c-1,0.1-1.9,0.3-2.9,0.5
				c-1,0.1-2.1,0.2-3.2,0.4c-2.5,0.3-3.9,0.2-4.6,0.2c-0.7-0.1-0.6-0.2-0.2-0.4c0.4-0.2,1.2-0.4,2-0.6
				C273.3,394.3,274.1,394,274.6,393.8z"/>
			<path class="st2" d="M172.7,384.8c2-0.9,2.5-1,2.7-1c-1.4,0.9-4.8,2.5-7.4,3.4c-1,0.3-0.5,0,0.6-0.5
				C169.6,386.2,171.3,385.4,172.7,384.8z"/>
			<path class="st2" d="M182.3,378.2c0.9-0.6,0.2,0,0.3,0c-0.3,0.3-0.8,0.6-1.2,0.8c-0.4,0.2-0.7,0.3-0.5,0.1
				C181.3,378.9,181.8,378.5,182.3,378.2z"/>
			<path class="st2" d="M254.4,399.3l1.5,0L254.4,399.3z"/>
			<polygon class="st2" points="330,369.3 330.2,369.1 332.1,367.5 331.9,367.8 			"/>
			<path class="st2" d="M305.6,388c-1.7,0.6-3.4,1.1-5.1,1.7l4.5-1.6L305.6,388z"/>
			<path class="st2" d="M339.8,367.9c0.6,0.5,0.4,0.5-0.6-0.3C338.4,366.8,338.8,367,339.8,367.9z"/>
			<path class="st2" d="M339.9,369.1l3.3,2.9L339.9,369.1z"/>
			<path class="st2" d="M339.2,369.6c-0.6-0.2,1.9,1.7,2.7,2.4c-1.1-0.8-2-1.6-3.1-2.5c-0.5-0.5-1-1-1.6-1.6
				c-0.3-0.3-0.6-0.6-0.9-0.9c-0.2-0.1-0.3-0.3-0.5-0.4l-0.2-0.2l-0.1-0.1l-0.1-0.1c0,0,0,0-0.1,0.1c-0.3,0.3-0.5,0.6-0.8,0.9
				c0.3-0.3,0.5-0.6,0.8-0.9l0.1-0.1c0,0,0,0,0.1,0l0.1,0.1l0.2,0.2c0.1,0.1,0.3,0.3,0.4,0.4c0.3,0.3,0.6,0.6,0.9,0.9
				C337.8,368.3,338.5,368.9,339.2,369.6z"/>
			<path class="st2" d="M518.1,336.4c0.4-0.8,0.9-1.7,1.3-2.6c0.4-0.9,0.7-1.8,1.1-2.8c0.2-0.5,0.4-0.9,0.6-1.4l0.5-1.4
				c0.3-1,0.6-1.9,0.9-2.9c0.2-1,0.5-1.9,0.7-2.8c0.2-0.9,0.5-1.8,0.7-2.7c0.3-1.8,0.8-3.3,1-4.7c0,0.2-0.1,0.8-0.1,1.3
				c-0.1,0.4-0.1,0.7,0,0.4c0.4-2.5,0.6-4,0.8-5c0.2-1,0.3-1.6,0.5-2.1c0.1-0.5,0.3-1.1,0.4-2.1c0.1-1,0.2-2.6,0.2-5.1l0,4
				c0.1-0.3,0.2-1.1,0.3-2.1c0-0.5,0.1-1.1,0.1-1.7c0-0.7,0-1.4,0-2.1c0,0.7,0.1,1.6,0,2.4c0,0.8-0.1,1.6-0.1,2.3
				c0.4-1.5,0.7,0.5,0.8,2.1c0,0-0.1,0.3-0.2,0.9c0,1.4,0.1,2.4,0,3.8c-0.1,0.7-0.1,1.4-0.2,2.4c-0.1,1-0.2,2.1-0.5,3.5
				c0.1,0.1,0.2-0.4,0.4-1c0.1-0.6,0.3-1.4,0.4-2.1c-0.3,1.6-0.8,3.7-1.3,6c-0.2,1.2-0.6,2.4-0.9,3.6c-0.3,1.3-0.7,2.5-1.1,3.8
				c-1.6,5.1-3.9,10.1-6,13.3c-0.5,1.2-1,2.1-1.5,2.8c-0.5,0.7-0.9,1.3-1.2,1.9c-0.7,1.1-1.5,1.9-2.5,3.2c-1.2,1.7-1.9,2.5-2.3,2.8
				s-0.4,0.2-0.4-0.1c0.8-1.5,1.6-3.3,2.9-5.7c0.6-1.2,1.3-2.6,2.1-4.3c0.4-0.8,0.8-1.7,1.2-2.6
				C517.2,338.4,517.6,337.4,518.1,336.4z"/>
			<path class="st2" d="M215.1,398.4c3.4,1.2,2.8,1.2,2.1,1.1c-3.6-1-6.6-2.3-7.9-3c0.1,0,1.1,0.3,2.2,0.7
				C212.7,397.6,214.1,398.1,215.1,398.4z"/>
			<path class="st2" d="M389.6,393.3c1.2,0.3,2.4,0.6,3.6,0.8C392,393.9,390.9,393.5,389.6,393.3z"/>
			<path class="st2" d="M301.2,394c0.3-0.1,0.6-0.2,0.8-0.3l-2.7,1C299.5,394.5,300.4,394.3,301.2,394z"/>
			<path class="st2" d="M311.1,390.1l0.1,0l-2.5,1C309.8,390.5,310.7,390.2,311.1,390.1z"/>
			<path class="st2" d="M308.2,392.4c2.3-1,4.7-2,6.9-3.2c-2.8,1.6-3.7,2.1-4.4,2.5c-0.7,0.4-1.2,0.8-3.6,2c-3,1.1-8.5,3.4-12.4,4.2
				c-1.4,0.3-1.2,0,1.3-0.9c1.1-0.3,2.4-0.9,3.8-1.4c0.7-0.3,1.4-0.5,2.1-0.8c0.7-0.3,1.4-0.6,2-0.8c1.3-0.5,2.4-1,3.2-1.3
				C308,392.4,308.3,392.2,308.2,392.4z"/>
			<polygon class="st2" points="525.2,304.8 525.2,306 525.2,305.3 			"/>
			<polygon class="st2" points="308.7,392.1 308.3,392.2 309.2,391.7 			"/>
			<path class="st2" d="M548,239l0,1c0,0.3-0.1,0.7-0.1,1c0-0.5,0.1-1,0.1-1.4L548,239z"/>
			<path class="st2" d="M300.2,396.7l2.5-0.8L300.2,396.7z"/>
			<polygon class="st2" points="526.1,305.8 526.1,303.5 526.2,302.2 526.1,300.9 526.2,302.2 526.1,303.5 			"/>
			<polygon class="st2" points="525.3,293.4 525.6,296.1 525.5,295.2 			"/>
			<path class="st2" d="M531.9,287.6c1.2-0.7,0.2,0-0.3,0.3C531.1,288.1,530.5,288.5,531.9,287.6z"/>
			<path class="st2" d="M527.7,302.6c0.1,0.6-0.1,1.1-0.1,1.7C527.6,303.5,527.7,303.4,527.7,302.6z"/>
			<path class="st2" d="M528.4,306.4c-0.1,1.1-0.2,2.4-0.3,3.6c-0.1,1.1-0.1,2-0.2,2.4c0.1-1,0.1-2.4,0.2-3.5
				C528.2,307.7,528.3,306.7,528.4,306.4z"/>
			<path class="st2" d="M530.2,289.7c1.4-0.7,2.7-1.6,4-2.4C532.9,288.2,531.6,289,530.2,289.7z"/>
			<polygon class="st2" points="527.6,299 527.8,300.8 527.8,302 527.6,299.9 			"/>
			<path class="st2" d="M332,380c0.6-0.4,0.2,0.1-0.4,0.6c-0.6,0.5-1.4,1.1-1.4,0.9C330.5,381.2,331.3,380.5,332,380z"/>
			<path class="st2" d="M334.8,376.9c0.1,0.2-1.7,1.8-1.6,1.5C333.9,377.8,334.4,377.2,334.8,376.9z"/>
			<path class="st2" d="M333.5,379.5c0,0.2-0.7,0.7-1.2,1.1C332.8,380.2,332.8,380,333.5,379.5z"/>
			<path class="st2" d="M333.6,382.5c-0.5,0.6-0.8,0.9-1.1,1.3c-0.1,0.2-0.3,0.3-0.5,0.5c-0.3,0.2-0.7,0.5-1.2,0.8
				c0.2-0.2,0.4-0.4,0.7-0.7c0.1-0.1,0.3-0.2,0.4-0.4c0.1-0.1,0.2-0.2,0.3-0.3C332.6,383.4,333.1,383,333.6,382.5z"/>
			<path class="st2" d="M333.3,383.4c-0.1,0-0.1,0.4-0.5,0.5L333.3,383.4z"/>
			<polygon class="st2" points="334.2,382.3 333.7,382.8 334,382.5 			"/>
			<path class="st2" d="M334.6,382.2c-0.2,0.2-0.4,0.5-0.6,0.7C334.2,382.7,334.4,382.5,334.6,382.2L334.6,382.2z"/>
			<path class="st2" d="M344.6,388.1c0.4,0.3,0,0.1-0.6-0.2c-0.6-0.4-1.4-1-1.8-1.3C342.5,386.7,343.5,387.5,344.6,388.1z"/>
			<path class="st2" d="M566.6,235.6l0.2-3.4c0.1,0.6,0.2,1.4,0.2,2.5c0,1,0.1,2.2,0,3.4c-0.1,1.2-0.2,2.4-0.3,3.4
				c-0.1,1-0.3,1.9-0.4,2.4c-0.3,0.7-0.2-0.6,0-2.5c0-0.9,0.1-2,0.2-3c0-0.5,0.1-1,0.1-1.5C566.7,236.4,566.7,236,566.6,235.6z"/>
			<path class="st2" d="M536.3,296.7c0.1,0.2,0.2,1.5,0.3,2.6c-0.1,0.8-0.1,0.2-0.3-0.6C536.2,297.8,536.2,296.8,536.3,296.7z"/>
			<polygon class="st2" points="567.7,257.9 566.1,261.4 567.6,257.6 			"/>
		</g>
	</g>
	<g class="st1">
		<path class="st2" d="M520.7,174.3c-2.3-0.9-4.5-1.3-6.8-1.3c-3.5-0.2-6.6-1.7-10.5-1.9c-1-0.1-1.9-0.1-2.8-0.1
			c-0.9,0.1-1.8,0.1-2.7,0.2c-1.9-0.2-3.9-0.1-5.9,0.2c-2,0.3-4,0.8-6,1.6c-0.5,0.1-1.9,0.3-1.1,1.3c-4.1,1-8.2,2.4-11.3,5.1
			c-1.4,1-3.6,1.3-4.9,2.4c-2,1.9-5.1,2.6-7.1,4.4c-0.1,0.4-0.3,1.3-0.6,1.5c-1.9,0.8-3,2.1-3.8,3.6c-0.7,1.5-1.2,3.1-1.7,4.5
			c-0.1,0.3-0.2,0.5-0.3,0.8c-0.1,0.2-0.2,0.5-0.2,0.7c-0.2,0.5-0.4,0.9-0.6,1.4c0.5,0.3,0.3,0.5,0.3,0.8c-0.1,0.2-0.4,0.5-0.7,0.9
			c-0.3,0.4-0.8,0.9-1.1,1.5c-0.2,0.3-0.4,0.5-0.6,0.8c-0.2,0.3-0.3,0.5-0.5,0.7c-0.3,0.4-0.6,0.7-0.8,0.8c-0.2,0.1-0.1-2.1,0.6-4.3
			c0.6-2.2,1.8-4.4,1.5-4.5c-0.1,0-0.4,0.4-0.7,0.9c-0.4,0.5-0.7,1.3-1.1,2c-0.4,0.7-0.6,1.5-0.8,2.1c-0.2,0.6-0.3,1.1-0.4,1.2
			c-0.1-2.9,0.6-5.4,1.2-7.4c0.4-1,0.7-1.9,1-2.6c0.3-0.8,0.6-1.4,0.9-2c0.5-1.1,0.9-1.8,1.1-2.2c0.2-0.4,0.1-0.5,0-0.3
			c-0.2,0.2-0.5,0.6-0.9,1.1c-0.4,0.6-0.9,1.3-1.3,2.2c-0.9,1.7-1.8,3.9-2.2,5.8c-0.3,0.5-0.5,1.2-0.6,2.1c-0.1,0.9-0.2,1.8-0.5,2.9
			c0-0.3-0.1-0.8-0.3-1.3c-0.1-0.5-0.2-1.1-0.3-1.6c-0.2-1.1-0.2-2.1-0.1-2.4c0.2-0.8,0.3-1.4,0.3-1.9c0.1-0.5,0.1-0.9,0.2-1.3
			c0.2-0.8,0.5-1.6,1.8-3.1c0.5-0.6,1.1-1.3,1.6-2.2c0.6-0.8,1.2-1.7,1.8-2.6c1.2-1.8,2.5-3.5,3.4-4.5c-0.5,1.6-1.4,5.1-3,6.4
			c2-1.2,2.5-2.4,3-3.8c0.5-1.3,0.9-2.8,2.9-4.1c0.3-0.3,0.7-0.7,1-1.1c0.5-0.2,1-0.4,1.6-0.7c3.3-2.2,5.6-4.7,9.2-6.5
			c-0.3,0.2-0.8-0.2-1.2,0c-3.6,1-5.1,3.5-8.3,5.3c-0.7,0.3-0.8,1.5-1.4,1.9c-1.2,0.9-2.6,1.3-4,1.9c1.6-2.3,4.4-4,6.8-5.8
			c0.5-0.4,0.7-1.3,0.8-1.8c-1.2,0.7-2.3,1.4-3.5,2.3c-1.9,1.5-3.7,3.7-5.4,5.7c-1.7,2-3.3,3.8-5.2,4.6c0,0.1-0.1,0.2-0.1,0.4
			c-0.1,0-0.2,0-0.3,0.1c-0.5,0.5-1.1,1.1-1.9,1.4c0.5-0.5,0.9-0.9,1.4-1.4c1-2.4,2.9-4.4,4.9-6.2c2.1-1.8,4.4-3.4,6.3-5.2
			c0.8-0.9,3.1-1.2,3.9-2.1c2.5-2.3,5.8-4.1,9.6-5.2c3.3-1.1,6.7-2,10.2-2.5c3.5-0.5,6.9-0.7,10.3-0.6c6.7,0.2,13.1,1.6,18.8,3.9
			c0.3,0,0.6,0,0.8,0c-0.1-0.1-0.2-0.3-0.3-0.4c0.2,0.1,0.5,0.3,0.7,0.4c1.5,0.2,3,0.6,4.3,1.4c0.5,0.5-1-0.2-1.6,0.2
			c0.3,0.1,0.6,0.3,0.6,0.3s-0.1,0.2-0.2,0.5c0.3-0.1,0.3,0.3,0.5,0.5c-3.1-0.6-6.3-0.8-9.5-1c0.3,0.7,1.3,0.6,1.7,0.8
			c1.1-0.1,2.1-0.1,3,0.2c2.7,0.2,5.1,1.8,7.4,2.7c0.4,0.3,0.8,0.6,1.1,1c0.3,0.3,0,0.5-0.4,0.6
			C521.6,174.5,521.1,174.5,520.7,174.3z M479.7,167.7c1.1-0.1,2.2-0.1,3.3-0.1c0.3-0.1,0.7-0.2,1-0.2c0.4-0.1,0.9-0.2,1.3-0.5
			c1-0.1,1.9-0.2,2.9-0.3c1,0,1.9-0.1,2.8-0.1c-1-0.3-2.1-0.5-3.2-0.5c-1.1,0-2.3,0-3.4,0.3c2.9-1,5.9-1.1,8.8-0.8
			c2.9,0.3,5.6,0.9,8.3,1.5c1.6,0.1,3.2,0.2,4.8,0.4c1.1,0,2.3,0,3.4-0.1c-6.9-1.7-14.5-3-22.5-2.4c-4,0.3-8,1.2-11.8,2.4
			c-3.8,1.3-7.3,2.9-10.5,4.8C469.8,170.5,474.5,168.7,479.7,167.7z M478.5,169.1c-1.8,0.7-3.5,1.6-5.1,2.6
			c-4.5,2.4-9.2,5.3-10.5,8.5c3.1-3,6.5-6,10.5-8.5c-2,1.1-2.3,1.3-1.4,0.8c0.9-0.5,3-1.6,5.8-3
			C477.9,169.4,478.2,169.3,478.5,169.1z"/>
		<path class="st2" d="M506.8,164.2c2.2,0.9,4.3,1.7,6.2,2.7c-0.7-0.9-1.3-1.6-2.3-2.3c-2.5-1.5-5.6-1.7-8.5-2.3
			c-4.2-1-8.7-1.3-13.3-0.9c-2.3,0.2-4.6,0.6-6.9,1.3c-2.3,0.6-4.4,1.4-6.5,2.3c-0.4,0.1-1.4,0.5-1.9,1c5.4-2,11.2-3.5,16.8-3.7
			C496.2,161.9,501.7,162.5,506.8,164.2z"/>
		<path class="st2" d="M461,171.9c-1.1,1-2.3,2.1-3.5,2.9c1.5-0.4,3.1-1.3,4.4-2.1c1.7-1.2,3.3-2.4,5-3.5
			C464.8,170,462.8,170.8,461,171.9z"/>
		<path class="st2" d="M473.7,165.9c-0.4,0.2-0.9,0.3-1.3,0.5c-2,0.8-3.8,1.7-5.6,2.8c2.2-0.8,4.4-1.4,6.7-2.1
			C473.2,166.7,473.4,166.3,473.7,165.9z"/>
	</g>
	<g class="st1">
		<path class="st2" d="M480.8,145c-0.1-1.5-0.2-2.9-0.4-4.3c-0.3-1.4-0.7-2.7-1.1-4c-0.3-1-0.5-2.1-0.7-3.1c-0.2-1-0.3-2.1-0.5-3.1
			c-0.1-1-0.2-2.1-0.4-3.2c-0.2-1.1-0.4-2.2-0.8-3.3c-0.3-1.1-0.6-2.2-1-3.2c-0.4-1-0.8-2-1.3-3.1c-0.3-1.1-0.5-2.3-0.9-3.4
			c-0.4-1.1-0.9-2.3-1.3-3.4c-0.9-2.3-2.2-4.6-3.6-6.9c-0.1-0.3-0.3-0.8-0.6-1.2c-0.3-0.4-0.8-0.6-1.3-0.2c-0.6-1.1-1.2-2.3-1.7-3.4
			c-0.6-1.1-1.2-2.3-1.9-3.3c-0.7-1.1-1.4-2.1-2.2-3.1c-0.4-0.5-0.8-1-1.3-1.5c-0.5-0.5-0.9-0.9-1.4-1.3c-0.8-0.8-1.3-1.7-1.9-2.6
			c-0.3-0.5-0.6-0.9-0.9-1.4c-0.3-0.4-0.7-0.8-1.1-1.2c-1.4-1.1-2.5-2.5-3.6-3.9c-1.1-1.3-2.3-2.7-3.7-3.8c-0.5-0.2-1.8-0.5-2-0.8
			c-1.5-1.9-3.5-3.2-5.6-4.3c-2.2-1-4.5-1.8-6.7-2.8c-1.6-0.8-3-1.3-4.5-2.2c-0.5,0.3-0.8,0.1-1.3,0c-0.3-0.2-0.8-0.6-1.5-1.1
			c-0.7-0.5-1.5-1.2-2.3-1.8c-1.6-1.3-3.1-2.7-3.2-3.1c-0.1-0.2,3.3,1.3,6.6,2.9c3.3,1.7,6.5,3.4,6.6,3.1c0-0.2-2.1-1.5-4.3-2.7
			c-0.5-0.3-1.1-0.6-1.6-0.9c-0.5-0.3-1-0.5-1.5-0.8c-0.9-0.5-1.6-0.8-1.7-0.9c1.1,0.4,2.1,0.7,3.1,1c1,0.3,1.9,0.7,2.8,1.1
			c1.8,0.7,3.4,1.3,4.8,1.9c2.8,1.2,4.9,2.2,6.5,2.8c3.1,1.4,4,1.8,3.5,1.4c-0.5-0.4-2.2-1.5-4.7-2.6c-1.2-0.6-2.5-1.2-3.9-1.8
			c-1.3-0.6-2.8-1.1-4.1-1.6c-1.4-1-4-1.5-7-3c1,0.3,2.7,0.5,4.2,0.7c1.5,0.3,2.9,0.5,3.3,0.7c2.2,0.8,3.2,1,4.3,1.3
			c1,0.4,2,0.8,4.1,2.3c0.8,0.6,1.9,1.2,3.1,1.9c1.1,0.7,2.4,1.4,3.6,2.1c2.5,1.3,4.9,2.7,6.4,3.8c-1.1-0.3-2.8-0.8-4.5-1.4
			c-1.7-0.6-3.4-1.3-4.4-2.2c1.9,2.2,3.7,2.7,5.5,3.3c1.8,0.6,3.8,1.1,5.9,3.3c0.4,0.4,1,0.8,1.6,1.1c0.4,0.5,0.7,1.1,1.2,1.7
			c0.9,0.9,1.8,1.7,2.7,2.5c0.9,0.8,1.7,1.6,2.6,2.4c0.9,0.8,1.7,1.6,2.5,2.5c0.8,0.9,1.5,1.8,2.2,2.8c-0.3-0.3,0.1-0.8-0.1-1.2
			c-0.4-1-0.9-1.8-1.6-2.6c-0.6-0.8-1.4-1.5-2.1-2.1c-1.5-1.4-3-2.7-4.6-4.4c-0.5-0.7-2.1-1-2.7-1.6c-0.7-0.6-1.2-1.3-1.7-2
			c-0.5-0.7-1-1.4-1.5-2.1c0.8,0.4,1.6,1,2.4,1.5c0.8,0.6,1.5,1.2,2.2,1.9c1.4,1.3,2.9,2.6,4.2,4c0.6,0.5,1.7,0.8,2.4,1.1l-1.7-2
			c-0.6-0.6-1.2-1.2-1.9-1.9c-1.2-1-2.5-2-3.9-3c-1.4-1-3-1.9-4.5-2.8c-2.8-1.9-5.6-3.5-6.7-5.5c-0.1,0-0.3-0.1-0.6-0.2
			c0-0.1-0.1-0.2-0.1-0.3c-0.7-0.5-1.5-1.2-2-2l1,0.7l0.9,0.8c3.1,1.2,6.1,3.1,8.7,5.3c1.3,1.1,2.7,2.2,3.9,3.4
			c1.3,1.2,2.5,2.3,3.9,3.4c1.4,0.8,2.2,3.3,3.4,4.2c1.7,1.4,3.3,3,4.6,4.8c0.7,0.9,1.3,1.8,1.9,2.7c0.6,0.9,1.1,1.9,1.6,2.8
			l2.6,5.1c0.8,1.7,1.5,3.5,2.2,5.2c0.3,0.9,0.7,1.7,1,2.6l0.9,2.7c0.5,1.8,1.2,3.5,1.6,5.3l1.2,5.3c0.3,1.8,0.5,3.6,0.8,5.3
			c0.3,1.7,0.3,3.5,0.4,5.3c0.1,1.8,0.2,3.5,0.1,5.2c0.1,0.3,0.2,0.6,0.3,0.9c0.1-0.2,0.2-0.3,0.3-0.5l-0.2,0.9
			c0.4,1.7,0.7,3.4,0.2,5.2c-0.3,0.7-0.2-1.2-0.8-1.6c0,0.4,0,0.8,0,0.8s-0.3,0-0.6-0.1c0.2,0.3-0.1,0.5-0.3,0.7
			c-0.1-0.9-0.4-1.8-0.6-2.7l-0.7-2.7c-0.4-1.8-1-3.6-1.6-5.4c-0.6,0.6-0.2,1.6-0.1,2.1c0.6,1.1,1,2.3,1,3.5
			c0.4,1.5,0.6,3.1,0.5,4.7c-0.1,1.6-0.3,3.2-0.2,4.7c-0.1,0.6-0.3,1.1-0.5,1.7c-0.2,0.4-0.5,0.2-0.9-0.2
			C481,146.1,480.8,145.6,480.8,145z M473.9,97.6c0.3,1.1,0.6,2.2,0.7,3.4c0.2,0.4,0.3,0.7,0.5,1.1c0.2,0.5,0.5,0.9,0.9,1.3l1,3
			l0.8,3.1c0-1.1,0-2.3-0.2-3.5c-0.2-1.2-0.6-2.3-1.2-3.6c0.4,0.8,0.8,1.5,1.2,2.3c0.2,0.4,0.4,0.8,0.5,1.1c0.1,0.4,0.3,0.8,0.4,1.2
			c0.5,1.6,0.9,3.1,1.2,4.7c0.1,0.4,0.2,0.8,0.2,1.2l0.1,1.2l0.2,2.3c0.1,0.8,0.2,1.5,0.2,2.3l0.1,1.2l0.1,1.2
			c0.4,1.8,0.9,3.6,1.5,5.4c0.4,1.3,0.9,2.5,1.4,3.7c-0.8-8.1-2.2-16.5-4.9-24.7c-2.7-8.2-6.8-16.3-12.8-23.5
			c0.7,1.3,1.5,2.6,2.3,3.9c0.7,1.3,1.4,2.6,2.1,3.9c0.7,1.3,1.4,2.5,2,3.9C472.8,94.9,473.4,96.2,473.9,97.6z M472,96.2
			c-0.6-1-1.2-1.9-1.9-2.9c-0.7-0.9-1.4-1.8-2.2-2.7c-3.6-5-8.4-10-12.7-11.7c1.1,0.9,2.2,1.7,3.4,2.6c0.6,0.4,1.1,0.9,1.7,1.4
			c0.5,0.5,1.1,1,1.6,1.5c1.1,1,2.1,2,3.2,3c1,1,2,2.2,2.9,3.3c-1.7-2.2-1.9-2.5-1.2-1.5c0.4,0.5,1,1.3,1.8,2.4
			c0.4,0.5,0.9,1.1,1.3,1.8c0.5,0.6,1,1.4,1.5,2.1C471.5,95.5,471.7,95.8,472,96.2z"/>
		<path class="st2" d="M486,126c-0.2,2.6-0.2,5.1-0.5,7.6c0.7-1.1,1.2-2,1.5-3.2c0.3-1.6,0.2-3.2,0.1-4.8c-0.2-1.6-0.6-3.2-0.7-4.8
			c-0.7-9.3-4.2-18.7-9.8-27.3c-0.2-0.5-0.8-1.4-1.5-2c0.8,1.4,1.5,2.8,2.3,4.2c0.4,0.7,0.8,1.4,1.1,2.1c0.3,0.7,0.6,1.4,1,2.1
			c0.6,1.4,1.2,2.8,1.9,4.2c0.5,1.4,1,2.9,1.5,4.3c1,2.8,1.6,5.8,2.3,8.7c0.3,1.4,0.4,2.9,0.6,4.4C485.8,123.1,486,124.5,486,126z"
			/>
		<path class="st2" d="M465.5,77.8c-1.6-1.2-3.1-2.5-4.4-3.8c0.8,1.6,2.3,3.3,3.6,4.6c1.9,1.8,3.7,3.7,5.4,5.6
			C468.7,82,467.3,79.8,465.5,77.8z"/>
		<path class="st2" d="M475.2,91.5c-0.2-0.5-0.5-0.9-0.8-1.3c-1.3-2-2.7-4.1-4.4-6c1.3,2.3,2.4,4.8,3.6,7.1
			C474.1,90.9,474.7,91.1,475.2,91.5z"/>
	</g>
	<g class="st4">
		<g>
			<g>
				<path class="st0" d="M71.2,291.5c-1.6-31.1,17.7-58.5,47-71.7c-2.7-7.5-4.3-15.5-4.8-23.7c-2.2-40.6,25.8-76.1,66.4-89.8
					c-2,0-4,0-6.1,0c-56.5,1.9-100.2,43.9-97.6,93.9c0.4,8.1,2,15.9,4.7,23.3c-28.7,13-47.7,39.9-46.1,70.4
					c2.2,41.8,42.3,74.4,89.6,72.8c6.2-0.2,12.3-1,18-2.3C103.5,357.6,73.2,328,71.2,291.5z"/>
			</g>
		</g>
	</g>
	<g class="st1">
		<path class="st2" d="M83.6,285.6c-1,0.8-1.6,1.8-1.9,2.9c-0.6,1.6-2.5,2.6-3.5,4.4c-0.5,0.8-0.8,1.7-0.9,2.6
			c-1.1,1.7-1.8,3.8-1.4,5.9c-0.1,0.2-0.3,1,1,0.7c-0.4,2.1-0.5,4.5,1.1,6.5c0.5,0.9-0.1,2.2,0.5,3c1.1,1.3,0.6,3.1,1.6,4.4
			c0.3,0.1,1.1,0.2,1.2,0.4c0,1.2,0.7,1.9,1.7,2.4c1,0.5,2.2,0.8,3.1,1.1c0.3,0.2,0.6,0.3,0.9,0.4c0.3,0.1,0.5,0.3,0.7,0.4
			c0.4-0.4,0.5-0.2,0.7-0.3c0.1,0.1,0.2,0.3,0.4,0.5c0.1,0.3,0.3,0.6,0.5,0.9c0.2,0.3,0.4,0.7,0.5,1c0.2,0.3,0.3,0.6,0.2,0.7
			c0,0.2-1.3-0.1-2.6-0.7c-1.3-0.6-2.6-1.4-2.8-1.2c-0.1,0.1,0.7,0.8,1.5,1.4c0.4,0.3,0.9,0.5,1.2,0.7c0.4,0.2,0.6,0.3,0.7,0.4
			c-2-0.1-3.7-0.7-5.1-1.2c-1.4-0.5-2.4-1.1-3.2-1.4c-1.6-0.8-2-1-1.9-0.8c0.1,0.2,1,0.9,2.1,1.6c1.1,0.7,2.7,1.4,4,1.7
			c0.3,0.3,0.8,0.4,1.4,0.5c0.6,0.1,1.3,0.3,1.9,0.5c-0.3,0-0.6,0.1-1,0.1c-0.4,0-0.9,0.1-1.3,0.1c-0.9,0.1-1.7,0.1-2,0
			c-1.1-0.4-1.8-0.4-2.4-0.5c-0.6-0.2-1.2-0.4-2-1.4c-0.7-0.8-1.9-1.6-3-2.5c-1.2-0.9-2.3-1.8-2.9-2.4c1.4,0.4,4.4,1.1,4.9,2.2
			c-0.3-1.4-1.3-1.7-2.4-2.1c-1.1-0.3-2.4-0.7-2.9-2c-0.1-0.2-0.4-0.5-0.7-0.7c0-0.3,0-0.6-0.1-1c-0.9-2.1-2.6-3.6-3.1-5.9
			c0.1,0.2-0.5,0.5-0.5,0.7c-0.3,2.2,1.7,3.3,2.3,5.3c0,0.4,1.2,0.6,1.4,1c0.4,0.8,0.2,1.7,0.4,2.5c-1.6-1.1-2.3-3-3.2-4.5
			c-0.2-0.3-1-0.5-1.5-0.6c0.3,0.8,0.6,1.5,1,2.2c0.8,1.3,2.3,2.5,3.6,3.7c1.3,1.2,2.4,2.3,2.4,3.6c0.1,0,0.2,0.1,0.3,0.1
			c0,0.1,0,0.1,0,0.2c0.3,0.3,0.6,0.8,0.6,1.4c-0.2-0.4-0.5-0.7-0.7-1c-1.9-0.8-3.1-2.2-4-3.6c-1-1.4-1.7-3-2.7-4.2
			c-0.6-0.5-0.1-1.9-0.6-2.5c-1.4-1.6-2-3.8-1.9-6.1c0-2,0.2-4.1,0.6-6.1c0.4-2,1.1-3.9,2.1-5.6c1.8-3.5,4.4-6.4,7.6-8.6
			c0-0.1,0.1-0.3,0.1-0.4c-0.2,0-0.3,0-0.4,0c0.2-0.1,0.4-0.2,0.5-0.2c0.3-0.7,0.9-1.4,1.9-1.8c0.6-0.1-0.3,0.5,0.1,0.9
			c0.2-0.1,0.3-0.2,0.3-0.2s0.2,0.1,0.5,0.3c-0.1-0.2,0.3-0.1,0.5-0.1c-0.8,1.4-1.4,2.9-2.1,4.5c0.8,0,0.9-0.4,1.1-0.6
			c0-0.5,0.1-1.1,0.5-1.4c0.4-1.3,2.4-2,3.4-2.8c0.3-0.1,0.7-0.2,1.1-0.2c0.3,0,0.5,0.2,0.6,0.5C83.9,285.2,83.9,285.5,83.6,285.6z
			 M68.4,304.3c0.2-0.6,0.6-1.2,1-1.8c0-0.2,0-0.4,0.1-0.6c0.1-0.2,0-0.5-0.1-0.7c0.3-1.1,0.8-2.1,1.3-3.1c-1.1,1-2.1,2.1-2.2,3.5
			c-0.1-1.7,0.6-3.4,1.6-4.8c1-1.4,2.4-2.7,3.6-3.9c0.4-0.8,0.9-1.5,1.2-2.3c0.2-0.6,0.3-1.1,0.4-1.7c-2.8,3-5.8,6.5-7.4,10.9
			c-0.8,2.2-1.2,4.6-1.2,6.9c0,2.3,0.4,4.6,1.1,6.6C67.8,310.2,67.6,307.3,68.4,304.3z M69.4,305.1c0.2,1.1,0.5,2.1,0.9,3.1
			c0.8,2.8,2,5.7,4.6,6.7c-1.8-2-3.5-4.2-4.6-6.7c0.4,1.3,0.5,1.4,0.3,0.9c-0.2-0.6-0.6-1.8-1-3.6C69.5,305.5,69.5,305.3,69.4,305.1
			z"/>
		<path class="st2" d="M71.2,289.4c1.3-0.9,2.5-1.7,3.9-2.4c-1,0.1-1.9,0.2-2.8,0.5c-2,0.9-2.6,2.4-4,3.8c-1.9,1.9-3.3,4.3-4,6.9
			c-0.7,2.6-0.8,5.5-0.3,8.1c0,0.3,0,0.9,0.4,1.2c-0.2-3.4,0-6.9,1.1-10C66.7,294.4,68.6,291.6,71.2,289.4z"/>
		<path class="st2" d="M65.9,315.6c0.6,0.8,1.2,1.5,1.6,2.4c0.2-1-0.2-2-0.5-2.8c-0.6-1.1-1.2-2.1-1.7-3.2
			C65.4,313.2,65.5,314.4,65.9,315.6z"/>
		<path class="st2" d="M64.4,307.5c0,0.3,0,0.5,0.1,0.8c0.1,1.2,0.4,2.4,0.9,3.6c0-1.4,0.2-2.8,0.3-4.1
			C65.1,307.9,64.7,307.8,64.4,307.5z"/>
	</g>
	<g class="st1">
		<path class="st2" d="M171.3,343.3c-2.1,3.7-4.5,6.4-6.8,9c-1.9,1.9-4.1,3.3-6.4,4.4c-1.1,0.5-2.3,1.1-3.4,1.5
			c-1.1,0.5-2.3,1-3.5,1.6c-2.5,1.1-4.8,2.1-7.7,3c-3,0.6-6.2,0.8-9.2,0.8c-3,0-6-0.3-8.9-0.5c-0.6-0.2-2.4-0.7-2.4,0.5
			c-5.6-1.3-10.7-3.3-16.1-4.8c-2.3-0.8-3.9-2.7-5.9-3.7c-1.7-0.8-3.1-2-4.3-3.3c-1.2-1.3-2.3-2.7-3.5-4c-0.5-0.3-1.7-0.7-1.9-1.1
			c-0.9-2.3-2.2-4.2-3.4-6.2c-1.2-2-2.5-4.1-3.1-6.3c-0.4-1.7-0.8-3-0.7-4.6c-0.6-0.2-0.5-0.5-0.7-1c0-0.6,0.5-2.6,1.1-4.3
			c0.6-1.8,1.4-3.4,1.8-3.6c0.2-0.1,0,2.9,0,6c0,3.2,0.4,6.5,0.8,6.3c0.2-0.2,0-2.3,0-4.5c0-2.2,0.2-4.3,0.3-4.6
			c0.5,3.7,1.1,6.8,1.9,9.2c0.8,2.4,1.7,4.1,2.4,5.3c0.7,1.2,1.3,1.8,1.7,2.2c0.3,0.3,0.5,0.4,0.4,0.1c-0.2-0.4-1.1-1.8-2-3.7
			c-0.9-1.9-1.8-4.4-2.4-6.6c0.1-1.4-0.8-3.4-0.6-6.1c0.2,0.8,0.7,2.1,1.3,3.2c0.5,1.1,1.1,2.1,1.1,2.5c0.5,1.7,1,2.4,1.4,3.1
			c0.4,0.7,0.6,1.5,1,3.3c0.3,1.5,1.4,3.3,2.8,4.8c1.4,1.5,3.1,2.7,4.1,3.5c-0.9-0.2-2.2-0.6-3.5-1.2c-1.3-0.7-2.5-1.6-2.8-2.6
			c0.5,2.2,2,3,3.4,3.6c1.5,0.6,3,1,4.6,2.6c0.4,0.3,0.8,0.5,1.4,0.7c0.3,0.4,0.6,0.8,1.1,1.2c1.6,1.1,3.4,1.8,5.2,2.4
			c1.8,0.6,3.6,1.1,5.5,1.8c-0.3-0.1-0.4-0.7-0.7-0.8c-1.4-1-2.9-1.4-4.4-1.9c-1.5-0.5-3-1-4.4-2c-0.4-0.5-1.8-0.3-2.3-0.7
			c-1.2-0.8-1.7-2-2.3-3c2.3,1.2,4.5,3,7,4.2c0.5,0.2,1.5,0,2-0.1c-1.1-0.6-2.1-1.2-3.2-1.8c-1.9-1-4.3-1.9-6.2-3.3
			c-2-1.3-3.4-3-3.1-4.6c-0.1-0.1-0.2-0.1-0.3-0.2c0-0.1,0.1-0.1,0.1-0.2c-0.1-0.2-0.2-0.5-0.3-0.8c0-0.3,0-0.6,0.1-0.9
			c0.1,0.5,0.2,0.9,0.4,1.4c1.7,1.4,2.9,2.9,4.4,4.4c1.5,1.5,3.2,3,5.4,3.9c1,0.3,1.9,1.9,3.1,2.1c3.1,0.7,6.1,1.9,9.4,3.3
			c2.9,1.1,6.2,2,9.4,2.7c3.2,0.7,6.3,1.1,9.5,0.9c3.2-0.2,6.6-1.2,10-2.3c3.3-1.1,6.7-2.4,10-4.1c0.2-0.2,0.5-0.5,0.7-0.7
			c-0.2,0-0.4,0-0.6,0c0.3-0.1,0.6-0.3,0.9-0.4c1.3-1.3,2.5-2.5,4.2-3.6c0.8-0.4-0.7,1.1-0.7,1.8c0.3-0.3,0.7-0.6,0.7-0.6
			s0.2,0.2,0.4,0.4c0.1-0.3,0.5-0.3,0.8-0.4c-2.5,3.5-5.6,6.3-9,8.5c0.9,0.3,1.8-0.5,2.3-0.8c1-1,1.9-1.9,3-2.7
			c1.3-1.3,2.8-2.4,4.2-3.7c1.5-1.3,2.9-2.8,3.9-4.5c0.5-0.6,1-1.2,1.5-1.8c0.2-0.1,0.3-0.1,0.4,0c0.1,0,0.1,0.1,0.2,0.2
			c0,0.1,0.1,0.2,0.1,0.4C171.9,341.7,171.7,342.6,171.3,343.3z M122.7,355.7c1,0.5,1.9,1,2.9,1.5c0.4,0.1,0.7,0.2,1.1,0.2
			c0.5,0.1,1,0.1,1.5,0.1c2,0.5,4,1,6.1,1.2c-2.2-0.8-4.2-1.7-6.7-2.1c3.2,0.3,6.1,0.9,9.3,1.2c3.1,0.3,6.6,0.2,9.9-0.6
			c1.9-0.7,3.6-1.5,5.3-2.4c1.2-0.7,2.2-1.5,3.2-2.4c-2,0.9-3.9,1.7-6,2.4c-2,0.7-4.1,1.3-6.2,1.7c-4.2,0.9-8.3,0.6-12.2-0.2
			c-3.9-0.8-7.8-2-11.3-3.2c-3.6-1.3-6.9-2.7-9.8-4.3C113.3,351.8,117.8,353.8,122.7,355.7z M120.7,356.1c-2.1-0.5-4.1-0.9-6-1.4
			c-2.6-0.8-5.2-1.9-7.6-2.9c-2.4-1-4.5-1.9-6.5-2.4c4.2,2.5,9,4,14.1,5.3c-2.3-0.8-2.6-0.9-1.6-0.5c1,0.4,3.4,1.2,6.8,1.8
			C120,356,120.3,356.1,120.7,356.1z"/>
		<path class="st2" d="M150.4,351.9c2.5-0.6,5-1.3,7.5-2.3c-1.3,0-2.5,0-3.8,0.1c-1.6,0.3-3.1,0.8-4.5,1.4c-1.4,0.5-2.9,1.1-4.4,1.4
			c-2.2,0.5-4.2,0.8-6.1,0.9c-1.9,0.1-3.7,0-5.6-0.1c-1.9-0.2-3.8-0.5-5.9-0.8c-2.1-0.4-4.1-0.7-6.1-1.2c-0.4-0.1-1.2-0.4-1.9-0.3
			c2.4,0.9,5,1.5,7.6,2.1c2.6,0.6,5.1,1,7.5,1.2c2.4,0.2,4.8,0.1,7.5-0.4C144.8,353.4,147.6,352.7,150.4,351.9z"/>
		<path class="st2" d="M109.1,345.7c-1.2-0.4-2.3-1-3.2-1.7c0.4,1.1,1.5,2,2.6,2.6c1.5,0.8,3.2,1.4,4.9,2
			C111.8,347.7,110.5,346.6,109.1,345.7z"/>
		<path class="st2" d="M119.6,351c-0.4-0.1-0.8-0.3-1.1-0.4c-1.7-0.7-3.5-1.3-5.2-1.9c1.6,1.1,3.3,2.2,5.3,3.1
			C118.7,351.3,119.2,351.1,119.6,351z"/>
	</g>
	<g class="st5">
		<g>
			<path class="st6" d="M554.6,234.2c-1.4-18.9-12.9-35.3-29.6-45.3c5.1,8,8.3,17.1,9,26.8c1.8,24.4-12.5,46.3-34.9,57.9
				c0.2,1.4,0.3,2.7,0.4,4.1c3.6,49.9-39.8,92.6-97,95.4c-5.4,0.3-10.8,0.1-16.1-0.3c14,5.6,29.6,8.5,46,7.7
				c53.2-2.6,93.5-42.3,90.2-88.7c-0.1-1.3-0.2-2.5-0.4-3.8C542.9,277.2,556.2,256.9,554.6,234.2z"/>
		</g>
	</g>
	<g class="st1">
		<path class="st2" d="M527,309.8c0-2.2-0.5-4.1-1.4-5.9c-1.2-2.9-0.9-6-2.3-9.1c-0.3-0.8-0.7-1.5-1-2.2c-0.4-0.7-0.8-1.4-1.3-2.1
			c-0.6-1.6-1.5-3.1-2.6-4.7c-1.1-1.5-2.5-2.9-4.1-4.2c-0.3-0.3-1.1-1.4-1.8-0.4c-2.7-2.9-5.8-5.6-9.9-7c-1.7-0.7-2.8-2.4-4.5-3
			c-2.8-0.9-4.8-3.1-7.6-3.9c-0.4,0-1.5,0.3-1.8,0.1c-1.6-1.2-3.4-1.6-5.3-1.6c-1.9,0-3.7,0.3-5.4,0.4c-0.3,0-0.6,0-0.9,0
			c-0.3,0-0.6,0.1-0.9,0.1c-0.6,0.1-1.1,0-1.7,0c-0.1,0.5-0.4,0.4-0.7,0.6c-0.2,0-0.7-0.1-1.3-0.2c-0.6-0.1-1.3-0.2-2-0.3
			c-0.4-0.1-0.7-0.1-1.1-0.2c-0.3,0-0.7-0.1-1-0.1c-0.6-0.1-1-0.2-1.2-0.3c-0.2-0.1,2.2-0.9,4.8-1.2c2.6-0.4,5.4-0.3,5.3-0.6
			c-0.1-0.1-0.5-0.2-1.2-0.2c-0.7-0.1-1.6-0.1-2.6-0.1c-0.9,0-1.9,0.1-2.6,0.2c-0.7,0.1-1.3,0.2-1.4,0.2c3-1.2,5.9-1.7,8.3-2
			c1.2-0.1,2.3-0.2,3.2-0.2c0.9-0.1,1.8-0.1,2.4-0.1c1.4,0,2.3,0,2.8,0c0.5,0,0.6-0.1,0.3-0.1c-0.2-0.1-0.8-0.2-1.5-0.3
			c-0.8-0.1-1.7-0.2-2.8-0.2c-2.2-0.1-4.8,0.1-7,0.5c-0.7-0.1-1.5,0.1-2.4,0.3c-0.9,0.3-2,0.5-3.2,0.8c0.3-0.2,0.8-0.4,1.3-0.7
			c0.5-0.3,1-0.6,1.5-0.9c1.1-0.6,2.1-1,2.5-1.1c0.9-0.2,1.6-0.3,2.1-0.5c0.5-0.2,1-0.3,1.4-0.4c0.9-0.2,1.9-0.2,3.9,0.2
			c0.9,0.2,1.9,0.3,3,0.5c1.1,0.2,2.3,0.3,3.5,0.4c2.3,0.3,4.6,0.6,6.1,1c-1.8,0.2-6,0.9-8,0.1c2.1,1.2,3.6,1,5.2,0.9
			c1.6-0.2,3.3-0.4,5.6,0.7c0.4,0.2,1,0.3,1.6,0.4c0.4,0.3,0.9,0.6,1.4,1c3.6,1.8,7.2,2.6,10.6,4.8c-0.3-0.1-0.2-0.7-0.4-1
			c-2.5-2.5-5.8-2.7-9-4.5c-0.6-0.4-1.9-0.1-2.6-0.4c-1.4-0.6-2.4-1.6-3.6-2.4c3,0.4,6,2,8.8,3.1c0.6,0.2,1.6,0,2.2,0
			c-1.2-0.7-2.5-1.3-3.8-1.9c-2.3-0.9-5.4-1.5-8.2-2c-2.8-0.6-5.4-1.1-7-2.3c-0.1,0-0.2,0-0.5,0c0-0.1-0.1-0.1-0.2-0.2
			c-0.7-0.2-1.6-0.5-2.3-1c0.7,0.2,1.4,0.4,2,0.6c2.9-0.2,5.8,0.5,8.5,1.5c2.7,1,5.3,2.2,8,3c1.3,0.3,2.5,2,3.7,2.3
			c3.4,1,6.7,3,9.4,5.6c2.5,2.2,4.8,4.6,6.8,7.1c2,2.6,3.6,5.2,4.8,8c2.5,5.5,3.7,11.1,3.6,16.5c0.1,0.2,0.2,0.4,0.3,0.7
			c0.1-0.1,0.2-0.3,0.3-0.4c0,0.2-0.1,0.5-0.2,0.7c0.5,1.3,0.6,2.6,0.2,4c-0.3,0.6-0.2-0.9-0.8-1.2c0,0.3,0,0.6,0,0.6s-0.3,0-0.6,0
			c0.2,0.2-0.1,0.4-0.3,0.6c-0.7-2.7-1.7-5.3-2.8-8c-0.6,0.5-0.1,1.3-0.1,1.7c0.5,0.8,1,1.6,1,2.5c0.9,2.2,0.2,4.8,0.2,7
			c-0.2,0.4-0.3,0.9-0.6,1.3c-0.2,0.3-0.5,0.2-0.8-0.1C527.2,310.6,526.9,310.2,527,309.8z M517.2,274.4c0.6,0.8,1,1.7,1.4,2.6
			c0.2,0.2,0.4,0.5,0.7,0.7c0.3,0.3,0.6,0.6,1,0.8c0.5,0.7,1,1.5,1.4,2.2c0.4,0.8,0.9,1.5,1.3,2.2c-0.1-0.9-0.4-1.9-0.7-2.8
			c-0.4-0.9-0.9-1.8-1.7-2.6c2.2,2,3.6,4.3,4.4,6.7c0.9,2.4,1.3,4.9,1.8,7.3c0.5,1.3,1.1,2.7,1.6,4c0.5,0.9,0.9,1.8,1.5,2.7
			c-1-6.2-2.8-12.7-6.7-18.9c-2-3.1-4.5-5.9-7.4-8.4c-2.9-2.5-6-4.7-9.3-6.6C510.2,267.6,514.1,270.6,517.2,274.4z M515.2,274
			c-1.5-1.2-3.2-2.2-4.8-3c-4.3-2.7-9.3-5.2-13.2-5.1c4.4,1.3,8.9,2.8,13.2,5.1c-2-1.2-2.3-1.3-1.4-0.8c0.9,0.5,2.9,1.7,5.5,3.4
			C514.7,273.6,514.9,273.8,515.2,274z"/>
		<path class="st2" d="M532,294.7c0,2.1,0,4.1-0.3,6.1c0.6-0.9,1.2-1.7,1.5-2.7c0.6-2.6-0.5-5.1-1-7.7c-0.6-3.8-2.2-7.5-4.5-11
			c-1.2-1.7-2.6-3.4-4.1-5c-1.6-1.6-3.3-3-5.1-4.3c-0.3-0.3-1.1-0.9-1.8-1.1c4.3,3.5,8.2,7.6,10.8,12
			C530.1,285.3,531.6,290,532,294.7z"/>
		<path class="st2" d="M505.1,261.1c-1.5-0.5-3.1-1-4.5-1.7c1,1.1,2.7,2,4,2.6c2,0.8,3.9,1.7,5.7,2.6
			C508.7,263.4,507.1,262.2,505.1,261.1z"/>
		<path class="st2" d="M516.6,268.9c-0.3-0.3-0.7-0.6-1-0.8c-1.6-1.3-3.4-2.4-5.3-3.3c1.7,1.4,3.3,3,4.9,4.5
			C515.6,268.8,516.1,268.8,516.6,268.9z"/>
	</g>
</g>
</svg>
