<svg xmlns="http://www.w3.org/2000/svg" width="27.532" height="27.532" viewBox="0 0 27.532 27.532">
  <g id="Group_48" data-name="Group 48" transform="translate(-5.499 -5.334)">
    <path id="Path_22" data-name="Path 22" d="M49.073,9.939a.752.752,0,0,1-.753.752h0a.752.752,0,0,1-.752-.752V6.086a.752.752,0,0,1,.752-.752h0a.752.752,0,0,1,.753.752Z" transform="translate(-29.055)" fill="#576a8a"/>
    <circle id="Ellipse_1" data-name="Ellipse 1" cx="7.475" cy="7.475" r="7.475" transform="translate(11.79 11.563)" fill="#576a8a"/>
    <path id="Path_23" data-name="Path 23" d="M47.568,77.767a.753.753,0,0,1,.753-.752h0a.753.753,0,0,1,.752.752V81.62a.753.753,0,0,1-.752.752h0a.753.753,0,0,1-.753-.752Z" transform="translate(-29.055 -49.507)" fill="#576a8a"/>
    <path id="Path_24" data-name="Path 24" d="M77.935,48.906a.752.752,0,0,1-.752-.753h0a.752.752,0,0,1,.752-.752h3.853a.752.752,0,0,1,.752.752h0a.753.753,0,0,1-.752.753Z" transform="translate(-49.509 -29.055)" fill="#576a8a"/>
    <path id="Path_25" data-name="Path 25" d="M10.1,47.4a.752.752,0,0,1,.752.752h0a.753.753,0,0,1-.752.752H6.251a.753.753,0,0,1-.752-.752h0a.752.752,0,0,1,.752-.752Z" transform="translate(0 -29.055)" fill="#576a8a"/>
    <path id="Path_26" data-name="Path 26" d="M69.794,21.662a.752.752,0,0,1-1.064,0h0a.753.753,0,0,1,0-1.064l2.725-2.724a.752.752,0,0,1,1.064,0h0a.753.753,0,0,1,0,1.064Z" transform="translate(-43.519 -8.509)" fill="#576a8a"/>
    <path id="Path_27" data-name="Path 27" d="M20.766,68.564a.752.752,0,0,1,1.064,0h0a.752.752,0,0,1,0,1.064l-2.724,2.724a.753.753,0,0,1-1.064,0h0a.753.753,0,0,1,0-1.064Z" transform="translate(-8.511 -43.518)" fill="#576a8a"/>
    <path id="Path_28" data-name="Path 28" d="M68.73,69.627a.752.752,0,0,1,0-1.064h0a.753.753,0,0,1,1.064,0l2.724,2.724a.753.753,0,0,1,0,1.064h0a.752.752,0,0,1-1.064,0Z" transform="translate(-43.519 -43.518)" fill="#576a8a"/>
    <path id="Path_29" data-name="Path 29" d="M21.83,20.6a.752.752,0,0,1,0,1.064h0a.753.753,0,0,1-1.064,0l-2.724-2.724a.752.752,0,0,1,0-1.064h0a.752.752,0,0,1,1.064,0Z" transform="translate(-8.511 -8.509)" fill="#576a8a"/>
  </g>
</svg>
