<?xml version="1.0" encoding="utf-8"?>
<!-- Generator: Adobe Illustrator 24.2.0, SVG Export Plug-In . SVG Version: 6.00 Build 0)  -->
<svg version="1.1" id="Warstwa_1" xmlns="http://www.w3.org/2000/svg" xmlns:xlink="http://www.w3.org/1999/xlink" x="0px" y="0px"
	 viewBox="0 0 798.8 680.6" style="enable-background:new 0 0 798.8 680.6;" xml:space="preserve">
<style type="text/css">
	.st0{fill:#2B2F35;}
	.st1{fill:#16859E;}
	.st2{fill:#27CBDE;}
	.st3{fill:#AEEDED;}
	.st4{opacity:0.8;}
	.st5{fill:#FFFFFF;}
	.st6{fill:#8DDEE2;}
	.st7{opacity:0.45;}
	.st8{opacity:0.28;}
	.st9{fill:#72CECE;}
</style>
<g>
	<g>
		<path class="st0" d="M294.3,268.6c-20.7,2.2-41.5,2.3-62.2,0.6c-20.7-1.8-41.3-5.5-61.4-11.1c-20-5.5-39.5-12.8-58.2-21.8
			c-18.7-9-36.7-19.7-53.5-31.9c-16.8-12.2-32.4-26-46.5-41.1c-1.8-1.9-3.6-3.9-5.3-5.8c-1.3-1.4-3.4,0.7-2.1,2.1
			c13.9,15.7,29.4,29.9,46,42.6c16.6,12.7,34.4,23.9,53.1,33.3c18.7,9.5,38.2,17.3,58.2,23.3c20,6,40.6,10.2,61.4,12.5
			c20.8,2.3,41.8,2.7,62.7,1c2.6-0.2,5.2-0.5,7.8-0.7C296.2,271.4,296.2,268.4,294.3,268.6L294.3,268.6z"/>
		<ellipse transform="matrix(0.2208 -0.9753 0.9753 0.2208 -144.7151 123.6045)" class="st0" cx="5" cy="152.4" rx="7.8" ry="4.8"/>
	</g>
	<g>
		<path class="st1" d="M707.9,646.5l41.3-63.5c3.5-5.4,2-12.6-3.4-16.1L721,550.7c-5.4-3.5-12.6-2-16.1,3.4l-25.1,38.5
			c-12.5,19.1-7.1,44.8,12.1,57.3l0,0C697.2,653.4,704.4,651.9,707.9,646.5z"/>
		<path class="st2" d="M703,642.9l41.3-63.5c3.5-5.4,2-12.6-3.4-16.1L716,547.2c-5.4-3.5-12.6-2-16.1,3.4l-25.1,38.5
			c-12.5,19.1-7.1,44.8,12.1,57.3l0,0C692.3,649.8,699.5,648.3,703,642.9z"/>
		<path class="st0" d="M693.9,577.7c9.7-2.8,18.4-8.7,24.6-16.6c1.2-1.5-1-3.5-2.2-2c-5.9,7.6-14.1,13.1-23.4,15.8
			C691.1,575.4,692.1,578.2,693.9,577.7L693.9,577.7z"/>
		<path class="st0" d="M688.7,608.2c-4.8-6-11.4-10.4-19-12c-1.9-0.4-2.5,2.5-0.6,2.9c6.8,1.4,12.8,5.3,17.1,10.7
			C687.4,611.3,689.9,609.7,688.7,608.2L688.7,608.2z"/>
		<path class="st0" d="M692.2,599.8c-4.8-6-11.4-10.4-19-12c-1.9-0.4-2.5,2.5-0.6,2.9c6.8,1.4,12.8,5.3,17.1,10.7
			C690.9,603,693.4,601.4,692.2,599.8L692.2,599.8z"/>
		<path class="st0" d="M696.1,591.5c-4.8-6-11.4-10.4-19-12c-1.9-0.4-2.5,2.5-0.6,2.9c6.8,1.4,12.8,5.3,17.1,10.7
			C694.8,594.7,697.3,593.1,696.1,591.5L696.1,591.5z"/>
	</g>
	<g>
		<path class="st1" d="M537.9,677.5l55.8-51.2c4.7-4.3,5-11.7,0.7-16.4L574.3,588c-4.3-4.7-11.7-5-16.4-0.7L524,618.4
			c-16.8,15.5-17.9,41.6-2.5,58.5l0,0C525.9,681.6,533.2,681.9,537.9,677.5z"/>
		<path class="st2" d="M533,672.2l55.8-51.2c4.7-4.3,5-11.7,0.7-16.4l-20.1-21.9c-4.3-4.7-11.7-5-16.4-0.7L519,613
			c-16.8,15.5-17.9,41.6-2.5,58.5v0C520.9,676.2,528.3,676.5,533,672.2z"/>
		<path class="st0" d="M540.3,606.7c10.1-0.3,20-3.8,28-10c1.5-1.2-0.1-3.7-1.6-2.5c-7.6,5.9-16.9,9.2-26.5,9.5
			C538.3,603.8,538.4,606.8,540.3,606.7L540.3,606.7z"/>
		<path class="st0" d="M527.8,635c-3.2-7-8.5-12.9-15.4-16.3c-1.7-0.9-3.1,1.8-1.4,2.7c6.2,3,11.1,8.3,14,14.6
			c0.3,0.7,1.1,1.2,1.9,1C527.5,636.6,528.1,635.7,527.8,635L527.8,635z"/>
		<path class="st0" d="M533.2,627.7c-3.2-7-8.5-12.9-15.4-16.3c-1.7-0.9-3.1,1.8-1.4,2.7c6.2,3,11.1,8.3,14,14.6
			c0.3,0.7,1.1,1.2,1.9,1C532.9,629.4,533.5,628.5,533.2,627.7L533.2,627.7z"/>
		<path class="st0" d="M539,620.7c-3.2-7-8.5-12.9-15.4-16.3c-1.7-0.9-3.1,1.8-1.4,2.7c6.2,3,11.1,8.3,14,14.6
			c0.3,0.7,1.1,1.2,1.9,1C538.8,622.3,539.4,621.4,539,620.7L539,620.7z"/>
	</g>
	<path class="st0" d="M503.7,372.2c2.5,22.1,12.6,42.6,27.8,58.7c7.6,8,16.2,14.9,25.5,20.8c7.7,4.8,15.8,8.9,24.1,12.6
		c17.1,7.8,34.8,14.4,51.8,22.3c16.7,7.8,33.4,16.8,46.8,29.7c6.3,6,11.8,13,15.8,20.8c4.2,8.2,6.7,17.1,7.6,26.2
		c0.2,2.5,0.4,5.1,0.4,7.7c0,1.9,3,1.5,3-0.4c-0.1-9.6-1.7-19.2-5.3-28.2c-3.2-8.2-8-15.7-13.8-22.4c-12.1-13.8-28-23.6-44.3-31.8
		c-17-8.6-34.8-15.4-52.3-22.9c-8-3.4-15.9-7-23.5-11.1c-9.5-5.1-18.5-11.3-26.6-18.5c-16.3-14.6-28.5-33.8-32.8-55.4
		c-0.6-2.8-1-5.6-1.3-8.5C506.5,369.9,503.5,370.3,503.7,372.2L503.7,372.2z"/>
	<path class="st0" d="M315,371.8c5.5,25.4,16.7,49.5,31.9,70.5c7.6,10.5,16.1,20.2,25.5,29c10.4,9.8,22.3,18,34.7,25.1
		c23,13,47.8,22.2,71.8,33.1c16.2,7.4,32.3,15.6,46.5,26.3c12.9,9.7,27.4,23.3,27.9,40.7c0.1,1.9-0.1,3.8-0.4,5.6
		c-0.3,1.9,2.6,2.6,2.9,0.7c2.8-17.5-8.8-32.6-21.3-43.4c-14-12.1-30.5-21.2-47.1-29.2c-22-10.5-45-19-66.8-29.9
		c-12.7-6.4-25.1-13.7-36.3-22.5c-10.5-8.3-20-18-28.5-28.5c-16.5-20.3-29-43.9-35.9-69.2c-0.8-3.1-1.6-6.1-2.3-9.2
		C317.4,369,314.5,369.9,315,371.8L315,371.8z"/>
	<g>
		<path class="st3" d="M660.9,254c-2.4-34.3-26.6-61.8-58.1-70.1c0.8-8.7,0.9-17.5,0.2-26.5c-6.5-91.3-85.7-160-177-153.5
			c-62.2,4.4-114,42.7-138.5,95.5c-7.1-0.8-14.4-0.9-21.9-0.4c-66.6,4.7-116.7,62.5-112,129.1c0.8,10.8,2.9,21.1,6.3,30.9
			c-33.5,18.4-55,55.1-52.1,95.7c3.9,55.7,52.3,97.6,108,93.7c22.7-1.6,43.1-10.6,59.1-24.5c20.6,19.8,49.3,31.2,80,29
			c30.3-2.1,56.7-17,74.3-39c22.3,24.9,55.4,39.6,91.3,37c61.6-4.4,108.1-57.9,103.7-119.5c-0.1-1.7-0.3-3.4-0.5-5.1
			C647.8,311.4,663,284.1,660.9,254z"/>
		<g class="st4">
			<path class="st5" d="M665.1,253.7c0.1,6.3-0.1,14.5-2.4,23.8c-0.6,2.3-1.2,4.7-2.1,7.1c-0.8,2.5-1.8,4.9-2.9,7.4
				c-2.3,4.9-5.1,9.9-8.7,14.8c-3.6,4.8-7.8,9.4-12.7,13.6c-0.6,0.5-1.2,1-1.8,1.6c-0.6,0.5-1.3,1-1.9,1.5c-0.7,0.5-1.3,1-2,1.5
				l-0.5,0.4c-0.2,0.1-0.3,0.3-0.4,0.3l-0.7,0.4l-1.4,0.9l-0.7,0.5c0,0-0.2,0.1-0.1,0.1l0,0.2l0,0.4l0.1,1.7c0,0.6,0.1,1,0.1,1.9
				c0.8,13.4-0.9,27.5-5.1,41c-4.2,13.5-11.1,26.3-20,37.3c-8.8,11-19.5,20-30.9,26.7c-5.7,3.3-11.5,6.1-17.3,8.3
				c-5.8,2.2-11.6,3.8-17.2,5c-1.4,0.3-2.8,0.5-4.2,0.8c-1.4,0.2-2.8,0.4-4.1,0.6c-0.7,0.1-1.3,0.2-2,0.3c-0.7,0.1-1.3,0.1-2,0.2
				c-1.3,0.1-2.6,0.2-3.9,0.3c-2.6,0.1-5.1,0.2-7.5,0.2c-1.2,0-2.4-0.1-3.6-0.1c-1.2,0-2.3,0-3.4-0.2c-1.7-0.1-3.4-0.3-5.1-0.4
				c-1.7-0.2-3.3-0.5-4.9-0.7c-1.6-0.2-3.2-0.5-4.7-0.8c-1.5-0.3-3.1-0.6-4.5-1c-1.5-0.4-2.9-0.8-4.3-1.1c-1.4-0.4-2.8-0.9-4.1-1.3
				c-2.7-0.8-5.3-1.9-7.8-2.9c-1.3-0.5-2.4-1.1-3.6-1.6c-1.2-0.5-2.3-1.1-3.4-1.6c-2.2-1.2-4.3-2.2-6.3-3.4c-1-0.6-1.9-1.2-2.9-1.8
				c-0.9-0.6-1.9-1.1-2.7-1.8c-0.9-0.6-1.7-1.2-2.6-1.8c-0.8-0.6-1.7-1.1-2.4-1.8c-2.6-2-3-2.4-1.7-1.3c1.4,1.1,4.6,3.5,9.6,6.6
				c5,3.1,11.9,6.8,20.6,10c8.7,3.2,19.2,5.7,30.9,6.5c1.3,0.1,2.6,0.1,4,0.2c1.3,0,2.7,0.1,4.1,0.1c1.4,0,2.8-0.1,4.2-0.1
				c1.4,0,2.8-0.1,4.2-0.2c5.7-0.4,11.6-1.4,17.7-2.8c12.1-2.9,24.8-8.1,36.9-16.4c-7.6,5-15.7,9-24,11.9
				c-8.2,2.9-16.6,4.8-24.7,5.7c-16.2,1.8-31.1,0.1-42.9-3.3c-17.5-4.5-34.1-13.3-47.7-25.8l-2.8-2.6c-1-0.9-1.9-2-2.9-3l-1.4-1.5
				l-0.7-0.8l-0.4-0.4l-0.2-0.2l-0.1-0.1c0,0-0.1,0.1-0.1,0.1l-2.7,3.1c-0.9,1.1-1.8,2.1-2.8,3.1c-0.9,0.9-1.7,1.9-2.6,2.7l-2.7,2.6
				c-0.9,0.9-1.9,1.7-2.8,2.5l-1.4,1.2l-1.5,1.2c-1,0.8-2,1.6-3,2.3c-2.1,1.4-4.1,3-6.2,4.3c-2.1,1.4-4.3,2.6-6.5,3.8
				c-1.1,0.6-2.2,1.1-3.4,1.7l-1.7,0.8l-1.7,0.8c-18.3,8.3-38.9,10.8-58.6,7.7l-3.7-0.6c-1.2-0.2-2.4-0.5-3.6-0.8
				c-2.4-0.5-4.8-1.3-7.2-1.9c-1.2-0.4-2.4-0.8-3.5-1.2c-1.2-0.4-2.4-0.8-3.5-1.3l-3.5-1.4l-3.4-1.6c-0.6-0.3-1.1-0.5-1.7-0.8
				l-1.6-0.9c-1.1-0.6-2.2-1.1-3.3-1.8c-2.1-1.3-4.3-2.5-6.3-3.9c-2.1-1.3-4.1-2.9-6.1-4.4c-1-0.7-1.9-1.6-2.9-2.4l-1.5-1.2
				c-0.5-0.5-1.1-1-1.6-1.5l-3.2-2.9c0-0.1-0.1,0-0.1,0l-0.1,0.1l-0.2,0.2l-0.4,0.3l-0.8,0.7l-1.7,1.4c-1.1,0.9-2.3,1.8-3.3,2.5
				c-1,0.7-2,1.4-3,2.2c-4.1,2.8-8.4,5.3-12.9,7.5c-9,4.3-18.6,7.3-28.5,8.8c-7.2,1-16.6,1.6-27,0.3c-5.2-0.6-10.6-1.7-15.9-3.3
				c-5.4-1.6-10.7-3.7-15.9-6.2c-5.1-2.5-10-5.5-14.5-8.8c-4.5-3.3-8.6-6.9-12.2-10.5c-1.8-1.8-3.5-3.7-5.1-5.5
				c-1.5-1.9-3-3.7-4.3-5.5c-1.4-1.8-2.5-3.6-3.6-5.2c-1.1-1.7-2-3.3-2.9-4.8c7.2,12.7,17.3,23.7,29.2,32.1
				c11.9,8.4,25.7,14.2,40.1,16.6c14.4,2.5,29.3,1.8,43.4-2.1c3.5-1,7-2.1,10.4-3.5c1.7-0.6,3.4-1.4,5-2.2c1.6-0.8,3.3-1.6,4.9-2.5
				c3.2-1.7,6.3-3.6,9.4-5.7l2.2-1.6c0.4-0.3,0.7-0.5,1.1-0.8l1.2-0.9c1.8-1.4,3.6-2.9,5.3-4.3c0.1,0,0.1-0.1,0.2-0.1l0.2,0.1
				l0.3,0.3l0.6,0.6l1.3,1.2l2.5,2.3l2.2,1.9c0.7,0.6,1.4,1.2,2.1,1.7c1.5,1.1,2.9,2.2,4.4,3.3c1.5,1,3,2.1,4.6,3
				c6.2,3.9,12.8,7.1,19.7,9.5c13.8,4.9,28.6,6.9,43.2,5.6c14.6-1.2,29-5.5,41.7-12.7c6.4-3.6,12.4-7.8,17.9-12.7
				c1.4-1.2,2.7-2.5,4-3.7c0.7-0.6,1.3-1.3,1.9-1.9l2-2.2c1.5-1.6,2.9-3.4,4.4-5l0.5-0.6l0.3-0.3c0.1-0.1,0.2-0.3,0.3-0.1l1.1,1.2
				l2.3,2.4l-2-2.1l-1-1.1l-0.5-0.5c0,0,0-0.1-0.1-0.1l-0.1,0.1l-0.1,0.1l-0.2,0.3c-1.3,1.4-2.5,2.9-3.7,4.3l-1.2,1.3l-1.1,1.2
				c-0.7,0.7-1.3,1.4-2,2.1c-1.4,1.3-2.7,2.7-4.2,4c-1.5,1.2-2.9,2.6-4.4,3.7c-1.5,1.2-3,2.4-4.6,3.5c-6.3,4.5-13,8.2-20.1,11.1
				c-14.2,5.9-29.7,8.5-45.1,7.6c-15.3-0.8-30.4-5.2-43.8-12.6c-1.7-0.9-3.3-1.9-5-2.9c-1.6-1-3.2-2.1-4.8-3.2
				c-1.5-1.1-3.1-2.3-4.6-3.4l-2.2-1.8l-1.1-0.9c-0.6-0.5-1-0.9-1.5-1.3l-2.8-2.6l-1.4-1.3c-0.1-0.2-0.2,0-0.4,0.1l-0.4,0.3
				l-0.7,0.6l-3,2.4c-0.5,0.4-1,0.8-1.5,1.2l-1.2,1c-3.1,2.3-6.2,4.4-9.6,6.3c-9,5.2-18.9,9-29.4,11.1c10.3-2.1,20.3-5.9,29.4-11.1
				c1.5-0.9,2.9-1.7,4.3-2.7c1.4-0.9,2.8-1.9,4.2-2.9c0.3-0.2,0.7-0.5,1-0.8l1.1-0.8c0.9-0.7,1.8-1.4,2.7-2.1l2.6-2.2l0.7-0.5
				c0.1-0.2,0.2,0,0.3,0.1l0.3,0.3l1.3,1.2l2.5,2.3c0.8,0.8,1.8,1.6,2.4,2c1.3,1.1,2.6,2.2,4,3.2c2.7,2.1,5.5,4,8.4,5.7
				c11.7,7.1,25.1,12.1,39.7,14c9,1.2,18.9,1.4,28.6,0c4.9-0.6,9.6-1.7,14.3-3c2.3-0.7,4.6-1.4,6.8-2.2c1.1-0.4,2.2-0.8,3.3-1.3
				c1.1-0.5,2.1-0.9,3.2-1.4c6.8-3.1,13.1-6.7,18.8-10.8c1.4-1,2.8-2.1,4.2-3.2c1.4-1.1,2.7-2.3,4.1-3.4c1.3-1.2,2.6-2.4,3.9-3.6
				l1.9-1.9c0.7-0.7,1.5-1.6,2.2-2.4l2.7-3.2l1.4-1.6c0.1-0.1,0.1,0,0.2,0.1l0.2,0.2l0.4,0.4l0.7,0.8l2.9,3.1c0.5,0.5,1,1,1.5,1.5
				l1.4,1.3l2.5,2.4c0.9,0.8,1.7,1.5,2.6,2.3c0.9,0.7,1.7,1.5,2.6,2.2l2.8,2.1c0.5,0.4,1.1,0.8,1.7,1.2c0.6,0.4,1.2,0.8,1.8,1.2
				c1.2,0.8,2.4,1.6,3.6,2.4c-0.1-0.1-0.2-0.2-0.3-0.2c-1.1-0.9-3-2.2-5.3-4c-1.2-0.9-2.4-2-3.9-3.1c-1.4-1.2-2.9-2.5-4.5-3.9
				c-0.8-0.7-1.6-1.5-2.4-2.3c-0.4-0.4-0.8-0.8-1.2-1.2c-0.3-0.3-0.5-0.5-0.8-0.8c-0.3-0.3-0.6-0.6-0.8-0.9
				c-1.1-1.2-2.3-2.5-3.4-3.8c-0.6-0.6-1.2-1.3-1.8-2l-0.2-0.3l-0.2,0.3l-0.4,0.5c-0.3,0.3-0.6,0.7-0.9,1c-1.2,1.4-2.4,2.8-3.7,4.2
				c-0.3,0.4-0.7,0.7-1,1.1c-0.3,0.3-0.6,0.6-0.9,1c-0.5,0.5-1,1-1.5,1.6c-1.1,1-2.2,2-3.3,3.1c-1.1,1-2.3,2-3.5,3
				c-9.7,8.1-22.4,15.3-37,19.5c-14.5,4.2-30.9,5.1-46.7,2.2c-7.9-1.5-15.6-3.9-22.9-7.2c-7.3-3.3-14.1-7.4-20.2-12.2l-1.2-0.9
				l-1.1-0.9c-0.7-0.6-1.5-1.2-2.2-1.8l-0.4-0.3c-0.2-0.2-0.3-0.3-0.5-0.4l-0.9-0.8l-1.8-1.6c-1.2-1.1-2.3-2.2-3.5-3.2l-0.2-0.2
				l-0.1-0.1c0,0-0.1,0-0.1,0.1l-0.5,0.4l-0.9,0.7l-1.8,1.5c-1.2,1-2.4,2-3.7,3l-1.4,1.1c-0.4,0.3-0.7,0.6-1.1,0.8
				c-0.8,0.5-1.5,1-2.3,1.6c-6.1,4.1-12.3,7.4-18.5,9.8c-12.4,5-24.4,6.6-34.1,6.8c-9.8,0.1-17.3-1.1-21.8-2
				c-14.5-2.9-27.8-8.9-39.7-17.6c-11.8-8.8-22.2-20.5-29.3-35.8c-2.3-5.1-4-10-5.3-14.7c-0.6-2.4-1.2-4.6-1.6-6.8
				c-0.5-2.2-0.8-4.4-1.2-6.5c-0.2-0.4-0.4-1.7-0.6-3.4c-0.1-0.9-0.3-1.8-0.4-2.8c-0.1-1-0.1-2.1-0.2-3.2
				c-0.4-11.2,1.2-22.5,4.6-32.5c3.3-10.1,7.9-18.9,12.6-26.2c2.7-4.5,9.1-11.5,16.3-17c3.6-2.8,7.2-5.2,10.5-7.2
				c0.4-0.2,0.8-0.5,1.2-0.7c0.4-0.2,0.7-0.4,1.4-0.8c1.2-0.7,2.4-1.3,3.5-1.9c2.2-1.2,4.2-2.3,5.6-3.2c-0.7-2.2-1.2-3.7-1.5-4.3
				c-1-2-1.6-3.4-2.1-4.6c-0.1-0.3-0.2-0.4-0.3-0.6c-0.1-0.2-0.2-0.3-0.2-0.5c-0.1-0.3-0.3-0.6-0.4-0.8c-0.4-1-0.7-1.9-1-3.4
				c-0.3-1.5-0.6-3.6-1.1-7c-0.2-1.7-0.5-3.8-0.8-6.3c-0.2-2.5-0.5-5.5-0.6-9c0-0.9-0.2-2.2-0.2-3.8c-0.1-1.6-0.2-3.6-0.2-5.6
				c0-2,0-4.2,0.1-6.3c0.2-2.1,0.3-4.1,0.6-5.7c0.3-1.4,0.5-2.8,0.7-4.1c0.2-1.3,0.6-2.5,0.8-3.7c0.5-2.4,1.1-4.6,1.7-6.7
				c0.1-0.5,0.3-1,0.4-1.5c0.2-0.5,0.3-1,0.5-1.5c0.3-1,0.6-2,0.9-2.9c0.6-1.9,1.3-3.7,1.9-5.6c0.7-1.9,1.5-3.7,2.2-5.7
				c0.9-1.9,1.8-4,2.8-6.1c2.1-4.3,4.8-9,8.7-14.5c5.7-8.1,11.3-14,16.4-18.6c5.2-4.6,10-8.2,14.8-11.3c4.9-3.1,9.8-5.8,15.6-8.5
				c5.8-2.7,12.5-5.3,21.1-7.7c1.4-0.4,8-2,16.1-2.9c4-0.5,8.4-0.7,12.6-0.8c2.1,0,4.1,0,6,0.1c0.6,0,1.1,0.1,1.7,0.1
				c0.6,0,1.2,0.1,1.8,0.1c1.2,0.1,2.3,0.2,3.3,0.3c1-1.9,1.9-3.8,2.7-5.4c0.7-1.3,1.3-2.6,1.8-3.7c1-2.3,2.2-4,3-5.5
				c1.7-2.9,2.5-4.4,2.5-4.4c0.7-1.2,1.5-2.3,2.2-3.4c0.8-1.1,1.5-2.2,2.3-3.3c0.7-1.1,1.5-2.2,2.2-3.2c0.7-1,1.6-2,2.3-3
				c1.5-2,3.1-3.9,4.5-5.8c1.6-1.8,3.2-3.6,4.7-5.3c0.8-0.9,1.5-1.7,2.3-2.6c0.8-0.8,1.6-1.6,2.4-2.4c1.6-1.6,3.2-3.1,4.7-4.7
				c1.6-1.5,3.2-2.9,4.8-4.3c0.8-0.7,1.6-1.4,2.4-2.1c0.8-0.7,1.6-1.4,2.4-2c6.6-5.1,13.1-9.7,20.2-13.6c1.8-1,3.6-1.9,5.3-2.9
				c1.8-0.9,3.7-1.7,5.6-2.6c1.9-0.8,3.8-1.7,5.7-2.5c2-0.7,4-1.4,6-2.1c1.1-0.5,2.3-1,3.4-1.5c1.2-0.4,2.4-0.8,3.6-1.3
				c2.4-0.8,4.9-1.7,7.4-2.5c5.1-1.3,10.4-2.9,15.9-3.7c5.5-1.2,11.2-1.5,16.9-2.2c2.9-0.1,5.8-0.2,8.7-0.3c2.9,0,5.8,0,8.7,0.1
				c11.7,0.5,23.4,2.3,34.4,5.3c11.1,2.9,21.6,6.9,31,11.5c9.5,4.6,17.1,9.4,23.7,14.1c6.5,4.8,12,9.7,17.1,14.6
				c1.3,1.3,2.4,2.6,3.7,3.8l1.8,1.9c0.6,0.7,1.2,1.3,1.7,2c1.2,1.3,2.3,2.7,3.5,4.1c1.1,1.4,2.2,2.9,3.4,4.3
				c4.4,6,9,12.5,13.3,20.5c5.1,9.1,8.3,16.2,10.3,21.9c0.5,1.4,1.2,3.4,2,5.6c0.9,2.2,1.7,4.8,2.6,7.5c1.8,5.4,3.4,11.5,4.3,16.7
				c-0.4-0.8-0.7-1.6-1.1-2.4c0.3,1.7,0.8,4.2,1.1,6.8c0.2,1.3,0.3,2.6,0.5,3.7c0.1,0.6,0.2,1.1,0.2,1.7c0,0.5,0.1,1,0.1,1.4
				c0.3,3.5,0,2.6-0.3,1.8c-0.5-1.7-1.1-3.3-0.8,2.7c0.4,4.6,0.4,9.2,0.3,13.8c0,2.3-0.1,4.7-0.3,7l-0.1,1.9
				c-0.1,1.2-0.2,2.4-0.3,3.6c-0.2,2.4-0.4,4.8-0.7,7.3c2.4,0.8,4.9,1.5,7.4,2.3c1.2,0.4,2.4,0.8,3.7,1.2l1.7,0.7
				c1.2,0.5,2.3,0.9,3.5,1.4c1.1,0.6,2.3,1.1,3.4,1.7c12.6,6.1,23.2,15.8,30.4,27.6c0.6,0.6,1.3,1.3,2.4,2.9
				c0.9,1.9,1.9,3.7,2.7,5.6l1.2,2.9c0.4,1,0.8,1.9,1.1,2.9c1.2,2.2,1.6,1.3,2.4,2.8c0.9-0.2,2.6,4,4,7.9c0.6,2,1.2,3.8,1.7,4.9
				c0.5,1.1,0.9,1.4,1.2,0.3c0.1-0.5-0.1-2.4-0.3-5.3c0-0.4-0.1-0.7-0.1-1.1c-0.1-0.4-0.1-0.8-0.2-1.2c-0.1-0.8-0.3-1.7-0.4-2.6
				c-0.2-0.9-0.3-1.9-0.5-2.8c-0.2-1-0.5-1.9-0.7-3c-0.3-1-0.5-2-0.8-3.1c-0.3-1-0.7-2-1-3.1c-0.4-1-0.7-2.1-1.1-3.1
				c-0.4-1-0.8-2-1.2-2.9c-0.4-1-0.8-1.9-1.2-2.8c-0.5-0.9-0.9-1.8-1.3-2.6c-0.4-0.8-0.8-1.6-1.2-2.4c-0.4-0.8-0.8-1.4-1.2-2.1
				c-0.7-1.2,0-0.6,1.1,0.7c0.6,0.6,1.1,1.4,1.7,2.2c0.6,0.8,1.2,1.5,1.6,2.1c-0.5-0.9-0.9-1.7-1.4-2.5c-0.4-0.8-0.8-1.5-1.2-2.1
				c-0.8-1.3-1.5-2.4-2.1-3.3c-0.3-0.5-0.6-0.9-0.8-1.3c-0.3-0.4-0.5-0.7-0.7-1c-0.4-0.6-0.7-1-0.9-1.4c-0.7-1.2,0.4-0.3,2.6,2.2
				c-1.1-1.5-2.3-3-3.1-4.2c-0.4-0.6-0.8-1-1-1.4c-0.3-0.3-0.4-0.5-0.4-0.5c0.4,0.3,1.1,0.9,1.8,1.4c0.6,0.6,1.2,1,1.2,1
				c-5.3-7-11.9-13.4-19.4-18.7l-1.4-1l-1.5-0.9l-3-1.8c-1-0.6-2-1.1-3.1-1.7l-3.1-1.6c-2.1-1-4.3-1.8-6.5-2.8l-0.4-0.1l-0.1,0
				l-0.1,0l-0.2-0.1c-0.1-0.1-0.2-0.1-0.4-0.2c0-0.1,0.1-0.2,0.1-0.2c0,0,0,0,0,0c0,0,0,0,0,0l0-0.2l0-0.6l0.1-2.2
				c0.2-3,0.2-6,0.2-9c0-3-0.1-6-0.3-9c-0.2-3-0.5-5.9-0.8-8.9c-1.3-11.8-3.9-23.2-7.6-33.7c-1.4-3.9-3.4-9.2-5.8-14.3
				c-1.1-2.6-2.5-5.1-3.8-7.6c-1.2-2.5-2.6-4.7-3.7-6.7c-0.6-1-1.3-2.3-2.1-3.8c-0.8-1.4-1.8-3-2.7-4.6c-0.9-1.6-1.8-3-2.7-4.3
				c-0.8-1.3-1.6-2.4-2.1-3.2c-2.1-2.5-3.2-3.4-4-4c-0.8-0.6-1.3-0.7-2.3-1.7c-4.3-5.7-10.1-12.8-17.1-19.7
				c-7-6.8-15-13.4-22.8-18.6c-7.8-5.2-15.2-9.3-20.7-11.6c-1.4-0.6-2.6-1.1-3.7-1.6c-1.1-0.4-2-0.7-2.8-1c-1.5-0.5-2.3-0.6-2.2-0.2
				c-1.3-0.6-2.6-1.1-3.8-1.6c-1.2-0.4-2.4-0.9-3.5-1.3c-1.1-0.4-2.2-0.8-3.2-1.1c-1-0.4-2-0.6-3-0.9c-1.9-0.6-3.7-1.1-5.5-1.6
				c-1.8-0.4-3.4-0.8-5.1-1.2c-3.4-0.8-6.9-1.3-10.9-2.1c-4.1-0.6-8.7-1.3-14.6-1.8c-15.6-1.5-33.5-0.7-51.8,3.1
				c-18.3,4.1-36.8,11.3-53.4,21.7c-2.2,1.5-4.4,2.9-6.6,4.4c-0.5,0.4-1.1,0.7-1.6,1.1l-1.6,1.2c-1.1,0.8-2.1,1.6-3.1,2.4
				c-4.3,3.1-8.1,6.6-12.1,10c-1.9,1.8-3.7,3.6-5.6,5.4c-0.9,0.9-1.9,1.8-2.8,2.7l-2.6,2.9c-1.7,1.9-3.5,3.8-5.1,5.8
				c-1.6,2-3.2,4.1-4.8,6.1c-0.6,0.8-1.2,1.5-1.8,2.3c-0.5,0.8-1.1,1.6-1.6,2.4c-1.1,1.6-2.1,3.1-3.2,4.7c-1.1,1.5-2,3.1-2.9,4.7
				c-0.9,1.6-1.9,3.1-2.8,4.7c-1.2,1.9-2.1,4-3.2,6c-0.4,0.7-0.7,1.5-1.1,2.2c-0.3,0.5-0.5,1.1-0.8,1.6c-0.8-0.1-1.6-0.2-2.4-0.2
				l-1.8-0.1l-2.1-0.1c-2.8-0.1-5.6-0.1-8.4-0.1c-2.8,0.1-5.6,0.2-8.3,0.5c-1.4,0.1-2.8,0.2-4.1,0.4c-1.4,0.2-2.7,0.4-4.1,0.6
				c-1.4,0.2-2.7,0.5-4.1,0.7c-1.3,0.3-2.7,0.5-4,0.8c-2.6,0.7-5.3,1.3-7.9,2.1c-5.2,1.5-10.2,3.5-15.1,5.6
				c-2.4,1.2-4.9,2.2-7.2,3.5c-1.2,0.6-2.3,1.3-3.5,1.9c-1.1,0.7-2.3,1.4-3.4,2l-1.7,1l-1.6,1.1c-1.1,0.7-2.2,1.5-3.3,2.2l-3.2,2.3
				l-1.6,1.2l-1.5,1.2l-3,2.5l-2.9,2.6c-2,1.7-3.7,3.6-5.6,5.4c-3.5,3.8-7,7.6-10,11.7c-3.1,4.1-5.9,8.4-8.4,12.7
				c-1.2,2.2-2.5,4.4-3.6,6.7l-1.7,3.4l-1.5,3.5c-4,9.3-6.7,19.1-8.2,29c-0.5,2.5-0.7,5-0.9,7.5c-0.2,1.2-0.2,2.5-0.3,3.7l-0.2,3.8
				c0,2.5-0.1,5,0,7.5c0.1,2.5,0.2,5,0.4,7.5c0.4,5,1.2,10,2.2,14.9c0.5,2.5,1.1,4.9,1.8,7.3l0.5,1.7l0.3,1c0.2,0.6,0.4,1.2,0.6,1.8
				c-0.8,0.5-1.6,1-2.5,1.5l-1.2,0.7l-1.9,1.3l-4,2.8c-1.3,1-2.5,2-3.8,3l-1.9,1.5c-0.6,0.5-1.2,1.1-1.8,1.6l-3.6,3.3
				c-1.1,1.2-2.2,2.4-3.4,3.6l-1.7,1.8c-0.5,0.6-1,1.3-1.6,1.9l-3.1,3.8c-1,1.3-1.9,2.7-2.8,4l-1.4,2c-0.4,0.7-0.9,1.4-1.3,2.1
				c-0.8,1.4-1.7,2.8-2.5,4.3c-0.8,1.5-1.5,3-2.3,4.4l-1.1,2.2l-1,2.3c-0.6,1.5-1.3,3.1-1.9,4.6c-0.5,1.6-1.1,3.2-1.6,4.8
				c-0.3,0.8-0.6,1.6-0.8,2.4l-0.6,2.4c-0.4,1.6-0.9,3.3-1.2,4.9c-0.3,1.7-0.6,3.3-0.9,5c-0.1,0.8-0.3,1.7-0.4,2.5l-0.3,2.5
				c-0.9,6.8-0.8,13.7-0.4,20.6c1.1,13.8,5.1,27.7,11.9,40.4c9.1,17,23,31.4,39.8,41c8.4,4.8,17.4,8.5,26.8,10.8l1.8,0.4l1.8,0.4
				c1.2,0.2,2.4,0.5,3.6,0.7c2.4,0.4,4.8,0.8,7.2,1c4.8,0.5,9.6,0.6,14.5,0.5c9.6-0.3,19.2-2,28.4-5c9.1-3,17.9-7.2,25.8-12.6
				c1-0.7,2-1.4,2.9-2.1c0.5-0.3,1-0.7,1.4-1.1l1.3-1c0.7-0.5,1.4-1.1,2.1-1.7l1-0.9c0-0.1,0.1,0,0.1,0l0.1,0.1l0.2,0.2l0.5,0.4
				l2,1.8l2.6,2.1c1.8,1.6,3.8,2.9,5.7,4.3c7.8,5.5,16.2,9.9,25.1,13.2c8.9,3.2,18.1,5.3,27.4,6.1c9.3,0.8,18.7,0.3,27.8-1.2
				c9.1-1.6,17.9-4.4,26.2-8.2c8.3-3.8,16-8.7,23-14.3c0.9-0.7,1.7-1.5,2.6-2.2c0.8-0.7,1.7-1.4,2.5-2.2c1.6-1.6,3.3-3.1,4.8-4.7
				l1.8-1.9l1.5-1.8l0.8-0.9c0.1-0.1,0.1-0.2,0.2-0.2l0.2,0.2l0.4,0.4l1.6,1.7c0.5,0.6,1.1,1.1,1.6,1.6l2.4,2.3l1.2,1.1l1.2,1.1
				l2.5,2.1c0.8,0.7,1.7,1.4,2.6,2l2.6,2c0.8,0.7,1.8,1.3,2.7,1.9l2.7,1.8c14.5,9.5,30.8,15.3,47.2,17.5c16.4,2.2,32.7,0.8,47.7-3.6
				c15-4.4,28.5-11.7,39.8-20.8c11.3-9.1,20.4-19.9,27.2-31.4c3.4-5.7,6.1-11.6,8.4-17.5c2.3-5.9,4-11.8,5.2-17.6
				c1.2-5.8,2-11.6,2.3-17.1c0-0.7,0.1-1.4,0.1-2.1c0-0.7,0-1.4,0-2.1c0-1.4,0.1-2.7,0-4.1c0-1.3-0.1-2.7-0.1-4l0-1l0-0.5l0-0.3
				l-0.1-1l-0.1-0.9c0-0.2,0-0.3,0-0.5l0.4-0.3c0.6-0.3,1.1-0.7,1.6-1l0.2-0.1c0.1,0,0.1-0.1,0.3-0.2l0.8-0.6c0.5-0.4,1-0.7,1.5-1.1
				c1-0.8,2-1.4,2.9-2.3c0.9-0.8,1.8-1.6,2.7-2.3c0.9-0.7,1.7-1.6,2.5-2.4c0.8-0.8,1.7-1.6,2.4-2.4c0.8-0.8,1.5-1.7,2.2-2.5
				c5.8-6.7,9.9-13.5,12.8-19.8c2.9-6.3,4.5-12.1,5.6-16.9C665.6,268.9,665.9,261.2,665.1,253.7z"/>
		</g>
	</g>
	<g>
		<path class="st6" d="M671,263.8c-2.4-34.3-26.6-61.8-58.1-70.1c0.8-8.7,0.9-17.5,0.2-26.5c-6.5-91.3-85.7-160-177-153.5
			c-62.2,4.4-114,42.7-138.5,95.5c-7.1-0.8-14.4-0.9-21.9-0.4c-66.6,4.7-116.7,62.5-112,129.1c0.8,10.8,2.9,21.1,6.3,30.9
			c-33.5,18.4-55,55.1-52.1,95.7c3.9,55.7,52.3,97.6,108,93.7c22.7-1.6,43.1-10.6,59.1-24.5c20.6,19.8,49.3,31.2,80,29
			c30.3-2.1,56.7-17,74.3-39c22.3,24.9,55.4,39.6,91.3,37c61.6-4.4,108.1-57.9,103.7-119.5c-0.1-1.7-0.3-3.4-0.5-5.1
			C658,321.2,673.2,293.9,671,263.8z"/>
		<g class="st4">
			<path class="st5" d="M592.1,158.2c-0.3-3.6,0.7,1.3,0-4.1c0.4,1.4,1.7,7,2,12c0.1,1.5,0.1,2.9,0.1,4.3c-0.2-2.2-0.6-3.8-1-5.6
				C592.8,163,592.5,161,592.1,158.2z"/>
			<path class="st5" d="M663.4,260.7c-0.1-1.9,0.1-1.4,0.2-1.3c0.2,1.7,0.4,3.6,0.4,4.9C664,264.9,663.6,262.4,663.4,260.7z"/>
			<path class="st5" d="M603.4,194.6c0.5-4.9,1-11.1,1.1-16.4c0.1-0.5,0.3-0.4,0.4,0.2c0.1,0.8,0.3,2.3,0.3,4.2
				c0.1,3.8-0.1,9.4-0.4,15.1c0,0.3,0,0.5,0,0.8c0,0.2-0.1,0.6,0.1,0.7c3.1,0.9,6.2,2,7.3,2.4c1,0.6,2.4,1.4,2.5,1.7
				c0,0.1-0.3,0.2-1.1,0c-0.9-0.2-2.3-0.6-4.6-1.2c-1.1-0.1-3.6-0.9-5.9-1.7c0-0.1-0.1-0.1-0.1-0.2l0-0.3c0-0.2,0-0.4,0.1-0.6
				c0-0.4,0.1-0.8,0.1-1.2c0.1-0.8,0.1-1.5,0.2-2C603.6,194.9,603.6,194.2,603.4,194.6z"/>
			<path class="st5" d="M660.6,235.8c-0.2-0.2-0.3-0.4-0.6-0.6c-0.9-1.8-0.1-1.1-1.6-3.9l-0.7-1.1c-0.2-0.4-0.5-0.7-0.8-1l-1.6-2.1
				c-1.7-2.7-0.4-1-0.2-0.9c-0.8-1.2-1.7-2.2-2.4-3.2c-0.8-1-1.4-1.9-2.2-2.7c-0.7-0.8-1.4-1.6-2.1-2.4c-0.7-0.8-1.3-1.5-2.1-2.2
				c-0.7-0.7-1.4-1.4-2.2-2.1c-0.4-0.4-0.8-0.7-1.2-1.1c-0.4-0.4-0.9-0.7-1.3-1.1c-0.9-0.7-1.8-1.5-2.9-2.4c-1-0.8-2.3-1.6-3.5-2.5
				l3.2,1.7c-1.3-1-3.1-2.3-4.8-3.4c-1.8-1.1-3.4-2.1-4.5-2.8c3.7,1.9,3,1.4,1.4,0.2c-0.4-0.3-0.9-0.6-1.3-0.9
				c-0.5-0.3-1-0.6-1.4-0.8c-0.9-0.5-1.6-1-1.6-1.1c0.8,0.3,1.8,0.6,3.2,1.1c1.4,0.6,3.1,1.5,5.5,2.7c-1.6-1-3.2-2-4.7-3.1
				c-0.8-0.5-1.6-0.9-2.3-1.4c-0.7-0.4-1.5-0.8-2.1-1.2l4.3,2.1c0.6,0.2,0.4-0.1-0.3-0.5c-0.4-0.2-0.9-0.5-1.5-0.8
				c-0.6-0.3-1.4-0.7-2.1-1c0.9,0.4,1.5,0.7,1.9,0.9c0.4,0.1,0.5,0.2,0.6,0.1c0.1-0.1-0.1-0.3,0.6,0c-1.2-0.6-2.4-1.2-3.6-1.8
				c-1.1-0.5-2.3-0.9-3.5-1.4c-2.3-1-4.9-1.6-7.4-2.4c-0.1,0-0.1,0-0.2-0.1l0-0.2l0-0.4l0.1-0.8c0.1-0.5,0.1-1.1,0.2-1.6
				c0.1-1.1,0.2-2.2,0.3-3.3c0.4-3.7,0.7-3.8,1.1-5.7c0,2.4,0,4.5,0,6.3c0,0.9,0,1.7,0,2.5c0,0.4,0,0.8,0,1.2l0,0.6l0,0.3
				c0,0,0,0.1,0,0.1l0.1,0c0.8,0.2,1.6,0.4,2.3,0.6c0.7,0.3,1.9,0.7,3.1,1.2c1.3,0.5,2.6,1.1,3.9,1.7c0.6,0.3,1.3,0.7,1.8,0.9
				c0.7,0.4,1.2,0.7,1.8,1c1,0.6,1.7,1,1.7,1.2c2.4,1.4,5.5,2.8,7.3,4c-0.4-0.4-1-0.8-1.8-1.4c-0.8-0.5-1.7-1.1-2.7-1.6
				c-0.9-0.6-1.9-1.1-2.7-1.6c-0.8-0.4-1.6-0.8-2-1.1c2.1,0.9,3.8,1.9,5.4,2.8c0.8,0.5,1.6,0.9,2.3,1.3c0.7,0.5,1.4,0.9,2.1,1.4
				c1.4,1,2.8,1.8,4.2,3c0.7,0.6,1.5,1.2,2.3,1.8c0.4,0.3,0.8,0.6,1.2,1c0.4,0.4,0.8,0.7,1.2,1.1l-1-1.3c3.4,3.4,8.2,7.9,11.7,12.8
				c1,1.2,1.8,2.4,2.6,3.6c0.8,1.2,1.6,2.3,2.2,3.4c1.2,2.2,2.3,4,2.9,5.3c0.5,1.2,0.9,2.4,1.4,3.6c0.2,0.6,0.5,1.2,0.7,1.7
				c0.2,0.6,0.4,1.2,0.5,1.7c0.3,1.2,0.7,2.3,1,3.3c0.1,0.5,0.3,1.1,0.4,1.6c0.1,0.5,0.2,1,0.3,1.5c0.4,2,0.7,3.7,0.8,5.1
				c0.1,1.4,0.1,2.4,0.1,3c-0.9-4.2-1.2-4-1.1-3c0,1.1,0.2,3.1,0,2.7c-0.5-2.6-1.6-6.8-1.6-5.9c0.2,1.1,0.5,2.2,0.7,3.2
				c0.2,1,0.4,2,0.6,2.8c0.3,1.7,0.7,3.1,0.4,4c-0.9-4.1-1.5-4.9-1.9-5c-0.4-0.1-0.6,0.5-1.2-0.8c-0.2-0.5-0.6-1.6-1-2.9
				c-0.2-0.6-0.4-1.3-0.6-2.1c-0.2-0.7-0.4-1.5-0.7-2.1c-1-2.7-1.9-5-2-4.3c2.1,5.7-0.1,0.3,0.2,1.7
				C662.8,240.8,662,239.1,660.6,235.8z"/>
			<path class="st5" d="M599.1,118.6c-1.3-3.3-0.6-2.3-0.9-3.2c-0.2-0.9,0.6,0.6,1.6,2.8c0.5,1.1,1,2.4,1.4,3.6
				c0.5,1.2,0.9,2.4,1.2,3.3c0.7,1.9,0.8,3,0.9,3.6c0.1,0.6-0.1,0.6-0.3,0.4c-0.3-0.4-0.9-2.3-1.8-4.4
				C600.6,122.7,599.8,120.3,599.1,118.6z"/>
			<path class="st5" d="M615.6,167c-0.2-3.3-0.6-7.3-0.5-8.9c0.3-0.1,0.6-0.2,1.2,3.6c0.7,5.9,1.1,10.1,0.8,14.6
				c-0.2,2.5-0.4,2.3-0.7,0.4C616.1,174.9,615.8,171.3,615.6,167z"/>
			<path class="st5" d="M518.8,38.1c-4.5-2.2-6.1-3.1-6.8-3.5c-0.7-0.5-0.5-0.7-1.5-1.3c1.4,0.5,2.3,0.9,2.9,1.1
				c0.6,0.2,0.9,0.3,1,0.3c0.2,0-0.5-0.5-1.2-0.9c-1.5-0.8-3.1-1.8,1.6,0.2c1.2,0.6,2.5,1.2,3.8,1.8c1.3,0.6,2.5,1.3,3.4,1.9
				c-2.4-0.9,1.1,1.2,4.5,3.2c3.3,2.1,6.5,4.3,3.6,2.9c-0.5-0.1-2.3-1.1-4.5-2.2c-1.1-0.6-2.3-1.2-3.5-1.8
				C521,39.1,519.9,38.5,518.8,38.1z"/>
			<path class="st5" d="M566.8,68.7c-1.2-1.4-2.1-2.5-2.5-3.1c-0.4-0.6-0.4-0.8,0.3-0.2c1.1,0.6,4.7,4.7,6.8,7.1
				c2.2,2.9,3.3,4.6,1.6,2.9c-0.9-0.8-1.7-1.9-2.8-3C569,71.2,567.9,69.9,566.8,68.7z"/>
			<path class="st5" d="M584.4,86.6c-1.1-1.8-0.2-0.7-0.7-1.6c0.6,0.6,1.4,1.8,2.2,3.1c0.4,0.6,0.9,1.3,1.3,1.9
				c0.4,0.6,0.7,1.2,1,1.7l1.2,2.7c-0.8-1.2-1.5-2.3-2.3-3.6C586.4,89.6,585.5,88.3,584.4,86.6z"/>
			<path class="st5" d="M559.1,59.7c-1.2-1.3-1.8-2.2-1.1-1.8c3.2,2.7,6.4,5.7,8.7,8.4c1.9,2.3,0.3,0.8,0.4,1.3
				c-1.1-1.2-2.5-2.5-3.9-3.8C561.8,62.4,560.4,60.9,559.1,59.7z"/>
			<path class="st5" d="M578.4,76.7c-1.1-1.5-2.3-2.9-3.4-4.3c-0.6-0.7-1.1-1.4-1.7-2c-0.6-0.6-1.2-1.3-1.8-1.9
				c0-0.3-1.3-1.8-2.7-3.5c-1.4-1.7-3.1-3.4-3.8-4.3c4.8,4.7,2.1,1.3,3.7,2.5c2.5,2.5,6.2,6.3,9.4,10.4c1.7,2,3.1,4.1,4.5,6
				c0.7,1,1.3,1.9,1.8,2.7c0.5,0.9,1,1.7,1.4,2.4c-1.1-0.9,3.1,6.5-3.2-2.5C580.9,79.9,579.1,77.4,578.4,76.7z"/>
			<path class="st5" d="M609.2,123c-0.8-2.3-1.6-4.6-2.4-6.9l-2.7-6.7c-1.4-4.2,1.7,0.9,0.9-1.4c0.6,1.3,1.3,2.9,2,4.7
				c0.7,1.8,1.6,3.7,2.2,5.5c1.3,3.6,2.4,6.4,2.7,6.3c0.5,1.5,1,3.1,1.5,4.7c0.5,1.6,1,3.3,1.4,5c0.8,3.4,1.6,6.6,1.9,9.3
				c0.1,1.5-0.2,1-0.6-0.4c-0.2-0.7-0.5-1.6-0.8-2.6c-0.3-1-0.7-2.1-1-3.2c-1.3-4.3-2.7-8.1-1.8-3.6c-0.3-1.6-0.8-3.3-1.4-5.1
				C610.6,126.8,610,124.9,609.2,123z"/>
			<path class="st5" d="M550.3,51.2c-1.2-1.1-2.5-2.1-3.5-3c-1.1-0.9-2-1.7-2.7-2.3c2.4,1.7,3.9,2.5,6.3,4.1
				c1.4,1.2,3.2,2.9,4.7,4.2c1.5,1.4,2.6,2.6,2.7,2.9c-0.1,0.1-1.1-0.7-2.5-1.9C553.9,54.2,552,52.7,550.3,51.2z"/>
			<path class="st5" d="M525.4,34.4c-0.5-0.6,0.9,0.1,3,1.2c0.5,0.3,1.1,0.5,1.6,0.8c0.6,0.3,1.1,0.6,1.7,1c1.1,0.6,2.2,1.3,3.1,1.7
				c2.4,1.4,4.3,2.9,6.1,4.3c0.8,0.8,0.3,0.7-2.5-1c-0.6-0.4-1.2-0.8-1.8-1.2c-0.6-0.4-1.1-0.7-1.7-1c-1.1-0.7-2-1.3-3-1.9
				C529.9,36.9,528,35.8,525.4,34.4z"/>
			<path class="st5" d="M465,19.1c-5.1-0.6-2.4-0.6-2.6-0.8c1.3,0.1,2.7,0.2,4.3,0.3c0.8,0.1,1.6,0.2,2.4,0.3
				c0.8,0.1,1.6,0.3,2.4,0.4c2.7,0.6,2.8,0.8,1.4,0.7c-0.7,0-1.8-0.2-3.1-0.3C468.4,19.5,466.8,19.4,465,19.1z"/>
			<path class="st5" d="M490.9,17.1c-2.8-0.8-1-0.8,3.3,0.4l3.9,1.6c-1.3-0.4-2.4-0.7-3.5-1C493.5,17.8,492.4,17.5,490.9,17.1z"/>
			<path class="st5" d="M186.9,220.3c-0.1,0.6-0.1,0.7-0.2,0.7l0.2-1.7C187,219.3,186.9,220,186.9,220.3z"/>
			<path class="st5" d="M309.6,97.5c-0.5,0.6-0.9,1-1.2,1.3c-0.2,0.2-0.3,0.3-0.5,0.5c-0.2,0.2-0.4,0.4-0.7,0.7
				c-0.5,0.6-1.1,1.3-1.8,2.6c-0.7,1.3-1.7,3.1-2.9,5.8c-0.4,0.9-0.9,1.8-1.3,2.8c-0.2,0.5-0.4,0.9-0.6,1.3l-0.3,0.7
				c-0.1,0.1-0.1,0.2-0.2,0.3l-0.3,0.1c-5-0.4-10-0.9-14.9-1c-0.6,0-1.1,0-1.7,0c-0.5,0-1,0-1.5,0c-1,0-2.1,0-3.1,0.1
				c-2.1,0.1-4.3,0.3-6.5,0.6c0.6-0.2,0.1-0.3-1.3-0.2c-1.4,0-3.7,0.4-6.7,0.8c-1.9,0.4-4,0.9-4.6,1.1c-1.1,0,0.7-1.3-5.1-0.1
				c2.8-1.4,8.2-3.1,8.4-3.5c-1.4,0.1-2.9,0.7-4.4,0.8c6.6-1.4,15.1-2.9,22.8-3.2l-1.4-0.1c5.3-0.5,12.1-0.2,17.6,0.5l0.2,0
				c0.1,0,0.1,0,0.2,0l0.2-0.3c0.1-0.2,0.2-0.4,0.3-0.6c0.2-0.4,0.4-0.8,0.6-1.2c1.6-3.2,1-2.7,1.6-4c0.4-0.7,0.8-1.2,1.6-2.3
				c0.2-0.3,0.4-0.6,0.7-1c0.3-0.4,0.6-0.8,0.9-1.3c0.7-1,1.5-2.3,2.4-4c0.8-1.6,1.5-3.2,2.4-4.8c0.1,0.1-2.7,5.4-0.3,1.8
				c0.4-0.7,0.9-1.4,1.3-2c0.5-0.6,0.9-1.2,1.3-1.8c0.8-1.1,1.4-2,1.8-2.5c-0.8,1.6,0.7-0.2,2.1-1.9c0.7-0.9,1.5-1.6,1.9-2
				c0.4-0.3,0.5-0.2-0.2,0.8c-4.5,6.6-1.5,3.2-0.4,2.1l-3,4c0.6-0.5,0.4,0.2-0.3,1.4c-0.6,1.2-1.7,2.9-2.4,4.7l-1.6,2.4
				C305.7,102.1,310.3,95.4,309.6,97.5z"/>
			<path class="st5" d="M311,93.4l0.2-0.3c0.4-0.5,0.9-1,1.3-1.5c-0.6,0.8-0.8,1.1-1,1.2C311.4,93,311.3,93.1,311,93.4z"/>
			<path class="st5" d="M318.9,78.5c-0.1,0-0.9,1-0.3,0.1C319.4,77.7,320.2,76.7,318.9,78.5z"/>
			<path class="st5" d="M573.3,53.6c0.8,0.6,1.8,1.6,2.8,2.6c1,1.1,1.9,2.3,2.8,3.2c-0.8-0.8-2-2.1-3.1-3.2
				C574.7,55.2,573.7,54.1,573.3,53.6z"/>
			<path class="st5" d="M314.5,82.7l-0.5,0.7c0.4-0.6,0.9-1.3,1.3-1.9C315.4,81.5,315,82.1,314.5,82.7z"/>
			<path class="st5" d="M265,114.4c1.1-0.2,1.6-0.5,2.5-0.5C267.3,114,265.7,114.2,265,114.4z"/>
			<path class="st5" d="M241.7,121.1c-0.4,0.1-1.2,0.4-0.8,0.3c0.6-0.2,1.2-0.5,1.9-0.7C242.8,120.7,242.4,120.8,241.7,121.1z"/>
			<path class="st5" d="M244.9,117.6l-0.8,0.2c1-0.3,1.9-0.7,2.9-1C246.4,117.1,246,117.2,244.9,117.6z"/>
			<path class="st5" d="M210.3,135.5c-0.4,0.5-1.1,1.2-2.1,2c-1,0.8-2.1,1.7-3.3,2.8c-1.2,1.1-2.5,2.1-3.7,3.3
				c-1.2,1.2-2.3,2.3-3.3,3.4c0.4-0.4,1.1-1.3,1.2-1.6c0-0.1-0.1-0.1-0.4,0.2c-0.4,0.3-1,0.8-1.9,1.9c-1.6,1.7-2,2.3-2.3,2.7
				c-0.3,0.4-0.5,0.7-1.7,1.9c0.4-0.5,0.8-1,1.1-1.4c0.4-0.4,0.7-0.8,1-1.2c0.6-0.7,1.1-1.3,1.4-1.8c0.7-1,0.9-1.4,0.6-1.2l-3.2,3.5
				c5.3-6.4,12-13,18.6-17.5c5.3-3.5-0.3,0.9,3.5-1.4c-2,1.2-2.7,1.9-3.2,2.4C212.1,134.1,211.7,134.5,210.3,135.5z"/>
			<path class="st5" d="M276.5,104.4c-2.8,0.2-4.1,0.1-1.8-0.2c2.6-0.3,4.5-0.3,5.1-0.2C280.3,104.1,279.4,104.2,276.5,104.4z"/>
			<path class="st5" d="M187.8,162.4c-0.9,1.3-2.7,3.8-2.2,2.7c1.5-2.4,3-4.5,3.5-4.8C188.4,161.2,187.9,162.1,187.8,162.4z"/>
			<path class="st5" d="M166.1,261c0.4,0.6,1.4,3.7,2.6,7c0.1,0.1-0.1,0.2-0.2,0.2l-0.3,0.2l-0.6,0.4c-0.4,0.3-0.8,0.5-1.2,0.8
				c-0.8,0.5-1.5,1-2.2,1.4c-1.3,0.9-2.2,1.7-2.3,2c0.9-0.8,0.8-0.8,0.9-1c0.1-0.2,0.4-0.5,2.2-1.6c-0.5,0.4-1.1,0.7-1.7,1.1
				c-0.6,0.3-1.1,0.8-1.7,1.1c-1.2,0.8-2.4,1.5-3.7,2.4l-0.5,0.3c-0.1,0.1-0.2,0.1-0.2,0.1l-0.3,0.2c-0.3,0.3-0.7,0.5-1,0.8
				c-0.7,0.5-1.4,1.1-2.2,1.7c-0.8,0.6-1.6,1.2-2.4,1.9c-0.8,0.7-1.6,1.5-2.4,2.3c-0.6-0.1-0.5-0.6-3.1,1c1.7-1.6,3.4-3.3,4.7-4.6
				c1.4-1.3,2.4-2.3,2.8-2.8l-1.7,1.3c1.6-1.3,3-2.4,4.2-3.5c1.1-0.8,2.1-1.5,3-2.1c0.9-0.6,1.6-1.2,2.4-1.7c0.7-0.5,1.4-1,2-1.5
				l-0.8,0.3c2.6-1.4,0.2,0.2,1.5-0.4c0.3-0.2,0.6-0.4,1-0.6c0.2-0.1,0.4-0.2,0.6-0.3l0.3-0.2c0.1-0.1,0.3-0.1,0.2-0.2
				c-0.5-1.4-0.9-2.8-1.1-3.3c-0.4-1.9-0.7-3.5-1-5.3c-0.3-2.1-0.7-4.5-1.3-7.8c0.3,1.5,0.5,2.7,0.7,3.5c0.2,0.8,0.4,1.3,0.5,1.6
				c0.3,0.7,0.4,0.7,0.6,0.6C164.7,256.3,164.9,256.1,166.1,261z"/>
			<path class="st5" d="M160.6,243.2c-0.1-0.2-0.5-1.6-0.6-4.1c-0.1-1.8,0.1-2,0.3-0.5C160.4,240.1,160.6,242.2,160.6,243.2z"/>
			<polygon class="st5" points="146.8,284.5 148.1,283.4 147.1,284.4 			"/>
			<polygon class="st5" points="145,283.2 146.5,281.8 145.7,282.6 			"/>
			<path class="st5" d="M126,311c-1.6,3,0.4-1.5-0.1-0.8C126.3,309.8,125.8,311.1,126,311z"/>
			<path class="st5" d="M129.1,302.2c-0.7,1.3,0.2,0.2,1-1c-4.1,6.2-3.5,6.8-4.6,9.5c-4.6,8.6-7.7,18.8-9.6,30
				c0,0.3,0.3-0.9,0.4-1.3c-0.6,1.5-1.1,4.7-1.6,8.4c-0.1,0.5-0.1,0.9-0.2,1.4c0,0.5-0.1,1-0.1,1.4c-0.1,1-0.1,1.9-0.2,2.9
				c-0.1,1-0.1,1.9-0.2,2.9c-0.1,0.9,0,1.8,0,2.7c-0.1-1.7-0.2-2.5-0.2-2.7c0-0.2-0.1,0.2-0.1,0.9c0,1.4-0.1,3.9-0.1,5
				c0.1,0.8,0.1,1.9,0.3,3.1c0.1,1.2,0.3,2.5,0.5,3.9c0.1,1.4,0.4,2.7,0.6,4c0.2,1.2,0.3,2.4,0.5,3.3c-0.3-1.2-0.5-2.3-0.7-3.5
				c-0.2-1.2-0.4-2.3-0.6-3.5c-0.3-0.4-0.9-4.2-0.8-1.4c0.2,1.6,0.6,4,0.6,5.4c-0.2-1.1-0.5-2.7-0.7-4.3c-0.2,0.1-0.2,1.1-0.1,2.7
				c0.2,1.6,0.4,3.7,0.8,6c-0.6-2.2-0.9-4.1-1.2-5.7c-0.4-1.6-0.6-2.9-0.8-4.1c-0.2-1.2-0.5-2.2-0.7-3.2c-0.2-1-0.3-2-0.5-3
				c0,1.2-0.1,2.4,0,3.6c0-1,0-3-0.1-5.1c0-1.1-0.1-2.1-0.1-3.2c0-1,0-2,0.1-2.7c-0.2-1-0.3-5.6,0.4-10.4c0.1-1.2,0.2-2.4,0.4-3.6
				c0.2-1.2,0.4-2.3,0.6-3.3c0.4-2.1,0.6-3.8,0.7-4.8c1.1-3,1.8-6.3,3.1-9.7c0.3-0.9,0.6-1.8,0.9-2.7c0.2-0.5,0.3-0.9,0.5-1.4
				c0.2-0.5,0.4-0.9,0.6-1.4c0.8-1.8,1.6-3.8,2.5-5.7l-0.1,0c0.9-1.7,1.7-3.2,2.5-4.6c0.4-0.7,0.7-1.3,1.1-1.9
				c0.3-0.6,0.7-1.1,1.1-1.6c1.4-2,2.5-3.6,3.6-5c1.1-1.3,2.2-2.6,3.4-4c1.2-1.5,2.7-3,4.5-5.1c-2.1,2.8-2.1,3.1-2.2,3.5
				c-0.1,0.4-0.2,1-2.5,4.4l2.1-2.3c-1,1.5-1.7,2.3-2.4,3.2c-0.4,0.5-0.7,1-1.2,1.6C130.1,300.4,129.7,301.2,129.1,302.2z"/>
			<path class="st5" d="M116.8,337.9l-0.3,2.3L116.8,337.9z"/>
			<path class="st5" d="M115.7,346.8c0,1.1-0.1,2.2-0.1,3.3C115.6,349,115.7,347.9,115.7,346.8z"/>
			<polygon class="st5" points="157.8,172 157.7,172.4 155.7,176.3 155.9,176 			"/>
			<path class="st5" d="M149.7,204c-0.2,0.5-0.1-0.6,0.2-2.3C150.5,198.9,150,202.2,149.7,204z"/>
			<path class="st5" d="M119.2,385.5l0.9,2.6L119.2,385.5z"/>
			<path class="st5" d="M119.8,391.6c-0.9-2.1-2.2-7.1-2.9-9.7C117.7,385.6,118.8,388.2,119.8,391.6z"/>
			<path class="st5" d="M116.2,382.3c-0.2-0.8-0.4-1.6-0.6-2.4c0.1,0.4,0.2,0.7,0.3,1.1L116.2,382.3z"/>
			<path class="st5" d="M135.3,417.7c0.9,1.3,0.7,1.3,0.2,0.6c-0.3-0.3-0.6-0.8-1-1.3c-0.4-0.5-0.7-1.1-1.1-1.6
				C133.4,415.3,133.8,415.6,135.3,417.7z"/>
			<path class="st5" d="M126,405.5c-0.8-1.4-1.4-2.9-2.2-4.3l0.7,1.4C125,403.6,125.4,404.6,126,405.5z"/>
			<path class="st5" d="M142.1,435.2c4,3.8,5.4,5.3,6.9,6.8c0.5,0.7-4.7-3.4-1.3-0.4c-0.4-0.3-0.8-0.7-1.4-1.1
				c-0.5-0.5-1.1-1-1.7-1.5c-0.6-0.5-1.3-1.1-1.9-1.7c-0.7-0.6-1.3-1.3-2-1.9c-0.7-0.7-1.3-1.3-1.9-2c-0.6-0.7-1.2-1.4-1.7-2
				c-1.1-1.3-2-2.4-2.6-3.3c-1.1-1.7-0.5-1.2,1,0.4C137.1,430,139.5,432.6,142.1,435.2z"/>
			<path class="st5" d="M169.8,453.6c-2.6-1.6,6.3,2.9,1.8,0.4c5.3,2.3,12.7,5.5,20.3,6.9c-0.8-0.1,1.2,0.6,3.5,1.1
				c2.3,0.5,4.8,1,4.8,0.8c3.6,1.2,9.3,2,11,2.6c-0.9,0-2.1,0-3.3-0.1c-1.3-0.1-2.5-0.2-3.6-0.2c-2-0.2-3-0.2-0.4,0.4
				c-1.3-0.2-2.8-0.4-4.3-0.7c-1.5-0.3-3-0.6-4.4-0.8c-1.4-0.2-2.5-0.5-3.3-0.7c-0.8-0.1-1.2-0.2-0.9-0.1c-4.5-1.3-8.1-2.7-11.5-4
				c-1.7-0.7-3.3-1.5-5-2.2c-1.7-0.8-3.3-1.7-5.2-2.7c-0.8-0.5,0.2-0.2,0.5-0.3c0.3,0-0.1-0.4-3.9-2.5
				C167.5,452.4,168.3,453,169.8,453.6z"/>
			<path class="st5" d="M111,298.5c-0.9,1.6-1.5,2.5-2.1,3.6c-0.3,0.5-0.6,1.1-1.1,1.8c-0.2,0.3-0.4,0.7-0.7,1.1
				c-0.2,0.4-0.5,0.9-0.7,1.4c-0.5-0.1,2.9-6.6,2.6-6.6c0.6-1.1,1.1-2.2,1.7-3.2c0.6-1,1.1-1.9,1.6-2.7c1-1.7,1.9-3.2,2.8-4.6
				c1.9-2.6,3.4-4.7,5.1-6.6c0.5-0.4,0.3-0.1,0.1,0.3c-0.2,0.5-0.6,1.1-0.6,1.2c-0.7,1.4-2.4,3.8-4.2,6.4
				C113.9,293.4,112.1,296.2,111,298.5z"/>
			<polygon class="st5" points="212.7,464.3 209.9,464.2 211.8,464.2 			"/>
			<path class="st5" d="M114.8,412.6c1.1,2.2,1.3,2.9,2.3,4.7c-0.5-0.5-0.9-0.8-1.8-2.1c-0.8-1.3-2.3-3.6-4.3-8
				c-1.2-2.7-3.3-7.7-3.6-9.5c0.2,0.1-0.2-1.7,0.8,0.7c0.2,0.6,0.5,1.2,0.7,1.9c0.3,0.6,0.5,1.2,0.8,1.8c0.5,1.2,1.1,2.4,1.6,3.6
				C112.5,407.9,113.5,410.3,114.8,412.6z"/>
			<path class="st5" d="M151.3,450.7c1,0.6,2.9,1.7,5,3.1c1.1,0.7,2.2,1.3,3.3,1.9c1.1,0.6,2.1,1.2,3.1,1.7c1.2,0.7,2.4,1.4,3.4,2
				c1,0.6,2,1.1,2.9,1.5c0.9,0.5,1.7,0.9,2.4,1.3c0.7,0.4,1.4,0.7,2,1.1c1.2,0.7,1.1,0.7,0.2,0.4c-0.9-0.3-2.6-0.9-4.5-1.8
				c-0.9-0.4-1.9-0.9-2.9-1.4c-1-0.5-1.9-1-2.8-1.4c-0.9-0.4-1.7-0.9-2.4-1.2c-0.7-0.4-1.2-0.6-1.5-0.8c-0.9-0.7-1.9-1.3-2.8-2
				c-0.9-0.7-1.7-1.4-2.5-2c-0.8-0.6-1.5-1.2-2.1-1.7c-0.6-0.5-1-1-1.4-1.3L151.3,450.7z"/>
			<path class="st5" d="M326.4,459c0.1,0.1,0.1,0.1-0.3,0.1l-1.7-0.7C325.6,458.7,326,458.9,326.4,459z"/>
			<path class="st5" d="M99,384.7c0.6,2.6,1.1,5.2,1.4,6.5c0.3,1.3,0.1,1.3-0.7-1c-0.4-1.2-1-3-1.5-5.2c-0.5-2.1-1-4.5-1.4-6.6
				c-0.8-6-0.6-7.1-0.1-5.7c0.3,1.8,0.7,3.6,1,5.6C98.1,380.3,98.6,382.4,99,384.7z"/>
			<path class="st5" d="M297.5,451.4c0.6,0.5,1.3,1,1.9,1.5C298.8,452.4,298.2,451.9,297.5,451.4z"/>
			<path class="st5" d="M284.4,445.1c-0.4,0.4-0.9,1-1.5,1.6c-0.6,0.6-1.4,1.3-2.5,2c-2.4,1.6-1,0.2-1.4,0.3
				C280.9,447.8,283.8,445.2,284.4,445.1z"/>
			<path class="st5" d="M421.5,11.5c-2.9,0.7-6.6,1.5-7.6,2c-1.1,0.1-1.4,0.1-1.9,0.2c-0.5,0.1-1.2,0.2-2.8,0.6
				c-2.2,0.6-4.5,1.2-6.8,1.8c-2.3,0.7-4.6,1.5-6.8,2.3c-1.1,0.4-2.1,0.8-3.2,1.1c-0.5,0.2-1,0.4-1.5,0.5c-0.5,0.2-0.9,0.4-1.3,0.6
				c-1.7,0.8-3.2,1.5-4.2,2.1c0.7-0.5,5.2-2.5,3.6-2.2c-2,0.7-4,1.5-6.2,2.3c-1.1,0.4-2.2,0.8-3.4,1.4c-1.1,0.6-2.3,1.1-3.6,1.7
				c4.1-2.1-2.3,0.8-2.5,0.8c-1.1,0.5-2.2,1-3.3,1.5c-1.1,0.5-2.2,1.2-3.2,1.8c-2.2,1.2-4.4,2.5-6.5,3.8c-2.1,1.4-4.1,2.8-6,4
				c-1.9,1.3-3.8,2.5-5.4,3.7c0.6-0.4,1.2-1,1.9-1.5c0.7-0.5,1.5-1,2.4-1.6c1.7-1.1,3.5-2.3,5.2-3.4c1.7-1.2,3.4-2.1,4.7-2.9
				c1.3-0.8,2.3-1.5,2.7-1.8c-0.8,0.2-3.3,1.4-6,2.9c-2.7,1.6-5.5,3.4-7.1,4.3c0,0,0.7-0.4,1.5-1c0.9-0.6,1.9-1.2,2.6-1.7
				c-1.4,0.4,2.8-2.9-5,2c0.4-0.5,1.7-1.5,3.4-2.9c0.9-0.7,1.9-1.4,3-2.3c1.1-0.8,2.4-1.6,3.7-2.4c1.3-0.8,2.7-1.7,4.1-2.6
				c0.7-0.4,1.4-0.9,2.1-1.3l2.2-1.2c3-1.6,5.9-3.3,8.6-4.6c2.4-0.9,4.8-1.9,7.3-2.9c1.2-0.4,2.4-1,3.7-1.4l3.8-1.2l3.8-1.2l1.9-0.6
				c0.6-0.2,1.3-0.4,1.9-0.5c2.6-0.6,5.1-1.2,7.6-1.8c0.3-0.1,0.9-0.4,0.7-0.5c0.7-0.1,1.5-0.2,2.4-0.4c0.9-0.1,1.9-0.2,3-0.3
				c2.2-0.3,4.7-0.6,7.2-0.9c1.3-0.2,2.6-0.3,3.9-0.4c1.3-0.1,2.6-0.2,3.9-0.3c1.3-0.1,2.5-0.2,3.7-0.3c1.2-0.1,2.3-0.2,3.3-0.2
				c2.1,0.1,0.7,0.2-0.8,0.3c-1.5,0.1-3,0.4-1.3,0.4c-0.3,0.2,4.7,0.2,7.1,0.2c-3.4,0.9-4.4,1.3-5.3,2.1c-2.9-0.1-5.4,0.4-7.8,0.8
				C426.5,10.7,424.1,11.1,421.5,11.5z"/>
			<path class="st5" d="M378.4,462.1c-0.3,0.1,0.5,0,0.9-0.1l2.6-0.8l2.5-0.9l2.5-0.9c0.8-0.3,1.6-0.7,2.5-1l0.3,0.1
				c1-0.4,2-0.7,3-1.1c0.9-0.4,1.9-0.8,2.8-1.1c1.8-0.7,3.5-1.5,5.2-2.3c3.5-1.6,6.9-3.5,11.2-6.1c1.6-1,3.1-1.9,4.5-2.8
				c1.4-0.9,2.7-1.8,4-2.7c2.5-1.8,4.8-3.4,6.8-5.1c4.1-3.3,7.7-6.5,11.6-11c1-0.9,0.4-0.2-0.6,1.1c-0.5,0.6-1.2,1.4-1.8,2.2
				c-0.7,0.7-1.3,1.5-1.8,2.1c0.7-0.5-1.1,1.9,2.1-1.8c-1.2,1.5-1.8,2.3-2.3,3c-0.5,0.7-0.9,1.4-1.9,2.5c0.9-0.8,1.8-1.6,2.6-2.4
				c-1.5,1.8-3,3.3-4.1,4.5c-1.2,1.2-2.2,2.2-2.6,2.9c1.3-1,2.3-1.9,3.2-2.8c0.9-0.9,1.8-1.7,2.8-2.7c-0.7,0.7-1.4,1.4-2.1,2.1
				c-0.7,0.7-1.3,1.3-2.1,2c-1.5,1.3-2.7,2.5-4.6,4c-0.9,0.7-1.8,1.5-2.7,2.2c-0.9,0.7-1.9,1.4-2.9,2.1c-0.5,0.4-1,0.7-1.5,1.1
				c-0.5,0.3-1.1,0.7-1.6,1c-1.1,0.7-2.2,1.4-3.4,2.1c0.5-0.2,1.1-0.4,1.6-0.6c-1.1,0.7-2.2,1.3-3.2,1.8c-1,0.5-2,1-3,1.5
				c-1,0.5-2.1,0.9-3.2,1.5c-0.6,0.3-1.1,0.6-1.7,0.9c-0.6,0.3-1.3,0.6-2,0.9l0.7-0.1c-1.1,0.4-2.1,0.9-3.1,1.3c-1,0.4-2,0.7-3,1
				c-1,0.3-1.9,0.6-2.8,0.9c-0.9,0.3-1.9,0.5-2.8,0.8c-0.9,0.2-1.8,0.5-2.8,0.7c-0.9,0.2-1.9,0.4-2.9,0.6c-1,0.2-2,0.4-3,0.6
				c-1,0.2-2.1,0.3-3.2,0.5c-2.5,0.4-4,0.4-4.7,0.4c-0.7,0-0.7-0.2-0.2-0.4c0.4-0.2,1.2-0.5,2.1-0.8
				C377,462.7,377.8,462.4,378.4,462.1z"/>
			<path class="st5" d="M274.2,455c2-1.1,2.5-1.3,2.7-1.3c-1.4,1.1-4.9,3.1-7.5,4.2c-1,0.4-0.5,0,0.6-0.6
				C271.2,456.7,272.9,455.7,274.2,455z"/>
			<path class="st5" d="M283.9,447c0.9-0.7,0.2-0.1,0.3,0c-0.3,0.3-0.8,0.7-1.2,1c-0.4,0.3-0.7,0.4-0.5,0.1
				C282.8,447.8,283.4,447.4,283.9,447z"/>
			<path class="st5" d="M357.9,469.2l1.5-0.1L357.9,469.2z"/>
			<polygon class="st5" points="434,431.7 434.2,431.4 436.2,429.6 435.9,429.8 			"/>
			<path class="st5" d="M409.7,454.4c-1.7,0.8-3.4,1.4-5.1,2.2l4.5-2L409.7,454.4z"/>
			<path class="st5" d="M444,429.8c0.6,0.6,0.4,0.6-0.6-0.3C442.5,428.5,442.9,428.8,444,429.8z"/>
			<path class="st5" d="M444.2,431.2l3.4,3.3L444.2,431.2z"/>
			<path class="st5" d="M443.4,431.8c-0.6-0.2,2,2,2.8,2.7c-1.1-0.8-2.1-1.8-3.2-2.9c-0.5-0.6-1.1-1.2-1.6-1.8
				c-0.3-0.3-0.6-0.6-0.9-1c-0.2-0.2-0.3-0.3-0.5-0.5l-0.3-0.3l-0.1-0.1l-0.1-0.1c0,0,0,0-0.1,0.1c-0.3,0.3-0.5,0.7-0.8,1
				c0.3-0.3,0.5-0.7,0.8-1.1l0.1-0.1c0,0,0,0,0.1,0l0.1,0.1l0.2,0.2c0.2,0.1,0.3,0.3,0.5,0.4c0.3,0.3,0.6,0.6,1,1
				C442,430.2,442.7,431,443.4,431.8z"/>
			<path class="st5" d="M624.6,387.1c0.4-1,0.8-2,1.2-3c0.3-1.1,0.7-2.2,1.1-3.3c0.2-0.6,0.3-1.1,0.5-1.7l0.4-1.7
				c0.3-1.1,0.6-2.3,0.9-3.4c0.2-1.1,0.4-2.2,0.7-3.3c0.2-1.1,0.4-2.1,0.6-3.2c0.3-2.1,0.7-3.9,0.9-5.6c0,0.3-0.1,1-0.1,1.5
				c-0.1,0.5-0.1,0.9,0,0.5c0.3-2.9,0.5-4.7,0.7-5.9c0.1-1.2,0.3-1.8,0.4-2.5c0.1-0.6,0.3-1.3,0.4-2.5c0.1-1.2,0.1-3,0.1-6l0.2,4.7
				c0.1-0.3,0.2-1.3,0.3-2.5c0-0.6,0-1.3,0.1-2c0-0.8,0-1.6,0-2.4c0,0.8,0.1,1.8,0.1,2.8c0,0.9,0,1.9,0,2.7c0.3-1.7,0.7,0.6,0.9,2.4
				c0,0.1-0.1,0.4-0.2,1.1c0.1,1.7,0.1,2.8,0.1,4.4c0,0.8-0.1,1.7-0.2,2.8c-0.1,1.1-0.1,2.5-0.4,4.1c0.1,0.1,0.2-0.5,0.3-1.2
				c0.1-0.7,0.2-1.7,0.3-2.5c-0.3,1.9-0.7,4.3-1.2,7c-0.2,1.4-0.6,2.8-0.8,4.2c-0.3,1.5-0.6,3-1,4.4c-1.5,6-3.6,12-5.8,15.8
				c-0.5,1.4-1,2.5-1.5,3.4c-0.5,0.9-0.8,1.6-1.2,2.2c-0.7,1.3-1.5,2.2-2.4,3.8c-1.2,2-1.9,2.9-2.2,3.3c-0.4,0.4-0.4,0.2-0.4-0.1
				c0.8-1.8,1.5-3.9,2.8-6.8c0.6-1.5,1.3-3.1,2-5c0.4-1,0.8-2,1.2-3.1C623.8,389.5,624.2,388.3,624.6,387.1z"/>
			<path class="st5" d="M317.8,469.5c3.5,1.3,2.9,1.3,2.2,1.2c-3.7-1-6.7-2.5-8.2-3.2c0.1,0,1.1,0.3,2.3,0.7
				C315.4,468.7,316.8,469.2,317.8,469.5z"/>
			<path class="st5" d="M495.5,457.8c1.2,0.3,2.5,0.6,3.7,0.8C497.9,458.3,496.7,458,495.5,457.8z"/>
			<path class="st5" d="M405.4,461.5c0.3-0.1,0.6-0.2,0.9-0.3l-2.8,1.2C403.7,462.2,404.6,461.9,405.4,461.5z"/>
			<path class="st5" d="M415.4,456.6l0.1,0l-2.5,1.3C414.1,457.2,415,456.8,415.4,456.6z"/>
			<path class="st5" d="M412.5,459.4c2.3-1.3,4.7-2.5,6.9-4c-2.8,2-3.7,2.5-4.4,3.1c-0.7,0.5-1.2,1-3.6,2.5c-3,1.4-8.6,4.3-12.5,5.3
				c-1.5,0.4-1.2,0,1.3-1.1c1.1-0.4,2.4-1.1,3.9-1.7c0.7-0.3,1.4-0.7,2.1-1c0.7-0.3,1.4-0.7,2-1c1.3-0.7,2.4-1.3,3.2-1.6
				C412.3,459.4,412.6,459.2,412.5,459.4z"/>
			<polygon class="st5" points="631,349.9 631,351.4 631,350.6 			"/>
			<polygon class="st5" points="413,459 412.6,459.2 413.5,458.6 			"/>
			<path class="st5" d="M652.3,272.3l0,1.2c0,0.4,0,0.8-0.1,1.1c0-0.6,0.1-1.1,0-1.7L652.3,272.3z"/>
			<path class="st5" d="M404.5,464.6l2.5-1.1L404.5,464.6z"/>
			<polygon class="st5" points="631.9,351.1 631.9,348.4 631.9,346.9 631.8,345.3 631.9,346.9 631.9,348.4 			"/>
			<polygon class="st5" points="630.8,336.6 631.1,339.8 631,338.8 			"/>
			<path class="st5" d="M637.3,329.6c1.2-0.9,0.2,0-0.3,0.4C636.6,330.2,635.9,330.7,637.3,329.6z"/>
			<path class="st5" d="M633.5,347.3c0.1,0.7,0,1.3-0.1,2C633.4,348.4,633.5,348.3,633.5,347.3z"/>
			<path class="st5" d="M634.3,351.7c-0.1,1.3-0.1,2.9-0.2,4.2c-0.1,1.3-0.1,2.4-0.2,2.8c0.1-1.2,0.1-2.8,0.1-4.1
				C634.1,353.2,634.2,352.1,634.3,351.7z"/>
			<path class="st5" d="M635.6,332.2c1.4-0.9,2.7-1.9,4-2.9C638.3,330.3,637,331.3,635.6,332.2z"/>
			<polygon class="st5" points="633.2,343.1 633.5,345.1 633.5,346.6 633.2,344.1 			"/>
			<path class="st5" d="M436.4,444.1c0.6-0.5,0.2,0.2-0.4,0.8c-0.6,0.6-1.3,1.3-1.4,1.1C434.9,445.6,435.7,444.8,436.4,444.1z"/>
			<path class="st5" d="M439.2,440.4c0.1,0.2-1.6,2.2-1.6,1.8C438.3,441.5,438.7,440.8,439.2,440.4z"/>
			<path class="st5" d="M437.9,443.6c0,0.3-0.7,0.8-1.2,1.3C437.2,444.3,437.2,444.1,437.9,443.6z"/>
			<path class="st5" d="M438.1,447c-0.5,0.7-0.8,1.1-1.1,1.5c-0.1,0.2-0.3,0.4-0.5,0.6c-0.3,0.3-0.7,0.6-1.2,1
				c0.2-0.3,0.4-0.5,0.7-0.8c0.1-0.1,0.3-0.3,0.4-0.4c0.1-0.1,0.2-0.2,0.3-0.3C437.1,448.1,437.6,447.6,438.1,447z"/>
			<path class="st5" d="M437.8,448c-0.1,0-0.1,0.4-0.5,0.5L437.8,448z"/>
			<polygon class="st5" points="438.7,446.8 438.2,447.4 438.5,447 			"/>
			<path class="st5" d="M439.1,446.6c-0.2,0.3-0.4,0.6-0.6,0.8C438.7,447.2,438.9,446.9,439.1,446.6L439.1,446.6z"/>
			<path class="st5" d="M449.4,453.2c0.4,0.4,0,0.2-0.6-0.2c-0.6-0.4-1.4-1.1-1.9-1.5C447.3,451.6,448.3,452.5,449.4,453.2z"/>
			<path class="st5" d="M671.2,267.8l0.2-4c0.1,0.7,0.2,1.7,0.3,2.9c0.1,1.2,0.2,2.6,0.1,4c-0.1,1.4-0.1,2.8-0.2,4
				c-0.1,1.2-0.3,2.2-0.4,2.8c-0.3,0.8-0.2-0.7-0.1-2.9c0-1.1,0-2.4,0.1-3.6c0-0.6,0-1.2,0-1.7C671.2,268.7,671.2,268.2,671.2,267.8
				z"/>
			<path class="st5" d="M642.1,340.1c0.1,0.2,0.3,1.7,0.4,3c0,1-0.1,0.3-0.3-0.7C642,341.5,641.9,340.2,642.1,340.1z"/>
			<polygon class="st5" points="672.9,293.7 671.4,297.9 672.8,293.5 			"/>
		</g>
	</g>
	<path class="st5" d="M388.6,199.7c0,21.4-17.4,38.8-38.8,38.8c-11.5,0-21.9-5-29-13c-2.1-2.4-3.9-5-5.4-7.8
		c-2.8-5.4-4.5-11.5-4.5-18.1c0-21.4,17.4-38.8,38.8-38.8c3.7,0,7.4,0.5,10.8,1.5c4.1,1.2,8,3.1,11.4,5.5c1.6,1.1,3,2.3,4.4,3.6
		C383.9,178.6,388.6,188.6,388.6,199.7z"/>
	<path class="st0" d="M403.1,140.5c16,0.8,31.7,4.9,46.1,11.9c4.1,2,8,4.2,11.8,6.7c1.6,1,3.5-1.3,1.8-2.4
		c-13.8-8.9-29.3-14.9-45.4-17.7c-4.6-0.8-9.2-1.3-13.9-1.5C401.6,137.5,401.1,140.4,403.1,140.5L403.1,140.5z"/>
	<path class="st0" d="M303.9,161.9c15.3-8.9,31.3-16.4,47.8-22.5c4.7-1.7,9.5-3.3,14.3-4.8c1.8-0.6,0.6-3.3-1.2-2.8
		c-16.8,5.2-33.2,12-48.9,20.1c-4.5,2.3-8.9,4.7-13.3,7.3C301,160.1,302.2,162.9,303.9,161.9L303.9,161.9z"/>
	<g class="st4">
		<path class="st5" d="M622.7,197.7c-2.3-0.9-4.6-1.4-6.9-1.3c-3.6-0.2-6.8-1.7-10.7-1.9c-1-0.1-1.9,0-2.8,0
			c-0.9,0.1-1.8,0.2-2.7,0.3c-1.9-0.1-4,0-6,0.4c-2,0.4-4.1,1-6,2c-0.5,0.1-1.9,0.4-1.1,1.5c-4.1,1.2-8.3,3-11.3,6.3
			c-1.4,1.3-3.6,1.6-4.9,2.9c-2,2.3-5.1,3.2-7.1,5.4c-0.1,0.4-0.2,1.6-0.5,1.7c-1.9,1-3,2.6-3.7,4.3c-0.7,1.8-1.1,3.6-1.6,5.3
			c-0.1,0.3-0.2,0.6-0.3,0.9c-0.1,0.3-0.2,0.6-0.2,0.8c-0.1,0.6-0.4,1.1-0.6,1.6c0.5,0.3,0.3,0.6,0.4,0.9c-0.1,0.2-0.4,0.6-0.6,1.1
			c-0.3,0.5-0.8,1.1-1.1,1.8c-0.2,0.3-0.4,0.6-0.6,0.9c-0.2,0.3-0.3,0.6-0.5,0.8c-0.3,0.5-0.6,0.9-0.8,1c-0.2,0.1-0.1-2.5,0.5-5.1
			c0.6-2.6,1.7-5.2,1.4-5.3c-0.1,0-0.4,0.4-0.7,1.1c-0.4,0.6-0.7,1.5-1,2.4c-0.4,0.9-0.5,1.8-0.8,2.5c-0.2,0.7-0.3,1.3-0.4,1.4
			c-0.1-3.4,0.4-6.3,1-8.7c0.3-1.2,0.6-2.2,1-3.1c0.3-0.9,0.6-1.7,0.9-2.3c0.5-1.3,0.9-2.2,1-2.6c0.2-0.5,0.1-0.6,0-0.4
			c-0.2,0.2-0.5,0.7-0.9,1.3c-0.4,0.7-0.8,1.6-1.3,2.6c-0.9,2-1.7,4.6-2.1,6.8c-0.3,0.6-0.4,1.5-0.5,2.5c-0.1,1-0.2,2.1-0.4,3.4
			c0-0.4-0.2-0.9-0.3-1.5c-0.1-0.6-0.2-1.2-0.4-1.8c-0.2-1.3-0.3-2.4-0.2-2.8c0.1-1,0.3-1.6,0.3-2.2c0-0.6,0.1-1,0.2-1.5
			c0.2-0.9,0.4-1.9,1.7-3.6c0.5-0.7,1.1-1.6,1.6-2.6c0.6-1,1.1-2.1,1.7-3.1c1.2-2.1,2.4-4.1,3.4-5.3c-0.5,1.8-1.3,6-2.9,7.6
			c2-1.5,2.5-2.9,2.9-4.5c0.4-1.6,0.8-3.3,2.9-4.9c0.3-0.3,0.7-0.8,1-1.4c0.5-0.3,1-0.5,1.6-0.9c3.3-2.7,5.5-5.7,9.2-7.9
			c-0.3,0.2-0.9-0.2-1.2,0c-3.7,1.3-5.1,4.3-8.3,6.5c-0.7,0.3-0.8,1.8-1.4,2.3c-1.2,1.1-2.6,1.6-4,2.3c1.6-2.7,4.4-4.9,6.7-7
			c0.4-0.5,0.6-1.5,0.8-2.1c-1.2,0.9-2.3,1.8-3.5,2.7c-1.9,1.8-3.6,4.4-5.3,6.9c-1.7,2.4-3.2,4.6-5.2,5.6c0,0.1-0.1,0.2-0.1,0.5
			c-0.1,0-0.2,0-0.3,0.1c-0.5,0.6-1.1,1.3-1.9,1.7c0.5-0.5,0.9-1.1,1.4-1.6c0.9-2.9,2.8-5.3,4.8-7.4c2.1-2.2,4.4-4.1,6.3-6.2
			c0.8-1.1,3.1-1.5,3.9-2.5c2.4-2.8,5.8-5,9.6-6.4c3.3-1.4,6.8-2.5,10.3-3.3c3.5-0.8,7-1.1,10.4-1.1c6.9,0,13.4,1.5,19.2,3.9
			c0.3,0,0.6,0,0.8,0c-0.1-0.1-0.2-0.3-0.3-0.4c0.3,0.1,0.5,0.3,0.7,0.5c1.5,0.1,3,0.6,4.4,1.5c0.5,0.6-1.1-0.2-1.6,0.3
			c0.3,0.1,0.6,0.3,0.6,0.3s-0.1,0.3-0.2,0.6c0.3-0.1,0.4,0.3,0.5,0.5c-3.2-0.6-6.4-0.7-9.7-0.8c0.4,0.8,1.3,0.7,1.8,0.8
			c1.1-0.2,2.2-0.2,3.1,0.1c2.7,0.1,5.3,2,7.6,2.9c0.4,0.3,0.8,0.7,1.1,1.1c0.3,0.3,0,0.6-0.4,0.8
			C623.6,197.9,623.1,197.9,622.7,197.7z M580.7,191.4c1.1-0.2,2.2-0.2,3.3-0.2c0.3-0.1,0.7-0.2,1-0.3c0.4-0.1,0.9-0.3,1.3-0.6
			c1-0.2,2-0.3,2.9-0.4c1-0.1,1.9-0.2,2.9-0.2c-1.1-0.3-2.2-0.5-3.3-0.5c-1.1,0-2.3,0.1-3.5,0.4c3-1.2,6-1.5,9-1.2
			c2.9,0.2,5.8,0.9,8.5,1.5c1.6,0.1,3.3,0.2,4.9,0.3c1.2,0,2.3-0.1,3.4-0.2c-7.1-1.8-14.8-3-22.9-2c-4.1,0.5-8.1,1.6-11.9,3.2
			c-3.8,1.6-7.4,3.6-10.6,5.9C570.7,195,575.4,192.6,580.7,191.4z M579.5,193c-1.8,0.9-3.5,2-5.1,3.2c-4.5,2.9-9.2,6.5-10.5,10.3
			c3.1-3.6,6.4-7.2,10.5-10.3c-2,1.3-2.3,1.6-1.4,1c0.9-0.6,3-2,5.8-3.7C578.9,193.4,579.2,193.2,579.5,193z"/>
		<path class="st5" d="M608.3,186.3c2.2,0.9,4.4,1.8,6.4,3c-0.7-1-1.4-1.8-2.4-2.6c-2.6-1.7-5.7-1.7-8.7-2.4
			c-4.3-1-8.9-1.3-13.6-0.6c-2.3,0.4-4.7,0.9-7,1.7c-2.3,0.8-4.5,1.8-6.6,2.9c-0.5,0.2-1.4,0.6-1.9,1.2c5.4-2.5,11.3-4.4,17-4.9
			C597.4,184,603,184.6,608.3,186.3z"/>
		<path class="st5" d="M561.8,196.9c-1.1,1.2-2.2,2.5-3.5,3.5c1.5-0.5,3.1-1.7,4.4-2.6c1.6-1.5,3.3-2.9,5-4.2
			C565.6,194.5,563.6,195.5,561.8,196.9z"/>
		<path class="st5" d="M574.6,189.5c-0.4,0.2-0.9,0.4-1.3,0.6c-2,0.9-3.9,2.2-5.6,3.5c2.2-1,4.5-1.8,6.8-2.6
			C574.1,190.4,574.2,189.9,574.6,189.5z"/>
	</g>
	<g class="st4">
		<path class="st5" d="M581.2,164.8c-0.1-1.7-0.3-3.4-0.5-5c-0.3-1.6-0.8-3.1-1.3-4.6c-0.4-1.2-0.5-2.4-0.8-3.6
			c-0.2-1.2-0.4-2.4-0.5-3.6c-0.2-1.2-0.3-2.5-0.5-3.7c-0.2-1.2-0.5-2.5-0.9-3.8c-0.3-1.3-0.6-2.5-1.1-3.7c-0.4-1.2-0.9-2.4-1.4-3.6
			c-0.3-1.3-0.6-2.6-1.1-3.9c-0.4-1.3-0.9-2.6-1.5-4c-1-2.7-2.4-5.3-3.9-7.9c-0.1-0.3-0.3-0.9-0.6-1.4c-0.3-0.4-0.8-0.6-1.3-0.2
			c-0.6-1.3-1.2-2.6-1.9-3.9c-0.6-1.3-1.2-2.6-2-3.8c-0.7-1.2-1.5-2.4-2.4-3.5c-0.4-0.6-0.8-1.1-1.3-1.7c-0.5-0.5-1-1-1.5-1.5
			c-0.8-0.9-1.4-1.9-2-3c-0.3-0.5-0.6-1.1-0.9-1.6c-0.4-0.5-0.7-1-1.2-1.4c-1.5-1.2-2.7-2.8-3.8-4.4c-1.2-1.5-2.4-3-3.8-4.3
			c-0.5-0.2-1.8-0.5-2.1-0.8c-1.5-2.2-3.6-3.7-5.8-4.9c-2.3-1.1-4.7-1.9-6.9-3c-1.7-0.9-3.1-1.4-4.6-2.5c-0.5,0.4-0.8,0.1-1.3,0
			c-0.3-0.2-0.9-0.7-1.6-1.3c-0.7-0.6-1.6-1.3-2.4-2c-1.7-1.5-3.2-3-3.4-3.5c-0.1-0.3,3.4,1.5,6.8,3.2c3.4,1.9,6.7,3.8,6.8,3.4
			c0-0.3-2.2-1.6-4.5-3c-0.6-0.3-1.1-0.7-1.7-1c-0.6-0.3-1.1-0.6-1.6-0.8c-0.9-0.5-1.6-0.9-1.8-1c1.1,0.4,2.2,0.8,3.2,1.1
			c1,0.4,1.9,0.8,2.9,1.1c1.8,0.7,3.5,1.4,4.9,2c2.9,1.3,5.1,2.4,6.7,3.1c3.2,1.6,4.1,2,3.6,1.5c-0.5-0.4-2.3-1.7-4.8-2.9
			c-1.2-0.6-2.6-1.3-4-2c-1.4-0.7-2.9-1.2-4.3-1.8c-1.5-1.1-4.1-1.7-7.2-3.2c1,0.3,2.7,0.4,4.3,0.7c1.5,0.3,2.9,0.5,3.4,0.7
			c2.2,0.9,3.3,1,4.4,1.4c1,0.4,2.1,0.9,4.2,2.6c0.9,0.7,2,1.3,3.2,2.1c1.2,0.8,2.5,1.5,3.7,2.3c2.6,1.5,5,3,6.6,4.2
			c-1.1-0.3-2.9-0.8-4.6-1.5c-1.8-0.6-3.5-1.4-4.6-2.4c2,2.5,3.8,3,5.7,3.7c1.9,0.6,3.9,1.2,6.1,3.6c0.4,0.4,1,0.9,1.7,1.3
			c0.4,0.6,0.8,1.2,1.3,2c0.9,1,1.9,1.9,2.8,2.8c0.9,0.9,1.8,1.8,2.7,2.8c0.9,0.9,1.8,1.8,2.6,2.8c0.8,1,1.6,2.1,2.3,3.2
			c-0.3-0.3,0.1-1-0.2-1.4c-0.5-1.1-1-2.1-1.7-3c-0.7-0.9-1.4-1.7-2.2-2.4c-1.6-1.6-3.1-3.1-4.8-4.9c-0.5-0.8-2.1-1.1-2.8-1.8
			c-0.7-0.7-1.2-1.5-1.8-2.3c-0.5-0.8-1-1.6-1.6-2.4c0.8,0.5,1.7,1.1,2.5,1.7c0.8,0.6,1.5,1.4,2.3,2.1c1.5,1.5,3,3,4.4,4.5
			c0.6,0.6,1.8,0.9,2.5,1.2l-1.8-2.2c-0.6-0.7-1.3-1.4-1.9-2.1c-1.2-1.2-2.6-2.3-4.1-3.4c-1.5-1.1-3.1-2.1-4.6-3.1
			c-3-2.1-5.8-3.9-7-6.2c-0.1-0.1-0.3-0.1-0.6-0.2c0-0.1-0.1-0.2-0.1-0.3c-0.7-0.6-1.5-1.4-2.1-2.3l1,0.8l1,0.9
			c3.2,1.3,6.3,3.4,9,5.9c1.4,1.2,2.8,2.5,4.1,3.8c1.3,1.3,2.7,2.6,4.1,3.8c1.4,0.9,2.3,3.8,3.6,4.8c1.8,1.6,3.5,3.4,4.8,5.5
			c0.7,1,1.4,2.1,2,3.1c0.6,1.1,1.2,2.1,1.7,3.3l2.7,5.9c0.9,2,1.6,4,2.4,6c0.4,1,0.8,2,1.1,3l1,3.1c0.6,2.1,1.3,4,1.7,6.1l1.4,6.2
			c0.4,2.1,0.7,4.1,1,6.2c0.3,2,0.5,4.1,0.6,6.2c0.1,2.1,0.3,4.1,0.2,6.1c0.1,0.4,0.2,0.7,0.3,1.1c0.1-0.2,0.2-0.4,0.3-0.6l-0.1,1.1
			c0.5,2,0.8,3.9,0.4,6c-0.3,0.9-0.3-1.4-0.9-1.9c0,0.4,0,0.9,0,0.9s-0.3,0-0.6,0c0.2,0.3-0.1,0.6-0.3,0.8c-0.2-1.1-0.4-2.1-0.7-3.2
			l-0.8-3.1c-0.5-2.1-1.1-4.2-1.7-6.3c-0.6,0.7-0.1,1.9-0.1,2.5c0.6,1.3,1.1,2.7,1.2,4c0.5,1.8,0.7,3.6,0.7,5.5
			c-0.1,1.9-0.2,3.7-0.1,5.5c-0.1,0.7-0.3,1.3-0.5,2c-0.2,0.5-0.5,0.2-0.9-0.2C581.4,166.1,581.1,165.4,581.2,164.8z M572.8,109.6
			c0.4,1.3,0.6,2.6,0.8,4c0.2,0.4,0.3,0.8,0.5,1.3c0.2,0.5,0.5,1,0.9,1.5l1.2,3.5l1,3.5c0-1.3-0.1-2.7-0.3-4.1
			c-0.3-1.3-0.7-2.7-1.3-4.1c0.5,0.9,0.9,1.7,1.3,2.6c0.2,0.4,0.4,0.9,0.6,1.3c0.1,0.5,0.3,0.9,0.4,1.4c0.5,1.8,1,3.6,1.3,5.4
			c0.1,0.4,0.2,0.9,0.3,1.3l0.2,1.4l0.3,2.7c0.1,0.9,0.2,1.8,0.3,2.7l0.2,1.3l0.1,1.4c0.5,2.1,1,4.2,1.6,6.3
			c0.4,1.5,0.9,2.9,1.5,4.3c-1.1-9.5-2.7-19.2-5.7-28.7c-3-9.5-7.4-18.8-13.8-27c0.8,1.5,1.6,3,2.4,4.4c0.8,1.5,1.5,3,2.2,4.5
			c0.7,1.5,1.5,2.9,2.1,4.5C571.6,106.5,572.2,108,572.8,109.6z M570.8,108.1c-0.7-1.1-1.3-2.2-2-3.3c-0.7-1-1.5-2.1-2.3-3.1
			c-3.8-5.7-8.8-11.5-13.3-13.2c1.2,1,2.3,2,3.5,2.9c0.6,0.5,1.2,1,1.7,1.5c0.6,0.5,1.1,1.1,1.7,1.6c1.1,1.1,2.2,2.2,3.3,3.4
			c1.1,1.2,2.1,2.5,3.1,3.7c-1.8-2.5-2-2.9-1.3-1.7c0.4,0.6,1,1.5,1.9,2.7c0.4,0.6,0.9,1.3,1.4,2c0.5,0.7,1,1.6,1.6,2.4
			C570.3,107.3,570.5,107.7,570.8,108.1z"/>
		<path class="st5" d="M586,142.5c-0.1,3,0,5.9-0.3,8.9c0.7-1.3,1.1-2.4,1.5-3.8c0.3-1.8,0.1-3.7-0.1-5.6c-0.3-1.9-0.7-3.7-0.8-5.6
			c-1-10.8-4.8-21.7-10.8-31.5c-0.2-0.5-0.8-1.6-1.5-2.3c0.8,1.6,1.6,3.3,2.4,4.9c0.4,0.8,0.8,1.6,1.2,2.4c0.3,0.8,0.7,1.6,1,2.5
			c0.7,1.6,1.3,3.3,2,4.9c0.6,1.7,1.1,3.3,1.7,5c1.1,3.3,1.8,6.7,2.5,10c0.4,1.7,0.5,3.4,0.8,5.1C585.7,139,585.9,140.7,586,142.5z"
			/>
		<path class="st5" d="M563.6,86.8c-1.6-1.4-3.3-2.8-4.6-4.3c0.8,1.8,2.4,3.7,3.8,5.2c2,2,3.8,4.2,5.7,6.3
			C567,91.6,565.6,89.1,563.6,86.8z"/>
		<path class="st5" d="M573.9,102.5c-0.3-0.5-0.5-1-0.8-1.5c-1.4-2.3-2.9-4.7-4.6-6.9c1.4,2.7,2.5,5.5,3.9,8.1
			C572.8,101.9,573.4,102.1,573.9,102.5z"/>
	</g>
	<ellipse transform="matrix(0.4184 -0.9083 0.9083 0.4184 203.4178 885.7209)" class="st0" cx="793.3" cy="284" rx="7.8" ry="4.8"/>
	<g class="st7">
		<g>
			<g>
				<path class="st3" d="M168.3,349.4c-2.6-36.2,16.4-68.9,45.8-85.3c-3-8.7-4.9-17.9-5.6-27.5c-3.4-47.4,24-89.7,65-107
					c-2,0-4.1,0.1-6.2,0.2c-57.5,4.1-100.8,54.6-96.7,112.9c0.7,9.4,2.5,18.5,5.4,27c-28.9,16.1-47.5,48.2-44.9,83.7
					c3.5,48.7,45.3,85.4,93.4,82c6.3-0.4,12.4-1.6,18.3-3.3C203,425.5,171.3,391.9,168.3,349.4z"/>
			</g>
		</g>
	</g>
	<g class="st4">
		<path class="st5" d="M180.7,342.1c-1,1-1.6,2.1-1.8,3.4c-0.5,1.9-2.5,3.1-3.4,5.2c-0.5,1-0.7,2-0.9,3c-1.1,2-1.7,4.5-1.2,6.9
			c-0.1,0.3-0.3,1.2,1,0.8c-0.3,2.5-0.3,5.3,1.3,7.5c0.6,1,0,2.5,0.6,3.5c1.2,1.5,0.7,3.7,1.7,5.1c0.3,0.1,1.2,0.2,1.2,0.4
			c0,1.4,0.8,2.2,1.8,2.8c1,0.6,2.2,0.8,3.2,1.2c0.3,0.2,0.7,0.3,0.9,0.4c0.3,0.1,0.5,0.3,0.8,0.5c0.4-0.4,0.5-0.3,0.7-0.3
			c0.1,0.1,0.2,0.3,0.4,0.6c0.2,0.3,0.4,0.7,0.5,1c0.2,0.4,0.4,0.8,0.6,1.1c0.2,0.3,0.3,0.7,0.3,0.9c0,0.2-1.4-0.1-2.7-0.8
			c-1.3-0.6-2.7-1.6-2.9-1.3c-0.1,0.2,0.7,0.9,1.6,1.5c0.4,0.3,0.9,0.6,1.3,0.8c0.4,0.2,0.6,0.3,0.7,0.4c-2-0.1-3.8-0.7-5.2-1.2
			c-1.4-0.6-2.5-1.1-3.3-1.6c-1.6-0.9-2.1-1.1-2-0.9c0.2,0.3,1,1,2.2,1.8c1.2,0.8,2.7,1.5,4.1,1.9c0.3,0.3,0.8,0.4,1.4,0.6
			c0.6,0.1,1.3,0.3,2,0.6c-0.3,0-0.6,0.1-1,0.2c-0.4,0.1-0.9,0.1-1.3,0.2c-0.9,0.1-1.8,0.1-2,0c-1.2-0.4-1.9-0.4-2.5-0.6
			c-0.6-0.2-1.2-0.5-2-1.6c-0.7-0.9-1.9-1.8-3.2-2.8c-1.2-1-2.4-2-3.1-2.7c1.4,0.4,4.5,1.2,5.1,2.4c-0.4-1.6-1.4-1.9-2.5-2.3
			c-1.1-0.4-2.4-0.8-3-2.3c-0.2-0.3-0.4-0.5-0.8-0.8c0-0.4-0.1-0.7-0.1-1.2c-1-2.4-2.8-4.1-3.4-6.8c0.1,0.2-0.5,0.6-0.5,0.8
			c-0.3,2.6,1.8,3.8,2.5,6.1c0,0.5,1.2,0.7,1.4,1.1c0.5,0.9,0.3,2,0.4,3c-1.6-1.3-2.4-3.4-3.4-5.1c-0.2-0.3-1.1-0.5-1.5-0.7
			c0.3,0.9,0.6,1.7,1,2.6c0.8,1.4,2.4,2.8,3.8,4.2c1.4,1.3,2.5,2.6,2.6,4.2c0.1,0,0.2,0.1,0.3,0.1c0,0.1,0,0.1,0,0.2
			c0.3,0.4,0.6,0.9,0.6,1.6c-0.3-0.4-0.5-0.8-0.8-1.2c-1.9-0.9-3.2-2.4-4.2-4.1c-1-1.6-1.8-3.4-2.9-4.9c-0.6-0.6-0.1-2.3-0.7-2.8
			c-1.5-1.8-2.2-4.4-2.1-7c-0.1-2.4,0.1-4.8,0.5-7.1c0.4-2.4,1.1-4.6,1.9-6.6c1.8-4.1,4.3-7.6,7.5-10.3c0-0.2,0.1-0.3,0.1-0.5
			c-0.2,0-0.3,0-0.5,0.1c0.2-0.1,0.4-0.2,0.5-0.3c0.3-0.9,0.9-1.6,1.9-2.1c0.6-0.1-0.3,0.6,0.1,1c0.2-0.1,0.3-0.3,0.3-0.3
			s0.3,0.2,0.5,0.3c-0.1-0.2,0.3-0.1,0.5-0.1c-0.8,1.7-1.4,3.5-2,5.3c0.8,0,0.9-0.5,1.1-0.8c0-0.6,0.1-1.3,0.5-1.7
			c0.4-1.5,2.4-2.4,3.4-3.4c0.3-0.1,0.7-0.2,1.1-0.3c0.3-0.1,0.5,0.2,0.7,0.5C180.9,341.7,181,342,180.7,342.1z M165.7,364.4
			c0.2-0.7,0.6-1.4,1-2.2c0-0.2,0-0.5,0.1-0.7c0.1-0.3,0-0.6-0.2-0.9c0.3-1.3,0.7-2.5,1.2-3.6c-1.1,1.2-2.1,2.5-2.2,4.1
			c-0.2-2,0.5-3.9,1.5-5.6c1-1.7,2.3-3.2,3.5-4.6c0.4-0.9,0.8-1.8,1.2-2.7c0.2-0.7,0.3-1.3,0.4-2c-2.8,3.6-5.7,7.8-7.2,13
			c-0.7,2.6-1.1,5.4-1,8.1c0.1,2.7,0.5,5.3,1.3,7.7C165.4,371.4,165,368,165.7,364.4z M166.8,365.3c0.2,1.3,0.6,2.5,1,3.6
			c0.9,3.2,2.2,6.6,4.9,7.7c-1.9-2.3-3.7-4.8-4.9-7.7c0.4,1.5,0.5,1.6,0.3,1c-0.2-0.7-0.6-2.1-1.1-4.1
			C166.9,365.7,166.9,365.5,166.8,365.3z"/>
		<path class="st5" d="M168.2,347c1.3-1.1,2.5-2.1,3.9-3c-1,0.1-2,0.3-2.8,0.7c-2,1.1-2.6,2.9-3.9,4.5c-1.9,2.3-3.2,5.1-3.9,8.2
			c-0.7,3.1-0.6,6.4,0,9.5c0,0.3,0.1,1,0.4,1.4c-0.3-3.9-0.2-8.1,0.9-11.7C163.7,352.9,165.6,349.6,168.2,347z"/>
		<path class="st5" d="M163.6,377.7c0.6,0.9,1.3,1.7,1.7,2.7c0.2-1.1-0.2-2.3-0.6-3.3c-0.7-1.2-1.3-2.4-1.8-3.7
			C162.9,374.9,163.1,376.3,163.6,377.7z"/>
		<path class="st5" d="M161.8,368.3c0,0.3,0.1,0.6,0.1,0.9c0.1,1.5,0.5,2.8,1,4.1c0-1.6,0.1-3.2,0.2-4.8
			C162.5,368.8,162.1,368.6,161.8,368.3z"/>
	</g>
	<g class="st4">
		<path class="st5" d="M271.7,406.5c-2.1,4.4-4.4,7.6-6.7,10.8c-1.9,2.3-4.1,4-6.4,5.3c-1.1,0.7-2.3,1.3-3.4,1.9
			c-1.2,0.6-2.3,1.2-3.5,1.9c-2.5,1.3-4.9,2.7-7.7,3.8c-3.1,0.8-6.3,1.2-9.4,1.2c-3.1,0.1-6.1-0.1-9-0.3c-0.6-0.2-2.5-0.7-2.4,0.7
			c-5.8-1.4-11-3.5-16.6-5.1c-2.3-0.8-4.1-3-6.2-4.2c-1.8-0.9-3.2-2.3-4.5-3.8c-1.3-1.5-2.4-3.1-3.6-4.5c-0.5-0.3-1.8-0.8-1.9-1.3
			c-1-2.6-2.3-4.8-3.6-7.1c-1.3-2.3-2.6-4.7-3.4-7.2c-0.5-2-0.9-3.5-0.8-5.4c-0.6-0.2-0.5-0.6-0.7-1.1c0-0.7,0.4-3,1-5.1
			c0.6-2.1,1.3-4,1.7-4.3c0.2-0.1,0.1,3.4,0.2,7.1c0,3.7,0.6,7.5,1,7.4c0.2-0.2-0.1-2.7-0.1-5.2c0-2.5,0.1-5,0.2-5.4
			c0.6,4.3,1.3,7.9,2.2,10.7c0.9,2.8,1.8,4.7,2.6,6.1c0.8,1.3,1.4,2.1,1.8,2.5c0.4,0.4,0.5,0.4,0.4,0.2c-0.2-0.5-1.2-2-2.2-4.2
			c-1-2.2-1.9-5.1-2.6-7.7c0.1-1.6-0.9-4-0.8-7.1c0.2,0.9,0.8,2.4,1.4,3.7c0.6,1.3,1.2,2.4,1.2,2.9c0.5,2,1.1,2.8,1.5,3.6
			c0.4,0.8,0.7,1.8,1.1,3.8c0.4,1.7,1.5,3.8,3,5.5c1.5,1.7,3.2,3,4.3,3.9c-0.9-0.2-2.3-0.6-3.6-1.3c-1.3-0.7-2.6-1.8-2.9-3
			c0.6,2.6,2.1,3.5,3.6,4.1c1.5,0.6,3.1,1.1,4.8,2.8c0.4,0.3,0.8,0.5,1.4,0.7c0.3,0.5,0.7,0.9,1.1,1.4c1.7,1.2,3.5,2,5.3,2.6
			c1.8,0.6,3.7,1.1,5.6,1.9c-0.4-0.1-0.4-0.8-0.7-1c-1.5-1.1-3-1.6-4.5-2.1c-1.5-0.5-3.1-1-4.5-2.1c-0.5-0.5-1.8-0.3-2.4-0.7
			c-1.2-0.9-1.7-2.3-2.4-3.5c2.4,1.3,4.7,3.4,7.3,4.6c0.6,0.2,1.5-0.1,2.1-0.2c-1.1-0.6-2.2-1.3-3.3-2c-1.9-1.1-4.4-2.1-6.4-3.6
			c-2-1.5-3.5-3.4-3.3-5.2c-0.1-0.1-0.2-0.1-0.3-0.3c0-0.1,0.1-0.1,0.1-0.2c-0.1-0.3-0.2-0.6-0.3-0.9c-0.1-0.3,0-0.7,0.1-1.1
			c0.1,0.6,0.3,1.1,0.4,1.6c1.8,1.6,3.1,3.3,4.6,5c1.6,1.7,3.4,3.4,5.6,4.3c1,0.3,2,2.1,3.2,2.3c3.2,0.8,6.3,2,9.6,3.5
			c3,1.2,6.3,2.2,9.6,2.9c3.3,0.7,6.5,1.1,9.7,0.7c3.3-0.3,6.7-1.6,10.1-3c3.4-1.4,6.8-3,10.1-5.1c0.2-0.3,0.4-0.6,0.7-0.8
			c-0.2,0-0.4,0-0.6,0.1c0.3-0.2,0.6-0.3,0.9-0.5c1.2-1.5,2.5-3,4.2-4.4c0.8-0.5-0.7,1.3-0.7,2.1c0.3-0.3,0.7-0.7,0.7-0.7
			s0.2,0.2,0.4,0.5c0.1-0.4,0.5-0.4,0.8-0.5c-2.4,4.1-5.6,7.5-8.9,10.3c0.9,0.3,1.8-0.7,2.3-1c1-1.1,1.9-2.3,3-3.2
			c1.2-1.5,2.7-2.9,4.2-4.5c1.5-1.6,2.9-3.4,3.8-5.4c0.5-0.7,1-1.4,1.5-2.1c0.2-0.1,0.3-0.2,0.4-0.1c0.1,0,0.1,0.1,0.2,0.2
			c0,0.1,0.1,0.3,0.1,0.4C272.2,404.7,272.1,405.8,271.7,406.5z M222.6,422.6c1,0.5,2,1.1,3,1.7c0.4,0.1,0.8,0.2,1.1,0.3
			c0.5,0.1,1,0.1,1.5,0c2,0.5,4.1,1,6.3,1.2c-2.3-0.9-4.4-1.8-6.9-2.2c3.3,0.2,6.3,0.8,9.5,1.1c3.2,0.3,6.7,0,10-1
			c1.9-0.8,3.6-1.8,5.3-3c1.2-0.8,2.2-1.8,3.2-2.9c-2,1.2-4,2.1-6,3c-2,0.9-4.1,1.7-6.2,2.2c-4.3,1.2-8.4,1-12.4,0.1
			c-4-0.8-8-2.1-11.6-3.4c-3.7-1.4-7.1-3-10.1-4.7C212.8,418.4,217.5,420.5,222.6,422.6z M220.5,423.2c-2.1-0.5-4.2-0.9-6.2-1.4
			c-2.7-0.9-5.4-2.1-7.8-3.2c-2.4-1.1-4.6-2.1-6.7-2.6c4.4,2.8,9.3,4.4,14.5,5.7c-2.4-0.8-2.7-1-1.7-0.5c1.1,0.4,3.5,1.3,7,1.9
			C219.8,423.1,220.1,423.2,220.5,423.2z"/>
		<path class="st5" d="M250.7,417.2c2.5-0.7,5-1.7,7.6-2.9c-1.3,0.1-2.5,0.1-3.8,0.3c-1.6,0.4-3.1,1.1-4.6,1.8
			c-1.5,0.7-2.9,1.4-4.4,1.8c-2.2,0.6-4.3,1.1-6.2,1.3c-1.9,0.2-3.7,0.2-5.7,0c-1.9-0.1-3.9-0.4-6-0.8c-2.1-0.3-4.2-0.7-6.3-1.2
			c-0.4-0.2-1.3-0.4-2-0.3c2.5,0.9,5.1,1.6,7.8,2.2c2.6,0.6,5.2,1,7.7,1.1c2.5,0.1,4.9,0,7.6-0.7C245,419.3,247.8,418.3,250.7,417.2
			z"/>
		<path class="st5" d="M208.4,411.4c-1.2-0.5-2.4-1-3.3-1.9c0.4,1.2,1.6,2.3,2.7,3c1.6,0.8,3.3,1.6,5,2.2
			C211.3,413.6,209.8,412.4,208.4,411.4z"/>
		<path class="st5" d="M219.3,417.3c-0.4-0.2-0.8-0.3-1.2-0.5c-1.8-0.7-3.6-1.4-5.3-2c1.6,1.2,3.4,2.5,5.4,3.5
			C218.4,417.6,218.8,417.3,219.3,417.3z"/>
	</g>
	<g class="st8">
		<g>
			<path class="st9" d="M658.9,266.5c-1.9-22.1-14.1-40.8-31.5-51.9c5.4,9.2,8.9,19.7,9.9,31c2.5,28.4-11.4,54.5-33.9,68.8
				c0.2,1.6,0.4,3.2,0.5,4.8c5.1,58.2-37.9,109.5-96,114.6c-5.5,0.5-11,0.5-16.4,0.2c14.4,6.1,30.4,8.9,47.1,7.4
				c54.1-4.8,94-52.4,89.3-106.5c-0.1-1.5-0.3-3-0.5-4.4C648.3,317.2,661.2,292.9,658.9,266.5z"/>
		</g>
	</g>
	<g class="st4">
		<path class="st5" d="M633,355.7c-0.1-2.5-0.6-4.8-1.6-6.9c-1.3-3.3-1.1-6.9-2.6-10.6c-0.3-0.9-0.7-1.8-1.1-2.6
			c-0.5-0.8-0.9-1.6-1.4-2.4c-0.7-1.8-1.6-3.6-2.8-5.4c-1.2-1.7-2.6-3.3-4.3-4.7c-0.3-0.4-1.1-1.6-1.9-0.4
			c-2.8-3.3-6.1-6.4-10.3-7.9c-1.7-0.8-2.9-2.7-4.7-3.4c-2.9-0.9-5-3.4-7.8-4.3c-0.5,0-1.5,0.4-1.8,0.2c-1.6-1.3-3.5-1.7-5.4-1.7
			c-1.9,0-3.8,0.4-5.5,0.7c-0.3,0-0.6,0.1-1,0.1c-0.3,0-0.6,0.1-0.9,0.1c-0.6,0.1-1.1,0.1-1.7,0.1c-0.1,0.6-0.4,0.5-0.7,0.7
			c-0.2,0-0.7-0.1-1.3-0.1c-0.6-0.1-1.3-0.2-2.1-0.3c-0.4,0-0.7-0.1-1.1-0.2c-0.3,0-0.7-0.1-1-0.1c-0.6-0.1-1.1-0.2-1.2-0.4
			c-0.2-0.1,2.2-1.1,4.9-1.6c2.6-0.5,5.5-0.5,5.4-0.8c-0.1-0.1-0.6-0.2-1.3-0.2c-0.7-0.1-1.7,0-2.6,0c-0.9,0-1.9,0.2-2.6,0.3
			c-0.7,0.1-1.3,0.3-1.4,0.2c3.1-1.5,6-2.2,8.4-2.6c1.2-0.2,2.3-0.3,3.2-0.4c1-0.1,1.8-0.1,2.5-0.1c1.4-0.1,2.3-0.1,2.8-0.1
			c0.5,0,0.6-0.1,0.3-0.2c-0.2-0.1-0.8-0.2-1.6-0.3c-0.8-0.1-1.8-0.1-2.9-0.1c-2.2,0-4.9,0.3-7.1,0.9c-0.7,0-1.5,0.2-2.5,0.5
			c-1,0.4-2,0.7-3.3,1c0.3-0.2,0.8-0.5,1.3-0.9c0.5-0.3,1-0.7,1.6-1.1c1.1-0.7,2.1-1.3,2.5-1.3c0.9-0.3,1.6-0.4,2.2-0.6
			c0.6-0.2,1-0.4,1.4-0.5c0.9-0.2,1.9-0.3,4,0.1c0.9,0.2,1.9,0.3,3,0.4c1.1,0.2,2.3,0.2,3.5,0.4c2.4,0.2,4.7,0.6,6.2,1
			c-1.9,0.3-6.1,1.2-8.1,0.4c2.2,1.3,3.7,1.1,5.3,0.8c1.6-0.2,3.4-0.6,5.7,0.7c0.5,0.2,1,0.3,1.6,0.4c0.5,0.4,0.9,0.7,1.4,1.2
			c3.8,2,7.4,2.8,10.9,5.3c-0.3-0.1-0.2-0.9-0.5-1.1c-2.6-2.9-6-3-9.2-5c-0.6-0.5-1.9,0-2.6-0.4c-1.4-0.6-2.5-1.8-3.7-2.7
			c3.1,0.4,6.2,2.1,9.1,3.4c0.6,0.2,1.6,0,2.3-0.1c-1.3-0.7-2.6-1.4-3.9-2.1c-2.4-1-5.5-1.6-8.4-2.1c-2.9-0.6-5.5-1.1-7.2-2.5
			c-0.1,0-0.3,0-0.5,0.1c0-0.1-0.1-0.1-0.2-0.2c-0.7-0.2-1.6-0.5-2.4-1.1c0.7,0.2,1.4,0.4,2.1,0.6c3-0.3,5.9,0.4,8.7,1.5
			c2.8,1,5.5,2.4,8.2,3.3c1.3,0.3,2.6,2.2,3.9,2.5c3.5,1.1,6.9,3.3,9.7,6.2c2.6,2.5,5,5.2,7.1,8.1c2.1,2.9,3.8,6,5.2,9.1
			c2.7,6.3,4,12.9,4.1,19.2c0.1,0.3,0.2,0.5,0.3,0.8c0.1-0.2,0.2-0.3,0.3-0.5c0,0.3-0.1,0.6-0.1,0.9c0.5,1.5,0.7,3,0.3,4.6
			c-0.3,0.7-0.3-1-0.9-1.4c0,0.3,0,0.7,0,0.7s-0.3,0-0.6,0c0.2,0.2-0.1,0.4-0.3,0.7c-0.8-3.1-1.9-6.2-3.1-9.2
			c-0.6,0.6-0.1,1.5-0.1,1.9c0.6,0.9,1.1,1.9,1.1,2.9c1,2.5,0.3,5.6,0.4,8.2c-0.2,0.5-0.3,1-0.6,1.5c-0.2,0.4-0.6,0.2-0.9-0.1
			C633.2,356.7,632.9,356.2,633,355.7z M622,314.8c0.6,0.9,1.1,1.9,1.5,3c0.2,0.3,0.5,0.6,0.7,0.8c0.3,0.4,0.6,0.7,1.1,0.9
			c0.5,0.8,1,1.7,1.5,2.5c0.5,0.9,0.9,1.7,1.3,2.6c-0.2-1.1-0.4-2.2-0.8-3.2c-0.4-1-1-2.1-1.8-3c2.3,2.2,3.7,4.9,4.7,7.7
			c1,2.8,1.5,5.7,2,8.4c0.6,1.5,1.2,3.1,1.8,4.6c0.5,1.1,1,2.1,1.6,3.1c-1.2-7.2-3.2-14.8-7.4-21.8c-2.1-3.5-4.7-6.8-7.7-9.6
			c-3-2.9-6.3-5.3-9.7-7.3C614.6,307,618.7,310.4,622,314.8z M619.9,314.3c-1.6-1.3-3.3-2.4-5-3.4c-4.5-3-9.6-5.8-13.6-5.5
			c4.5,1.4,9.2,3,13.6,5.5c-2-1.3-2.3-1.5-1.4-0.9c0.9,0.6,3,1.9,5.7,3.8C619.4,313.9,619.6,314.1,619.9,314.3z"/>
		<path class="st5" d="M637.6,337.9c0,2.4,0.1,4.8-0.2,7.1c0.6-1.1,1.1-2,1.4-3.2c0.5-3.1-0.7-5.9-1.2-8.9
			c-0.8-4.4-2.4-8.7-4.9-12.7c-1.3-2-2.7-3.9-4.3-5.7c-1.6-1.8-3.4-3.4-5.3-4.9c-0.3-0.4-1.1-1-1.9-1.3c4.5,4,8.6,8.6,11.4,13.6
			C635.4,327,637.1,332.4,637.6,337.9z"/>
		<path class="st5" d="M609.3,299.6c-1.6-0.5-3.2-1.1-4.6-1.8c1.1,1.2,2.8,2.2,4.1,3c2,0.9,4,1.8,5.9,2.9
			C613,302.1,611.3,300.7,609.3,299.6z"/>
		<path class="st5" d="M621.2,308.4c-0.4-0.3-0.7-0.6-1.1-1c-1.7-1.5-3.5-2.7-5.4-3.7c1.8,1.6,3.4,3.4,5.1,5.1
			C620.1,308.3,620.7,308.2,621.2,308.4z"/>
	</g>
	<ellipse class="st0" cx="337.8" cy="209.6" rx="15.3" ry="25.2"/>
	<g>
		
			<image style="overflow:visible;opacity:5.000000e-02;" width="97" height="97" xlink:href="98FA86EB.png"  transform="matrix(1 0 0 1 365.5295 147.5522)">
		</image>
		<g>
			<path class="st5" d="M457,199.7c0,21.4-17.4,38.8-38.8,38.8c-11.5,0-21.9-5-29-13c-6.1-6.9-9.8-15.9-9.8-25.8
				c0-21.4,17.4-38.8,38.8-38.8c10.3,0,19.7,4,26.6,10.6C452.3,178.6,457,188.6,457,199.7z"/>
		</g>
	</g>
	<ellipse class="st0" cx="406.2" cy="209.5" rx="15.3" ry="25.2"/>
	<path class="st0" d="M385.2,294.1c-4.6,0-9.5-1.7-13.9-4.7c-4.4-3.1-7.6-7.2-9.2-11.5c-1.6-4.6-1.3-8.9,1.1-12.3
		c4.7-6.7,16-6.9,25.1-0.5l0,0c9.2,6.4,12.8,17.1,8.1,23.8c-2.3,3.3-6.3,5.2-11.1,5.2C385.3,294.1,385.2,294.1,385.2,294.1z
		 M374.4,263.4c-3.7,0-7,1.3-8.8,4c-1.8,2.5-2,5.9-0.7,9.5c1.4,3.8,4.2,7.4,8.1,10.1s8.2,4.2,12.3,4.1c3.9,0,6.9-1.4,8.7-3.9
		c3.7-5.4,0.4-14.1-7.4-19.6C382.6,264.8,378.3,263.4,374.4,263.4z"/>
	<path class="st0" d="M593.1,282.2c12.9,9.7,26.1,17.7,39.5,23.8c13.4,6.1,27,10.4,40.5,12.9c13.5,2.5,26.8,3.1,39.9,1.9
		c13.1-1.2,25.9-4.2,38.2-9.1c12.3-4.9,24-11.6,35-20.1c1.4-1.1,2.8-2.2,4.1-3.3c1-0.8,2.1,1.9,1.1,2.7
		c-10.9,9.1-22.6,16.3-34.9,21.7c-12.3,5.4-25,8.9-38.2,10.6c-13.1,1.7-26.6,1.5-40.1-0.5c-13.5-2-27.2-5.9-40.7-11.6
		c-13.5-5.7-27-13.2-40-22.6c-1.6-1.2-3.3-2.4-4.9-3.6C591.5,284.1,591.9,281.3,593.1,282.2L593.1,282.2z"/>
</g>
</svg>
