<?xml version="1.0" encoding="utf-8"?>
<!-- Generator: Adobe Illustrator 24.2.0, SVG Export Plug-In . SVG Version: 6.00 Build 0)  -->
<svg version="1.1" id="Warstwa_1" xmlns="http://www.w3.org/2000/svg" xmlns:xlink="http://www.w3.org/1999/xlink" x="0px" y="0px"
	 viewBox="0 0 659.3 649" style="enable-background:new 0 0 659.3 649;" xml:space="preserve">
<style type="text/css">
	.st0{fill:#FFFFFF;}
	.st1{fill:#E25959;}
	.st2{fill:#F9807D;}
	.st3{fill:#AEEDED;}
	.st4{opacity:0.8;}
	.st5{fill:#8DDEE2;}
	.st6{fill:#2B2F35;}
	.st7{opacity:0.45;}
	.st8{opacity:0.28;}
	.st9{fill:#72CECE;}
	.st10{fill:#FF9999;}
</style>
<g>
	<g>
		<path class="st0" d="M117.1,285.8c2,20.7,5.9,41.2,11.8,61.1c5.9,20,13.6,39.4,23,58c9.4,18.5,20.4,36.2,32.9,52.7
			c12.5,16.6,26.6,32,41.9,46.1c15.3,14,31.9,26.6,49.5,37.4c2.2,1.4,4.5,2.7,6.7,4c1.7,1,0,3.5-1.7,2.5
			c-18.1-10.6-35.1-22.9-50.9-36.7c-15.7-13.8-30.2-29-43.2-45.4c-13-16.4-24.5-34-34.4-52.5c-9.9-18.5-18-37.8-24.4-57.7
			c-6.4-19.9-10.9-40.5-13.4-61.3c-0.3-2.6-0.6-5.2-0.8-7.8C114,284.4,116.9,283.8,117.1,285.8L117.1,285.8z"/>
		
			<ellipse transform="matrix(0.9122 -0.4097 0.4097 0.9122 -198.4978 166.0841)" class="st0" cx="288.4" cy="546.3" rx="7.8" ry="4.8"/>
	</g>
	<g>
		<path class="st1" d="M599.4,596.4l17.6-73.7c1.5-6.2-2.4-12.5-8.6-14l-28.9-6.9c-6.2-1.5-12.5,2.4-14,8.6l-10.7,44.7
			c-5.3,22.2,8.4,44.5,30.7,49.8h0C591.6,606.5,597.9,602.6,599.4,596.4z"/>
		<path class="st2" d="M593.5,594.7l17.6-73.7c1.5-6.2-2.4-12.5-8.6-14l-28.9-6.9c-6.2-1.5-12.5,2.4-14,8.6l-10.7,44.7
			c-5.3,22.2,8.4,44.5,30.7,49.8h0C585.8,604.8,592,600.9,593.5,594.7z"/>
		<path class="st0" d="M563,536.3c8.2-5.9,14.4-14.4,17.6-23.9c0.6-1.8-2.2-3-2.8-1.1c-3,9.1-8.9,17.1-16.7,22.7
			C559.6,535.1,561.4,537.4,563,536.3L563,536.3z"/>
		<path class="st0" d="M568.4,566.7c-6.6-4-14.3-5.9-22-4.9c-1.9,0.3-1.5,3.2,0.5,3c6.9-0.9,13.8,0.7,19.7,4.3
			C568.2,570.2,570,567.8,568.4,566.7L568.4,566.7z"/>
		<path class="st0" d="M568.8,557.8c-6.6-4-14.3-5.9-22-4.9c-1.9,0.3-1.5,3.2,0.5,3c6.9-0.9,13.8,0.7,19.7,4.3
			C568.6,561.2,570.4,558.8,568.8,557.8L568.8,557.8z"/>
		<path class="st0" d="M569.7,548.6c-6.6-4-14.3-5.9-22-4.9c-1.9,0.3-1.5,3.2,0.5,3c6.9-0.9,13.8,0.7,19.7,4.3
			C569.5,552,571.3,549.6,569.7,548.6L569.7,548.6z"/>
	</g>
	<g>
		<path class="st1" d="M454.7,644.6l46.7-59.6c4-5.1,3.1-12.4-2-16.3l-23.4-18.3c-5.1-4-12.4-3.1-16.3,2l-28.4,36.2
			c-14.1,18-10.9,44,7.1,58.1h0C443.5,650.5,450.8,649.6,454.7,644.6z"/>
		<path class="st2" d="M449,640.1l46.7-59.6c4-5.1,3.1-12.4-2-16.3l-23.4-18.3c-5.1-4-12.4-3.1-16.3,2L425.6,584
			c-14.1,18-10.9,44,7.1,58.1l0,0C437.7,646,445,645.1,449,640.1z"/>
		<path class="st0" d="M445.6,574.3c9.9-1.9,19.1-7,26-14.4c1.3-1.4-0.7-3.6-2-2.2c-6.6,7-15.2,11.8-24.6,13.7
			C443.1,571.7,443.7,574.7,445.6,574.3L445.6,574.3z"/>
		<path class="st0" d="M437.8,604.2c-4.3-6.4-10.5-11.4-17.9-13.6c-1.8-0.6-2.8,2.3-1,2.8c6.6,2,12.3,6.4,16.2,12.1
			c0.4,0.7,1.2,1.1,2,0.7C437.8,605.9,438.3,604.9,437.8,604.2L437.8,604.2z"/>
		<path class="st0" d="M442,596.2c-4.3-6.4-10.5-11.4-17.9-13.6c-1.8-0.6-2.8,2.3-1,2.8c6.6,2,12.3,6.4,16.2,12.1
			c0.4,0.7,1.2,1.1,2,0.7C442,597.9,442.4,596.9,442,596.2L442,596.2z"/>
		<path class="st0" d="M446.6,588.3c-4.3-6.4-10.5-11.4-17.9-13.6c-1.8-0.6-2.8,2.3-1,2.8c6.6,2,12.3,6.4,16.2,12.1
			c0.4,0.7,1.2,1.1,2,0.7C446.6,590,447,589,446.6,588.3L446.6,588.3z"/>
	</g>
	<path class="st0" d="M365.5,331.3c3,22.1,13.6,42.3,29.2,58c7.7,7.8,16.5,14.6,26,20.2c7.8,4.7,16,8.5,24.3,12.1
		c17.3,7.4,35.1,13.6,52.3,21.1c16.9,7.4,33.7,16,47.5,28.6c6.4,5.9,12.1,12.7,16.3,20.4c4.4,8.1,7.1,16.9,8.2,26
		c0.3,2.5,0.5,5.1,0.6,7.7c0.1,1.9,3,1.5,3-0.5c-0.3-9.6-2.2-19.2-5.9-28.1c-3.4-8.1-8.4-15.6-14.3-22c-12.4-13.5-28.6-22.9-45-30.7
		c-17.2-8.2-35.1-14.6-52.8-21.7c-8-3.2-16-6.6-23.8-10.6c-9.6-4.9-18.8-10.9-27-17.9c-16.7-14.2-29.2-33.1-34.1-54.7
		c-0.6-2.8-1.1-5.6-1.5-8.5C368.2,328.9,365.3,329.4,365.5,331.3L365.5,331.3z"/>
	<path class="st0" d="M219,336.1c5.3,25.5,16.2,49.7,31.2,70.9c7.5,10.5,15.9,20.4,25.2,29.3c10.3,9.9,22.1,18.3,34.5,25.4
		c22.8,13.3,47.5,22.7,71.4,33.9c16.1,7.5,32.1,16,46.3,26.8c12.8,9.8,27.2,23.6,27.5,41c0,1.9-0.1,3.8-0.4,5.6
		c-0.3,1.9,2.6,2.6,2.9,0.7c3-17.5-8.4-32.7-20.8-43.6c-13.8-12.3-30.3-21.6-46.8-29.7c-21.9-10.7-44.8-19.4-66.4-30.7
		c-12.7-6.5-24.9-13.9-36.1-22.9c-10.4-8.4-19.8-18.3-28.1-28.8c-16.3-20.5-28.5-44.2-35.2-69.6c-0.8-3.1-1.5-6.1-2.2-9.2
		C221.5,333.3,218.6,334.2,219,336.1L219,336.1z"/>
	<g>
		<path class="st3" d="M577,292.6c3.8-34.2-15.1-65.6-44.6-79.4c2.3-8.4,4-17.1,5-26c10-90.9-55.6-172.8-146.5-182.8
			c-62-6.8-119.8,21.5-153.4,69c-6.9-2.1-14-3.5-21.4-4.3c-66.3-7.3-126,40.5-133.4,106.9c-1.2,10.7-0.9,21.3,0.6,31.5
			c-36.2,12.1-64,44.3-68.4,84.8c-6.1,55.5,33.9,105.4,89.4,111.5c22.6,2.5,44.3-2.7,62.5-13.5c16.7,23.2,42.9,39.5,73.5,42.9
			c30.2,3.3,58.8-6.5,80.1-25c17.5,28.5,47.4,48.9,83.2,52.8c61.4,6.8,116.7-37.5,123.5-98.9c0.2-1.7,0.3-3.4,0.4-5.1
			C553.8,346.7,573.7,322.6,577,292.6z"/>
		<g class="st4">
			<path class="st0" d="M581.2,293c-1,6.2-2.7,14.3-6.7,23c-1,2.2-2,4.4-3.4,6.6c-1.2,2.3-2.7,4.5-4.2,6.7c-3.1,4.4-6.8,8.9-11.2,13
				c-4.4,4.1-9.4,7.9-14.9,11.1c-0.7,0.4-1.4,0.8-2.1,1.2c-0.7,0.4-1.4,0.7-2.2,1.1c-0.7,0.4-1.5,0.7-2.2,1.1l-0.6,0.3
				c-0.2,0.1-0.4,0.2-0.5,0.2l-0.8,0.3l-1.6,0.6l-0.8,0.3c-0.1,0-0.2,0-0.2,0.1l0,0.2l0,0.4l-0.2,1.7c-0.1,0.6-0.1,1-0.2,1.9
				c-1.6,13.3-5.8,26.9-12.4,39.4c-6.6,12.5-15.7,23.9-26.3,33.1c-10.6,9.2-22.8,16.2-35.2,20.7c-6.2,2.3-12.4,4-18.5,5.1
				c-6.1,1.1-12.1,1.7-17.8,1.8c-1.4,0-2.8,0-4.2,0c-1.4-0.1-2.8-0.1-4.1-0.2c-0.7,0-1.4,0-2-0.1c-0.7-0.1-1.3-0.1-2-0.2
				c-1.3-0.1-2.6-0.2-3.9-0.4c-2.5-0.4-5-0.7-7.4-1.2c-1.2-0.2-2.3-0.5-3.5-0.7c-1.1-0.2-2.3-0.5-3.3-0.8c-1.7-0.4-3.3-0.9-4.9-1.3
				c-1.6-0.5-3.2-1-4.7-1.5c-1.6-0.5-3-1.1-4.5-1.7c-1.4-0.6-2.9-1.1-4.3-1.8c-1.4-0.6-2.7-1.3-4.1-1.9c-1.3-0.6-2.6-1.4-3.8-2
				c-2.5-1.3-4.8-2.8-7.1-4.2c-1.2-0.7-2.2-1.5-3.2-2.2c-1-0.7-2.1-1.5-3.1-2.2c-1.9-1.6-3.9-3-5.6-4.5c-0.9-0.8-1.7-1.5-2.5-2.2
				c-0.8-0.7-1.6-1.5-2.4-2.2c-0.8-0.8-1.5-1.5-2.2-2.2c-0.7-0.7-1.4-1.4-2.1-2.2c-2.2-2.5-2.6-2.9-1.4-1.6c1.2,1.3,3.9,4.3,8.3,8.2
				c4.4,4,10.5,8.9,18.5,13.6c8,4.7,17.8,9,29.2,12c1.3,0.4,2.6,0.6,3.9,0.9c1.3,0.3,2.6,0.5,4,0.8c1.4,0.2,2.7,0.4,4.1,0.6
				c1.4,0.2,2.8,0.4,4.2,0.5c5.7,0.6,11.7,0.7,17.9,0.4c12.4-0.6,25.9-3.6,39.2-9.5c-8.4,3.5-17.1,6.1-25.7,7.4
				c-8.6,1.4-17.2,1.7-25.3,1.2c-16.2-1.1-30.6-5.5-41.6-11c-16.4-7.5-31.1-19.2-42.3-34l-2.3-3.1c-0.8-1.1-1.6-2.3-2.3-3.4
				l-1.1-1.7l-0.6-0.9l-0.3-0.4l-0.1-0.2l-0.1-0.1c0,0-0.1,0-0.1,0.1l-3.2,2.6c-1,0.9-2.2,1.7-3.3,2.5c-1,0.7-2,1.5-3.1,2.2
				l-3.2,2.1c-1.1,0.7-2.2,1.3-3.2,2l-1.6,1l-1.7,0.9c-1.1,0.6-2.2,1.2-3.4,1.7c-2.3,1.1-4.5,2.2-6.9,3.1c-2.3,1-4.7,1.8-7.1,2.6
				c-1.2,0.4-2.4,0.7-3.6,1.1l-1.8,0.5l-1.8,0.4c-19.5,4.8-40.2,3.6-59-2.9l-3.5-1.3c-1.2-0.4-2.3-1-3.4-1.4
				c-2.3-0.9-4.5-2.1-6.7-3.2c-1.1-0.6-2.2-1.2-3.3-1.8c-1.1-0.6-2.2-1.2-3.2-1.9l-3.1-2l-3-2.2c-0.5-0.4-1-0.7-1.5-1.1l-1.5-1.2
				c-1-0.8-2-1.5-2.9-2.3c-1.9-1.6-3.8-3.2-5.5-5c-1.8-1.7-3.5-3.5-5.2-5.4c-0.8-0.9-1.6-1.9-2.4-2.8l-1.2-1.5
				c-0.5-0.6-0.9-1.1-1.3-1.7l-2.6-3.5c0-0.1-0.1,0-0.1,0l-0.1,0.1l-0.2,0.1l-0.5,0.3l-0.9,0.5l-1.9,1.1c-1.3,0.7-2.6,1.4-3.7,1.9
				c-1.1,0.6-2.3,1.1-3.4,1.6c-4.5,2-9.2,3.7-14,5c-9.6,2.6-19.6,3.8-29.6,3.5c-7.2-0.3-16.6-1.4-26.6-4.5c-5-1.6-10.1-3.6-15.1-6.1
				c-5-2.5-9.9-5.5-14.5-9c-4.6-3.4-8.9-7.2-12.7-11.2c-3.9-4-7.2-8.3-10.1-12.6c-1.5-2.1-2.7-4.3-4-6.3c-1.2-2.1-2.3-4.1-3.2-6.2
				c-1-2-1.8-4-2.6-5.8c-0.8-1.9-1.4-3.6-2-5.3c4.8,13.7,12.7,26.4,22.9,36.9c10.3,10.4,22.7,18.6,36.5,23.6c13.7,5,28.5,7,43.1,5.7
				c3.6-0.4,7.3-0.8,10.8-1.6c1.8-0.3,3.6-0.8,5.3-1.2c1.8-0.5,3.5-0.9,5.3-1.5c3.5-1.1,6.9-2.5,10.2-3.9l2.5-1.2
				c0.4-0.2,0.8-0.4,1.2-0.6l1.3-0.7c2-1,4-2.2,6-3.3c0.1,0,0.1-0.1,0.2-0.1l0.1,0.2l0.3,0.3l0.5,0.7l1,1.4l2.1,2.7l1.9,2.2
				c0.6,0.7,1.2,1.4,1.8,2.1c1.3,1.3,2.5,2.7,3.8,4c1.3,1.3,2.6,2.6,4,3.8c5.4,4.9,11.4,9.3,17.7,12.9c12.7,7.3,26.9,11.9,41.5,13.3
				c14.6,1.5,29.5-0.2,43.3-5c6.9-2.4,13.6-5.5,19.9-9.3c1.6-0.9,3.1-1.9,4.6-3c0.8-0.5,1.5-1,2.3-1.6l2.4-1.8
				c1.8-1.3,3.5-2.8,5.2-4.2l0.6-0.5l0.3-0.3c0.1-0.1,0.2-0.3,0.3-0.1l0.9,1.4l1.8,2.8l-1.6-2.5l-0.8-1.2l-0.4-0.6
				c0,0,0-0.1-0.1-0.1l-0.1,0.1l-0.1,0.1l-0.3,0.2c-1.5,1.2-3,2.4-4.5,3.6l-1.4,1.1l-1.3,1c-0.8,0.6-1.5,1.2-2.3,1.7
				c-1.6,1-3.2,2.2-4.8,3.1c-1.7,1-3.3,2-5,2.9c-1.7,0.9-3.4,1.8-5.2,2.6c-7,3.3-14.3,5.7-21.8,7.3c-15,3.3-30.8,3-45.7-0.6
				c-14.9-3.6-29-10.6-40.9-20.2c-1.5-1.2-2.9-2.5-4.3-3.7c-1.4-1.3-2.8-2.7-4.1-4c-1.3-1.4-2.6-2.8-3.9-4.2l-1.8-2.2l-0.9-1.1
				c-0.5-0.5-0.8-1-1.2-1.5l-2.3-3.1l-1.2-1.5c-0.1-0.2-0.2,0-0.4,0l-0.4,0.2l-0.8,0.5l-3.4,1.9c-0.6,0.3-1.1,0.6-1.7,0.9l-1.4,0.7
				c-3.4,1.7-6.9,3.2-10.5,4.5c-9.8,3.5-20.2,5.5-31,5.7c10.5-0.2,21-2.1,31-5.7c1.6-0.6,3.2-1.2,4.7-1.9c1.6-0.6,3.1-1.4,4.6-2.1
				c0.4-0.2,0.8-0.4,1.1-0.6l1.2-0.6c1-0.5,2-1.1,3-1.6l3-1.7l0.7-0.4c0.1-0.1,0.2,0,0.3,0.1l0.3,0.3l1,1.4l2.1,2.7
				c0.7,0.9,1.5,1.9,2,2.4c1.1,1.3,2.1,2.6,3.3,3.8c2.3,2.5,4.7,4.9,7.3,7.2c10.2,9.1,22.5,16.4,36.5,20.9
				c8.7,2.8,18.3,4.8,28.1,5.1c4.9,0.3,9.8,0,14.6-0.4c2.4-0.3,4.8-0.5,7.1-1c1.2-0.2,2.3-0.4,3.5-0.6c1.1-0.3,2.3-0.5,3.4-0.8
				c7.3-1.8,14.1-4.2,20.5-7.2c1.6-0.8,3.2-1.6,4.7-2.4c1.6-0.8,3.1-1.7,4.6-2.6c1.5-0.9,3-1.9,4.5-2.9l2.2-1.5
				c0.8-0.6,1.8-1.3,2.6-1.9l3.3-2.7l1.6-1.3c0.1-0.1,0.1,0.1,0.2,0.1l0.1,0.2l0.3,0.4l0.6,0.9l2.3,3.6c0.4,0.6,0.8,1.2,1.2,1.8
				l1.1,1.6l2,2.8c0.7,0.9,1.5,1.8,2.2,2.7c0.7,0.9,1.4,1.8,2.2,2.7l2.3,2.6c0.5,0.5,0.9,1,1.4,1.5c0.5,0.5,1,1,1.5,1.5
				c1,1,2.1,2,3.2,3c-0.1-0.1-0.2-0.2-0.3-0.3c-0.9-1.1-2.5-2.7-4.5-4.9c-1-1.1-2.1-2.4-3.3-3.8c-1.2-1.4-2.4-3-3.7-4.7
				c-0.7-0.8-1.3-1.8-1.9-2.7c-0.3-0.5-0.7-0.9-1-1.4c-0.2-0.3-0.4-0.6-0.7-0.9c-0.2-0.3-0.4-0.7-0.7-1c-0.9-1.4-1.8-2.8-2.7-4.3
				c-0.5-0.7-0.9-1.5-1.4-2.3l-0.2-0.3l-0.3,0.2l-0.5,0.4c-0.4,0.3-0.7,0.6-1.1,0.8c-1.4,1.1-2.9,2.3-4.4,3.5
				c-0.4,0.3-0.8,0.6-1.2,0.9c-0.4,0.3-0.7,0.5-1.1,0.8c-0.6,0.4-1.2,0.8-1.8,1.3c-1.2,0.8-2.5,1.6-3.8,2.4c-1.3,0.8-2.7,1.6-4,2.4
				c-11,6.2-24.8,11.1-39.9,12.5c-15.1,1.5-31.4-0.5-46.4-6.3c-7.5-2.9-14.7-6.6-21.2-11.2c-6.5-4.6-12.5-9.8-17.7-15.6l-1-1.1
				l-0.9-1.1c-0.6-0.7-1.2-1.5-1.8-2.2l-0.3-0.4c-0.2-0.2-0.3-0.3-0.4-0.5l-0.7-1l-1.4-1.9c-1-1.3-1.9-2.6-2.9-3.8l-0.2-0.2
				l-0.1-0.1c0,0-0.1,0-0.1,0l-0.5,0.3l-1,0.6l-2.1,1.1c-1.4,0.7-2.8,1.5-4.1,2.3l-1.6,0.8c-0.4,0.2-0.8,0.4-1.2,0.6
				c-0.8,0.4-1.7,0.8-2.5,1.1c-6.7,2.9-13.4,5-20,6.3c-13.1,2.7-25.2,2.1-34.8,0.6c-9.6-1.6-16.8-4.2-21.1-5.9
				c-13.8-5.5-25.8-13.7-35.9-24.4c-10-10.7-18.2-24.2-22.4-40.5c-1.4-5.4-2.1-10.6-2.5-15.4c-0.1-2.4-0.3-4.7-0.3-7
				c-0.1-2.3,0-4.5,0-6.6c-0.1-0.4-0.1-1.7,0-3.4c0-0.9,0-1.8,0.2-2.9c0.1-1,0.2-2.1,0.4-3.2c1.6-11.1,5.2-21.9,10.3-31.2
				c5-9.3,11.2-17.2,17.1-23.5c3.5-3.9,11.1-9.6,19.1-13.8c4-2.1,8.1-3.9,11.7-5.1c0.4-0.2,0.9-0.3,1.3-0.5c0.4-0.2,0.7-0.3,1.5-0.5
				c1.3-0.4,2.6-0.9,3.8-1.3c2.4-0.8,4.5-1.5,6.1-2.1c-0.3-2.3-0.5-3.9-0.7-4.5c-0.6-2.2-1-3.7-1.3-4.9c-0.1-0.4-0.1-0.5-0.2-0.6
				c0-0.2-0.1-0.3-0.1-0.5c-0.1-0.3-0.2-0.6-0.2-0.9c-0.2-1.1-0.3-2-0.3-3.5c0-1.5,0-3.6,0.2-7.1c0.1-1.7,0.2-3.8,0.4-6.4
				c0.2-2.5,0.5-5.5,1-9c0.1-0.8,0.2-2.2,0.5-3.8c0.2-1.6,0.5-3.5,0.8-5.5c0.4-2,0.7-4.1,1.2-6.1c0.5-2,1-3.9,1.6-5.6
				c0.5-1.4,1-2.7,1.5-3.9c0.4-1.3,1-2.4,1.5-3.5c0.9-2.3,1.9-4.3,2.8-6.3c0.2-0.5,0.5-1,0.7-1.4c0.2-0.5,0.5-0.9,0.7-1.4
				c0.5-0.9,0.9-1.8,1.4-2.7c0.9-1.8,1.9-3.4,2.9-5.2c1-1.7,2.1-3.4,3.2-5.2c1.2-1.7,2.4-3.6,3.9-5.5c2.9-3.8,6.4-8,11.1-12.7
				c7.1-7,13.6-11.7,19.5-15.4c5.9-3.6,11.3-6.3,16.6-8.4c5.4-2.1,10.7-4,16.9-5.6c6.2-1.6,13.3-3,22.1-3.8c1.4-0.1,8.3-0.6,16.4,0
				c4.1,0.2,8.4,0.8,12.5,1.5c2.1,0.4,4,0.8,5.9,1.2c0.6,0.1,1.1,0.3,1.6,0.4c0.6,0.2,1.2,0.3,1.8,0.5c1.1,0.3,2.2,0.6,3.2,0.9
				c1.3-1.7,2.5-3.4,3.7-4.9c0.9-1.2,1.7-2.3,2.5-3.3c1.4-2,2.9-3.6,3.9-4.8c2.2-2.6,3.3-3.9,3.3-3.9c0.9-1.1,1.8-2,2.8-3
				c0.9-1,1.9-1.9,2.8-2.8c0.9-0.9,1.8-1.9,2.7-2.8c0.9-0.9,1.9-1.7,2.8-2.5c1.9-1.7,3.7-3.3,5.5-4.9c1.9-1.5,3.8-2.9,5.6-4.4
				c0.9-0.7,1.8-1.4,2.7-2.1c0.9-0.6,1.9-1.3,2.8-1.9c1.8-1.3,3.7-2.5,5.5-3.7c1.8-1.2,3.7-2.2,5.5-3.3c0.9-0.5,1.8-1.1,2.7-1.6
				c0.9-0.5,1.8-1.1,2.7-1.5c7.4-3.8,14.7-7.2,22.3-9.7c1.9-0.6,3.8-1.3,5.8-1.9c1.9-0.6,3.9-1,5.9-1.5c2-0.5,4-1,6.1-1.4
				c2.1-0.3,4.2-0.7,6.3-1c1.2-0.3,2.4-0.6,3.6-0.8c1.2-0.2,2.5-0.4,3.8-0.6c2.5-0.4,5.1-0.8,7.7-1.1c5.3-0.4,10.7-1,16.3-0.8
				c5.6-0.2,11.3,0.5,17,0.9c2.9,0.4,5.7,0.8,8.6,1.2c2.9,0.6,5.7,1.1,8.6,1.7c11.4,2.6,22.6,6.5,32.9,11.4
				c10.4,4.9,20,10.7,28.5,16.8c8.5,6.2,15.1,12.3,20.8,18.2c5.6,5.9,10.1,11.7,14.2,17.5c1,1.5,1.9,3,2.9,4.4l1.4,2.2
				c0.5,0.8,0.9,1.5,1.3,2.3c0.9,1.5,1.8,3.1,2.7,4.6c0.8,1.6,1.7,3.2,2.5,4.9c3.3,6.7,6.6,13.9,9.4,22.6c3.4,9.8,5.2,17.4,6.2,23.4
				c0.2,1.5,0.5,3.5,1,5.9c0.5,2.3,0.8,5.1,1.2,7.9c0.8,5.7,1.3,12,1.2,17.2c-0.2-0.9-0.4-1.7-0.6-2.6c0,1.7,0.1,4.3-0.1,6.9
				c-0.1,1.3-0.1,2.6-0.2,3.8c0,0.6-0.1,1.2-0.1,1.7c-0.1,0.5-0.1,1-0.1,1.4c-0.3,3.4-0.5,2.6-0.6,1.7c-0.2-1.8-0.5-3.5-1.3,2.5
				c-0.5,4.6-1.2,9.1-2.1,13.7c-0.5,2.3-1,4.6-1.5,6.8l-0.5,1.9c-0.3,1.2-0.6,2.3-0.9,3.5c-0.6,2.3-1.3,4.7-1.9,7
				c2.3,1.2,4.5,2.4,6.8,3.6c1.1,0.6,2.3,1.2,3.4,1.8l1.6,1c1.1,0.7,2.1,1.3,3.2,2c1,0.8,2,1.5,3,2.3c11.3,8.2,20,19.7,24.9,32.6
				c0.5,0.7,1.1,1.5,1.9,3.3c0.6,2,1.2,4,1.7,6l0.6,3c0.2,1,0.5,2,0.6,3.1c0.8,2.4,1.4,1.5,1.9,3.2c0.9-0.1,1.9,4.4,2.5,8.5
				c0.3,2,0.5,4,0.8,5.1c0.3,1.2,0.6,1.5,1.1,0.5c0.1-0.4,0.4-2.4,0.7-5.3c0-0.4,0.1-0.7,0.1-1.1c0-0.4,0-0.8,0-1.2
				c0-0.8,0-1.7,0-2.6c0-0.9,0-1.9,0-2.9c-0.1-1-0.1-2-0.2-3c-0.1-1-0.1-2.1-0.2-3.2c-0.2-1.1-0.3-2.1-0.5-3.2
				c-0.2-1.1-0.3-2.1-0.5-3.2c-0.2-1-0.5-2.1-0.7-3.1c-0.2-1-0.4-2-0.7-3c-0.3-1-0.6-1.9-0.8-2.8c-0.3-0.9-0.5-1.8-0.7-2.6
				c-0.3-0.8-0.6-1.6-0.8-2.3c-0.4-1.3,0.1-0.6,1,0.8c0.5,0.7,0.9,1.6,1.3,2.4c0.4,0.9,0.9,1.7,1.2,2.3c-0.3-0.9-0.6-1.8-0.9-2.7
				c-0.3-0.8-0.5-1.6-0.8-2.3c-0.6-1.4-1.1-2.6-1.5-3.7c-0.2-0.5-0.4-1-0.6-1.4c-0.2-0.4-0.4-0.8-0.5-1.1c-0.3-0.7-0.5-1.1-0.6-1.5
				c-0.5-1.3,0.5-0.3,2.2,2.6c-0.8-1.7-1.7-3.4-2.3-4.7c-0.3-0.6-0.6-1.2-0.8-1.5c-0.2-0.4-0.3-0.6-0.3-0.6c0.4,0.3,1,1.1,1.5,1.7
				c0.5,0.7,1,1.2,1,1.2c-4-7.9-9.3-15.4-15.8-21.9l-1.2-1.2l-1.3-1.2l-2.6-2.3c-0.8-0.8-1.8-1.5-2.7-2.2l-2.8-2.1
				c-1.9-1.4-3.9-2.6-5.9-3.9l-0.3-0.2l0,0l-0.1-0.1l-0.2-0.1c-0.1-0.1-0.2-0.2-0.3-0.2c0.1-0.1,0.1-0.2,0.1-0.2c0,0,0,0,0,0
				c0,0,0,0,0,0l0.1-0.2l0.1-0.5l0.5-2.2c0.7-2.9,1.3-5.9,1.8-8.8c0.5-2.9,1-5.9,1.4-8.9c0.3-3,0.6-5.9,0.8-8.9
				c0.8-11.8,0.3-23.5-1.4-34.5c-0.7-4.1-1.7-9.6-3.1-15.1c-0.6-2.8-1.6-5.5-2.3-8.1c-0.7-2.6-1.7-5.1-2.5-7.2
				c-0.4-1.1-0.8-2.5-1.4-4.1c-0.6-1.6-1.2-3.3-1.8-5c-0.6-1.7-1.3-3.3-1.9-4.8c-0.6-1.4-1.1-2.7-1.5-3.5c-1.6-2.8-2.5-3.9-3.2-4.6
				c-0.7-0.7-1.1-1-2-2.1c-3.2-6.4-7.6-14.4-13.3-22.4c-5.6-8-12.4-15.9-19.1-22.4c-6.7-6.5-13.3-11.9-18.3-15.2
				c-1.2-0.8-2.3-1.6-3.3-2.2c-1-0.6-1.9-1.1-2.6-1.4c-1.4-0.7-2.1-1-2.1-0.6c-1.2-0.8-2.3-1.6-3.4-2.2c-1.1-0.7-2.2-1.3-3.2-1.9
				c-1-0.6-2-1.2-2.9-1.7c-0.9-0.5-1.9-1-2.8-1.4c-1.8-0.9-3.5-1.7-5.1-2.5c-1.7-0.7-3.2-1.4-4.8-2.1c-3.2-1.4-6.5-2.5-10.3-4
				c-3.9-1.3-8.4-2.9-14.1-4.4c-15-4.3-32.8-6.7-51.5-6.2c-18.7,0.7-38.3,4.5-56.5,11.7c-2.5,1.1-4.9,2.1-7.3,3.1
				c-0.6,0.3-1.2,0.5-1.8,0.8l-1.8,0.9c-1.2,0.6-2.3,1.2-3.5,1.8c-4.8,2.2-9.1,5.1-13.7,7.7c-2.2,1.4-4.3,2.9-6.5,4.3
				c-1.1,0.7-2.2,1.4-3.2,2.2l-3.1,2.4c-2,1.6-4.1,3.1-6.1,4.8c-1.9,1.7-3.9,3.4-5.8,5.2c-0.7,0.7-1.5,1.3-2.1,1.9
				c-0.7,0.7-1.3,1.4-2,2c-1.3,1.4-2.7,2.7-4,4c-1.3,1.3-2.5,2.7-3.7,4.1c-1.2,1.4-2.4,2.8-3.6,4.1c-1.5,1.7-2.8,3.6-4.2,5.3
				c-0.5,0.7-1,1.3-1.5,2c-0.4,0.5-0.7,1-1.1,1.4c-0.8-0.2-1.6-0.5-2.4-0.7l-1.8-0.4l-2.1-0.5c-2.8-0.6-5.5-1.1-8.3-1.6
				c-2.8-0.4-5.5-0.8-8.3-1c-1.4-0.1-2.8-0.3-4.1-0.3c-1.4,0-2.8-0.1-4.1-0.1c-1.4-0.1-2.8,0-4.1,0c-1.4,0-2.7,0-4.1,0.1
				c-2.7,0.2-5.5,0.3-8.1,0.7c-5.4,0.5-10.7,1.6-15.9,2.8c-2.6,0.7-5.2,1.3-7.7,2.2c-1.3,0.4-2.5,0.8-3.8,1.2
				c-1.2,0.5-2.5,0.9-3.7,1.4l-1.8,0.7l-1.8,0.8c-1.2,0.5-2.4,1-3.6,1.6l-3.5,1.7l-1.8,0.9l-1.7,0.9l-3.4,1.9l-3.3,2
				c-2.2,1.3-4.3,2.9-6.5,4.3c-4.2,3.1-8.2,6.2-11.9,9.8c-3.8,3.4-7.3,7.2-10.6,11c-1.6,2-3.3,3.9-4.7,6l-2.3,3.1l-2.1,3.2
				c-5.6,8.4-10,17.5-13.3,27c-0.9,2.3-1.5,4.8-2.3,7.2c-0.4,1.2-0.6,2.4-1,3.6l-0.9,3.7c-0.4,2.5-1,4.9-1.3,7.4
				c-0.3,2.5-0.7,5-0.9,7.5c-0.5,5-0.6,10-0.5,15c0.1,2.5,0.2,5,0.4,7.5l0.2,1.8l0.1,1c0.1,0.6,0.2,1.3,0.3,1.9
				c-0.8,0.4-1.8,0.7-2.7,1l-1.4,0.5l-2.1,1l-4.4,2c-1.4,0.7-2.9,1.5-4.3,2.3l-2.1,1.2c-0.7,0.4-1.4,0.9-2.1,1.3l-4.1,2.6
				c-1.3,0.9-2.6,1.9-3.9,2.9l-2,1.5c-0.6,0.5-1.2,1.1-1.9,1.6l-3.7,3.2c-1.2,1.1-2.3,2.3-3.5,3.5l-1.8,1.7
				c-0.6,0.6-1.1,1.2-1.6,1.9c-1.1,1.2-2.2,2.5-3.3,3.7c-1,1.3-2,2.6-3,4l-1.5,2l-1.4,2.1c-0.9,1.4-1.8,2.8-2.7,4.2
				c-0.8,1.5-1.6,2.9-2.4,4.4c-0.4,0.7-0.8,1.5-1.2,2.2l-1.1,2.3c-0.7,1.5-1.4,3-2.1,4.6c-0.6,1.6-1.2,3.2-1.8,4.8
				c-0.3,0.8-0.6,1.6-0.9,2.4l-0.7,2.4c-2.1,6.5-3.2,13.3-4.1,20.2c-1.4,13.8,0,28.1,4.5,41.9c5.9,18.3,17,35,31.8,47.5
				c7.4,6.2,15.6,11.5,24.4,15.4l1.6,0.8l1.7,0.7c1.1,0.4,2.2,0.9,3.4,1.3c2.3,0.8,4.6,1.6,6.9,2.2c4.6,1.4,9.4,2.4,14.1,3.1
				c9.5,1.4,19.3,1.5,28.8,0.2c9.5-1.3,18.9-3.9,27.6-7.8c1.1-0.5,2.2-1,3.3-1.5c0.5-0.2,1.1-0.5,1.6-0.8l1.4-0.7
				c0.8-0.4,1.6-0.8,2.3-1.3l1.2-0.7c0.1-0.1,0.1,0,0.1,0l0.1,0.1l0.2,0.3l0.4,0.5l1.6,2.1l2.1,2.5c1.5,1.9,3.2,3.5,4.8,5.3
				c6.7,6.8,14.2,12.7,22.3,17.4c8.2,4.7,16.9,8.5,25.9,10.9c9,2.4,18.3,3.7,27.5,3.8c9.2,0.1,18.4-1.1,27.3-3.3
				c8.8-2.3,17.3-5.7,25.2-10c1-0.5,1.9-1.1,2.9-1.7c1-0.6,1.9-1.1,2.9-1.7c1.9-1.2,3.8-2.4,5.5-3.8l2.1-1.5l1.8-1.5l0.9-0.7
				c0.1,0,0.2-0.2,0.2-0.1l0.2,0.2l0.3,0.5l1.3,2c0.4,0.6,0.8,1.3,1.3,1.9l1.9,2.7l1,1.3l1,1.3l2.1,2.5c0.7,0.9,1.4,1.7,2.1,2.5
				l2.2,2.4c0.7,0.8,1.5,1.6,2.3,2.3l2.3,2.3c12.5,11.9,27.6,20.6,43.3,25.7c15.7,5.1,32,6.6,47.5,5c15.5-1.6,30.1-6.4,42.8-13.3
				c12.8-6.9,23.6-16,32.3-26c4.3-5,8.1-10.3,11.4-15.7c3.3-5.4,6.1-10.9,8.3-16.4c2.2-5.5,4.1-11,5.3-16.4c0.2-0.7,0.3-1.3,0.5-2
				c0.1-0.7,0.3-1.4,0.4-2c0.3-1.3,0.6-2.7,0.8-4c0.2-1.3,0.4-2.6,0.6-4l0.1-1l0.1-0.5l0-0.3l0.1-1l0.1-0.9c0-0.2,0-0.3,0.1-0.5
				l0.5-0.2c0.6-0.2,1.2-0.5,1.8-0.7l0.2-0.1c0.1,0,0.1-0.1,0.3-0.1l0.8-0.4c0.6-0.3,1.1-0.6,1.7-0.8c1.1-0.6,2.2-1.1,3.3-1.7
				c1-0.6,2.1-1.2,3.1-1.8c1-0.6,2-1.3,2.9-1.9c0.9-0.7,1.9-1.3,2.8-2c0.9-0.7,1.8-1.4,2.6-2.1c6.9-5.5,12.2-11.5,16.1-17.2
				c4-5.7,6.6-11.1,8.5-15.6C579,308.1,580.6,300.6,581.2,293z"/>
		</g>
	</g>
	<g>
		<path class="st5" d="M585.2,304c3.8-34.2-15.1-65.6-44.6-79.4c2.3-8.4,4-17.1,5-26c10-90.9-55.6-172.8-146.5-182.8
			c-62-6.8-119.8,21.5-153.4,69c-6.9-2.1-14-3.5-21.4-4.3c-66.3-7.3-126,40.5-133.4,106.9c-1.2,10.7-0.9,21.3,0.6,31.5
			c-36.2,12.1-64,44.3-68.4,84.8C17,359.1,57,409.1,112.5,415.2c22.6,2.5,44.3-2.7,62.5-13.5c16.7,23.2,42.9,39.5,73.5,42.9
			c30.2,3.3,58.8-6.5,80.1-25c17.5,28.5,47.4,48.9,83.2,52.8c61.4,6.8,116.7-37.5,123.5-98.9c0.2-1.7,0.3-3.4,0.4-5.1
			C562,358.2,581.9,334,585.2,304z"/>
		<g class="st4">
			<path class="st0" d="M526.8,185.3c0.3-3.6,0.4,1.4,0.7-4.1c0.2,1.5,0.4,7.2-0.2,12.2c-0.2,1.4-0.4,2.9-0.7,4.3
				c0.2-2.2,0-3.9,0.1-5.7C526.7,190.1,526.8,188.1,526.8,185.3z"/>
			<path class="st0" d="M578.6,299c0.2-1.9,0.4-1.4,0.5-1.2c-0.1,1.8-0.3,3.6-0.5,4.8C578.4,303.2,578.5,300.7,578.6,299z"/>
			<path class="st0" d="M531.4,223.2c1.4-4.7,3-10.8,4.1-15.9c0.2-0.4,0.4-0.4,0.4,0.3c0,0.8-0.1,2.3-0.4,4.2
				c-0.5,3.7-1.7,9.2-3.1,14.8c-0.1,0.2-0.1,0.5-0.2,0.8c0,0.2-0.2,0.6,0,0.7c2.8,1.4,5.8,3.1,6.7,3.7c0.9,0.8,2.2,1.8,2.2,2.1
				c0,0.1-0.3,0.1-1.1-0.2c-0.8-0.3-2.2-1-4.4-2c-1.1-0.3-3.3-1.5-5.5-2.7c0-0.1-0.1-0.2,0-0.2l0.1-0.3c0.1-0.2,0.1-0.4,0.2-0.6
				c0.1-0.4,0.2-0.8,0.3-1.1c0.2-0.7,0.4-1.4,0.6-2C531.5,223.5,531.7,222.8,531.4,223.2z"/>
			<path class="st0" d="M580.2,274c-0.1-0.2-0.3-0.5-0.4-0.7c-0.6-1.9,0.1-1.1-0.8-4.1l-0.5-1.2c-0.2-0.4-0.4-0.8-0.6-1.2l-1.2-2.3
				c-1.2-2.9-0.2-1.1,0-0.9c-0.5-1.4-1.3-2.5-1.8-3.6c-0.6-1.1-1.1-2.2-1.7-3.1c-0.6-0.9-1.1-1.8-1.7-2.7c-0.5-0.9-1-1.8-1.6-2.6
				c-0.6-0.8-1.2-1.6-1.8-2.5c-0.3-0.4-0.6-0.9-0.9-1.3c-0.3-0.4-0.7-0.9-1.1-1.3c-0.8-0.9-1.5-1.8-2.4-2.8c-0.9-1-1.9-2-3-3.1
				l2.9,2.3c-1.1-1.2-2.6-2.8-4.1-4.2c-1.5-1.4-3-2.7-3.9-3.6c3.3,2.6,2.7,1.9,1.3,0.5c-0.4-0.4-0.8-0.8-1.2-1.2
				c-0.4-0.4-0.9-0.7-1.3-1.1c-0.8-0.7-1.4-1.2-1.3-1.3c0.7,0.4,1.7,0.9,3,1.7c1.2,0.8,2.8,2,4.9,3.6c-1.4-1.2-2.8-2.6-4.1-3.9
				c-0.7-0.6-1.4-1.2-2.1-1.8c-0.7-0.6-1.3-1.1-1.9-1.6l3.8,2.8c0.5,0.3,0.4,0-0.2-0.5c-0.3-0.3-0.8-0.6-1.3-1.1
				c-0.6-0.4-1.2-0.9-1.9-1.4c0.8,0.6,1.4,1,1.7,1.2c0.3,0.2,0.5,0.2,0.6,0.2c0.1,0,0-0.3,0.6,0.1c-1.1-0.8-2.1-1.6-3.2-2.4
				c-1-0.7-2.1-1.3-3.2-2c-2.1-1.4-4.5-2.4-6.8-3.7c-0.1,0-0.1-0.1-0.2-0.1l0.1-0.2l0.1-0.4l0.2-0.8c0.1-0.5,0.3-1,0.4-1.5
				c0.3-1,0.6-2.1,0.9-3.2c1.1-3.5,1.4-3.6,2.1-5.4c-0.4,2.4-0.8,4.4-1.1,6.2c-0.2,0.9-0.3,1.7-0.5,2.5c-0.1,0.4-0.2,0.8-0.2,1.1
				l-0.1,0.5l-0.1,0.3c0,0-0.1,0.1,0,0.1l0.1,0.1c0.8,0.3,1.5,0.7,2.1,1c0.7,0.5,1.7,1,2.9,1.8c1.1,0.8,2.4,1.6,3.6,2.4
				c0.6,0.4,1.1,0.9,1.6,1.2c0.6,0.5,1.1,0.9,1.6,1.3c0.9,0.8,1.5,1.3,1.5,1.5c2.1,1.8,4.9,3.8,6.5,5.2c-0.3-0.4-0.9-1-1.5-1.7
				c-0.7-0.6-1.5-1.4-2.3-2.1c-0.8-0.7-1.6-1.4-2.4-2.1c-0.8-0.6-1.4-1.1-1.8-1.5c1.9,1.3,3.4,2.6,4.8,3.7c0.7,0.6,1.4,1.1,2,1.7
				c0.6,0.6,1.2,1.2,1.8,1.8c1.2,1.2,2.4,2.3,3.6,3.7c0.6,0.7,1.2,1.4,1.9,2.2c0.3,0.4,0.7,0.8,1,1.2c0.3,0.4,0.7,0.9,1,1.3
				l-0.8-1.5c2.8,4,6.6,9.3,9.3,14.7c0.8,1.3,1.3,2.7,1.9,4c0.6,1.3,1.2,2.5,1.6,3.7c0.8,2.4,1.5,4.4,1.9,5.8
				c0.3,1.3,0.5,2.5,0.8,3.8c0.1,0.6,0.2,1.2,0.4,1.8c0.1,0.6,0.1,1.2,0.2,1.8c0.1,1.2,0.2,2.3,0.4,3.5c0,0.6,0.1,1.1,0.1,1.6
				c0,0.5,0,1,0,1.6c0,2,0,3.7-0.1,5.1c-0.2,1.4-0.3,2.4-0.5,3c-0.1-4.3-0.4-4.2-0.5-3.1c-0.2,1.1-0.4,3.1-0.5,2.7
				c0-2.7-0.3-7-0.5-6.1c0,1.2,0.1,2.3,0.1,3.3c0,1,0,2,0,2.9c0,1.8,0.1,3.2-0.3,4.1c-0.2-4.2-0.6-5.1-0.9-5.3c-0.4-0.2-0.7,0.4-1-1
				c-0.1-0.6-0.3-1.7-0.5-3c-0.1-0.7-0.2-1.4-0.2-2.1c-0.1-0.7-0.1-1.5-0.3-2.2c-0.5-2.9-1-5.3-1.2-4.6c1.1,6-0.1,0.3-0.1,1.7
				C581.5,279.2,581,277.4,580.2,274z"/>
			<path class="st0" d="M540.8,147.6c-0.7-3.5-0.2-2.4-0.3-3.4c0-0.9,0.5,0.7,1,3.1c0.3,1.2,0.5,2.5,0.8,3.8
				c0.2,1.3,0.4,2.5,0.6,3.5c0.3,2,0.3,3.2,0.2,3.7c-0.1,0.6-0.2,0.6-0.3,0.4c-0.3-0.5-0.5-2.4-0.9-4.6
				C541.5,152,541.2,149.4,540.8,147.6z"/>
			<path class="st0" d="M548.3,198.2c0.4-3.3,0.7-7.3,1.1-8.8c0.3,0,0.7-0.1,0.5,3.7c-0.4,5.9-0.7,10.1-1.9,14.5
				c-0.6,2.4-0.8,2.2-0.7,0.3C547.4,206,547.8,202.5,548.3,198.2z"/>
			<path class="st0" d="M476.3,54c-4.1-3-5.4-4.1-6-4.7c-0.6-0.6-0.3-0.7-1.2-1.6c1.2,0.8,2.1,1.3,2.7,1.6c0.6,0.3,0.8,0.5,0.9,0.5
				c0.2,0-0.4-0.5-1-1.1c-1.3-1-2.7-2.3,1.6,0.5c1.1,0.8,2.3,1.6,3.4,2.5c1.2,0.9,2.3,1.7,3,2.5c-2.2-1.4,0.9,1.3,3.9,3.9
				c2.9,2.7,5.6,5.4,3,3.5c-0.5-0.2-2-1.5-4-3c-1-0.7-2.1-1.6-3.1-2.4C478.3,55.4,477.3,54.6,476.3,54z"/>
			<path class="st0" d="M518,92.7c-0.9-1.6-1.6-2.8-1.9-3.5c-0.3-0.7-0.3-0.8,0.3-0.2c1,0.8,3.8,5.5,5.4,8.2c1.7,3.2,2.4,5.1,1,3.1
				c-0.7-1-1.4-2.2-2.2-3.5C519.8,95.6,518.9,94.2,518,92.7z"/>
			<path class="st0" d="M532.1,113.5c-0.8-2-0.1-0.7-0.4-1.7c0.4,0.7,1,2,1.6,3.4c0.3,0.7,0.6,1.4,0.9,2.1c0.3,0.7,0.5,1.3,0.7,1.9
				l0.7,2.8c-0.6-1.3-1.1-2.6-1.6-3.9C533.5,116.8,532.9,115.3,532.1,113.5z"/>
			<path class="st0" d="M512.1,82.5c-0.9-1.5-1.4-2.5-0.7-2c2.7,3.2,5.2,6.7,7,9.8c1.4,2.6,0.2,0.9,0.2,1.3
				c-0.9-1.4-2.1-2.9-3.1-4.5C514.2,85.6,513.2,83.9,512.1,82.5z"/>
			<path class="st0" d="M527.9,102.7c-0.8-1.7-1.7-3.3-2.6-4.8c-0.4-0.8-0.9-1.5-1.3-2.3c-0.5-0.7-0.9-1.5-1.4-2.2
				c0-0.3-0.9-2-2-3.9c-1.1-1.9-2.4-3.9-3-4.9c3.8,5.5,1.8,1.7,3.2,3.1c2,2.9,5,7.3,7.4,11.9c1.3,2.3,2.4,4.6,3.3,6.7
				c0.5,1.1,0.9,2.1,1.3,3c0.4,0.9,0.7,1.8,0.9,2.6c-1-1.1,1.9,6.9-2.6-3.1C529.9,106.3,528.5,103.4,527.9,102.7z"/>
			<path class="st0" d="M549.9,153.7c-0.4-2.4-0.7-4.8-1.1-7.2l-1.5-7.1c-0.6-4.4,1.5,1.2,1.2-1.2c0.4,1.3,0.7,3.1,1.2,5
				c0.4,1.9,0.9,3.9,1.2,5.8c0.6,3.7,1.2,6.7,1.5,6.7c0.2,1.6,0.5,3.2,0.7,4.9c0.2,1.7,0.4,3.4,0.5,5.2c0.2,3.4,0.4,6.8,0.2,9.5
				c-0.2,1.4-0.4,0.9-0.5-0.5c-0.1-0.7-0.2-1.7-0.3-2.7c-0.1-1-0.3-2.2-0.4-3.3c-0.5-4.5-1.2-8.4-1.1-3.8c0-1.6-0.2-3.4-0.4-5.3
				C550.7,157.8,550.5,155.7,549.9,153.7z"/>
			<path class="st0" d="M504.9,72.6c-1-1.3-2-2.5-2.9-3.6c-0.9-1.1-1.6-2-2.2-2.8c2.1,2.1,3.4,3.1,5.5,5.2c1.1,1.5,2.7,3.4,3.9,5
				c1.2,1.6,2.1,3,2.1,3.3c-0.1,0.1-1-0.9-2.2-2.3C507.9,76.1,506.3,74.3,504.9,72.6z"/>
			<path class="st0" d="M483.4,51.5c-0.4-0.6,0.9,0.3,2.7,1.7c0.5,0.4,0.9,0.7,1.5,1.1c0.5,0.4,1,0.8,1.5,1.2c1,0.8,1.9,1.6,2.7,2.2
				c2.1,1.8,3.7,3.7,5.2,5.3c0.6,1,0.1,0.7-2.3-1.4c-0.5-0.5-1.1-1-1.6-1.5c-0.5-0.5-1-0.9-1.4-1.3c-0.9-0.9-1.8-1.7-2.6-2.4
				C487.5,54.8,485.7,53.4,483.4,51.5z"/>
			<path class="st0" d="M426.8,25.7c-4.9-1.5-2.2-1-2.4-1.3c1.2,0.3,2.7,0.7,4.2,1.1c0.8,0.2,1.5,0.5,2.3,0.7
				c0.8,0.3,1.5,0.6,2.3,0.9c2.5,1,2.6,1.3,1.2,0.9c-0.7-0.2-1.7-0.5-3-0.9C430,26.6,428.4,26.2,426.8,25.7z"/>
			<path class="st0" d="M452.7,28.4c-2.6-1.3-0.8-0.9,3.2,1l3.5,2.3c-1.2-0.6-2.2-1.1-3.3-1.6C455.1,29.5,454,29,452.7,28.4z"/>
			<path class="st0" d="M117,173.6c-0.2,0.6-0.2,0.7-0.3,0.7l0.5-1.6C117.3,172.7,117.1,173.3,117,173.6z"/>
			<path class="st0" d="M259.8,74.8c-0.6,0.5-1,0.8-1.4,1.1c-0.2,0.1-0.4,0.2-0.6,0.4c-0.2,0.1-0.5,0.4-0.8,0.6
				c-0.6,0.5-1.3,1.1-2.2,2.3c-0.9,1.1-2.2,2.8-3.9,5.1c-0.6,0.8-1.2,1.7-1.7,2.5c-0.3,0.4-0.6,0.8-0.9,1.2l-0.4,0.6
				c-0.1,0.1-0.1,0.2-0.2,0.3l-0.3,0c-4.8-1.3-9.7-2.7-14.5-3.7c-0.5-0.1-1.1-0.2-1.6-0.3c-0.5-0.1-1-0.2-1.5-0.3
				c-1-0.2-2-0.3-3.1-0.5c-2.1-0.3-4.3-0.5-6.5-0.6c0.6-0.1,0.1-0.3-1.3-0.5c-1.4-0.2-3.7-0.3-6.7-0.4c-1.9,0-4.1,0.2-4.7,0.3
				c-1.1-0.2,0.9-1.1-5-1.1c3-0.9,8.6-1.6,8.9-2c-1.4-0.1-3,0.2-4.4,0c6.8-0.2,15.3-0.1,23,0.9l-1.4-0.4c5.3,0.4,12,2,17.2,3.7
				l0.2,0.1c0.1,0,0.1,0.1,0.2,0l0.2-0.3c0.2-0.2,0.3-0.4,0.4-0.6c0.3-0.4,0.6-0.7,0.8-1.1c2.2-2.8,1.5-2.4,2.3-3.7c0.5-0.6,1-1,2-2
				c0.2-0.3,0.5-0.5,0.8-0.9c0.3-0.3,0.7-0.7,1.1-1.2c0.9-0.9,1.9-2,3.1-3.5c1.1-1.4,2.1-2.9,3.2-4.3c0.1,0.1-3.7,4.9-0.6,1.8
				c0.5-0.6,1.1-1.2,1.7-1.7c0.6-0.5,1.1-1.1,1.6-1.5c1-1,1.8-1.7,2.2-2.2c-1.1,1.5,0.7-0.1,2.5-1.5c0.8-0.7,1.7-1.3,2.2-1.6
				c0.5-0.2,0.5-0.1-0.3,0.8c-5.6,5.7-2,2.8-0.8,1.9l-3.7,3.4c0.7-0.3,0.3,0.3-0.5,1.4c-0.8,1.1-2.2,2.6-3.2,4.2l-2,2.1
				C255.2,78.7,260.9,73,259.8,74.8z"/>
			<path class="st0" d="M262,71.1l0.2-0.3c0.5-0.4,1-0.8,1.6-1.2c-0.7,0.7-1,0.9-1.2,1C262.4,70.8,262.3,70.8,262,71.1z"/>
			<path class="st0" d="M272.3,57.9c-0.1,0-1.1,0.8-0.3,0C273,57.1,274,56.3,272.3,57.9z"/>
			<path class="st0" d="M527.1,79c0.7,0.7,1.5,1.9,2.3,3.1c0.8,1.2,1.5,2.6,2.1,3.7c-0.7-0.9-1.6-2.4-2.5-3.7
				C528.2,80.8,527.4,79.6,527.1,79z"/>
			<path class="st0" d="M267.3,61.2l-0.6,0.6c0.6-0.6,1.1-1.1,1.7-1.7C268.4,60.1,267.9,60.7,267.3,61.2z"/>
			<path class="st0" d="M212.9,83.4c1.1,0,1.6-0.2,2.6,0C215.2,83.6,213.7,83.5,212.9,83.4z"/>
			<path class="st0" d="M188.8,85.9c-0.4,0.1-1.2,0.2-0.9,0.1c0.6-0.1,1.3-0.3,2-0.3C190,85.7,189.5,85.7,188.8,85.9z"/>
			<path class="st0" d="M192.6,83l-0.8,0.1c1-0.2,2-0.4,3-0.5C194.1,82.8,193.7,82.9,192.6,83z"/>
			<path class="st0" d="M155.3,94.5c-0.5,0.4-1.3,0.9-2.4,1.5c-1.1,0.6-2.4,1.3-3.7,2.2c-1.3,0.8-2.8,1.6-4.2,2.6
				c-1.4,0.9-2.7,1.9-3.9,2.8c0.5-0.3,1.3-1.1,1.5-1.3c0.1-0.1,0-0.1-0.4,0.1c-0.4,0.2-1.1,0.6-2.2,1.5c-1.9,1.4-2.4,1.9-2.8,2.2
				c-0.4,0.3-0.6,0.6-2,1.6c0.5-0.4,0.9-0.8,1.4-1.2c0.4-0.4,0.8-0.7,1.2-1c0.7-0.6,1.3-1.1,1.7-1.5c0.9-0.8,1.1-1.2,0.8-1.1
				l-3.8,2.9c6.3-5.4,14.1-10.7,21.5-13.9c5.9-2.5-0.5,0.8,3.7-0.8c-2.2,0.8-3,1.4-3.6,1.8C157.3,93.4,156.8,93.7,155.3,94.5z"/>
			<path class="st0" d="M226,75.7c-2.8-0.3-4-0.6-1.7-0.5c2.6,0.2,4.5,0.6,5,0.7C229.8,76.1,228.9,76.1,226,75.7z"/>
			<path class="st0" d="M128.3,116.8c-1.1,1.1-3.3,3.3-2.6,2.3c1.9-2.1,3.7-3.9,4.3-4.1C129.2,115.8,128.5,116.6,128.3,116.8z"/>
			<path class="st0" d="M89.3,209.9c0.3,0.6,0.7,3.9,1.3,7.4c0.1,0.2-0.1,0.2-0.2,0.2l-0.3,0.1l-0.7,0.3c-0.4,0.2-0.9,0.4-1.3,0.5
				c-0.9,0.4-1.7,0.7-2.4,1c-1.5,0.6-2.4,1.3-2.7,1.6c1-0.6,0.9-0.7,1-0.9c0.1-0.2,0.5-0.4,2.4-1.1c-0.6,0.3-1.2,0.5-1.8,0.7
				c-0.6,0.2-1.2,0.5-1.9,0.8c-1.3,0.5-2.6,1.1-4.1,1.7l-0.5,0.2c-0.1,0-0.2,0.1-0.2,0.1l-0.3,0.1c-0.4,0.2-0.8,0.4-1.2,0.6
				c-0.8,0.4-1.6,0.8-2.5,1.2c-0.8,0.4-1.8,0.9-2.7,1.4c-0.9,0.6-1.8,1.2-2.8,1.8c-0.6-0.2-0.4-0.7-3.2,0.4c2-1.3,3.9-2.6,5.4-3.7
				c1.6-1,2.8-1.8,3.3-2.2l-1.9,1c1.8-1,3.4-1.9,4.8-2.6c1.2-0.6,2.3-1.1,3.3-1.5c1-0.4,1.8-0.9,2.6-1.3c0.8-0.4,1.5-0.7,2.2-1.1
				l-0.8,0.2c2.8-0.9,0.1,0.2,1.6-0.1c0.3-0.1,0.7-0.3,1.1-0.4c0.2-0.1,0.4-0.1,0.6-0.2l0.3-0.1c0.1,0,0.3,0,0.2-0.2
				c-0.2-1.5-0.3-2.9-0.5-3.4c-0.1-1.9,0-3.5,0-5.4c0-2.1,0.1-4.5,0.1-7.9c0,1.5,0,2.7,0.1,3.6c0.1,0.8,0.1,1.3,0.2,1.7
				c0.2,0.7,0.3,0.7,0.5,0.7C88.8,205,89,204.9,89.3,209.9z"/>
			<path class="st0" d="M87.1,191.4c-0.1-0.2-0.2-1.6,0.2-4.2c0.3-1.7,0.5-1.9,0.4-0.5C87.5,188.4,87.2,190.5,87.1,191.4z"/>
			<polygon class="st0" points="66.1,229.6 67.6,228.7 66.4,229.6 			"/>
			<polygon class="st0" points="64.5,228 66.3,226.9 65.3,227.5 			"/>
			<path class="st0" d="M40.9,251.9c-2.1,2.6,0.7-1.4,0.1-0.8C41.3,250.8,40.6,252,40.9,251.9z"/>
			<path class="st0" d="M45.5,243.8c-0.9,1.2,0.2,0.2,1.2-0.8c-5.2,5.3-4.6,6-6.3,8.5c-6.1,7.7-11,17.1-14.9,27.8
				c0,0.3,0.4-0.9,0.6-1.3c-0.9,1.4-1.9,4.5-3.1,8c-0.1,0.4-0.3,0.9-0.4,1.3c-0.1,0.5-0.2,0.9-0.3,1.4c-0.2,0.9-0.5,1.9-0.7,2.8
				c-0.2,0.9-0.5,1.9-0.7,2.8c-0.2,0.9-0.3,1.8-0.5,2.7c0.2-1.7,0.3-2.5,0.3-2.7c0-0.2-0.2,0.2-0.3,0.9c-0.3,1.3-0.7,3.8-1,4.9
				c0,0.8-0.2,1.9-0.2,3.1c-0.1,1.2-0.2,2.6-0.3,3.9c-0.1,1.4-0.1,2.7-0.2,4c0,1.3-0.1,2.4-0.1,3.3c-0.1-1.2,0-2.4,0-3.6
				c0-1.2,0-2.4,0.1-3.6c-0.2-0.5-0.1-4.3-0.6-1.5c-0.1,1.6-0.2,4-0.3,5.4c0-1.1,0-2.8,0.1-4.4c-0.2,0.1-0.4,1.1-0.5,2.6
				c-0.1,1.6-0.3,3.7-0.3,6c-0.1-2.3-0.1-4.2-0.2-5.8c-0.1-1.6-0.1-3-0.1-4.2c0-1.2-0.1-2.3-0.1-3.3c0-1,0-2,0.1-3.1
				c-0.2,1.2-0.5,2.4-0.7,3.6c0.2-1,0.5-3,0.8-5.1c0.1-1.1,0.3-2.1,0.4-3.1c0.2-1,0.4-1.9,0.6-2.7c-0.1-1,0.8-5.6,2.3-10.2
				c0.4-1.2,0.7-2.3,1.1-3.5c0.4-1.1,0.8-2.2,1.2-3.2c0.7-2,1.2-3.7,1.6-4.6c1.6-2.7,2.9-5.8,4.8-9c0.5-0.8,0.9-1.6,1.4-2.5
				c0.2-0.4,0.5-0.8,0.7-1.3c0.3-0.4,0.5-0.8,0.8-1.2c1.1-1.7,2.3-3.4,3.5-5.2l-0.1,0c1.2-1.5,2.3-2.9,3.3-4.1
				c0.5-0.6,1-1.1,1.4-1.7c0.4-0.5,0.9-1,1.3-1.4c1.7-1.7,3.1-3.1,4.4-4.2c1.4-1.1,2.6-2.1,4.1-3.3c1.4-1.2,3.2-2.5,5.3-4.2
				c-2.6,2.4-2.6,2.7-2.8,3.1c-0.2,0.4-0.4,0.9-3.2,3.9l2.5-1.9c-1.2,1.3-2,2-2.9,2.7c-0.4,0.4-0.9,0.8-1.4,1.3
				C46.8,242.3,46.2,242.9,45.5,243.8z"/>
			<path class="st0" d="M27,276.7l-0.7,2.2L27,276.7z"/>
			<path class="st0" d="M24.3,285.3c-0.2,1.1-0.5,2.1-0.7,3.2C23.8,287.5,24.1,286.4,24.3,285.3z"/>
			<polygon class="st0" points="97.1,120.9 96.9,121.2 94.3,124.8 94.5,124.4 			"/>
			<path class="st0" d="M83.4,150.9c-0.3,0.5,0-0.6,0.6-2.2C85.1,146.1,84,149.2,83.4,150.9z"/>
			<path class="st0" d="M20.7,324l0.4,2.7L20.7,324z"/>
			<path class="st0" d="M20.2,330.1c-0.5-2.2-0.9-7.4-1.1-10.1C19.3,323.8,19.9,326.6,20.2,330.1z"/>
			<path class="st0" d="M18.4,320.3c-0.1-0.8-0.1-1.6-0.1-2.5c0,0.4,0.1,0.7,0.1,1.1L18.4,320.3z"/>
			<path class="st0" d="M30.8,358.6c0.6,1.4,0.5,1.4,0.1,0.7c-0.2-0.4-0.5-0.9-0.7-1.4c-0.3-0.6-0.5-1.2-0.8-1.8
				C29.4,355.8,29.8,356.3,30.8,358.6z"/>
			<path class="st0" d="M23.9,344.9c-0.5-1.5-0.9-3.1-1.4-4.6l0.5,1.5C23.2,342.8,23.5,343.9,23.9,344.9z"/>
			<path class="st0" d="M34.4,377c3.2,4.4,4.4,6.2,5.6,7.9c0.3,0.7-4.1-4.2-1.2-0.6c-0.3-0.4-0.7-0.8-1.1-1.3
				c-0.4-0.5-0.9-1.1-1.4-1.8c-0.5-0.6-1-1.3-1.6-2.1c-0.5-0.7-1.1-1.5-1.6-2.3c-0.5-0.8-1-1.5-1.6-2.3c-0.5-0.8-0.9-1.5-1.4-2.3
				c-0.8-1.4-1.6-2.7-1.9-3.7c-0.8-1.9-0.3-1.3,0.9,0.5C30.4,371,32.3,374,34.4,377z"/>
			<path class="st0" d="M58.3,400.1c-2.2-2,5.7,4,1.7,0.7c4.8,3.2,11.5,7.7,18.7,10.5c-0.8-0.2,1.1,0.9,3.2,1.7
				c2.2,0.9,4.5,1.8,4.6,1.6c3.4,1.8,8.8,3.7,10.3,4.5c-0.9-0.1-2-0.4-3.3-0.7c-1.2-0.3-2.5-0.6-3.5-0.8c-2-0.6-2.9-0.7-0.5,0.3
				c-1.2-0.4-2.7-0.9-4.1-1.4c-1.5-0.5-2.9-1.1-4.2-1.6c-1.3-0.5-2.4-1-3.1-1.2c-0.7-0.3-1.1-0.4-0.9-0.2c-4.2-2.1-7.5-4.1-10.5-6
				c-1.5-1-3-2-4.5-3.1c-1.5-1.1-3-2.3-4.6-3.6c-0.7-0.7,0.3-0.2,0.6-0.2c0.3,0-0.1-0.4-3.4-3.1C56.3,398.5,57,399.2,58.3,400.1z"/>
			<path class="st0" d="M28.3,236.9c-1.2,1.4-1.9,2.2-2.8,3.2c-0.4,0.5-0.8,1-1.4,1.6c-0.3,0.3-0.5,0.6-0.9,1
				c-0.3,0.4-0.6,0.8-1,1.3c-0.5-0.2,4.1-6,3.7-6.1c0.8-1,1.5-2,2.2-2.8c0.7-0.8,1.4-1.6,2.1-2.4c1.3-1.5,2.5-2.8,3.6-4
				c2.3-2.2,4.2-4,6.2-5.6c0.6-0.3,0.4-0.1,0,0.3c-0.3,0.4-0.8,1-0.8,1.1c-1,1.3-3.1,3.3-5.2,5.6C32.1,232.4,29.8,234.9,28.3,236.9z
				"/>
			<polygon class="st0" points="98.6,418.3 95.8,417.7 97.7,418 			"/>
			<path class="st0" d="M11.6,349.9c0.7,2.4,0.7,3.1,1.4,5c-0.4-0.5-0.8-1-1.4-2.4c-0.6-1.5-1.6-3.9-2.8-8.6
				c-0.7-2.8-1.9-8.2-1.9-10c0.2,0.1,0.1-1.7,0.7,0.8c0.1,0.7,0.3,1.3,0.4,2c0.2,0.6,0.3,1.3,0.5,1.9c0.3,1.3,0.6,2.6,0.9,3.8
				C10.1,344.8,10.8,347.3,11.6,349.9z"/>
			<path class="st0" d="M40.6,393.9c0.8,0.7,2.5,2.2,4.3,3.9c0.9,0.8,1.9,1.7,2.9,2.5c1,0.8,1.9,1.6,2.7,2.2c1.1,0.9,2.1,1.8,3,2.6
				c0.9,0.8,1.8,1.4,2.5,2c0.8,0.6,1.5,1.2,2.1,1.7c0.7,0.5,1.2,1,1.8,1.4c1.1,0.9,0.9,0.9,0.1,0.5c-0.8-0.5-2.4-1.4-4.1-2.6
				c-0.9-0.6-1.8-1.2-2.7-1.9c-0.9-0.7-1.7-1.3-2.5-1.9c-0.8-0.6-1.5-1.2-2.1-1.6c-0.6-0.5-1.1-0.8-1.4-1c-0.8-0.8-1.6-1.6-2.4-2.4
				c-0.8-0.8-1.5-1.6-2.1-2.4c-0.6-0.8-1.2-1.5-1.7-2.1c-0.5-0.6-0.8-1.1-1.1-1.5L40.6,393.9z"/>
			<path class="st0" d="M211.5,433.5c0,0.1,0.1,0.1-0.3,0l-1.5-1C210.7,433.1,211.1,433.3,211.5,433.5z"/>
			<path class="st0" d="M1,319.6c0.1,2.7,0.2,5.3,0.2,6.6c0,1.3-0.1,1.3-0.5-1.1c-0.2-1.2-0.4-3.2-0.6-5.4C0.1,317.6,0,315.2,0,313
				c0.3-6,0.7-7.1,0.9-5.6c0,1.8,0,3.7,0,5.7C1,315.1,1,317.3,1,319.6z"/>
			<path class="st0" d="M184.4,420.8c0.5,0.6,1.1,1.2,1.6,1.8C185.5,422,184.9,421.5,184.4,420.8z"/>
			<path class="st0" d="M172.6,412.3c-0.5,0.3-1,0.8-1.8,1.3c-0.7,0.5-1.6,1-2.9,1.5c-2.6,1.1-1,0-1.4,0
				C168.7,414.4,172,412.3,172.6,412.3z"/>
			<path class="st0" d="M385.4,10.4c-2.9,0.2-6.8,0.3-7.9,0.6c-1.1-0.1-1.4-0.1-1.9-0.2c-0.5,0-1.2,0-2.9,0.1
				c-2.2,0.2-4.6,0.4-7,0.6c-2.4,0.2-4.8,0.7-7.1,1c-1.1,0.2-2.2,0.4-3.3,0.5c-0.5,0.1-1,0.2-1.5,0.3c-0.5,0.1-1,0.2-1.4,0.3
				c-1.8,0.5-3.4,0.9-4.5,1.3c0.8-0.4,5.6-1.6,3.9-1.5c-2.1,0.4-4.2,0.7-6.5,1.2c-1.1,0.2-2.4,0.4-3.6,0.8c-1.2,0.3-2.5,0.7-3.8,1.1
				c4.4-1.3-2.5,0.4-2.6,0.3c-1.1,0.3-2.3,0.6-3.5,0.9c-1.2,0.3-2.3,0.8-3.5,1.2c-2.3,0.8-4.7,1.7-7.1,2.5c-2.3,1-4.5,2-6.7,2.9
				c-2.1,0.9-4.2,1.7-5.9,2.6c0.6-0.3,1.4-0.7,2.2-1.1c0.8-0.4,1.7-0.7,2.6-1.1c1.8-0.8,3.8-1.6,5.7-2.5c1.8-0.9,3.7-1.4,5.1-2
				c1.4-0.6,2.5-1,3-1.3c-0.8,0-3.5,0.8-6.5,1.7c-2.9,1.1-6,2.3-7.7,2.9c0,0,0.7-0.3,1.7-0.7c1-0.4,2.1-0.9,2.8-1.2
				c-1.4,0.2,3.3-2.4-5.3,1.1c0.5-0.4,1.9-1.2,3.9-2.2c1-0.5,2.1-1.1,3.4-1.7c1.3-0.6,2.6-1.1,4.1-1.7c1.5-0.6,3-1.2,4.5-1.8
				c0.8-0.3,1.6-0.6,2.3-0.9l2.4-0.8c3.2-1,6.4-2.1,9.3-3c2.5-0.5,5.1-1,7.7-1.5c1.3-0.2,2.6-0.6,3.9-0.7l3.9-0.5l3.9-0.5l2-0.2
				c0.7-0.1,1.3-0.2,2-0.2c2.6-0.1,5.2-0.3,7.9-0.4c0.3-0.1,1-0.2,0.8-0.3c0.7,0,1.5,0,2.4,0.1c0.9,0.1,1.9,0.1,3,0.2
				c2.2,0.1,4.7,0.3,7.3,0.4c1.3,0,2.6,0.2,3.9,0.3c1.3,0.1,2.6,0.3,3.9,0.4c1.3,0.1,2.5,0.2,3.7,0.3c1.2,0.1,2.3,0.2,3.3,0.4
				c2,0.4,0.7,0.3-0.8,0.1c-1.5-0.1-3-0.1-1.4,0.1c-0.4,0.2,4.6,1,6.9,1.5c-3.5,0.3-4.6,0.5-5.6,1.1c-2.8-0.6-5.4-0.6-7.8-0.6
				C390.4,10.5,388,10.4,385.4,10.4z"/>
			<path class="st0" d="M263.6,445.3c-0.3,0.1,0.5,0.1,0.9,0.1l2.7-0.3l2.6-0.4l2.6-0.4c0.9-0.2,1.7-0.4,2.6-0.5l0.3,0.2
				c1.1-0.2,2.1-0.3,3.1-0.5c1-0.2,2-0.4,2.9-0.6c1.9-0.4,3.7-0.9,5.6-1.3c3.7-1,7.4-2.2,12.1-4c1.7-0.7,3.4-1.3,4.9-1.9
				c1.5-0.7,3-1.3,4.4-1.9c2.7-1.3,5.4-2.5,7.6-3.8c4.7-2.5,8.8-5,13.4-8.8c1.2-0.7,0.5-0.1-0.8,0.9c-0.6,0.5-1.4,1.2-2.2,1.8
				c-0.8,0.6-1.6,1.2-2.2,1.7c0.7-0.4-1.4,1.7,2.4-1.4c-1.4,1.2-2.2,1.9-2.8,2.5c-0.6,0.6-1.2,1.2-2.3,2.1c1-0.6,2-1.3,3-1.9
				c-1.8,1.5-3.5,2.7-4.9,3.7c-1.4,1-2.5,1.8-3.1,2.4c1.4-0.8,2.6-1.5,3.6-2.2c1-0.7,2.1-1.4,3.3-2.1c-0.8,0.6-1.7,1.1-2.5,1.6
				c-0.8,0.5-1.6,1.1-2.4,1.6c-1.7,1-3.1,2-5.3,3.1c-1,0.6-2,1.1-3,1.7c-1,0.5-2.1,1-3.2,1.6c-0.5,0.3-1.1,0.5-1.7,0.8
				c-0.6,0.2-1.2,0.5-1.7,0.7c-1.2,0.5-2.4,1-3.7,1.4c0.6-0.1,1.1-0.2,1.7-0.3c-1.2,0.5-2.4,0.9-3.5,1.2c-1.1,0.3-2.2,0.6-3.2,1
				c-1.1,0.3-2.2,0.6-3.4,0.9c-0.6,0.2-1.2,0.4-1.9,0.6c-0.7,0.2-1.4,0.4-2.1,0.6l0.7,0c-1.2,0.2-2.3,0.5-3.3,0.7
				c-1.1,0.2-2.1,0.3-3.1,0.5c-1,0.1-2,0.3-2.9,0.4c-1,0.1-1.9,0.2-2.9,0.2c-0.9,0.1-1.9,0.1-2.9,0.2c-1,0-1.9,0.1-2.9,0.1
				c-1,0-2,0.1-3,0.1c-1,0-2.1,0-3.2,0c-2.6-0.1-4-0.3-4.7-0.5c-0.7-0.2-0.6-0.3-0.1-0.5s1.3-0.3,2.2-0.4
				C262.2,445.6,263.1,445.4,263.6,445.3z"/>
			<path class="st0" d="M160.8,420.2c2.1-0.7,2.7-0.8,2.9-0.8c-1.6,0.9-5.3,2.2-8.1,2.8c-1.1,0.2-0.5-0.1,0.7-0.5
				C157.5,421.4,159.4,420.7,160.8,420.2z"/>
			<path class="st0" d="M171.8,414c1-0.5,0.3,0,0.3,0c-0.4,0.3-0.9,0.6-1.3,0.8c-0.4,0.2-0.7,0.3-0.5,0.1
				C170.6,414.6,171.2,414.4,171.8,414z"/>
			<path class="st0" d="M240.6,449.2l1.5,0.2L240.6,449.2z"/>
			<polygon class="st0" points="322.2,426 322.4,425.8 324.7,424.3 324.4,424.5 			"/>
			<path class="st0" d="M294.2,443.9c-1.8,0.5-3.6,0.8-5.4,1.2l4.8-1.1L294.2,443.9z"/>
			<path class="st0" d="M332.3,425.9c0.5,0.7,0.3,0.7-0.6-0.4C331.2,424.4,331.5,424.7,332.3,425.9z"/>
			<path class="st0" d="M332.3,427.3l2.8,3.9L332.3,427.3z"/>
			<path class="st0" d="M331.4,427.7c-0.5-0.3,1.6,2.3,2.3,3.1c-1-1-1.8-2.1-2.6-3.4c-0.4-0.7-0.8-1.3-1.3-2.1
				c-0.2-0.4-0.5-0.7-0.7-1.1c-0.1-0.2-0.3-0.4-0.4-0.6l-0.2-0.3l-0.1-0.2l-0.1-0.1c0,0,0,0-0.1,0.1c-0.3,0.3-0.6,0.6-1,0.9
				c0.3-0.3,0.6-0.6,1-0.9l0.1-0.1c0,0,0,0,0,0l0.1,0.1l0.2,0.3c0.1,0.2,0.2,0.3,0.4,0.5c0.3,0.4,0.5,0.7,0.8,1.1
				C330.3,426,330.8,426.8,331.4,427.7z"/>
			<path class="st0" d="M517.7,416.3c0.6-0.9,1.2-1.8,1.7-2.8c0.5-1,1.1-2,1.6-3c0.3-0.5,0.5-1,0.8-1.5l0.7-1.6
				c0.5-1.1,1-2.1,1.4-3.2c0.4-1.1,0.8-2.1,1.3-3.2c0.4-1,0.8-2,1.1-3c0.7-2,1.4-3.7,1.9-5.3c-0.1,0.3-0.2,0.9-0.4,1.4
				c-0.2,0.5-0.2,0.8-0.1,0.5c0.8-2.8,1.3-4.5,1.8-5.7c0.3-1.2,0.6-1.8,0.8-2.4c0.2-0.6,0.5-1.2,0.8-2.4c0.3-1.2,0.6-2.9,1.2-5.8
				l-0.7,4.7c0.2-0.3,0.4-1.2,0.7-2.4c0.1-0.6,0.3-1.3,0.4-2c0.2-0.8,0.3-1.6,0.4-2.4c-0.1,0.8-0.2,1.8-0.4,2.8
				c-0.2,0.9-0.4,1.8-0.5,2.7c0.6-1.6,0.6,0.7,0.5,2.5c-0.1,0-0.1,0.4-0.3,1c-0.2,1.6-0.4,2.8-0.7,4.4c-0.2,0.8-0.4,1.7-0.7,2.7
				c-0.3,1.1-0.6,2.4-1.1,4c0,0.1,0.3-0.4,0.5-1.1c0.3-0.7,0.5-1.6,0.8-2.4c-0.6,1.8-1.5,4.1-2.4,6.7c-0.5,1.3-1,2.6-1.6,4
				c-0.5,1.4-1.2,2.8-1.8,4.2c-2.6,5.6-5.7,11.1-8.5,14.5c-0.8,1.3-1.4,2.3-2,3c-0.6,0.8-1.1,1.4-1.6,2c-0.9,1.1-1.8,1.9-3.1,3.3
				c-1.5,1.8-2.4,2.5-2.8,2.9c-0.4,0.3-0.4,0.1-0.4-0.2c1.1-1.6,2.2-3.6,4-6.2c0.8-1.4,1.8-2.8,2.9-4.6c0.5-0.9,1.1-1.8,1.7-2.8
				C516.5,418.6,517.1,417.5,517.7,416.3z"/>
			<path class="st0" d="M201.1,442.3c3.2,1.9,2.6,1.8,2,1.6c-3.4-1.7-6.2-3.7-7.5-4.7c0.1,0,1,0.5,2.1,1.1
				C198.8,441,200.1,441.8,201.1,442.3z"/>
			<path class="st0" d="M378,462.7c1.2,0.5,2.3,1,3.5,1.4C380.3,463.7,379.1,463.1,378,462.7z"/>
			<path class="st0" d="M288.7,450.2c0.3-0.1,0.6-0.1,0.9-0.2l-2.9,0.7C286.9,450.5,287.9,450.4,288.7,450.2z"/>
			<path class="st0" d="M299.4,447.1l0.1,0l-2.7,0.8C298,447.5,299,447.2,299.4,447.1z"/>
			<path class="st0" d="M296,449.4c2.5-0.8,5.1-1.6,7.5-2.7c-3.1,1.5-4.1,1.8-4.9,2.2c-0.8,0.4-1.3,0.8-3.9,1.8
				c-3.2,0.8-9.2,2.7-13.3,2.9c-1.5,0.2-1.2-0.2,1.5-0.9c1.2-0.2,2.6-0.6,4.1-1c0.8-0.2,1.5-0.4,2.3-0.6c0.8-0.2,1.5-0.5,2.2-0.7
				c1.4-0.4,2.6-0.8,3.4-1C295.8,449.3,296.2,449.2,296,449.4z"/>
			<polygon class="st0" points="530.6,380.9 530.4,382.3 530.5,381.5 			"/>
			<polygon class="st0" points="296.6,449.1 296.2,449.2 297.2,448.7 			"/>
			<path class="st0" d="M565.6,308.4l-0.2,1.1c-0.1,0.4-0.2,0.7-0.3,1.1c0.1-0.5,0.3-1.1,0.3-1.7L565.6,308.4z"/>
			<path class="st0" d="M287.2,453.1l2.6-0.6L287.2,453.1z"/>
			<polygon class="st0" points="531.3,382.2 531.8,379.5 532.1,378.1 532.3,376.5 532.1,378.1 531.8,379.5 			"/>
			<polygon class="st0" points="532.8,367.8 532.6,371 532.6,369.9 			"/>
			<path class="st0" d="M540.5,362.1c1.4-0.6,0.2,0-0.4,0.3C539.7,362.5,538.9,362.9,540.5,362.1z"/>
			<path class="st0" d="M533.6,378.8c0,0.7-0.3,1.3-0.4,1.9C533.3,379.8,533.4,379.7,533.6,378.8z"/>
			<path class="st0" d="M533.6,383.3c-0.3,1.3-0.6,2.8-0.9,4.1c-0.3,1.3-0.5,2.3-0.7,2.7c0.3-1.2,0.6-2.7,0.8-4
				C533.1,384.7,533.4,383.6,533.6,383.3z"/>
			<path class="st0" d="M538.4,364.3c1.5-0.6,3-1.4,4.5-2.1C541.4,362.9,539.9,363.7,538.4,364.3z"/>
			<polygon class="st0" points="534.1,374.6 534,376.7 533.8,378.1 533.9,375.6 			"/>
			<path class="st0" d="M322.3,438.7c0.7-0.3,0.2,0.2-0.5,0.7c-0.7,0.5-1.6,1-1.6,0.9C320.6,439.8,321.5,439.1,322.3,438.7z"/>
			<path class="st0" d="M325.7,435.5c0.1,0.2-2,1.8-1.8,1.4C324.6,436.4,325.2,435.8,325.7,435.5z"/>
			<path class="st0" d="M323.9,438.4c0,0.3-0.8,0.7-1.4,1.1C323.1,439,323.1,438.8,323.9,438.4z"/>
			<path class="st0" d="M323.5,441.8c-0.7,0.6-1,0.9-1.3,1.3c-0.2,0.2-0.3,0.3-0.6,0.5c-0.3,0.2-0.8,0.5-1.4,0.8
				c0.2-0.2,0.5-0.5,0.8-0.7c0.2-0.1,0.3-0.2,0.5-0.4c0.1-0.1,0.2-0.2,0.3-0.3C322.3,442.7,322.9,442.3,323.5,441.8z"/>
			<path class="st0" d="M323,442.7c-0.1,0-0.2,0.4-0.6,0.5L323,442.7z"/>
			<polygon class="st0" points="324.1,441.6 323.5,442.1 323.9,441.8 			"/>
			<path class="st0" d="M324.5,441.6c-0.2,0.2-0.5,0.5-0.7,0.7c0.2-0.2,0.4-0.4,0.6-0.6L324.5,441.6z"/>
			<path class="st0" d="M333.5,449.9c0.4,0.4,0,0.2-0.6-0.4c-0.5-0.5-1.2-1.3-1.6-1.8C331.7,447.9,332.6,449,333.5,449.9z"/>
			<path class="st0" d="M585,307.3l0.9-3.9c0,0.7-0.1,1.7-0.2,2.9c-0.2,1.2-0.3,2.6-0.6,4c-0.3,1.4-0.6,2.7-0.9,3.9
				c-0.3,1.2-0.7,2.1-0.9,2.7c-0.4,0.8,0-0.7,0.5-2.9c0.2-1.1,0.5-2.3,0.7-3.5c0.1-0.6,0.3-1.2,0.4-1.7
				C584.8,308.3,584.9,307.8,585,307.3z"/>
			<path class="st0" d="M543.3,373.3c0.1,0.2-0.1,1.8-0.2,3.1c-0.2,0.9-0.2,0.2-0.2-0.8C543,374.6,543.2,373.3,543.3,373.3z"/>
			<polygon class="st0" points="582,333.1 579.7,337 582,332.9 			"/>
		</g>
	</g>
	<path class="st0" d="M311.3,186.9c0,21.4-17.4,38.8-38.8,38.8c-11.5,0-21.9-5-29-13c-2.1-2.4-3.9-5-5.4-7.8
		c-2.8-5.4-4.5-11.5-4.5-18.1c0-21.4,17.4-38.8,38.8-38.8c3.7,0,7.4,0.5,10.8,1.5c4.1,1.2,8,3.1,11.4,5.5c1.6,1.1,3,2.3,4.4,3.6
		C306.6,165.8,311.3,175.8,311.3,186.9z"/>
	<path class="st6" d="M325.7,127.7c16,0.8,31.7,4.9,46.1,11.9c4.1,2,8,4.2,11.8,6.7c1.6,1,3.5-1.3,1.8-2.4
		c-13.8-8.9-29.3-14.9-45.4-17.7c-4.6-0.8-9.2-1.3-13.9-1.5C324.2,124.7,323.8,127.6,325.7,127.7L325.7,127.7z"/>
	<path class="st6" d="M226.5,149.1c15.3-8.9,31.3-16.4,47.8-22.5c4.7-1.7,9.5-3.3,14.3-4.8c1.8-0.6,0.6-3.3-1.2-2.8
		c-16.8,5.2-33.2,12-48.9,20.1c-4.5,2.3-8.9,4.7-13.3,7.3C223.7,147.3,224.8,150.1,226.5,149.1L226.5,149.1z"/>
	<g class="st4">
		<path class="st0" d="M549.5,230.3c-2.1-1.4-4.3-2.2-6.6-2.6c-3.5-0.8-6.4-2.9-10.2-3.8c-0.9-0.3-1.9-0.4-2.8-0.5
			c-0.9-0.1-1.8-0.2-2.8-0.2c-1.9-0.5-3.9-0.7-6-0.7c-2.1,0-4.2,0.3-6.3,0.9c-0.5,0-1.9,0.1-1.4,1.3c-4.3,0.5-8.7,1.5-12.3,4.2
			c-1.6,1-3.8,0.9-5.4,2c-2.4,1.9-5.6,2.2-8,4.1c-0.2,0.4-0.5,1.5-0.8,1.6c-2,0.6-3.4,2-4.4,3.5c-1,1.6-1.8,3.3-2.5,4.9
			c-0.2,0.3-0.3,0.6-0.5,0.8c-0.1,0.3-0.3,0.5-0.4,0.8c-0.2,0.5-0.6,1-0.9,1.5c0.4,0.4,0.2,0.6,0.2,1c-0.1,0.2-0.5,0.5-0.8,1
			c-0.4,0.4-0.9,1-1.4,1.5c-0.2,0.3-0.5,0.5-0.7,0.8c-0.2,0.3-0.4,0.5-0.6,0.7c-0.4,0.4-0.8,0.8-1,0.8c-0.2,0.1,0.3-2.5,1.4-4.9
			c1-2.5,2.6-4.8,2.3-4.9c-0.1,0-0.4,0.4-0.9,0.9c-0.5,0.6-1,1.4-1.4,2.2c-0.5,0.8-0.9,1.7-1.2,2.3c-0.3,0.7-0.5,1.2-0.6,1.3
			c0.5-3.4,1.6-6.2,2.6-8.4c0.5-1.1,1-2.1,1.5-2.9c0.5-0.8,0.9-1.6,1.3-2.1c0.7-1.2,1.2-2,1.5-2.4c0.2-0.4,0.2-0.5,0-0.4
			c-0.2,0.2-0.6,0.6-1.1,1.2c-0.5,0.6-1.1,1.4-1.7,2.3c-1.2,1.8-2.5,4.2-3.3,6.4c-0.4,0.5-0.7,1.4-1,2.3c-0.2,1-0.6,2.1-1,3.3
			c0-0.4,0-0.9,0-1.5c0-0.6,0-1.3,0-1.9c0-1.3,0.1-2.4,0.3-2.8c0.3-0.9,0.5-1.6,0.7-2.1c0.1-0.6,0.3-1,0.4-1.4
			c0.3-0.9,0.8-1.7,2.3-3.3c0.6-0.6,1.3-1.4,2.1-2.3c0.7-0.8,1.5-1.8,2.3-2.7c1.5-1.9,3.1-3.6,4.3-4.6c-0.8,1.7-2.3,5.7-4.2,7
			c2.3-1.1,3-2.4,3.7-3.9c0.7-1.5,1.4-3.1,3.7-4.3c0.4-0.3,0.8-0.7,1.2-1.2c0.6-0.2,1.1-0.4,1.8-0.5c3.7-2,6.5-4.6,10.5-6.1
			c-0.3,0.2-0.8-0.3-1.2-0.2c-3.8,0.6-5.8,3.3-9.3,4.9c-0.7,0.2-1.1,1.6-1.8,2c-1.3,0.8-2.9,1.1-4.3,1.6c2-2.4,5.2-4,7.9-5.6
			c0.5-0.4,0.9-1.4,1.2-1.9c-1.3,0.6-2.6,1.3-3.9,2.1c-2.2,1.4-4.4,3.7-6.4,5.8c-2.1,2.1-4,3.9-6.1,4.6c-0.1,0.1-0.1,0.2-0.2,0.5
			c-0.1,0-0.2,0-0.3,0c-0.6,0.5-1.3,1.1-2.2,1.4c0.6-0.5,1.1-0.9,1.7-1.4c1.4-2.7,3.7-4.7,6.1-6.4c2.4-1.8,5-3.2,7.3-5
			c1-0.9,3.3-0.9,4.3-1.8c2.9-2.3,6.6-3.9,10.6-4.6c3.5-0.7,7.1-1.3,10.7-1.4c3.6-0.1,7.1,0.2,10.5,0.8c6.7,1.3,12.9,3.8,18.2,7.3
			c0.3,0.1,0.6,0.1,0.8,0.2c-0.1-0.2-0.2-0.3-0.2-0.5c0.2,0.2,0.4,0.4,0.7,0.6c1.5,0.4,2.9,1.1,4,2.3c0.4,0.7-1-0.4-1.6,0
			c0.3,0.2,0.6,0.4,0.6,0.4s-0.2,0.3-0.3,0.5c0.3,0,0.3,0.3,0.4,0.6c-3-1.1-6.2-1.9-9.4-2.6c0.2,0.8,1.2,0.9,1.6,1.1
			c1.1,0,2.2,0.2,3,0.7c2.7,0.6,4.8,2.9,7,4.2c0.3,0.4,0.7,0.8,0.9,1.3c0.2,0.4-0.1,0.6-0.5,0.7
			C550.4,230.7,549.9,230.6,549.5,230.3z M509.4,216.6c1.1,0,2.2,0.2,3.3,0.4c0.4,0,0.7-0.1,1.1-0.1c0.5,0,0.9-0.2,1.4-0.4
			c1,0,2,0.1,2.9,0.1c1,0.1,1.9,0.2,2.9,0.3c-1-0.5-2-0.8-3.1-1.1c-1.1-0.2-2.3-0.4-3.5-0.2c3.1-0.7,6.2-0.3,9,0.4
			c2.9,0.7,5.5,1.9,8.1,3c1.6,0.4,3.2,0.8,4.8,1.1c1.2,0.2,2.3,0.3,3.4,0.4c-6.7-3-14-5.6-22.2-6.1c-4.1-0.2-8.3,0.2-12.3,1
			c-4,0.9-7.9,2.2-11.5,3.9C498.9,218.3,503.9,216.9,509.4,216.6z M507.9,218c-2,0.6-3.8,1.4-5.6,2.3c-5,2.1-10.2,4.8-12.2,8.2
			c3.7-3,7.6-5.9,12.2-8.2c-2.2,0.9-2.5,1.1-1.5,0.7c1-0.4,3.3-1.4,6.4-2.6C507.2,218.2,507.5,218.1,507.9,218z"/>
		<path class="st0" d="M537.4,216.5c2,1.3,4,2.6,5.8,4.1c-0.5-1.1-1.1-2.1-1.9-3c-2.3-2.1-5.3-2.7-8.1-4c-4-1.8-8.5-2.8-13.2-3
			c-2.3-0.1-4.8,0-7.2,0.4c-2.4,0.4-4.7,0.9-7,1.7c-0.5,0.1-1.5,0.3-2.1,0.9c5.8-1.5,11.9-2.3,17.7-1.8
			C527.1,212.3,532.5,213.9,537.4,216.5z"/>
		<path class="st0" d="M489.7,218.6c-1.3,1-2.7,2.1-4.1,2.8c1.6-0.2,3.4-1.1,4.8-1.8c1.9-1.2,3.7-2.3,5.7-3.3
			C493.9,216.9,491.8,217.6,489.7,218.6z"/>
		<path class="st0" d="M503.7,213.6c-0.5,0.1-0.9,0.2-1.4,0.4c-2.1,0.6-4.2,1.4-6.1,2.4c2.3-0.5,4.7-0.9,7.1-1.4
			C503,214.4,503.2,214,503.7,213.6z"/>
	</g>
	<g class="st4">
		<path class="st0" d="M514.6,190.5c0.2-1.7,0.3-3.4,0.4-5c0-1.6-0.2-3.2-0.4-4.8c-0.1-1.2-0.1-2.5-0.1-3.7c0-1.2,0-2.4,0.1-3.6
			c0.1-1.2,0.2-2.5,0.2-3.7c0-1.3-0.1-2.6-0.2-3.9c-0.1-1.3-0.2-2.6-0.4-3.9c-0.2-1.2-0.5-2.5-0.7-3.8c-0.1-1.3-0.1-2.7-0.3-4.1
			c-0.2-1.4-0.4-2.8-0.7-4.2c-0.5-2.8-1.4-5.6-2.4-8.5c0-0.3-0.1-1-0.4-1.5c-0.2-0.5-0.7-0.8-1.2-0.4c-0.4-1.4-0.7-2.8-1.1-4.2
			c-0.4-1.4-0.8-2.8-1.3-4.1c-0.5-1.3-1.1-2.6-1.7-3.9c-0.3-0.6-0.6-1.3-1-1.9c-0.4-0.6-0.8-1.2-1.2-1.7c-0.7-1-1-2.2-1.4-3.3
			c-0.2-0.6-0.4-1.2-0.6-1.7c-0.3-0.5-0.6-1.1-0.9-1.6c-1.3-1.5-2.1-3.2-2.9-5c-0.9-1.7-1.8-3.4-3-4.9c-0.5-0.3-1.7-0.8-1.9-1.2
			c-1.1-2.4-2.9-4.3-4.8-5.8c-2-1.5-4.3-2.7-6.2-4.2c-1.5-1.2-2.8-1.9-4.1-3.2c-0.5,0.3-0.8,0-1.3-0.2c-0.3-0.2-0.7-0.8-1.3-1.5
			c-0.6-0.7-1.3-1.6-2-2.4c-1.4-1.7-2.7-3.5-2.7-4.1c0-0.3,3,2,6.1,4.3c3,2.5,6,5,6.1,4.6c0-0.3-1.9-2-3.8-3.8
			c-0.5-0.4-1-0.9-1.5-1.3c-0.5-0.4-1-0.8-1.4-1.1c-0.8-0.7-1.4-1.2-1.6-1.4c1,0.6,2,1.1,3,1.7c0.9,0.5,1.8,1.1,2.6,1.6
			c1.7,1.1,3.2,2,4.5,2.9c2.6,1.8,4.6,3.2,6,4.3c2.9,2.1,3.7,2.7,3.3,2.2c-0.4-0.5-2-2.1-4.2-3.7c-1.1-0.9-2.3-1.8-3.6-2.7
			c-1.2-0.9-2.6-1.7-3.9-2.5c-1.2-1.3-3.7-2.4-6.5-4.5c1,0.5,2.6,0.9,4.1,1.4c1.5,0.5,2.8,1,3.2,1.3c2,1.2,3.1,1.6,4.1,2.1
			c1,0.6,1.9,1.3,3.7,3.3c0.7,0.8,1.7,1.7,2.8,2.6c1,1,2.1,2,3.3,2.9c2.3,1.9,4.4,3.9,5.7,5.3c-1-0.5-2.7-1.3-4.2-2.3
			c-1.6-0.9-3.2-2-4.1-3.2c1.5,2.8,3.2,3.6,4.9,4.6c1.7,1,3.6,1.9,5.4,4.7c0.3,0.5,0.8,1,1.4,1.6c0.3,0.7,0.6,1.3,0.9,2.2
			c0.7,1.2,1.5,2.2,2.2,3.3c0.7,1.1,1.4,2.1,2.1,3.2c0.7,1.1,1.4,2.1,2.1,3.2c0.6,1.1,1.2,2.3,1.7,3.5c-0.2-0.4,0.2-1,0.1-1.4
			c-0.3-1.2-0.6-2.3-1.1-3.2c-0.5-1-1.1-1.9-1.7-2.8c-1.2-1.8-2.5-3.6-3.8-5.7c-0.4-0.9-1.9-1.4-2.5-2.3c-0.6-0.8-1-1.7-1.3-2.6
			c-0.4-0.9-0.7-1.8-1.2-2.6c0.7,0.6,1.4,1.3,2.1,2.1c0.7,0.8,1.3,1.6,1.9,2.5c1.2,1.7,2.4,3.5,3.5,5.2c0.5,0.7,1.6,1.2,2.2,1.6
			l-1.4-2.5c-0.5-0.8-1-1.6-1.5-2.4c-1-1.4-2.2-2.7-3.4-4.1c-1.3-1.4-2.7-2.6-4-3.9c-2.5-2.6-5-4.9-5.8-7.3
			c-0.1-0.1-0.3-0.2-0.5-0.3c0-0.1,0-0.2-0.1-0.3c-0.6-0.7-1.3-1.6-1.7-2.6l0.8,1l0.8,1c2.9,1.9,5.6,4.5,7.8,7.4
			c1.1,1.5,2.3,2.9,3.4,4.5c1.1,1.5,2.1,3,3.3,4.5c1.2,1.2,1.6,4.1,2.7,5.4c1.5,1.9,2.8,4,3.8,6.2c0.5,1.1,1,2.3,1.4,3.4
			c0.4,1.2,0.8,2.3,1,3.5l1.6,6.3c0.5,2.1,0.9,4.3,1.3,6.4c0.2,1.1,0.4,2.1,0.5,3.2l0.4,3.2c0.2,2.1,0.6,4.2,0.6,6.3l0.3,6.3
			c0,2.1-0.1,4.2-0.2,6.3c0,2.1-0.3,4.1-0.5,6.2c-0.2,2-0.4,4.1-0.9,6.1c0,0.4,0.1,0.7,0.1,1.1c0.1-0.2,0.3-0.3,0.4-0.5l-0.3,1.1
			c0.1,2,0.1,4-0.7,6c-0.5,0.8,0-1.4-0.5-2c-0.1,0.4-0.2,0.9-0.2,0.9s-0.3-0.1-0.6-0.2c0.1,0.3-0.2,0.5-0.4,0.8c0-1.1,0-2.2-0.1-3.2
			l-0.2-3.2c-0.1-2.2-0.4-4.3-0.6-6.5c-0.7,0.6-0.5,1.8-0.5,2.5c0.4,1.4,0.6,2.8,0.4,4.2c0.2,1.8,0,3.7-0.3,5.5
			c-0.4,1.8-0.9,3.6-1.1,5.4c-0.2,0.6-0.5,1.3-0.8,1.9c-0.3,0.4-0.6,0.1-0.8-0.3C514.6,191.8,514.4,191.1,514.6,190.5z M516.2,134.7
			c0.1,1.3,0.2,2.6,0.1,4c0.1,0.4,0.2,0.9,0.3,1.3c0.1,0.6,0.3,1.1,0.6,1.7l0.5,3.6l0.3,3.7c0.2-1.3,0.4-2.7,0.4-4
			c0-1.4-0.2-2.8-0.5-4.3c0.3,0.9,0.6,1.9,0.8,2.8c0.1,0.5,0.2,0.9,0.3,1.4c0.1,0.5,0.1,0.9,0.2,1.4c0.2,1.9,0.3,3.7,0.3,5.6
			c0,0.5,0,0.9,0,1.4l-0.1,1.4l-0.2,2.7c-0.1,0.9-0.1,1.8-0.2,2.7l-0.1,1.4l-0.1,1.4c0.1,2.1,0.2,4.3,0.5,6.5c0.1,1.5,0.4,3,0.7,4.5
			c0.6-9.5,0.8-19.3-0.4-29.3c-1.2-9.9-3.9-19.8-8.7-29c0.5,1.6,1,3.2,1.6,4.8c0.5,1.6,0.9,3.2,1.4,4.8c0.4,1.6,0.9,3.1,1.3,4.8
			C515.6,131.4,516,133.1,516.2,134.7z M514.6,132.9c-0.4-1.2-0.9-2.4-1.4-3.6c-0.5-1.2-1.1-2.3-1.7-3.4
			c-2.7-6.3-6.6-12.9-10.7-15.4c1,1.2,1.9,2.3,2.9,3.5c0.5,0.6,1,1.2,1.4,1.8c0.4,0.6,0.9,1.3,1.3,1.9c0.9,1.3,1.8,2.6,2.6,3.9
			c0.9,1.3,1.6,2.8,2.3,4.2c-1.3-2.8-1.5-3.2-0.9-1.9c0.3,0.6,0.8,1.7,1.4,3c0.3,0.7,0.7,1.4,1,2.2c0.4,0.8,0.7,1.7,1.1,2.7
			C514.2,132,514.4,132.4,514.6,132.9z"/>
		<path class="st0" d="M523.3,169.4c-0.7,2.9-1.1,5.8-1.9,8.7c0.9-1.1,1.6-2.1,2.1-3.4c0.6-1.8,0.8-3.6,1-5.5c0.1-1.9,0-3.8,0.2-5.6
			c1-10.8-0.9-22.2-5-33c-0.1-0.6-0.5-1.8-1.1-2.5c0.5,1.8,1,3.5,1.5,5.2c0.2,0.9,0.5,1.7,0.7,2.6c0.2,0.9,0.4,1.7,0.6,2.6
			c0.4,1.7,0.7,3.5,1.1,5.2c0.3,1.7,0.5,3.5,0.7,5.2c0.5,3.4,0.6,6.9,0.7,10.3c0.1,1.7-0.1,3.5-0.2,5.2
			C523.7,166,523.6,167.7,523.3,169.4z"/>
		<path class="st0" d="M511.3,110.7c-1.4-1.7-2.7-3.3-3.8-5.1c0.5,1.9,1.7,4.1,2.8,5.8c1.6,2.4,3,4.8,4.4,7.3
			C513.8,116,512.8,113.2,511.3,110.7z"/>
		<path class="st0" d="M518.6,127.9c-0.2-0.6-0.3-1.1-0.5-1.7c-0.9-2.5-2-5.1-3.3-7.6c0.9,2.9,1.5,5.8,2.4,8.7
			C517.7,127.1,518.2,127.4,518.6,127.9z"/>
	</g>
	<g class="st7">
		<g>
			<g>
				<path class="st3" d="M75.3,297.9c4-36.1,28.5-64.9,60.4-75.7c-1.4-9.1-1.6-18.5-0.5-28.1c5.2-47.2,39.8-84,83.2-93.6
					c-2-0.3-4.1-0.6-6.1-0.9c-57.3-6.3-109,35.6-115.4,93.7c-1,9.4-0.8,18.6,0.5,27.5C66,231.5,42,259.8,38.1,295.2
					c-5.4,48.5,29.2,92.2,77.1,97.5c6.3,0.7,12.5,0.7,18.6,0C95.8,379.1,70.6,340.3,75.3,297.9z"/>
			</g>
		</g>
	</g>
	<g class="st4">
		<path class="st0" d="M88.8,293c-1.2,0.8-2,1.8-2.4,3c-0.8,1.8-3,2.6-4.3,4.5c-0.7,0.9-1.1,1.8-1.4,2.8c-1.5,1.8-2.5,4.1-2.5,6.6
			c-0.1,0.3-0.5,1.1,0.9,0.9c-0.8,2.4-1.3,5.2-0.1,7.6c0.4,1.1-0.5,2.5,0,3.5c0.9,1.6,0,3.7,0.8,5.3c0.3,0.2,1.1,0.4,1.1,0.6
			c-0.2,1.3,0.4,2.3,1.3,3.1c0.9,0.7,2,1.2,2.9,1.7c0.3,0.2,0.6,0.4,0.9,0.6c0.3,0.2,0.5,0.4,0.7,0.6c0.5-0.3,0.5-0.2,0.8-0.2
			c0.1,0.1,0.2,0.3,0.3,0.6c0.1,0.3,0.2,0.7,0.4,1.1c0.1,0.4,0.3,0.8,0.4,1.2c0.1,0.4,0.2,0.7,0.1,0.9c0,0.2-1.3-0.4-2.5-1.2
			c-1.2-0.8-2.3-2-2.6-1.8c-0.1,0.2,0.5,1,1.3,1.8c0.4,0.4,0.8,0.7,1.1,1c0.3,0.3,0.6,0.5,0.6,0.5c-2-0.5-3.6-1.3-4.9-2.1
			c-1.3-0.8-2.3-1.6-3-2.2c-1.4-1.2-1.9-1.5-1.8-1.2c0.1,0.3,0.8,1.2,1.8,2.1c1,1,2.4,2,3.7,2.6c0.2,0.3,0.7,0.6,1.3,0.8
			c0.6,0.2,1.2,0.5,1.9,0.9c-0.3,0-0.6,0-1,0c-0.4,0-0.9,0-1.3,0c-0.9,0-1.8-0.2-2-0.3c-1.1-0.6-1.8-0.7-2.3-1
			c-0.6-0.3-1.1-0.7-1.7-1.9c-0.5-1-1.6-2.2-2.6-3.4c-1-1.2-2-2.4-2.5-3.2c1.3,0.7,4.2,2,4.6,3.3c-0.1-1.6-1-2.2-2.1-2.7
			c-1.1-0.6-2.2-1.2-2.6-2.8c-0.1-0.3-0.3-0.6-0.6-0.9c0-0.4,0.1-0.7,0.1-1.2c-0.6-2.6-2-4.6-2.1-7.3c0.1,0.2-0.6,0.5-0.6,0.7
			c-0.7,2.5,1.1,4,1.4,6.4c-0.1,0.5,1.1,0.9,1.2,1.3c0.3,0.9-0.1,2-0.1,3c-1.4-1.6-1.8-3.8-2.4-5.7c-0.2-0.4-1-0.7-1.4-0.9
			c0.1,0.9,0.3,1.8,0.6,2.7c0.6,1.6,1.9,3.2,3,4.8c1.1,1.6,2,3,1.8,4.6c0.1,0,0.2,0.1,0.3,0.2c0,0.1-0.1,0.1-0.1,0.2
			c0.2,0.4,0.4,1,0.3,1.7c-0.2-0.4-0.4-0.9-0.5-1.3c-1.8-1.2-2.7-3-3.4-4.7c-0.7-1.8-1.1-3.7-2-5.3c-0.5-0.7,0.3-2.2-0.2-2.9
			c-1.2-2.1-1.4-4.7-0.8-7.3c0.4-2.3,0.9-4.7,1.7-6.9c0.8-2.3,1.9-4.3,3.1-6.2c2.5-3.7,5.6-6.7,9.2-8.8c0.1-0.2,0.1-0.3,0.2-0.5
			c-0.2,0-0.3,0-0.5,0c0.2-0.1,0.4-0.1,0.6-0.2c0.5-0.8,1.2-1.5,2.3-1.7c0.6,0-0.4,0.5-0.1,1c0.2-0.1,0.4-0.2,0.4-0.2
			s0.2,0.2,0.4,0.4c0-0.2,0.3-0.1,0.6,0c-1.1,1.5-2,3.2-2.9,4.8c0.8,0.2,0.9-0.4,1.2-0.6c0.1-0.6,0.3-1.2,0.8-1.6
			c0.7-1.4,2.8-1.9,4-2.8c0.4-0.1,0.7-0.1,1.1-0.1c0.3,0,0.5,0.3,0.6,0.6C89.1,292.6,89.1,292.9,88.8,293z M70,312.2
			c0.3-0.7,0.8-1.3,1.3-2c0.1-0.2,0.1-0.4,0.2-0.7c0.1-0.3,0.1-0.6,0-0.9c0.5-1.2,1.2-2.3,1.8-3.3c-1.3,1-2.5,2.1-2.9,3.7
			c0.2-2,1.2-3.8,2.5-5.3c1.3-1.5,2.9-2.7,4.3-3.9c0.6-0.8,1.1-1.6,1.7-2.5c0.3-0.6,0.5-1.3,0.7-1.9c-3.4,3-7,6.6-9.4,11.5
			c-1.2,2.4-2,5.1-2.4,7.8c-0.4,2.7-0.4,5.3-0.1,7.8C68.4,319,68.7,315.6,70,312.2z M71,313.3c0,1.3,0.1,2.6,0.3,3.8
			c0.3,3.3,1,6.9,3.4,8.5c-1.4-2.6-2.7-5.4-3.4-8.5c0.1,1.5,0.2,1.7,0.2,1c0-0.7-0.2-2.2-0.4-4.3C71,313.8,71,313.6,71,313.3z"/>
		<path class="st0" d="M75.6,295.5c1.5-0.8,2.8-1.6,4.3-2.2c-1,0-2-0.1-2.9,0.1c-2.2,0.7-3.1,2.4-4.7,3.8c-2.3,2-4.1,4.5-5.3,7.4
			c-1.2,2.9-1.8,6.2-1.7,9.3c-0.1,0.3-0.1,1,0.2,1.5c0.4-3.9,1.2-8,3-11.4C70.2,300.6,72.6,297.7,75.6,295.5z"/>
		<path class="st0" d="M65.6,324.9c0.5,1,1,1.9,1.2,3c0.4-1.1,0.2-2.3,0-3.3c-0.4-1.3-0.8-2.6-1.1-4
			C65.4,322.1,65.3,323.5,65.6,324.9z"/>
		<path class="st0" d="M65.5,315.4c0,0.3-0.1,0.6-0.1,0.9c-0.1,1.5,0,2.9,0.3,4.2c0.3-1.6,0.7-3.2,1-4.7
			C66.1,316,65.7,315.7,65.5,315.4z"/>
	</g>
	<g class="st4">
		<path class="st0" d="M166.7,372.7c-2.8,4-5.7,6.7-8.5,9.4c-2.3,2-4.8,3.2-7.3,4.1c-1.2,0.5-2.5,0.9-3.7,1.3
			c-1.2,0.4-2.5,0.8-3.8,1.3c-2.7,0.9-5.3,1.7-8.3,2.3c-3.1,0.2-6.4,0-9.4-0.5c-3.1-0.5-6-1.2-8.8-1.9c-0.6-0.3-2.3-1.1-2.5,0.2
			c-5.4-2.4-10.2-5.4-15.4-8c-2.1-1.2-3.5-3.7-5.3-5.2c-1.6-1.2-2.8-2.8-3.8-4.5c-1-1.7-1.8-3.5-2.8-5.1c-0.4-0.4-1.6-1.1-1.7-1.6
			c-0.5-2.8-1.4-5.1-2.3-7.7c-0.9-2.5-1.7-5.1-2-7.7c-0.1-2-0.2-3.6,0.1-5.5c-0.6-0.3-0.4-0.7-0.5-1.3c0.1-0.7,0.9-2.9,1.9-4.8
			c1-2,2-3.7,2.4-3.9c0.2-0.1-0.5,3.3-1.1,7c-0.6,3.6-0.7,7.5-0.4,7.4c0.2-0.2,0.4-2.7,0.9-5.1c0.4-2.5,1-4.9,1.1-5.3
			c-0.2,4.4-0.1,8,0.2,10.9c0.4,2.9,1,5,1.5,6.4c0.5,1.5,1,2.3,1.3,2.8c0.3,0.4,0.4,0.5,0.3,0.2c-0.1-0.5-0.8-2.2-1.4-4.6
			c-0.6-2.3-1-5.3-1.2-8c0.4-1.6-0.2-4.1,0.5-7.1c0,1,0.4,2.5,0.7,3.9c0.3,1.4,0.7,2.6,0.7,3c0.2,2.1,0.6,2.9,0.8,3.8
			c0.3,0.9,0.4,1.9,0.4,4c0,1.8,0.8,4,2,6c1.1,2,2.6,3.5,3.5,4.6c-0.8-0.3-2.2-1-3.3-2c-1.2-1-2.2-2.3-2.3-3.4
			c0.1,2.6,1.4,3.8,2.8,4.7c1.4,0.9,2.8,1.6,4.2,3.7c0.3,0.3,0.7,0.7,1.3,1c0.3,0.5,0.5,1,0.9,1.6c1.4,1.5,3.1,2.6,4.8,3.5
			c1.7,1,3.4,1.8,5.2,2.9c-0.3-0.1-0.2-0.8-0.5-1.1c-1.3-1.3-2.6-2.1-4.1-2.8c-1.4-0.8-2.9-1.6-4-2.9c-0.4-0.6-1.7-0.6-2.2-1.2
			c-1-1.1-1.3-2.6-1.7-3.9c2.1,1.7,4,4.2,6.3,5.9c0.5,0.3,1.5,0.2,2.1,0.2c-1-0.8-1.9-1.6-2.9-2.5c-1.7-1.4-4-2.9-5.7-4.7
			c-1.7-1.8-2.8-4-2.3-5.8c-0.1-0.1-0.1-0.2-0.3-0.3c0.1-0.1,0.1-0.1,0.1-0.2c-0.1-0.3-0.1-0.6-0.1-1c0-0.3,0.1-0.7,0.3-1.1
			c0,0.6,0.1,1.1,0.1,1.7c1.5,1.9,2.4,3.8,3.7,5.7c1.2,1.9,2.7,3.9,4.7,5.3c0.9,0.5,1.6,2.5,2.7,2.9c3,1.3,5.8,3.1,8.9,5.2
			c2.7,1.7,5.8,3.3,8.9,4.5c3.1,1.3,6.2,2.2,9.5,2.5c3.3,0.2,6.9-0.3,10.5-1.1c3.6-0.8,7.2-1.7,10.8-3.2c0.3-0.2,0.5-0.5,0.8-0.7
			c-0.2,0-0.4,0-0.6,0c0.3-0.1,0.7-0.2,1-0.3c1.5-1.3,3-2.5,4.9-3.5c0.9-0.3-0.9,1.1-1,1.9c0.4-0.3,0.8-0.6,0.8-0.6s0.2,0.3,0.3,0.5
			c0.1-0.4,0.6-0.3,0.9-0.3c-3.1,3.6-6.8,6.4-10.6,8.5c0.8,0.4,1.9-0.4,2.5-0.6c1.2-1,2.3-1.9,3.6-2.6c1.5-1.3,3.2-2.4,4.9-3.7
			c1.7-1.3,3.4-2.8,4.7-4.7c0.6-0.6,1.2-1.2,1.9-1.8c0.2-0.1,0.3-0.1,0.4,0c0.1,0.1,0.1,0.1,0.1,0.2c0,0.1,0,0.3,0,0.4
			C167.6,371,167.3,372,166.7,372.7z M115.5,379.8c0.9,0.7,1.8,1.5,2.7,2.2c0.4,0.2,0.7,0.3,1.1,0.5c0.4,0.2,0.9,0.3,1.5,0.3
			c1.9,0.9,3.9,1.7,6,2.3c-2.1-1.3-4-2.6-6.4-3.4c3.2,0.8,6,1.9,9.1,2.8c3.1,0.8,6.6,1.2,10,0.8c2-0.5,3.9-1.2,5.8-2
			c1.3-0.6,2.5-1.4,3.7-2.2c-2.1,0.8-4.3,1.4-6.4,1.9c-2.2,0.5-4.4,0.9-6.5,1.1c-4.4,0.4-8.5-0.6-12.2-2.1
			c-3.7-1.5-7.5-3.4-10.8-5.4c-3.4-2-6.4-4.2-9.1-6.5C106.7,373.8,110.9,376.8,115.5,379.8z M113.4,380c-2-0.8-3.9-1.7-5.8-2.5
			c-2.5-1.4-4.9-3-7.1-4.5c-2.2-1.5-4.2-2.9-6.1-3.7c3.8,3.5,8.4,6,13.2,8.2c-2.2-1.2-2.5-1.4-1.6-0.8c1,0.6,3.3,1.9,6.5,3.1
			C112.7,379.7,113,379.8,113.4,380z"/>
		<path class="st0" d="M144.1,379.5c2.6-0.3,5.3-0.8,8-1.5c-1.3-0.2-2.5-0.4-3.8-0.4c-1.7,0.1-3.2,0.5-4.8,0.9
			c-1.6,0.4-3.1,0.9-4.7,1c-2.2,0.2-4.4,0.3-6.4,0.1c-1.9-0.1-3.7-0.5-5.6-1c-1.9-0.5-3.8-1.1-5.8-1.8c-2-0.7-4-1.5-6-2.3
			c-0.4-0.2-1.2-0.6-1.9-0.7c2.3,1.3,4.7,2.5,7.2,3.6c2.5,1,4.9,1.9,7.3,2.5c2.4,0.6,4.8,0.8,7.6,0.7
			C138.2,380.5,141.1,380,144.1,379.5z"/>
		<path class="st0" d="M103.5,366.2c-1.1-0.7-2.2-1.5-2.9-2.4c0.2,1.3,1.2,2.5,2.1,3.4c1.4,1.1,3,2.1,4.6,3.1
			C106,368.8,104.8,367.4,103.5,366.2z"/>
		<path class="st0" d="M113.2,373.9c-0.4-0.2-0.7-0.4-1.1-0.7c-1.6-1-3.3-2-4.9-3c1.4,1.5,2.9,3,4.7,4.4
			C112.3,374.1,112.7,373.9,113.2,373.9z"/>
	</g>
	<g class="st8">
		<g>
			<path class="st9" d="M572.8,304.5c2.1-22.1-6.6-42.7-21.7-56.7c3.7,10,5.3,21,4.2,32.3c-2.6,28.4-21,51.5-45.7,61.6
				c-0.1,1.6-0.2,3.2-0.3,4.8c-5.4,58.1-56.9,100.9-115,95.5c-5.5-0.5-10.9-1.5-16.2-2.8c13,8.6,28.3,14.2,45,15.8
				c54,5,101.9-34.7,107-88.8c0.1-1.5,0.2-3,0.3-4.5C553.2,352.5,570.3,330.9,572.8,304.5z"/>
		</g>
	</g>
	<g class="st4">
		<path class="st0" d="M531.3,387.6c0.4-2.5,0.3-4.8-0.3-7.1c-0.7-3.5,0.1-7-0.6-10.9c-0.1-1-0.4-1.9-0.6-2.7
			c-0.3-0.9-0.6-1.7-1-2.6c-0.3-1.9-0.9-3.9-1.8-5.8c-0.9-1.9-1.9-3.7-3.3-5.4c-0.2-0.4-0.8-1.8-1.8-0.7c-2.2-3.7-4.8-7.3-8.7-9.6
			c-1.5-1-2.4-3.1-4-4.1c-2.7-1.4-4.3-4.3-6.9-5.7c-0.5,0-1.6,0.1-1.8-0.1c-1.4-1.6-3.2-2.3-5-2.7c-1.9-0.3-3.8-0.3-5.5-0.3
			c-0.3,0-0.6-0.1-1-0.1c-0.3,0-0.6,0-0.9,0c-0.6,0-1.1-0.1-1.7-0.2c-0.2,0.6-0.5,0.4-0.8,0.6c-0.2,0-0.7-0.2-1.2-0.4
			c-0.6-0.2-1.3-0.5-2-0.7c-0.3-0.1-0.7-0.2-1-0.4c-0.3-0.1-0.7-0.2-0.9-0.3c-0.6-0.2-1-0.4-1.2-0.6c-0.1-0.1,2.4-0.7,5.1-0.7
			c2.7,0,5.5,0.5,5.4,0.1c0-0.1-0.5-0.3-1.2-0.4c-0.7-0.2-1.6-0.3-2.6-0.4c-0.9-0.1-1.9-0.1-2.6-0.2c-0.8,0-1.3,0-1.5,0
			c3.3-0.9,6.3-1,8.7-1c1.2,0.1,2.3,0.1,3.3,0.2c1,0.1,1.8,0.2,2.5,0.3c1.4,0.2,2.3,0.4,2.8,0.4c0.5,0,0.6,0,0.4-0.1
			c-0.2-0.1-0.8-0.3-1.5-0.5c-0.8-0.2-1.7-0.4-2.8-0.7c-2.2-0.4-4.9-0.6-7.1-0.4c-0.7-0.2-1.5-0.1-2.5,0c-1,0.2-2.1,0.3-3.4,0.4
			c0.4-0.1,0.9-0.4,1.4-0.6c0.5-0.2,1.1-0.5,1.7-0.8c1.2-0.5,2.3-0.9,2.7-0.9c1-0.1,1.6-0.1,2.2-0.2c0.6-0.1,1-0.2,1.5-0.2
			c0.9-0.1,1.9,0,3.9,0.8c0.8,0.3,1.8,0.7,2.9,1c1.1,0.3,2.3,0.6,3.4,1c2.3,0.7,4.6,1.4,5.9,2.1c-1.9,0-6.2,0.1-8.1-1.1
			c1.9,1.6,3.4,1.7,5.1,1.8c1.6,0,3.4,0.1,5.5,1.7c0.4,0.3,0.9,0.5,1.5,0.7c0.4,0.5,0.8,0.9,1.2,1.4c3.3,2.6,6.8,4.1,9.8,7.1
			c-0.3-0.2,0-0.9-0.3-1.2c-2.1-3.3-5.3-4-8.2-6.5c-0.5-0.6-1.9-0.4-2.5-0.8c-1.3-0.9-2.1-2.2-3.2-3.3c3,0.9,5.7,3.2,8.3,5
			c0.6,0.3,1.6,0.3,2.2,0.3c-1.1-0.9-2.3-1.9-3.5-2.8c-2.2-1.4-5.2-2.5-7.9-3.6c-2.7-1.1-5.2-2.1-6.6-3.8c-0.1,0-0.3,0-0.5,0
			c0-0.1-0.1-0.2-0.1-0.2c-0.7-0.3-1.5-0.8-2.1-1.5c0.6,0.3,1.3,0.6,1.9,1c3,0.2,5.8,1.5,8.3,3c2.6,1.5,5,3.3,7.5,4.7
			c1.2,0.5,2.2,2.7,3.4,3.2c3.3,1.7,6.2,4.5,8.4,7.9c2.1,2.9,4,6,5.5,9.3c1.5,3.3,2.7,6.6,3.4,9.9c1.5,6.7,1.7,13.4,0.6,19.6
			c0.1,0.3,0.1,0.5,0.2,0.8c0.1-0.1,0.2-0.3,0.4-0.4c-0.1,0.3-0.2,0.6-0.3,0.8c0.2,1.5,0.2,3.1-0.5,4.6c-0.4,0.6-0.1-1.1-0.6-1.5
			c-0.1,0.3-0.1,0.7-0.1,0.7s-0.3,0-0.6-0.1c0.2,0.2-0.2,0.4-0.4,0.6c-0.2-3.2-0.7-6.4-1.4-9.6c-0.7,0.5-0.4,1.4-0.4,1.9
			c0.4,1,0.7,2,0.6,3c0.5,2.7-0.7,5.6-1.1,8.1c-0.2,0.5-0.5,0.9-0.8,1.4c-0.2,0.3-0.6,0.1-0.8-0.2
			C531.3,388.6,531.1,388.1,531.3,387.6z M527.8,345.3c0.4,1,0.7,2.1,1,3.2c0.2,0.3,0.4,0.6,0.5,0.9c0.2,0.4,0.5,0.8,0.9,1.1
			c0.4,0.9,0.7,1.8,1.1,2.7c0.3,0.9,0.6,1.8,0.9,2.8c0-1.1,0-2.2-0.2-3.3c-0.2-1.1-0.6-2.2-1.2-3.3c1.9,2.6,2.8,5.5,3.2,8.4
			c0.5,2.9,0.4,5.8,0.5,8.7c0.3,1.6,0.6,3.2,0.9,4.9c0.3,1.1,0.6,2.2,1,3.3c0.1-7.3-0.5-15.1-3.3-22.8c-1.4-3.8-3.5-7.5-5.9-10.9
			c-2.4-3.3-5.2-6.3-8.2-9C522,336.4,525.3,340.5,527.8,345.3z M525.9,344.6c-1.3-1.6-2.8-3-4.3-4.2c-3.9-3.7-8.4-7.4-12.4-7.8
			c4.2,2.2,8.5,4.6,12.4,7.8c-1.8-1.7-2-1.9-1.3-1.1c0.8,0.8,2.6,2.4,4.9,4.8C525.4,344.1,525.6,344.3,525.9,344.6z"/>
		<path class="st0" d="M539,371c-0.4,2.4-0.8,4.7-1.4,7c0.8-0.9,1.5-1.8,2-2.9c1-2.9,0.4-6,0.4-9c0-4.4-0.8-9-2.5-13.4
			c-0.9-2.2-2-4.4-3.2-6.4c-1.3-2-2.8-4-4.3-5.8c-0.3-0.4-0.9-1.2-1.6-1.6c3.7,4.7,6.9,10,8.7,15.5C538.8,359.8,539.5,365.4,539,371
			z"/>
		<path class="st0" d="M518,328.2c-1.5-0.8-3-1.6-4.2-2.6c0.8,1.4,2.3,2.7,3.5,3.7c1.8,1.3,3.6,2.5,5.3,3.9
			C521.3,331.3,519.8,329.6,518,328.2z"/>
		<path class="st0" d="M528.2,338.9c-0.3-0.4-0.6-0.7-0.9-1.1c-1.4-1.7-3-3.3-4.7-4.6c1.4,1.9,2.8,4,4.1,6
			C527.2,338.6,527.7,338.7,528.2,338.9z"/>
	</g>
	<ellipse class="st6" cx="260.5" cy="196.7" rx="15.3" ry="25.2"/>
	<g>
		
			<image style="overflow:visible;opacity:5.000000e-02;" width="96" height="97" xlink:href="D50F1592.png"  transform="matrix(1 0 0 1 288.6397 134.643)">
		</image>
		<g>
			<path class="st0" d="M379.6,186.9c0,21.4-17.4,38.8-38.8,38.8c-11.5,0-21.9-5-29-13c-6.1-6.9-9.8-15.9-9.8-25.8
				c0-21.4,17.4-38.8,38.8-38.8c10.3,0,19.7,4,26.6,10.6C375,165.8,379.6,175.8,379.6,186.9z"/>
		</g>
	</g>
	<ellipse class="st6" cx="328.8" cy="196.7" rx="15.3" ry="25.2"/>
	<path class="st6" d="M267.6,279.2c-0.3,0-0.5-0.1-0.8-0.2c-0.7-0.4-1-1.3-0.5-2.1c9.2-15.7,27.4-26.6,49.9-29.9
		c21.7-3.2,43-1.5,60.1,4.8c0.8,0.3,1.2,1.1,0.9,1.9c-0.3,0.8-1.1,1.2-1.9,0.9c-16.6-6.1-37.4-7.8-58.6-4.7
		c-21.6,3.2-39,13.6-47.8,28.5C268.6,279,268.1,279.2,267.6,279.2z"/>
	<g>
		<path class="st2" d="M503.9,333c2.1-2,4.1-4,5.7-5.7c5.8-6.3-7.7-8.8-19.6-10.8c-0.4-0.1-0.8-0.2-1.2-0.2
			c-4.4-5.9-8.3-12.4-11.6-19.3c-9.9-20.7-13.2-42.9-10.8-64.1c0.5-4.4-2.2-6.2-6-3.9c-42.6,24.8-59.4,78.8-37.1,123.9
			c22.5,45.5,77.6,65.2,123.9,44.3c13-5.9,24-14.3,32.7-24.4c3-3.5,0.7-8.8-3.9-9.1C549.3,361.8,523.8,351.1,503.9,333z"/>
		<path class="st6" d="M446.7,301.7c1.8,4.9,7.4,7.3,12.2,5.7c2.5-0.8,4.6-2.7,5.7-5.1c1-2.3,1.2-4.9,0.8-7.4
			c-0.3-1.9-3.3-1.5-3,0.4c0.3,1.8,0.2,3.7-0.4,5.4c-0.7,1.9-2.1,3.2-4,3.9c-3.4,1.3-7.3-0.6-8.6-4
			C448.8,298.7,446,299.9,446.7,301.7L446.7,301.7z"/>
		<path class="st6" d="M434,297.4c6-4.9,12.5-9,19.5-12.1c1.8-0.8,0.6-3.6-1.2-2.8c-7.3,3.2-14.1,7.4-20.2,12.5
			C430.6,296.3,432.5,298.6,434,297.4L434,297.4z"/>
		<path class="st6" d="M474.3,360.7c4.6-6.7,11.1-11.8,18.7-14.7c8.3-3.1,17.7-3.1,26-0.3c1.8,0.6,3-2.1,1.2-2.8
			c-13.8-4.7-29.3-2-40.6,7.4c-3,2.5-5.6,5.3-7.8,8.5C470.9,360.4,473.2,362.3,474.3,360.7L474.3,360.7z"/>
		<path class="st10" d="M446.3,356.8c-16-18.9-23.8-41.9-23.9-64.8c0-2-2.9-2.3-3.3-0.3c-5.8,26.3,0.4,54.9,19.1,77
			c23.7,28,61,37.8,94,27.8c2.5-0.8,1.8-4.6-0.8-4.4C500.1,394.7,468.1,382.6,446.3,356.8z"/>
		<g>
			<g>
				<g>
					<path class="st10" d="M592.6,308l0.1,0.3l-4.7,27.8l14.7-6.8l1.6,3.5l-21.1,9.8l-0.1-0.3l4.5-27.8l-13.9,6.4l-1.6-3.5
						L592.6,308z"/>
				</g>
				<g>
					<path class="st10" d="M619.2,313.3l0.1,0.2l-5.2,19.6l11-3.9l0.9,2.6l-15.8,5.6l-0.1-0.2l5.1-19.6l-10.3,3.7l-0.9-2.6
						L619.2,313.3z"/>
				</g>
				<g>
					<path class="st10" d="M642.1,322.2l0,0.2l-8,14.8l9.6-1l0.2,2.3l-13.8,1.5l0-0.2l7.9-14.8l-9.1,1l-0.2-2.3L642.1,322.2z"/>
				</g>
				<circle class="st10" cx="647.9" cy="337.9" r="1.3"/>
				<circle class="st10" cx="653" cy="335.4" r="1.3"/>
				<circle class="st10" cx="658" cy="336.1" r="1.3"/>
			</g>
		</g>
	</g>
	<path class="st0" d="M537.7,256c-1-1.6-3.7-0.3-2.7,1.4c12.7,20.3,15.7,45.4,11,68.7c-4.6,23-16.9,44.8-35.6,59.2
		c-8.2,6.3-17.6,10.9-27.6,13.1c0.3-0.6,0.4-1.3,0.2-1.9c-0.5-2.6-4.4-4-8.6-3.2c-4.2,0.9-7.2,3.7-6.7,6.3s4.4,4,8.6,3.2
		c0.6-0.1,1.1-0.3,1.6-0.4c23.2-2.9,43-18.6,55.6-37.8c13.4-20.4,19.5-45.6,17-69.8C549.2,281,544.9,267.7,537.7,256z"/>
</g>
</svg>
